G04 #@! TF.GenerationSoftware,KiCad,Pcbnew,5.0.1-33cea8e~68~ubuntu18.04.1*
G04 #@! TF.CreationDate,2018-11-10T11:16:57+01:00*
G04 #@! TF.ProjectId,LPC82X_JDH20,4C50433832585F4A444832302E6B6963,rev?*
G04 #@! TF.SameCoordinates,Original*
G04 #@! TF.FileFunction,Copper,L1,Top,Signal*
G04 #@! TF.FilePolarity,Positive*
%FSLAX46Y46*%
G04 Gerber Fmt 4.6, Leading zero omitted, Abs format (unit mm)*
G04 Created by KiCad (PCBNEW 5.0.1-33cea8e~68~ubuntu18.04.1) date za 10 nov 2018 11:16:57 CET*
%MOMM*%
%LPD*%
G01*
G04 APERTURE LIST*
G04 #@! TA.AperFunction,EtchedComponent*
%ADD10C,0.200000*%
G04 #@! TD*
G04 #@! TA.AperFunction,SMDPad,CuDef*
%ADD11R,1.250000X1.000000*%
G04 #@! TD*
G04 #@! TA.AperFunction,SMDPad,CuDef*
%ADD12R,0.600000X0.500000*%
G04 #@! TD*
G04 #@! TA.AperFunction,SMDPad,CuDef*
%ADD13R,0.800000X0.750000*%
G04 #@! TD*
G04 #@! TA.AperFunction,SMDPad,CuDef*
%ADD14R,0.500000X0.600000*%
G04 #@! TD*
G04 #@! TA.AperFunction,ComponentPad*
%ADD15R,1.300000X1.300000*%
G04 #@! TD*
G04 #@! TA.AperFunction,ComponentPad*
%ADD16C,1.300000*%
G04 #@! TD*
G04 #@! TA.AperFunction,ComponentPad*
%ADD17R,0.750000X0.750000*%
G04 #@! TD*
G04 #@! TA.AperFunction,ComponentPad*
%ADD18C,0.750000*%
G04 #@! TD*
G04 #@! TA.AperFunction,SMDPad,CuDef*
%ADD19R,0.600000X0.600000*%
G04 #@! TD*
G04 #@! TA.AperFunction,SMDPad,CuDef*
%ADD20R,0.400000X0.600000*%
G04 #@! TD*
G04 #@! TA.AperFunction,SMDPad,CuDef*
%ADD21R,1.400000X1.200000*%
G04 #@! TD*
G04 #@! TA.AperFunction,SMDPad,CuDef*
%ADD22R,0.400000X1.350000*%
G04 #@! TD*
G04 #@! TA.AperFunction,SMDPad,CuDef*
%ADD23R,0.600000X1.350000*%
G04 #@! TD*
G04 #@! TA.AperFunction,ViaPad*
%ADD24C,0.550000*%
G04 #@! TD*
G04 #@! TA.AperFunction,ViaPad*
%ADD25C,0.381000*%
G04 #@! TD*
G04 #@! TA.AperFunction,Conductor*
%ADD26C,0.600000*%
G04 #@! TD*
G04 #@! TA.AperFunction,Conductor*
%ADD27C,0.200000*%
G04 #@! TD*
G04 #@! TA.AperFunction,Conductor*
%ADD28C,0.400000*%
G04 #@! TD*
G04 #@! TA.AperFunction,Conductor*
%ADD29C,0.254000*%
G04 #@! TD*
G04 APERTURE END LIST*
D10*
G04 #@! TO.C,SJ1*
X138150000Y-110600000D02*
X137550000Y-110600000D01*
G04 #@! TD*
D11*
G04 #@! TO.P,C1,1*
G04 #@! TO.N,VSS*
X139600000Y-93100000D03*
G04 #@! TO.P,C1,2*
G04 #@! TO.N,VDD*
X139600000Y-91100000D03*
G04 #@! TD*
D12*
G04 #@! TO.P,C2,2*
G04 #@! TO.N,VSS*
X131150000Y-107950000D03*
G04 #@! TO.P,C2,1*
G04 #@! TO.N,/PIO0_9*
X130050000Y-107950000D03*
G04 #@! TD*
D13*
G04 #@! TO.P,C3,1*
G04 #@! TO.N,Net-(C3-Pad1)*
X133450000Y-108000000D03*
G04 #@! TO.P,C3,2*
G04 #@! TO.N,VSS*
X134950000Y-108000000D03*
G04 #@! TD*
G04 #@! TO.P,C4,2*
G04 #@! TO.N,Net-(C4-Pad2)*
X137850000Y-108000000D03*
G04 #@! TO.P,C4,1*
G04 #@! TO.N,Net-(C4-Pad1)*
X136350000Y-108000000D03*
G04 #@! TD*
D12*
G04 #@! TO.P,C5,1*
G04 #@! TO.N,/PIO0_8*
X131250000Y-112550000D03*
G04 #@! TO.P,C5,2*
G04 #@! TO.N,VSS*
X130150000Y-112550000D03*
G04 #@! TD*
G04 #@! TO.P,C6,2*
G04 #@! TO.N,VSS*
X135050000Y-106600000D03*
G04 #@! TO.P,C6,1*
G04 #@! TO.N,Net-(C3-Pad1)*
X133950000Y-106600000D03*
G04 #@! TD*
G04 #@! TO.P,C7,1*
G04 #@! TO.N,Net-(C4-Pad1)*
X136250000Y-106600000D03*
G04 #@! TO.P,C7,2*
G04 #@! TO.N,Net-(C4-Pad2)*
X137350000Y-106600000D03*
G04 #@! TD*
D14*
G04 #@! TO.P,FB1,1*
G04 #@! TO.N,Net-(C3-Pad1)*
X133450000Y-109350000D03*
G04 #@! TO.P,FB1,2*
G04 #@! TO.N,Net-(FB1-Pad2)*
X133450000Y-110450000D03*
G04 #@! TD*
G04 #@! TO.P,FB2,2*
G04 #@! TO.N,Net-(FB1-Pad2)*
X136300000Y-110450000D03*
G04 #@! TO.P,FB2,1*
G04 #@! TO.N,Net-(C4-Pad1)*
X136300000Y-109350000D03*
G04 #@! TD*
D12*
G04 #@! TO.P,FB3,1*
G04 #@! TO.N,Net-(C4-Pad2)*
X137500000Y-109350000D03*
G04 #@! TO.P,FB3,2*
G04 #@! TO.N,VSS*
X138600000Y-109350000D03*
G04 #@! TD*
D15*
G04 #@! TO.P,J1,1*
G04 #@! TO.N,VSS*
X127000000Y-91440000D03*
D16*
G04 #@! TO.P,J1,2*
G04 #@! TO.N,/PIO0_4*
X127000000Y-93980000D03*
G04 #@! TO.P,J1,3*
G04 #@! TO.N,/PIO0_3*
X127000000Y-96520000D03*
G04 #@! TO.P,J1,4*
G04 #@! TO.N,/PIO0_2*
X127000000Y-99060000D03*
G04 #@! TO.P,J1,5*
G04 #@! TO.N,/PIO0_11*
X127000000Y-101600000D03*
G04 #@! TO.P,J1,6*
G04 #@! TO.N,/PIO0_10*
X127000000Y-104140000D03*
G04 #@! TO.P,J1,7*
G04 #@! TO.N,/PIO0_15*
X127000000Y-106680000D03*
G04 #@! TO.P,J1,8*
G04 #@! TO.N,/PIO0_1*
X127000000Y-109220000D03*
G04 #@! TO.P,J1,9*
G04 #@! TO.N,/PIO0_9*
X127000000Y-111760000D03*
G04 #@! TD*
D17*
G04 #@! TO.P,J2,1*
G04 #@! TO.N,VDD*
X135740000Y-91065000D03*
D18*
G04 #@! TO.P,J2,2*
G04 #@! TO.N,Net-(J2-Pad2)*
X135740000Y-92335000D03*
G04 #@! TO.P,J2,3*
G04 #@! TO.N,VSS*
X134470000Y-91065000D03*
G04 #@! TO.P,J2,4*
G04 #@! TO.N,Net-(J2-Pad4)*
X134470000Y-92335000D03*
G04 #@! TO.P,J2,5*
G04 #@! TO.N,VSS*
X133200000Y-91065000D03*
G04 #@! TO.P,J2,6*
G04 #@! TO.N,N/C*
X133200000Y-92335000D03*
G04 #@! TO.P,J2,7*
X131930000Y-91065000D03*
G04 #@! TO.P,J2,8*
X131930000Y-92335000D03*
G04 #@! TO.P,J2,9*
G04 #@! TO.N,VSS*
X130660000Y-91065000D03*
G04 #@! TO.P,J2,10*
G04 #@! TO.N,Net-(J2-Pad10)*
X130660000Y-92335000D03*
G04 #@! TD*
D16*
G04 #@! TO.P,J3,9*
G04 #@! TO.N,VDD*
X142240000Y-91440000D03*
G04 #@! TO.P,J3,8*
G04 #@! TO.N,/RESET*
X142240000Y-93980000D03*
G04 #@! TO.P,J3,7*
G04 #@! TO.N,/PIO0_12*
X142240000Y-96520000D03*
G04 #@! TO.P,J3,6*
G04 #@! TO.N,/PIO0_13*
X142240000Y-99060000D03*
G04 #@! TO.P,J3,5*
G04 #@! TO.N,/PIO0_17*
X142240000Y-101600000D03*
G04 #@! TO.P,J3,4*
G04 #@! TO.N,/PIO0_23*
X142240000Y-104140000D03*
G04 #@! TO.P,J3,3*
G04 #@! TO.N,/PIO0_14*
X142240000Y-106680000D03*
G04 #@! TO.P,J3,2*
G04 #@! TO.N,/PIO0_0*
X142240000Y-109220000D03*
D15*
G04 #@! TO.P,J3,1*
G04 #@! TO.N,/PIO0_8*
X142240000Y-111760000D03*
G04 #@! TD*
D19*
G04 #@! TO.P,R1,2*
G04 #@! TO.N,/RESET*
X131450000Y-95300000D03*
G04 #@! TO.P,R1,1*
G04 #@! TO.N,VDD*
X130350000Y-95300000D03*
G04 #@! TD*
G04 #@! TO.P,R2,1*
G04 #@! TO.N,VDD*
X136050000Y-95300000D03*
G04 #@! TO.P,R2,2*
G04 #@! TO.N,/PIO0_2*
X134950000Y-95300000D03*
G04 #@! TD*
G04 #@! TO.P,R3,2*
G04 #@! TO.N,/PIO0_3*
X132650000Y-95300000D03*
G04 #@! TO.P,R3,1*
G04 #@! TO.N,VSS*
X133750000Y-95300000D03*
G04 #@! TD*
G04 #@! TO.P,R4,2*
G04 #@! TO.N,/PIO0_2*
X134950000Y-94000000D03*
G04 #@! TO.P,R4,1*
G04 #@! TO.N,Net-(J2-Pad2)*
X136050000Y-94000000D03*
G04 #@! TD*
G04 #@! TO.P,R5,1*
G04 #@! TO.N,Net-(J2-Pad4)*
X133750000Y-94000000D03*
G04 #@! TO.P,R5,2*
G04 #@! TO.N,/PIO0_3*
X132650000Y-94000000D03*
G04 #@! TD*
G04 #@! TO.P,R6,1*
G04 #@! TO.N,Net-(J2-Pad10)*
X130350000Y-94000000D03*
G04 #@! TO.P,R6,2*
G04 #@! TO.N,/RESET*
X131450000Y-94000000D03*
G04 #@! TD*
D20*
G04 #@! TO.P,SJ1,1*
G04 #@! TO.N,VDD*
X138300000Y-110600000D03*
G04 #@! TO.P,SJ1,2*
G04 #@! TO.N,Net-(FB1-Pad2)*
X137400000Y-110600000D03*
G04 #@! TD*
D21*
G04 #@! TO.P,Y1,1*
G04 #@! TO.N,/PIO0_9*
X129500000Y-109400000D03*
G04 #@! TO.P,Y1,2*
G04 #@! TO.N,VSS*
X131700000Y-109400000D03*
G04 #@! TO.P,Y1,3*
G04 #@! TO.N,/PIO0_8*
X131700000Y-111100000D03*
G04 #@! TO.P,Y1,4*
G04 #@! TO.N,VSS*
X129500000Y-111100000D03*
G04 #@! TD*
D22*
G04 #@! TO.P,U1,15*
G04 #@! TO.N,Net-(C3-Pad1)*
X134295000Y-104525000D03*
G04 #@! TO.P,U1,16*
G04 #@! TO.N,VSS*
X134945000Y-104525000D03*
G04 #@! TO.P,U1,17*
G04 #@! TO.N,Net-(C4-Pad1)*
X135595000Y-104525000D03*
G04 #@! TO.P,U1,18*
G04 #@! TO.N,Net-(C4-Pad2)*
X136245000Y-104525000D03*
G04 #@! TO.P,U1,19*
G04 #@! TO.N,/PIO0_0*
X136895000Y-104525000D03*
D23*
G04 #@! TO.P,U1,20*
G04 #@! TO.N,/PIO0_14*
X137645000Y-104525000D03*
D22*
G04 #@! TO.P,U1,14*
G04 #@! TO.N,/PIO0_8*
X133645000Y-104525000D03*
G04 #@! TO.P,U1,13*
G04 #@! TO.N,/PIO0_9*
X132995000Y-104525000D03*
G04 #@! TO.P,U1,12*
G04 #@! TO.N,/PIO0_1*
X132345000Y-104525000D03*
D23*
G04 #@! TO.P,U1,11*
G04 #@! TO.N,/PIO0_15*
X131595000Y-104525000D03*
D22*
G04 #@! TO.P,U1,5*
G04 #@! TO.N,/RESET*
X134945000Y-98675000D03*
G04 #@! TO.P,U1,4*
G04 #@! TO.N,/PIO0_12*
X135595000Y-98675000D03*
G04 #@! TO.P,U1,3*
G04 #@! TO.N,/PIO0_13*
X136245000Y-98675000D03*
G04 #@! TO.P,U1,2*
G04 #@! TO.N,/PIO0_17*
X136895000Y-98675000D03*
D23*
G04 #@! TO.P,U1,1*
G04 #@! TO.N,/PIO0_23*
X137645000Y-98675000D03*
D22*
G04 #@! TO.P,U1,6*
G04 #@! TO.N,/PIO0_4*
X134295000Y-98675000D03*
G04 #@! TO.P,U1,7*
G04 #@! TO.N,/PIO0_3*
X133645000Y-98675000D03*
G04 #@! TO.P,U1,8*
G04 #@! TO.N,/PIO0_2*
X132995000Y-98675000D03*
G04 #@! TO.P,U1,9*
G04 #@! TO.N,/PIO0_11*
X132345000Y-98675000D03*
D23*
G04 #@! TO.P,U1,10*
G04 #@! TO.N,/PIO0_10*
X131595000Y-98675000D03*
G04 #@! TD*
D24*
G04 #@! TO.N,VSS*
X138500000Y-93100000D03*
D25*
X133750000Y-95950000D03*
X130600000Y-110200000D03*
D24*
X134950000Y-108750000D03*
X138800000Y-108600000D03*
G04 #@! TO.N,VDD*
X140850000Y-110600000D03*
X137900000Y-91100000D03*
D25*
X129500000Y-93550000D03*
X136900000Y-93550000D03*
G04 #@! TO.N,/PIO0_3*
X132650000Y-95950000D03*
X133500000Y-96900000D03*
G04 #@! TO.N,/PIO0_2*
X134350000Y-95950000D03*
X132800000Y-97400000D03*
G04 #@! TO.N,/RESET*
X132050000Y-94650000D03*
X135500000Y-96900000D03*
G04 #@! TD*
D26*
G04 #@! TO.N,VSS*
X139600000Y-93100000D02*
X138500000Y-93100000D01*
D27*
X133750000Y-95300000D02*
X133750000Y-95950000D01*
X131150000Y-107950000D02*
X131150000Y-108300000D01*
X131150000Y-108300000D02*
X131300000Y-108450000D01*
X131300000Y-108450000D02*
X131600000Y-108450000D01*
X131700000Y-108550000D02*
X131700000Y-109400000D01*
X131600000Y-108450000D02*
X131700000Y-108550000D01*
X130900000Y-110200000D02*
X131700000Y-109400000D01*
X130600000Y-110200000D02*
X130900000Y-110200000D01*
X130400000Y-110200000D02*
X129500000Y-111100000D01*
X130600000Y-110200000D02*
X130400000Y-110200000D01*
X130150000Y-112550000D02*
X130150000Y-112150000D01*
X130150000Y-112150000D02*
X130000000Y-112000000D01*
X130000000Y-112000000D02*
X129600000Y-112000000D01*
X129500000Y-111900000D02*
X129500000Y-111100000D01*
X129600000Y-112000000D02*
X129500000Y-111900000D01*
D28*
X134945000Y-104525000D02*
X134945000Y-105795000D01*
X135050000Y-105900000D02*
X135050000Y-106600000D01*
X134945000Y-105795000D02*
X135050000Y-105900000D01*
X135050000Y-106600000D02*
X135050000Y-107050000D01*
X134950000Y-107150000D02*
X134950000Y-108000000D01*
X135050000Y-107050000D02*
X134950000Y-107150000D01*
X134950000Y-108000000D02*
X134950000Y-108750000D01*
X138600000Y-109350000D02*
X138600000Y-108800000D01*
X138600000Y-108800000D02*
X138800000Y-108600000D01*
D26*
G04 #@! TO.N,VDD*
X142240000Y-91440000D02*
X141340000Y-91440000D01*
X141000000Y-91100000D02*
X139600000Y-91100000D01*
X141340000Y-91440000D02*
X141000000Y-91100000D01*
X135740000Y-91065000D02*
X136365000Y-91065000D01*
X136365000Y-91065000D02*
X136400000Y-91100000D01*
D28*
X138300000Y-110600000D02*
X139600000Y-110600000D01*
X139600000Y-110600000D02*
X140850000Y-110600000D01*
D26*
X136400000Y-91100000D02*
X137900000Y-91100000D01*
X137900000Y-91100000D02*
X139600000Y-91100000D01*
D27*
X130350000Y-95300000D02*
X129900000Y-95300000D01*
X129900000Y-95300000D02*
X129500000Y-94900000D01*
X129500000Y-94900000D02*
X129500000Y-93550000D01*
X136050000Y-95300000D02*
X136500000Y-95300000D01*
X136500000Y-95300000D02*
X136900000Y-94900000D01*
X136900000Y-94900000D02*
X136900000Y-93550000D01*
G04 #@! TO.N,/PIO0_9*
X129600000Y-108450000D02*
X129500000Y-108550000D01*
X129900000Y-108450000D02*
X129600000Y-108450000D01*
X129500000Y-108550000D02*
X129500000Y-109400000D01*
X130050000Y-107950000D02*
X130050000Y-108300000D01*
X130050000Y-108300000D02*
X129900000Y-108450000D01*
X130050000Y-107000000D02*
X130050000Y-107950000D01*
X130750000Y-106300000D02*
X130050000Y-107000000D01*
X132200000Y-106300000D02*
X130750000Y-106300000D01*
X132995000Y-104525000D02*
X132995000Y-105505000D01*
X132995000Y-105505000D02*
X132200000Y-106300000D01*
X129500000Y-109400000D02*
X128600000Y-109400000D01*
X128600000Y-109400000D02*
X128200000Y-109800000D01*
X128200000Y-110560000D02*
X127000000Y-111760000D01*
X128200000Y-109800000D02*
X128200000Y-110560000D01*
D28*
G04 #@! TO.N,Net-(C3-Pad1)*
X134295000Y-104525000D02*
X134295000Y-105645000D01*
X133950000Y-105990000D02*
X133950000Y-106600000D01*
X134295000Y-105645000D02*
X133950000Y-105990000D01*
X133950000Y-106600000D02*
X133950000Y-107050000D01*
X133450000Y-107550000D02*
X133450000Y-108000000D01*
X133950000Y-107050000D02*
X133450000Y-107550000D01*
X133450000Y-109350000D02*
X133450000Y-108000000D01*
G04 #@! TO.N,Net-(C4-Pad2)*
X136245000Y-104525000D02*
X136245000Y-105495000D01*
X136245000Y-105495000D02*
X136650000Y-105900000D01*
X136650000Y-105900000D02*
X136850000Y-105900000D01*
X137350000Y-106400000D02*
X137350000Y-106600000D01*
X136850000Y-105900000D02*
X137350000Y-106400000D01*
X137350000Y-106600000D02*
X137350000Y-106950000D01*
X137850000Y-107450000D02*
X137850000Y-108000000D01*
X137350000Y-106950000D02*
X137850000Y-107450000D01*
X137850000Y-108000000D02*
X137850000Y-108450000D01*
X137500000Y-108800000D02*
X137500000Y-109350000D01*
X137850000Y-108450000D02*
X137500000Y-108800000D01*
G04 #@! TO.N,Net-(C4-Pad1)*
X135595000Y-104525000D02*
X135595000Y-105695000D01*
X135595000Y-105695000D02*
X135850000Y-105950000D01*
X135850000Y-106200000D02*
X136250000Y-106600000D01*
X135850000Y-105950000D02*
X135850000Y-106200000D01*
X136250000Y-106600000D02*
X136250000Y-107100000D01*
X136350000Y-107200000D02*
X136350000Y-108000000D01*
X136250000Y-107100000D02*
X136350000Y-107200000D01*
X136350000Y-108000000D02*
X136350000Y-108650000D01*
X136300000Y-108700000D02*
X136300000Y-109350000D01*
X136350000Y-108650000D02*
X136300000Y-108700000D01*
D27*
G04 #@! TO.N,/PIO0_8*
X133645000Y-104525000D02*
X133645000Y-105505000D01*
X133645000Y-105505000D02*
X132700000Y-106450000D01*
X132650000Y-111100000D02*
X132700000Y-111150000D01*
X131700000Y-111100000D02*
X132650000Y-111100000D01*
X132700000Y-106450000D02*
X132700000Y-111150000D01*
X131250000Y-112550000D02*
X131250000Y-112150000D01*
X131250000Y-112150000D02*
X131400000Y-112000000D01*
X131400000Y-112000000D02*
X131600000Y-112000000D01*
X131700000Y-111900000D02*
X131700000Y-111100000D01*
X131600000Y-112000000D02*
X131700000Y-111900000D01*
X132700000Y-111200000D02*
X132700000Y-111150000D01*
X142240000Y-111760000D02*
X133260000Y-111760000D01*
X133260000Y-111760000D02*
X132700000Y-111200000D01*
D28*
G04 #@! TO.N,Net-(FB1-Pad2)*
X133450000Y-110450000D02*
X136300000Y-110450000D01*
X136300000Y-110450000D02*
X136750000Y-110450000D01*
X136900000Y-110600000D02*
X137400000Y-110600000D01*
X136750000Y-110450000D02*
X136900000Y-110600000D01*
D27*
G04 #@! TO.N,/PIO0_4*
X134295000Y-98675000D02*
X134295000Y-96795000D01*
X134295000Y-96795000D02*
X133900000Y-96400000D01*
X129420000Y-96400000D02*
X127000000Y-93980000D01*
X133900000Y-96400000D02*
X129420000Y-96400000D01*
G04 #@! TO.N,/PIO0_3*
X132650000Y-94000000D02*
X132650000Y-95300000D01*
X132650000Y-95300000D02*
X132650000Y-95950000D01*
X128500000Y-96800000D02*
X128220000Y-96520000D01*
X133400000Y-96800000D02*
X128500000Y-96800000D01*
X133500000Y-96900000D02*
X133400000Y-96800000D01*
X128220000Y-96520000D02*
X127000000Y-96520000D01*
X133645000Y-97045000D02*
X133645000Y-98675000D01*
X133500000Y-96900000D02*
X133645000Y-97045000D01*
G04 #@! TO.N,/PIO0_2*
X134950000Y-94000000D02*
X134950000Y-95300000D01*
X132995000Y-98675000D02*
X132995000Y-97595000D01*
X132600000Y-97200000D02*
X130900000Y-97200000D01*
X129040000Y-99060000D02*
X127000000Y-99060000D01*
X130900000Y-97200000D02*
X129040000Y-99060000D01*
X134950000Y-95300000D02*
X134950000Y-95350000D01*
X134950000Y-95350000D02*
X134350000Y-95950000D01*
X132995000Y-97595000D02*
X132800000Y-97400000D01*
X132800000Y-97400000D02*
X132600000Y-97200000D01*
G04 #@! TO.N,/PIO0_11*
X132345000Y-98675000D02*
X132345000Y-97845000D01*
X132345000Y-97845000D02*
X132100000Y-97600000D01*
X132100000Y-97600000D02*
X131100000Y-97600000D01*
X127100000Y-101600000D02*
X127000000Y-101600000D01*
X131100000Y-97600000D02*
X127100000Y-101600000D01*
G04 #@! TO.N,/PIO0_10*
X131595000Y-98675000D02*
X130825000Y-98675000D01*
X130825000Y-98675000D02*
X128700000Y-100800000D01*
X128700000Y-102440000D02*
X127000000Y-104140000D01*
X128700000Y-100800000D02*
X128700000Y-102440000D01*
G04 #@! TO.N,/PIO0_15*
X128320000Y-106680000D02*
X127000000Y-106680000D01*
X130475000Y-104525000D02*
X128320000Y-106680000D01*
X130475000Y-104525000D02*
X131595000Y-104525000D01*
G04 #@! TO.N,/PIO0_1*
X132345000Y-104525000D02*
X132345000Y-105455000D01*
X132345000Y-105455000D02*
X132100000Y-105700000D01*
X132100000Y-105700000D02*
X129900000Y-105700000D01*
X129900000Y-105700000D02*
X128700000Y-106900000D01*
X128700000Y-107520000D02*
X127000000Y-109220000D01*
X128700000Y-106900000D02*
X128700000Y-107520000D01*
G04 #@! TO.N,Net-(J2-Pad2)*
X135740000Y-92335000D02*
X135740000Y-92940000D01*
X136050000Y-93250000D02*
X136050000Y-94000000D01*
X135740000Y-92940000D02*
X136050000Y-93250000D01*
G04 #@! TO.N,Net-(J2-Pad4)*
X134470000Y-92335000D02*
X134470000Y-93030000D01*
X134470000Y-93030000D02*
X134300000Y-93200000D01*
X134300000Y-93200000D02*
X133900000Y-93200000D01*
X133750000Y-93350000D02*
X133750000Y-94000000D01*
X133900000Y-93200000D02*
X133750000Y-93350000D01*
G04 #@! TO.N,Net-(J2-Pad10)*
X130660000Y-92335000D02*
X130660000Y-93040000D01*
X130350000Y-93350000D02*
X130350000Y-94000000D01*
X130660000Y-93040000D02*
X130350000Y-93350000D01*
G04 #@! TO.N,/RESET*
X131450000Y-94000000D02*
X131450000Y-95300000D01*
X134945000Y-98675000D02*
X134945000Y-97455000D01*
X139920000Y-96300000D02*
X142240000Y-93980000D01*
X136100000Y-96300000D02*
X139920000Y-96300000D01*
X131450000Y-95300000D02*
X131900000Y-95300000D01*
X131900000Y-95300000D02*
X132050000Y-95150000D01*
X132050000Y-95150000D02*
X132050000Y-94650000D01*
X134945000Y-97455000D02*
X135500000Y-96900000D01*
X135500000Y-96900000D02*
X136100000Y-96300000D01*
G04 #@! TO.N,/PIO0_12*
X135595000Y-98675000D02*
X135595000Y-97705000D01*
X135595000Y-97705000D02*
X136550000Y-96750000D01*
X142010000Y-96750000D02*
X142240000Y-96520000D01*
X136550000Y-96750000D02*
X142010000Y-96750000D01*
G04 #@! TO.N,/PIO0_13*
X136245000Y-98675000D02*
X136245000Y-97655000D01*
X136245000Y-97655000D02*
X136750000Y-97150000D01*
X136750000Y-97150000D02*
X138400000Y-97150000D01*
X140310000Y-99060000D02*
X142240000Y-99060000D01*
X138400000Y-97150000D02*
X140310000Y-99060000D01*
G04 #@! TO.N,/PIO0_17*
X142200000Y-101600000D02*
X142240000Y-101600000D01*
X138200000Y-97600000D02*
X142200000Y-101600000D01*
X136895000Y-98675000D02*
X136895000Y-97805000D01*
X137100000Y-97600000D02*
X138200000Y-97600000D01*
X136895000Y-97805000D02*
X137100000Y-97600000D01*
G04 #@! TO.N,/PIO0_23*
X138700000Y-100600000D02*
X142240000Y-104140000D01*
X138700000Y-99100000D02*
X138700000Y-100600000D01*
X137645000Y-98675000D02*
X138275000Y-98675000D01*
X138275000Y-98675000D02*
X138700000Y-99100000D01*
G04 #@! TO.N,/PIO0_14*
X137645000Y-104525000D02*
X137645000Y-105345000D01*
X137645000Y-105345000D02*
X137800000Y-105500000D01*
X137800000Y-105500000D02*
X138000000Y-105500000D01*
X139180000Y-106680000D02*
X142240000Y-106680000D01*
X138000000Y-105500000D02*
X139180000Y-106680000D01*
G04 #@! TO.N,/PIO0_0*
X136895000Y-104525000D02*
X136895000Y-105245000D01*
X136895000Y-105245000D02*
X137550000Y-105900000D01*
X137550000Y-105900000D02*
X137800000Y-105900000D01*
X141120000Y-109220000D02*
X142240000Y-109220000D01*
X137800000Y-105900000D02*
X141120000Y-109220000D01*
G04 #@! TD*
D29*
G04 #@! TO.N,VSS*
G36*
X130140468Y-90365863D02*
X130660000Y-90885395D01*
X131179532Y-90365863D01*
X131164700Y-90227000D01*
X132695300Y-90227000D01*
X132680468Y-90365863D01*
X133200000Y-90885395D01*
X133719532Y-90365863D01*
X133704700Y-90227000D01*
X133965300Y-90227000D01*
X133950468Y-90365863D01*
X134470000Y-90885395D01*
X134484143Y-90871253D01*
X134663748Y-91050858D01*
X134649605Y-91065000D01*
X134663748Y-91079143D01*
X134484143Y-91258748D01*
X134470000Y-91244605D01*
X134455858Y-91258748D01*
X134276253Y-91079143D01*
X134290395Y-91065000D01*
X134206512Y-90981117D01*
X134189477Y-90779699D01*
X134101404Y-90567072D01*
X133899137Y-90545468D01*
X133835000Y-90609605D01*
X133770863Y-90545468D01*
X133568596Y-90567072D01*
X133446662Y-90949927D01*
X133450406Y-90994199D01*
X133379605Y-91065000D01*
X133393748Y-91079143D01*
X133214143Y-91258748D01*
X133200000Y-91244605D01*
X133185858Y-91258748D01*
X133006253Y-91079143D01*
X133020395Y-91065000D01*
X132640877Y-90685482D01*
X132609903Y-90610704D01*
X132384296Y-90385097D01*
X132089528Y-90263000D01*
X131770472Y-90263000D01*
X131475704Y-90385097D01*
X131250097Y-90610704D01*
X131219123Y-90685482D01*
X130839605Y-91065000D01*
X130853748Y-91079143D01*
X130674143Y-91258748D01*
X130660000Y-91244605D01*
X130280482Y-91624123D01*
X130205704Y-91655097D01*
X129980097Y-91880704D01*
X129858000Y-92175472D01*
X129858000Y-92494528D01*
X129980097Y-92789296D01*
X130072756Y-92881955D01*
X130014055Y-92940655D01*
X129970055Y-92970055D01*
X129899270Y-93075992D01*
X129849786Y-93026508D01*
X129622828Y-92932500D01*
X129377172Y-92932500D01*
X129150214Y-93026508D01*
X128976508Y-93200214D01*
X128882500Y-93427172D01*
X128882500Y-93672828D01*
X128973001Y-93891319D01*
X128973000Y-94848102D01*
X128962677Y-94900000D01*
X128973000Y-94951898D01*
X128973000Y-94951902D01*
X129003577Y-95105624D01*
X129120055Y-95279945D01*
X129164055Y-95309345D01*
X129490655Y-95635945D01*
X129520055Y-95679945D01*
X129647472Y-95765083D01*
X129647775Y-95766607D01*
X129718864Y-95873000D01*
X129638291Y-95873000D01*
X128042591Y-94277300D01*
X128077000Y-94194229D01*
X128077000Y-93765771D01*
X127913037Y-93369928D01*
X127610072Y-93066963D01*
X127214229Y-92903000D01*
X126785771Y-92903000D01*
X126389928Y-93066963D01*
X126086963Y-93369928D01*
X125923000Y-93765771D01*
X125923000Y-94194229D01*
X126086963Y-94590072D01*
X126389928Y-94893037D01*
X126785771Y-95057000D01*
X127214229Y-95057000D01*
X127297300Y-95022591D01*
X128266669Y-95991960D01*
X128220000Y-95982677D01*
X128168102Y-95993000D01*
X127947446Y-95993000D01*
X127913037Y-95909928D01*
X127610072Y-95606963D01*
X127214229Y-95443000D01*
X126785771Y-95443000D01*
X126389928Y-95606963D01*
X126086963Y-95909928D01*
X125923000Y-96305771D01*
X125923000Y-96734229D01*
X126086963Y-97130072D01*
X126389928Y-97433037D01*
X126785771Y-97597000D01*
X127214229Y-97597000D01*
X127610072Y-97433037D01*
X127913037Y-97130072D01*
X127947446Y-97047000D01*
X128001710Y-97047000D01*
X128090654Y-97135944D01*
X128120055Y-97179945D01*
X128164055Y-97209345D01*
X128164056Y-97209346D01*
X128294374Y-97296423D01*
X128326387Y-97302791D01*
X128448097Y-97327000D01*
X128448101Y-97327000D01*
X128500000Y-97337323D01*
X128551899Y-97327000D01*
X130027709Y-97327000D01*
X128821710Y-98533000D01*
X127947446Y-98533000D01*
X127913037Y-98449928D01*
X127610072Y-98146963D01*
X127214229Y-97983000D01*
X126785771Y-97983000D01*
X126389928Y-98146963D01*
X126086963Y-98449928D01*
X125923000Y-98845771D01*
X125923000Y-99274229D01*
X126086963Y-99670072D01*
X126389928Y-99973037D01*
X126785771Y-100137000D01*
X127214229Y-100137000D01*
X127610072Y-99973037D01*
X127913037Y-99670072D01*
X127947446Y-99587000D01*
X128367710Y-99587000D01*
X127368011Y-100586699D01*
X127214229Y-100523000D01*
X126785771Y-100523000D01*
X126389928Y-100686963D01*
X126086963Y-100989928D01*
X125923000Y-101385771D01*
X125923000Y-101814229D01*
X126086963Y-102210072D01*
X126389928Y-102513037D01*
X126785771Y-102677000D01*
X127214229Y-102677000D01*
X127610072Y-102513037D01*
X127913037Y-102210072D01*
X128077000Y-101814229D01*
X128077000Y-101385771D01*
X128071880Y-101373410D01*
X128173000Y-101272290D01*
X128173001Y-102221708D01*
X127297300Y-103097409D01*
X127214229Y-103063000D01*
X126785771Y-103063000D01*
X126389928Y-103226963D01*
X126086963Y-103529928D01*
X125923000Y-103925771D01*
X125923000Y-104354229D01*
X126086963Y-104750072D01*
X126389928Y-105053037D01*
X126785771Y-105217000D01*
X127214229Y-105217000D01*
X127610072Y-105053037D01*
X127913037Y-104750072D01*
X128077000Y-104354229D01*
X128077000Y-103925771D01*
X128042591Y-103842700D01*
X129035947Y-102849343D01*
X129079945Y-102819945D01*
X129109343Y-102775948D01*
X129109346Y-102775945D01*
X129196422Y-102645626D01*
X129196423Y-102645625D01*
X129227000Y-102491903D01*
X129227000Y-102491899D01*
X129237323Y-102440001D01*
X129227000Y-102388103D01*
X129227000Y-101018290D01*
X130865551Y-99379740D01*
X130892775Y-99516607D01*
X130987150Y-99657850D01*
X131128393Y-99752225D01*
X131295000Y-99785365D01*
X131895000Y-99785365D01*
X132020000Y-99760501D01*
X132145000Y-99785365D01*
X132545000Y-99785365D01*
X132670000Y-99760501D01*
X132795000Y-99785365D01*
X133195000Y-99785365D01*
X133320000Y-99760501D01*
X133445000Y-99785365D01*
X133845000Y-99785365D01*
X133970000Y-99760501D01*
X134095000Y-99785365D01*
X134495000Y-99785365D01*
X134620000Y-99760501D01*
X134745000Y-99785365D01*
X135145000Y-99785365D01*
X135270000Y-99760501D01*
X135395000Y-99785365D01*
X135795000Y-99785365D01*
X135920000Y-99760501D01*
X136045000Y-99785365D01*
X136445000Y-99785365D01*
X136570000Y-99760501D01*
X136695000Y-99785365D01*
X137095000Y-99785365D01*
X137220000Y-99760501D01*
X137345000Y-99785365D01*
X137945000Y-99785365D01*
X138111607Y-99752225D01*
X138173000Y-99711203D01*
X138173001Y-100548098D01*
X138162677Y-100600000D01*
X138203578Y-100805625D01*
X138290654Y-100935944D01*
X138290658Y-100935948D01*
X138320056Y-100979945D01*
X138364053Y-101009343D01*
X141197409Y-103842700D01*
X141163000Y-103925771D01*
X141163000Y-104354229D01*
X141326963Y-104750072D01*
X141629928Y-105053037D01*
X142025771Y-105217000D01*
X142454229Y-105217000D01*
X142850072Y-105053037D01*
X143153037Y-104750072D01*
X143317000Y-104354229D01*
X143317000Y-103925771D01*
X143153037Y-103529928D01*
X142850072Y-103226963D01*
X142454229Y-103063000D01*
X142025771Y-103063000D01*
X141942700Y-103097409D01*
X139227000Y-100381710D01*
X139227000Y-99372290D01*
X141185693Y-101330984D01*
X141163000Y-101385771D01*
X141163000Y-101814229D01*
X141326963Y-102210072D01*
X141629928Y-102513037D01*
X142025771Y-102677000D01*
X142454229Y-102677000D01*
X142850072Y-102513037D01*
X143153037Y-102210072D01*
X143317000Y-101814229D01*
X143317000Y-101385771D01*
X143153037Y-100989928D01*
X142850072Y-100686963D01*
X142454229Y-100523000D01*
X142025771Y-100523000D01*
X141914416Y-100569125D01*
X140932291Y-99587000D01*
X141292554Y-99587000D01*
X141326963Y-99670072D01*
X141629928Y-99973037D01*
X142025771Y-100137000D01*
X142454229Y-100137000D01*
X142850072Y-99973037D01*
X143153037Y-99670072D01*
X143317000Y-99274229D01*
X143317000Y-98845771D01*
X143153037Y-98449928D01*
X142850072Y-98146963D01*
X142454229Y-97983000D01*
X142025771Y-97983000D01*
X141629928Y-98146963D01*
X141326963Y-98449928D01*
X141292554Y-98533000D01*
X140528291Y-98533000D01*
X139272290Y-97277000D01*
X141473891Y-97277000D01*
X141629928Y-97433037D01*
X142025771Y-97597000D01*
X142454229Y-97597000D01*
X142850072Y-97433037D01*
X143153037Y-97130072D01*
X143317000Y-96734229D01*
X143317000Y-96305771D01*
X143153037Y-95909928D01*
X142850072Y-95606963D01*
X142454229Y-95443000D01*
X142025771Y-95443000D01*
X141629928Y-95606963D01*
X141326963Y-95909928D01*
X141197285Y-96223000D01*
X140742290Y-96223000D01*
X141942699Y-95022591D01*
X142025771Y-95057000D01*
X142454229Y-95057000D01*
X142850072Y-94893037D01*
X143153037Y-94590072D01*
X143317000Y-94194229D01*
X143317000Y-93765771D01*
X143153037Y-93369928D01*
X142850072Y-93066963D01*
X142454229Y-92903000D01*
X142025771Y-92903000D01*
X141629928Y-93066963D01*
X141326963Y-93369928D01*
X141163000Y-93765771D01*
X141163000Y-94194229D01*
X141197409Y-94277301D01*
X139701710Y-95773000D01*
X136747953Y-95773000D01*
X136752225Y-95766607D01*
X136752528Y-95765083D01*
X136879945Y-95679945D01*
X136909345Y-95635945D01*
X137235945Y-95309345D01*
X137279945Y-95279945D01*
X137396423Y-95105625D01*
X137427000Y-94951903D01*
X137427000Y-94951899D01*
X137437323Y-94900001D01*
X137427000Y-94848103D01*
X137427000Y-93891317D01*
X137517500Y-93672828D01*
X137517500Y-93427172D01*
X137500343Y-93385750D01*
X138340000Y-93385750D01*
X138340000Y-93726309D01*
X138436673Y-93959698D01*
X138615301Y-94138327D01*
X138848690Y-94235000D01*
X139314250Y-94235000D01*
X139473000Y-94076250D01*
X139473000Y-93227000D01*
X139727000Y-93227000D01*
X139727000Y-94076250D01*
X139885750Y-94235000D01*
X140351310Y-94235000D01*
X140584699Y-94138327D01*
X140763327Y-93959698D01*
X140860000Y-93726309D01*
X140860000Y-93385750D01*
X140701250Y-93227000D01*
X139727000Y-93227000D01*
X139473000Y-93227000D01*
X138498750Y-93227000D01*
X138340000Y-93385750D01*
X137500343Y-93385750D01*
X137423492Y-93200214D01*
X137249786Y-93026508D01*
X137022828Y-92932500D01*
X136777172Y-92932500D01*
X136550214Y-93026508D01*
X136540785Y-93035937D01*
X136429945Y-92870055D01*
X136385945Y-92840655D01*
X136377245Y-92831955D01*
X136419903Y-92789296D01*
X136542000Y-92494528D01*
X136542000Y-92175472D01*
X136419903Y-91880704D01*
X136375583Y-91836384D01*
X136399999Y-91841241D01*
X136471593Y-91827000D01*
X138613128Y-91827000D01*
X138667150Y-91907850D01*
X138789423Y-91989549D01*
X138615301Y-92061673D01*
X138436673Y-92240302D01*
X138340000Y-92473691D01*
X138340000Y-92814250D01*
X138498750Y-92973000D01*
X139473000Y-92973000D01*
X139473000Y-92953000D01*
X139727000Y-92953000D01*
X139727000Y-92973000D01*
X140701250Y-92973000D01*
X140860000Y-92814250D01*
X140860000Y-92473691D01*
X140763327Y-92240302D01*
X140584699Y-92061673D01*
X140410577Y-91989549D01*
X140532850Y-91907850D01*
X140586872Y-91827000D01*
X140698867Y-91827000D01*
X140775305Y-91903438D01*
X140815863Y-91964137D01*
X141056339Y-92124818D01*
X141268401Y-92167000D01*
X141268405Y-92167000D01*
X141340000Y-92181241D01*
X141411595Y-92167000D01*
X141443891Y-92167000D01*
X141629928Y-92353037D01*
X142025771Y-92517000D01*
X142454229Y-92517000D01*
X142850072Y-92353037D01*
X143153037Y-92050072D01*
X143317000Y-91654229D01*
X143317000Y-91225771D01*
X143153037Y-90829928D01*
X142850072Y-90526963D01*
X142454229Y-90363000D01*
X142025771Y-90363000D01*
X141629928Y-90526963D01*
X141546924Y-90609967D01*
X141524137Y-90575863D01*
X141283661Y-90415182D01*
X141071599Y-90373000D01*
X141071595Y-90373000D01*
X141000000Y-90358759D01*
X140928405Y-90373000D01*
X140586872Y-90373000D01*
X140532850Y-90292150D01*
X140435346Y-90227000D01*
X143473000Y-90227000D01*
X143473001Y-112973000D01*
X131947953Y-112973000D01*
X131952225Y-112966607D01*
X131985365Y-112800000D01*
X131985365Y-112371833D01*
X132009346Y-112335943D01*
X132035943Y-112309346D01*
X132079945Y-112279945D01*
X132176551Y-112135365D01*
X132400000Y-112135365D01*
X132566607Y-112102225D01*
X132707850Y-112007850D01*
X132729763Y-111975054D01*
X132850656Y-112095947D01*
X132880055Y-112139945D01*
X132924052Y-112169343D01*
X132924055Y-112169346D01*
X133054374Y-112256422D01*
X133054375Y-112256423D01*
X133208097Y-112287000D01*
X133208101Y-112287000D01*
X133260000Y-112297323D01*
X133311899Y-112287000D01*
X141154635Y-112287000D01*
X141154635Y-112410000D01*
X141187775Y-112576607D01*
X141282150Y-112717850D01*
X141423393Y-112812225D01*
X141590000Y-112845365D01*
X142890000Y-112845365D01*
X143056607Y-112812225D01*
X143197850Y-112717850D01*
X143292225Y-112576607D01*
X143325365Y-112410000D01*
X143325365Y-111110000D01*
X143292225Y-110943393D01*
X143197850Y-110802150D01*
X143056607Y-110707775D01*
X142890000Y-110674635D01*
X141590000Y-110674635D01*
X141552000Y-110682194D01*
X141552000Y-110460364D01*
X141445127Y-110202349D01*
X141247651Y-110004873D01*
X140989636Y-109898000D01*
X140710364Y-109898000D01*
X140529297Y-109973000D01*
X139425026Y-109973000D01*
X139438327Y-109959699D01*
X139535000Y-109726310D01*
X139535000Y-109633750D01*
X139376250Y-109475000D01*
X138727000Y-109475000D01*
X138727000Y-109497000D01*
X138473000Y-109497000D01*
X138473000Y-109475000D01*
X138453000Y-109475000D01*
X138453000Y-109225000D01*
X138473000Y-109225000D01*
X138473000Y-109203000D01*
X138727000Y-109203000D01*
X138727000Y-109225000D01*
X139376250Y-109225000D01*
X139535000Y-109066250D01*
X139535000Y-108973690D01*
X139438327Y-108740301D01*
X139259698Y-108561673D01*
X139026309Y-108465000D01*
X138885750Y-108465000D01*
X138727002Y-108623748D01*
X138727002Y-108465000D01*
X138667463Y-108465000D01*
X138685365Y-108375000D01*
X138685365Y-107625000D01*
X138661939Y-107507230D01*
X140710657Y-109555948D01*
X140740055Y-109599945D01*
X140784052Y-109629343D01*
X140784055Y-109629346D01*
X140868470Y-109685750D01*
X140914375Y-109716423D01*
X141068097Y-109747000D01*
X141068101Y-109747000D01*
X141119999Y-109757323D01*
X141171897Y-109747000D01*
X141292554Y-109747000D01*
X141326963Y-109830072D01*
X141629928Y-110133037D01*
X142025771Y-110297000D01*
X142454229Y-110297000D01*
X142850072Y-110133037D01*
X143153037Y-109830072D01*
X143317000Y-109434229D01*
X143317000Y-109005771D01*
X143153037Y-108609928D01*
X142850072Y-108306963D01*
X142454229Y-108143000D01*
X142025771Y-108143000D01*
X141629928Y-108306963D01*
X141326963Y-108609928D01*
X141305950Y-108660659D01*
X139852291Y-107207000D01*
X141292554Y-107207000D01*
X141326963Y-107290072D01*
X141629928Y-107593037D01*
X142025771Y-107757000D01*
X142454229Y-107757000D01*
X142850072Y-107593037D01*
X143153037Y-107290072D01*
X143317000Y-106894229D01*
X143317000Y-106465771D01*
X143153037Y-106069928D01*
X142850072Y-105766963D01*
X142454229Y-105603000D01*
X142025771Y-105603000D01*
X141629928Y-105766963D01*
X141326963Y-106069928D01*
X141292554Y-106153000D01*
X139398291Y-106153000D01*
X138409345Y-105164055D01*
X138380365Y-105120684D01*
X138380365Y-103850000D01*
X138347225Y-103683393D01*
X138252850Y-103542150D01*
X138111607Y-103447775D01*
X137945000Y-103414635D01*
X137345000Y-103414635D01*
X137220000Y-103439499D01*
X137095000Y-103414635D01*
X136695000Y-103414635D01*
X136570000Y-103439499D01*
X136445000Y-103414635D01*
X136045000Y-103414635D01*
X135920000Y-103439499D01*
X135795000Y-103414635D01*
X135607661Y-103414635D01*
X135504698Y-103311673D01*
X135271309Y-103215000D01*
X135203750Y-103215000D01*
X135045000Y-103373750D01*
X135045000Y-103605232D01*
X134992775Y-103683393D01*
X134959635Y-103850000D01*
X134959635Y-105200000D01*
X134968001Y-105242057D01*
X134968001Y-105633249D01*
X134955718Y-105695000D01*
X134959696Y-105715000D01*
X134922998Y-105715000D01*
X134922998Y-105873748D01*
X134894459Y-105845209D01*
X134922000Y-105706750D01*
X134922000Y-105706746D01*
X134934282Y-105645000D01*
X134922000Y-105583254D01*
X134922000Y-105242054D01*
X134930365Y-105200000D01*
X134930365Y-103850000D01*
X134897225Y-103683393D01*
X134845000Y-103605232D01*
X134845000Y-103373750D01*
X134686250Y-103215000D01*
X134618691Y-103215000D01*
X134385302Y-103311673D01*
X134282339Y-103414635D01*
X134095000Y-103414635D01*
X133970000Y-103439499D01*
X133845000Y-103414635D01*
X133445000Y-103414635D01*
X133320000Y-103439499D01*
X133195000Y-103414635D01*
X132795000Y-103414635D01*
X132670000Y-103439499D01*
X132545000Y-103414635D01*
X132145000Y-103414635D01*
X132020000Y-103439499D01*
X131895000Y-103414635D01*
X131295000Y-103414635D01*
X131128393Y-103447775D01*
X130987150Y-103542150D01*
X130892775Y-103683393D01*
X130859635Y-103850000D01*
X130859635Y-103998000D01*
X130526897Y-103998000D01*
X130474999Y-103987677D01*
X130423101Y-103998000D01*
X130423097Y-103998000D01*
X130269375Y-104028577D01*
X130269373Y-104028578D01*
X130269374Y-104028578D01*
X130139055Y-104115654D01*
X130139052Y-104115657D01*
X130095055Y-104145055D01*
X130065657Y-104189053D01*
X128101710Y-106153000D01*
X127947446Y-106153000D01*
X127913037Y-106069928D01*
X127610072Y-105766963D01*
X127214229Y-105603000D01*
X126785771Y-105603000D01*
X126389928Y-105766963D01*
X126086963Y-106069928D01*
X125923000Y-106465771D01*
X125923000Y-106894229D01*
X126086963Y-107290072D01*
X126389928Y-107593037D01*
X126785771Y-107757000D01*
X127214229Y-107757000D01*
X127610072Y-107593037D01*
X127913037Y-107290072D01*
X127947446Y-107207000D01*
X128173000Y-107207000D01*
X128173000Y-107301709D01*
X127297300Y-108177409D01*
X127214229Y-108143000D01*
X126785771Y-108143000D01*
X126389928Y-108306963D01*
X126086963Y-108609928D01*
X125923000Y-109005771D01*
X125923000Y-109434229D01*
X126086963Y-109830072D01*
X126389928Y-110133037D01*
X126785771Y-110297000D01*
X127214229Y-110297000D01*
X127610072Y-110133037D01*
X127673000Y-110070109D01*
X127673000Y-110341709D01*
X127297300Y-110717409D01*
X127214229Y-110683000D01*
X126785771Y-110683000D01*
X126389928Y-110846963D01*
X126086963Y-111149928D01*
X125923000Y-111545771D01*
X125923000Y-111974229D01*
X126086963Y-112370072D01*
X126389928Y-112673037D01*
X126785771Y-112837000D01*
X127214229Y-112837000D01*
X127610072Y-112673037D01*
X127913037Y-112370072D01*
X128077000Y-111974229D01*
X128077000Y-111545771D01*
X128042591Y-111462700D01*
X128278289Y-111227002D01*
X128323748Y-111227002D01*
X128165000Y-111385750D01*
X128165000Y-111826310D01*
X128261673Y-112059699D01*
X128440302Y-112238327D01*
X128673691Y-112335000D01*
X129214250Y-112335000D01*
X129249000Y-112300250D01*
X129373750Y-112425000D01*
X130023000Y-112425000D01*
X130023000Y-112403000D01*
X130277000Y-112403000D01*
X130277000Y-112425000D01*
X130297000Y-112425000D01*
X130297000Y-112675000D01*
X130277000Y-112675000D01*
X130277000Y-112697000D01*
X130023000Y-112697000D01*
X130023000Y-112675000D01*
X129373750Y-112675000D01*
X129215000Y-112833750D01*
X129215000Y-112926310D01*
X129234340Y-112973000D01*
X125827000Y-112973000D01*
X125827000Y-92465025D01*
X125990301Y-92628327D01*
X126223690Y-92725000D01*
X126714250Y-92725000D01*
X126873000Y-92566250D01*
X126873000Y-91567000D01*
X127127000Y-91567000D01*
X127127000Y-92566250D01*
X127285750Y-92725000D01*
X127776310Y-92725000D01*
X128009699Y-92628327D01*
X128188327Y-92449698D01*
X128285000Y-92216309D01*
X128285000Y-91725750D01*
X128126250Y-91567000D01*
X127127000Y-91567000D01*
X126873000Y-91567000D01*
X126853000Y-91567000D01*
X126853000Y-91313000D01*
X126873000Y-91313000D01*
X126873000Y-91293000D01*
X127127000Y-91293000D01*
X127127000Y-91313000D01*
X128126250Y-91313000D01*
X128285000Y-91154250D01*
X128285000Y-90949927D01*
X129636662Y-90949927D01*
X129670523Y-91350301D01*
X129758596Y-91562928D01*
X129960863Y-91584532D01*
X130480395Y-91065000D01*
X129960863Y-90545468D01*
X129758596Y-90567072D01*
X129636662Y-90949927D01*
X128285000Y-90949927D01*
X128285000Y-90663691D01*
X128188327Y-90430302D01*
X128009699Y-90251673D01*
X127950133Y-90227000D01*
X130155300Y-90227000D01*
X130140468Y-90365863D01*
X130140468Y-90365863D01*
G37*
X130140468Y-90365863D02*
X130660000Y-90885395D01*
X131179532Y-90365863D01*
X131164700Y-90227000D01*
X132695300Y-90227000D01*
X132680468Y-90365863D01*
X133200000Y-90885395D01*
X133719532Y-90365863D01*
X133704700Y-90227000D01*
X133965300Y-90227000D01*
X133950468Y-90365863D01*
X134470000Y-90885395D01*
X134484143Y-90871253D01*
X134663748Y-91050858D01*
X134649605Y-91065000D01*
X134663748Y-91079143D01*
X134484143Y-91258748D01*
X134470000Y-91244605D01*
X134455858Y-91258748D01*
X134276253Y-91079143D01*
X134290395Y-91065000D01*
X134206512Y-90981117D01*
X134189477Y-90779699D01*
X134101404Y-90567072D01*
X133899137Y-90545468D01*
X133835000Y-90609605D01*
X133770863Y-90545468D01*
X133568596Y-90567072D01*
X133446662Y-90949927D01*
X133450406Y-90994199D01*
X133379605Y-91065000D01*
X133393748Y-91079143D01*
X133214143Y-91258748D01*
X133200000Y-91244605D01*
X133185858Y-91258748D01*
X133006253Y-91079143D01*
X133020395Y-91065000D01*
X132640877Y-90685482D01*
X132609903Y-90610704D01*
X132384296Y-90385097D01*
X132089528Y-90263000D01*
X131770472Y-90263000D01*
X131475704Y-90385097D01*
X131250097Y-90610704D01*
X131219123Y-90685482D01*
X130839605Y-91065000D01*
X130853748Y-91079143D01*
X130674143Y-91258748D01*
X130660000Y-91244605D01*
X130280482Y-91624123D01*
X130205704Y-91655097D01*
X129980097Y-91880704D01*
X129858000Y-92175472D01*
X129858000Y-92494528D01*
X129980097Y-92789296D01*
X130072756Y-92881955D01*
X130014055Y-92940655D01*
X129970055Y-92970055D01*
X129899270Y-93075992D01*
X129849786Y-93026508D01*
X129622828Y-92932500D01*
X129377172Y-92932500D01*
X129150214Y-93026508D01*
X128976508Y-93200214D01*
X128882500Y-93427172D01*
X128882500Y-93672828D01*
X128973001Y-93891319D01*
X128973000Y-94848102D01*
X128962677Y-94900000D01*
X128973000Y-94951898D01*
X128973000Y-94951902D01*
X129003577Y-95105624D01*
X129120055Y-95279945D01*
X129164055Y-95309345D01*
X129490655Y-95635945D01*
X129520055Y-95679945D01*
X129647472Y-95765083D01*
X129647775Y-95766607D01*
X129718864Y-95873000D01*
X129638291Y-95873000D01*
X128042591Y-94277300D01*
X128077000Y-94194229D01*
X128077000Y-93765771D01*
X127913037Y-93369928D01*
X127610072Y-93066963D01*
X127214229Y-92903000D01*
X126785771Y-92903000D01*
X126389928Y-93066963D01*
X126086963Y-93369928D01*
X125923000Y-93765771D01*
X125923000Y-94194229D01*
X126086963Y-94590072D01*
X126389928Y-94893037D01*
X126785771Y-95057000D01*
X127214229Y-95057000D01*
X127297300Y-95022591D01*
X128266669Y-95991960D01*
X128220000Y-95982677D01*
X128168102Y-95993000D01*
X127947446Y-95993000D01*
X127913037Y-95909928D01*
X127610072Y-95606963D01*
X127214229Y-95443000D01*
X126785771Y-95443000D01*
X126389928Y-95606963D01*
X126086963Y-95909928D01*
X125923000Y-96305771D01*
X125923000Y-96734229D01*
X126086963Y-97130072D01*
X126389928Y-97433037D01*
X126785771Y-97597000D01*
X127214229Y-97597000D01*
X127610072Y-97433037D01*
X127913037Y-97130072D01*
X127947446Y-97047000D01*
X128001710Y-97047000D01*
X128090654Y-97135944D01*
X128120055Y-97179945D01*
X128164055Y-97209345D01*
X128164056Y-97209346D01*
X128294374Y-97296423D01*
X128326387Y-97302791D01*
X128448097Y-97327000D01*
X128448101Y-97327000D01*
X128500000Y-97337323D01*
X128551899Y-97327000D01*
X130027709Y-97327000D01*
X128821710Y-98533000D01*
X127947446Y-98533000D01*
X127913037Y-98449928D01*
X127610072Y-98146963D01*
X127214229Y-97983000D01*
X126785771Y-97983000D01*
X126389928Y-98146963D01*
X126086963Y-98449928D01*
X125923000Y-98845771D01*
X125923000Y-99274229D01*
X126086963Y-99670072D01*
X126389928Y-99973037D01*
X126785771Y-100137000D01*
X127214229Y-100137000D01*
X127610072Y-99973037D01*
X127913037Y-99670072D01*
X127947446Y-99587000D01*
X128367710Y-99587000D01*
X127368011Y-100586699D01*
X127214229Y-100523000D01*
X126785771Y-100523000D01*
X126389928Y-100686963D01*
X126086963Y-100989928D01*
X125923000Y-101385771D01*
X125923000Y-101814229D01*
X126086963Y-102210072D01*
X126389928Y-102513037D01*
X126785771Y-102677000D01*
X127214229Y-102677000D01*
X127610072Y-102513037D01*
X127913037Y-102210072D01*
X128077000Y-101814229D01*
X128077000Y-101385771D01*
X128071880Y-101373410D01*
X128173000Y-101272290D01*
X128173001Y-102221708D01*
X127297300Y-103097409D01*
X127214229Y-103063000D01*
X126785771Y-103063000D01*
X126389928Y-103226963D01*
X126086963Y-103529928D01*
X125923000Y-103925771D01*
X125923000Y-104354229D01*
X126086963Y-104750072D01*
X126389928Y-105053037D01*
X126785771Y-105217000D01*
X127214229Y-105217000D01*
X127610072Y-105053037D01*
X127913037Y-104750072D01*
X128077000Y-104354229D01*
X128077000Y-103925771D01*
X128042591Y-103842700D01*
X129035947Y-102849343D01*
X129079945Y-102819945D01*
X129109343Y-102775948D01*
X129109346Y-102775945D01*
X129196422Y-102645626D01*
X129196423Y-102645625D01*
X129227000Y-102491903D01*
X129227000Y-102491899D01*
X129237323Y-102440001D01*
X129227000Y-102388103D01*
X129227000Y-101018290D01*
X130865551Y-99379740D01*
X130892775Y-99516607D01*
X130987150Y-99657850D01*
X131128393Y-99752225D01*
X131295000Y-99785365D01*
X131895000Y-99785365D01*
X132020000Y-99760501D01*
X132145000Y-99785365D01*
X132545000Y-99785365D01*
X132670000Y-99760501D01*
X132795000Y-99785365D01*
X133195000Y-99785365D01*
X133320000Y-99760501D01*
X133445000Y-99785365D01*
X133845000Y-99785365D01*
X133970000Y-99760501D01*
X134095000Y-99785365D01*
X134495000Y-99785365D01*
X134620000Y-99760501D01*
X134745000Y-99785365D01*
X135145000Y-99785365D01*
X135270000Y-99760501D01*
X135395000Y-99785365D01*
X135795000Y-99785365D01*
X135920000Y-99760501D01*
X136045000Y-99785365D01*
X136445000Y-99785365D01*
X136570000Y-99760501D01*
X136695000Y-99785365D01*
X137095000Y-99785365D01*
X137220000Y-99760501D01*
X137345000Y-99785365D01*
X137945000Y-99785365D01*
X138111607Y-99752225D01*
X138173000Y-99711203D01*
X138173001Y-100548098D01*
X138162677Y-100600000D01*
X138203578Y-100805625D01*
X138290654Y-100935944D01*
X138290658Y-100935948D01*
X138320056Y-100979945D01*
X138364053Y-101009343D01*
X141197409Y-103842700D01*
X141163000Y-103925771D01*
X141163000Y-104354229D01*
X141326963Y-104750072D01*
X141629928Y-105053037D01*
X142025771Y-105217000D01*
X142454229Y-105217000D01*
X142850072Y-105053037D01*
X143153037Y-104750072D01*
X143317000Y-104354229D01*
X143317000Y-103925771D01*
X143153037Y-103529928D01*
X142850072Y-103226963D01*
X142454229Y-103063000D01*
X142025771Y-103063000D01*
X141942700Y-103097409D01*
X139227000Y-100381710D01*
X139227000Y-99372290D01*
X141185693Y-101330984D01*
X141163000Y-101385771D01*
X141163000Y-101814229D01*
X141326963Y-102210072D01*
X141629928Y-102513037D01*
X142025771Y-102677000D01*
X142454229Y-102677000D01*
X142850072Y-102513037D01*
X143153037Y-102210072D01*
X143317000Y-101814229D01*
X143317000Y-101385771D01*
X143153037Y-100989928D01*
X142850072Y-100686963D01*
X142454229Y-100523000D01*
X142025771Y-100523000D01*
X141914416Y-100569125D01*
X140932291Y-99587000D01*
X141292554Y-99587000D01*
X141326963Y-99670072D01*
X141629928Y-99973037D01*
X142025771Y-100137000D01*
X142454229Y-100137000D01*
X142850072Y-99973037D01*
X143153037Y-99670072D01*
X143317000Y-99274229D01*
X143317000Y-98845771D01*
X143153037Y-98449928D01*
X142850072Y-98146963D01*
X142454229Y-97983000D01*
X142025771Y-97983000D01*
X141629928Y-98146963D01*
X141326963Y-98449928D01*
X141292554Y-98533000D01*
X140528291Y-98533000D01*
X139272290Y-97277000D01*
X141473891Y-97277000D01*
X141629928Y-97433037D01*
X142025771Y-97597000D01*
X142454229Y-97597000D01*
X142850072Y-97433037D01*
X143153037Y-97130072D01*
X143317000Y-96734229D01*
X143317000Y-96305771D01*
X143153037Y-95909928D01*
X142850072Y-95606963D01*
X142454229Y-95443000D01*
X142025771Y-95443000D01*
X141629928Y-95606963D01*
X141326963Y-95909928D01*
X141197285Y-96223000D01*
X140742290Y-96223000D01*
X141942699Y-95022591D01*
X142025771Y-95057000D01*
X142454229Y-95057000D01*
X142850072Y-94893037D01*
X143153037Y-94590072D01*
X143317000Y-94194229D01*
X143317000Y-93765771D01*
X143153037Y-93369928D01*
X142850072Y-93066963D01*
X142454229Y-92903000D01*
X142025771Y-92903000D01*
X141629928Y-93066963D01*
X141326963Y-93369928D01*
X141163000Y-93765771D01*
X141163000Y-94194229D01*
X141197409Y-94277301D01*
X139701710Y-95773000D01*
X136747953Y-95773000D01*
X136752225Y-95766607D01*
X136752528Y-95765083D01*
X136879945Y-95679945D01*
X136909345Y-95635945D01*
X137235945Y-95309345D01*
X137279945Y-95279945D01*
X137396423Y-95105625D01*
X137427000Y-94951903D01*
X137427000Y-94951899D01*
X137437323Y-94900001D01*
X137427000Y-94848103D01*
X137427000Y-93891317D01*
X137517500Y-93672828D01*
X137517500Y-93427172D01*
X137500343Y-93385750D01*
X138340000Y-93385750D01*
X138340000Y-93726309D01*
X138436673Y-93959698D01*
X138615301Y-94138327D01*
X138848690Y-94235000D01*
X139314250Y-94235000D01*
X139473000Y-94076250D01*
X139473000Y-93227000D01*
X139727000Y-93227000D01*
X139727000Y-94076250D01*
X139885750Y-94235000D01*
X140351310Y-94235000D01*
X140584699Y-94138327D01*
X140763327Y-93959698D01*
X140860000Y-93726309D01*
X140860000Y-93385750D01*
X140701250Y-93227000D01*
X139727000Y-93227000D01*
X139473000Y-93227000D01*
X138498750Y-93227000D01*
X138340000Y-93385750D01*
X137500343Y-93385750D01*
X137423492Y-93200214D01*
X137249786Y-93026508D01*
X137022828Y-92932500D01*
X136777172Y-92932500D01*
X136550214Y-93026508D01*
X136540785Y-93035937D01*
X136429945Y-92870055D01*
X136385945Y-92840655D01*
X136377245Y-92831955D01*
X136419903Y-92789296D01*
X136542000Y-92494528D01*
X136542000Y-92175472D01*
X136419903Y-91880704D01*
X136375583Y-91836384D01*
X136399999Y-91841241D01*
X136471593Y-91827000D01*
X138613128Y-91827000D01*
X138667150Y-91907850D01*
X138789423Y-91989549D01*
X138615301Y-92061673D01*
X138436673Y-92240302D01*
X138340000Y-92473691D01*
X138340000Y-92814250D01*
X138498750Y-92973000D01*
X139473000Y-92973000D01*
X139473000Y-92953000D01*
X139727000Y-92953000D01*
X139727000Y-92973000D01*
X140701250Y-92973000D01*
X140860000Y-92814250D01*
X140860000Y-92473691D01*
X140763327Y-92240302D01*
X140584699Y-92061673D01*
X140410577Y-91989549D01*
X140532850Y-91907850D01*
X140586872Y-91827000D01*
X140698867Y-91827000D01*
X140775305Y-91903438D01*
X140815863Y-91964137D01*
X141056339Y-92124818D01*
X141268401Y-92167000D01*
X141268405Y-92167000D01*
X141340000Y-92181241D01*
X141411595Y-92167000D01*
X141443891Y-92167000D01*
X141629928Y-92353037D01*
X142025771Y-92517000D01*
X142454229Y-92517000D01*
X142850072Y-92353037D01*
X143153037Y-92050072D01*
X143317000Y-91654229D01*
X143317000Y-91225771D01*
X143153037Y-90829928D01*
X142850072Y-90526963D01*
X142454229Y-90363000D01*
X142025771Y-90363000D01*
X141629928Y-90526963D01*
X141546924Y-90609967D01*
X141524137Y-90575863D01*
X141283661Y-90415182D01*
X141071599Y-90373000D01*
X141071595Y-90373000D01*
X141000000Y-90358759D01*
X140928405Y-90373000D01*
X140586872Y-90373000D01*
X140532850Y-90292150D01*
X140435346Y-90227000D01*
X143473000Y-90227000D01*
X143473001Y-112973000D01*
X131947953Y-112973000D01*
X131952225Y-112966607D01*
X131985365Y-112800000D01*
X131985365Y-112371833D01*
X132009346Y-112335943D01*
X132035943Y-112309346D01*
X132079945Y-112279945D01*
X132176551Y-112135365D01*
X132400000Y-112135365D01*
X132566607Y-112102225D01*
X132707850Y-112007850D01*
X132729763Y-111975054D01*
X132850656Y-112095947D01*
X132880055Y-112139945D01*
X132924052Y-112169343D01*
X132924055Y-112169346D01*
X133054374Y-112256422D01*
X133054375Y-112256423D01*
X133208097Y-112287000D01*
X133208101Y-112287000D01*
X133260000Y-112297323D01*
X133311899Y-112287000D01*
X141154635Y-112287000D01*
X141154635Y-112410000D01*
X141187775Y-112576607D01*
X141282150Y-112717850D01*
X141423393Y-112812225D01*
X141590000Y-112845365D01*
X142890000Y-112845365D01*
X143056607Y-112812225D01*
X143197850Y-112717850D01*
X143292225Y-112576607D01*
X143325365Y-112410000D01*
X143325365Y-111110000D01*
X143292225Y-110943393D01*
X143197850Y-110802150D01*
X143056607Y-110707775D01*
X142890000Y-110674635D01*
X141590000Y-110674635D01*
X141552000Y-110682194D01*
X141552000Y-110460364D01*
X141445127Y-110202349D01*
X141247651Y-110004873D01*
X140989636Y-109898000D01*
X140710364Y-109898000D01*
X140529297Y-109973000D01*
X139425026Y-109973000D01*
X139438327Y-109959699D01*
X139535000Y-109726310D01*
X139535000Y-109633750D01*
X139376250Y-109475000D01*
X138727000Y-109475000D01*
X138727000Y-109497000D01*
X138473000Y-109497000D01*
X138473000Y-109475000D01*
X138453000Y-109475000D01*
X138453000Y-109225000D01*
X138473000Y-109225000D01*
X138473000Y-109203000D01*
X138727000Y-109203000D01*
X138727000Y-109225000D01*
X139376250Y-109225000D01*
X139535000Y-109066250D01*
X139535000Y-108973690D01*
X139438327Y-108740301D01*
X139259698Y-108561673D01*
X139026309Y-108465000D01*
X138885750Y-108465000D01*
X138727002Y-108623748D01*
X138727002Y-108465000D01*
X138667463Y-108465000D01*
X138685365Y-108375000D01*
X138685365Y-107625000D01*
X138661939Y-107507230D01*
X140710657Y-109555948D01*
X140740055Y-109599945D01*
X140784052Y-109629343D01*
X140784055Y-109629346D01*
X140868470Y-109685750D01*
X140914375Y-109716423D01*
X141068097Y-109747000D01*
X141068101Y-109747000D01*
X141119999Y-109757323D01*
X141171897Y-109747000D01*
X141292554Y-109747000D01*
X141326963Y-109830072D01*
X141629928Y-110133037D01*
X142025771Y-110297000D01*
X142454229Y-110297000D01*
X142850072Y-110133037D01*
X143153037Y-109830072D01*
X143317000Y-109434229D01*
X143317000Y-109005771D01*
X143153037Y-108609928D01*
X142850072Y-108306963D01*
X142454229Y-108143000D01*
X142025771Y-108143000D01*
X141629928Y-108306963D01*
X141326963Y-108609928D01*
X141305950Y-108660659D01*
X139852291Y-107207000D01*
X141292554Y-107207000D01*
X141326963Y-107290072D01*
X141629928Y-107593037D01*
X142025771Y-107757000D01*
X142454229Y-107757000D01*
X142850072Y-107593037D01*
X143153037Y-107290072D01*
X143317000Y-106894229D01*
X143317000Y-106465771D01*
X143153037Y-106069928D01*
X142850072Y-105766963D01*
X142454229Y-105603000D01*
X142025771Y-105603000D01*
X141629928Y-105766963D01*
X141326963Y-106069928D01*
X141292554Y-106153000D01*
X139398291Y-106153000D01*
X138409345Y-105164055D01*
X138380365Y-105120684D01*
X138380365Y-103850000D01*
X138347225Y-103683393D01*
X138252850Y-103542150D01*
X138111607Y-103447775D01*
X137945000Y-103414635D01*
X137345000Y-103414635D01*
X137220000Y-103439499D01*
X137095000Y-103414635D01*
X136695000Y-103414635D01*
X136570000Y-103439499D01*
X136445000Y-103414635D01*
X136045000Y-103414635D01*
X135920000Y-103439499D01*
X135795000Y-103414635D01*
X135607661Y-103414635D01*
X135504698Y-103311673D01*
X135271309Y-103215000D01*
X135203750Y-103215000D01*
X135045000Y-103373750D01*
X135045000Y-103605232D01*
X134992775Y-103683393D01*
X134959635Y-103850000D01*
X134959635Y-105200000D01*
X134968001Y-105242057D01*
X134968001Y-105633249D01*
X134955718Y-105695000D01*
X134959696Y-105715000D01*
X134922998Y-105715000D01*
X134922998Y-105873748D01*
X134894459Y-105845209D01*
X134922000Y-105706750D01*
X134922000Y-105706746D01*
X134934282Y-105645000D01*
X134922000Y-105583254D01*
X134922000Y-105242054D01*
X134930365Y-105200000D01*
X134930365Y-103850000D01*
X134897225Y-103683393D01*
X134845000Y-103605232D01*
X134845000Y-103373750D01*
X134686250Y-103215000D01*
X134618691Y-103215000D01*
X134385302Y-103311673D01*
X134282339Y-103414635D01*
X134095000Y-103414635D01*
X133970000Y-103439499D01*
X133845000Y-103414635D01*
X133445000Y-103414635D01*
X133320000Y-103439499D01*
X133195000Y-103414635D01*
X132795000Y-103414635D01*
X132670000Y-103439499D01*
X132545000Y-103414635D01*
X132145000Y-103414635D01*
X132020000Y-103439499D01*
X131895000Y-103414635D01*
X131295000Y-103414635D01*
X131128393Y-103447775D01*
X130987150Y-103542150D01*
X130892775Y-103683393D01*
X130859635Y-103850000D01*
X130859635Y-103998000D01*
X130526897Y-103998000D01*
X130474999Y-103987677D01*
X130423101Y-103998000D01*
X130423097Y-103998000D01*
X130269375Y-104028577D01*
X130269373Y-104028578D01*
X130269374Y-104028578D01*
X130139055Y-104115654D01*
X130139052Y-104115657D01*
X130095055Y-104145055D01*
X130065657Y-104189053D01*
X128101710Y-106153000D01*
X127947446Y-106153000D01*
X127913037Y-106069928D01*
X127610072Y-105766963D01*
X127214229Y-105603000D01*
X126785771Y-105603000D01*
X126389928Y-105766963D01*
X126086963Y-106069928D01*
X125923000Y-106465771D01*
X125923000Y-106894229D01*
X126086963Y-107290072D01*
X126389928Y-107593037D01*
X126785771Y-107757000D01*
X127214229Y-107757000D01*
X127610072Y-107593037D01*
X127913037Y-107290072D01*
X127947446Y-107207000D01*
X128173000Y-107207000D01*
X128173000Y-107301709D01*
X127297300Y-108177409D01*
X127214229Y-108143000D01*
X126785771Y-108143000D01*
X126389928Y-108306963D01*
X126086963Y-108609928D01*
X125923000Y-109005771D01*
X125923000Y-109434229D01*
X126086963Y-109830072D01*
X126389928Y-110133037D01*
X126785771Y-110297000D01*
X127214229Y-110297000D01*
X127610072Y-110133037D01*
X127673000Y-110070109D01*
X127673000Y-110341709D01*
X127297300Y-110717409D01*
X127214229Y-110683000D01*
X126785771Y-110683000D01*
X126389928Y-110846963D01*
X126086963Y-111149928D01*
X125923000Y-111545771D01*
X125923000Y-111974229D01*
X126086963Y-112370072D01*
X126389928Y-112673037D01*
X126785771Y-112837000D01*
X127214229Y-112837000D01*
X127610072Y-112673037D01*
X127913037Y-112370072D01*
X128077000Y-111974229D01*
X128077000Y-111545771D01*
X128042591Y-111462700D01*
X128278289Y-111227002D01*
X128323748Y-111227002D01*
X128165000Y-111385750D01*
X128165000Y-111826310D01*
X128261673Y-112059699D01*
X128440302Y-112238327D01*
X128673691Y-112335000D01*
X129214250Y-112335000D01*
X129249000Y-112300250D01*
X129373750Y-112425000D01*
X130023000Y-112425000D01*
X130023000Y-112403000D01*
X130277000Y-112403000D01*
X130277000Y-112425000D01*
X130297000Y-112425000D01*
X130297000Y-112675000D01*
X130277000Y-112675000D01*
X130277000Y-112697000D01*
X130023000Y-112697000D01*
X130023000Y-112675000D01*
X129373750Y-112675000D01*
X129215000Y-112833750D01*
X129215000Y-112926310D01*
X129234340Y-112973000D01*
X125827000Y-112973000D01*
X125827000Y-92465025D01*
X125990301Y-92628327D01*
X126223690Y-92725000D01*
X126714250Y-92725000D01*
X126873000Y-92566250D01*
X126873000Y-91567000D01*
X127127000Y-91567000D01*
X127127000Y-92566250D01*
X127285750Y-92725000D01*
X127776310Y-92725000D01*
X128009699Y-92628327D01*
X128188327Y-92449698D01*
X128285000Y-92216309D01*
X128285000Y-91725750D01*
X128126250Y-91567000D01*
X127127000Y-91567000D01*
X126873000Y-91567000D01*
X126853000Y-91567000D01*
X126853000Y-91313000D01*
X126873000Y-91313000D01*
X126873000Y-91293000D01*
X127127000Y-91293000D01*
X127127000Y-91313000D01*
X128126250Y-91313000D01*
X128285000Y-91154250D01*
X128285000Y-90949927D01*
X129636662Y-90949927D01*
X129670523Y-91350301D01*
X129758596Y-91562928D01*
X129960863Y-91584532D01*
X130480395Y-91065000D01*
X129960863Y-90545468D01*
X129758596Y-90567072D01*
X129636662Y-90949927D01*
X128285000Y-90949927D01*
X128285000Y-90663691D01*
X128188327Y-90430302D01*
X128009699Y-90251673D01*
X127950133Y-90227000D01*
X130155300Y-90227000D01*
X130140468Y-90365863D01*
G36*
X129627000Y-110973000D02*
X129647000Y-110973000D01*
X129647000Y-111227000D01*
X129627000Y-111227000D01*
X129627000Y-111247000D01*
X129373000Y-111247000D01*
X129373000Y-111227000D01*
X129353000Y-111227000D01*
X129353000Y-110973000D01*
X129373000Y-110973000D01*
X129373000Y-110953000D01*
X129627000Y-110953000D01*
X129627000Y-110973000D01*
X129627000Y-110973000D01*
G37*
X129627000Y-110973000D02*
X129647000Y-110973000D01*
X129647000Y-111227000D01*
X129627000Y-111227000D01*
X129627000Y-111247000D01*
X129373000Y-111247000D01*
X129373000Y-111227000D01*
X129353000Y-111227000D01*
X129353000Y-110973000D01*
X129373000Y-110973000D01*
X129373000Y-110953000D01*
X129627000Y-110953000D01*
X129627000Y-110973000D01*
G36*
X135177000Y-106475000D02*
X135197000Y-106475000D01*
X135197000Y-106725000D01*
X135177000Y-106725000D01*
X135177000Y-107048750D01*
X135077000Y-107148750D01*
X135077000Y-107873000D01*
X135097000Y-107873000D01*
X135097000Y-108127000D01*
X135077000Y-108127000D01*
X135077000Y-108851250D01*
X135235750Y-109010000D01*
X135476309Y-109010000D01*
X135635726Y-108943967D01*
X135614635Y-109050000D01*
X135614635Y-109650000D01*
X135647775Y-109816607D01*
X135652047Y-109823000D01*
X134097953Y-109823000D01*
X134102225Y-109816607D01*
X134135365Y-109650000D01*
X134135365Y-109050000D01*
X134102225Y-108883393D01*
X134077000Y-108845641D01*
X134077000Y-108800026D01*
X134190302Y-108913327D01*
X134423691Y-109010000D01*
X134664250Y-109010000D01*
X134823000Y-108851250D01*
X134823000Y-108127000D01*
X134803000Y-108127000D01*
X134803000Y-107873000D01*
X134823000Y-107873000D01*
X134823000Y-107426250D01*
X134923000Y-107326250D01*
X134923000Y-106725000D01*
X134903000Y-106725000D01*
X134903000Y-106475000D01*
X134923000Y-106475000D01*
X134923000Y-106453000D01*
X135177000Y-106453000D01*
X135177000Y-106475000D01*
X135177000Y-106475000D01*
G37*
X135177000Y-106475000D02*
X135197000Y-106475000D01*
X135197000Y-106725000D01*
X135177000Y-106725000D01*
X135177000Y-107048750D01*
X135077000Y-107148750D01*
X135077000Y-107873000D01*
X135097000Y-107873000D01*
X135097000Y-108127000D01*
X135077000Y-108127000D01*
X135077000Y-108851250D01*
X135235750Y-109010000D01*
X135476309Y-109010000D01*
X135635726Y-108943967D01*
X135614635Y-109050000D01*
X135614635Y-109650000D01*
X135647775Y-109816607D01*
X135652047Y-109823000D01*
X134097953Y-109823000D01*
X134102225Y-109816607D01*
X134135365Y-109650000D01*
X134135365Y-109050000D01*
X134102225Y-108883393D01*
X134077000Y-108845641D01*
X134077000Y-108800026D01*
X134190302Y-108913327D01*
X134423691Y-109010000D01*
X134664250Y-109010000D01*
X134823000Y-108851250D01*
X134823000Y-108127000D01*
X134803000Y-108127000D01*
X134803000Y-107873000D01*
X134823000Y-107873000D01*
X134823000Y-107426250D01*
X134923000Y-107326250D01*
X134923000Y-106725000D01*
X134903000Y-106725000D01*
X134903000Y-106475000D01*
X134923000Y-106475000D01*
X134923000Y-106453000D01*
X135177000Y-106453000D01*
X135177000Y-106475000D01*
G36*
X131827000Y-109273000D02*
X131847000Y-109273000D01*
X131847000Y-109527000D01*
X131827000Y-109527000D01*
X131827000Y-109547000D01*
X131573000Y-109547000D01*
X131573000Y-109527000D01*
X131553000Y-109527000D01*
X131553000Y-109273000D01*
X131573000Y-109273000D01*
X131573000Y-109253000D01*
X131827000Y-109253000D01*
X131827000Y-109273000D01*
X131827000Y-109273000D01*
G37*
X131827000Y-109273000D02*
X131847000Y-109273000D01*
X131847000Y-109527000D01*
X131827000Y-109527000D01*
X131827000Y-109547000D01*
X131573000Y-109547000D01*
X131573000Y-109527000D01*
X131553000Y-109527000D01*
X131553000Y-109273000D01*
X131573000Y-109273000D01*
X131573000Y-109253000D01*
X131827000Y-109253000D01*
X131827000Y-109273000D01*
G36*
X132173000Y-106831952D02*
X132173000Y-108165000D01*
X132016250Y-108165000D01*
X131926250Y-108075000D01*
X131277000Y-108075000D01*
X131277000Y-108097000D01*
X131023000Y-108097000D01*
X131023000Y-108075000D01*
X131003000Y-108075000D01*
X131003000Y-107825000D01*
X131023000Y-107825000D01*
X131023000Y-107223750D01*
X131277000Y-107223750D01*
X131277000Y-107825000D01*
X131926250Y-107825000D01*
X132085000Y-107666250D01*
X132085000Y-107573690D01*
X131988327Y-107340301D01*
X131809698Y-107161673D01*
X131576309Y-107065000D01*
X131435750Y-107065000D01*
X131277000Y-107223750D01*
X131023000Y-107223750D01*
X130864250Y-107065000D01*
X130730290Y-107065000D01*
X130968290Y-106827000D01*
X132148102Y-106827000D01*
X132173000Y-106831952D01*
X132173000Y-106831952D01*
G37*
X132173000Y-106831952D02*
X132173000Y-108165000D01*
X132016250Y-108165000D01*
X131926250Y-108075000D01*
X131277000Y-108075000D01*
X131277000Y-108097000D01*
X131023000Y-108097000D01*
X131023000Y-108075000D01*
X131003000Y-108075000D01*
X131003000Y-107825000D01*
X131023000Y-107825000D01*
X131023000Y-107223750D01*
X131277000Y-107223750D01*
X131277000Y-107825000D01*
X131926250Y-107825000D01*
X132085000Y-107666250D01*
X132085000Y-107573690D01*
X131988327Y-107340301D01*
X131809698Y-107161673D01*
X131576309Y-107065000D01*
X131435750Y-107065000D01*
X131277000Y-107223750D01*
X131023000Y-107223750D01*
X130864250Y-107065000D01*
X130730290Y-107065000D01*
X130968290Y-106827000D01*
X132148102Y-106827000D01*
X132173000Y-106831952D01*
G36*
X133877000Y-95173000D02*
X133897000Y-95173000D01*
X133897000Y-95427000D01*
X133877000Y-95427000D01*
X133877000Y-95447000D01*
X133623000Y-95447000D01*
X133623000Y-95427000D01*
X133603000Y-95427000D01*
X133603000Y-95173000D01*
X133623000Y-95173000D01*
X133623000Y-95153000D01*
X133877000Y-95153000D01*
X133877000Y-95173000D01*
X133877000Y-95173000D01*
G37*
X133877000Y-95173000D02*
X133897000Y-95173000D01*
X133897000Y-95427000D01*
X133877000Y-95427000D01*
X133877000Y-95447000D01*
X133623000Y-95447000D01*
X133623000Y-95427000D01*
X133603000Y-95427000D01*
X133603000Y-95173000D01*
X133623000Y-95173000D01*
X133623000Y-95153000D01*
X133877000Y-95153000D01*
X133877000Y-95173000D01*
G04 #@! TD*
M02*
