G04 #@! TF.GenerationSoftware,KiCad,Pcbnew,5.0.1-33cea8e~68~ubuntu18.04.1*
G04 #@! TF.CreationDate,2018-11-09T11:59:04+01:00*
G04 #@! TF.ProjectId,LPC82X_JDH20,4C50433832585F4A444832302E6B6963,rev?*
G04 #@! TF.SameCoordinates,Original*
G04 #@! TF.FileFunction,Copper,L2,Bot,Signal*
G04 #@! TF.FilePolarity,Positive*
%FSLAX46Y46*%
G04 Gerber Fmt 4.6, Leading zero omitted, Abs format (unit mm)*
G04 Created by KiCad (PCBNEW 5.0.1-33cea8e~68~ubuntu18.04.1) date vr 09 nov 2018 11:59:04 CET*
%MOMM*%
%LPD*%
G01*
G04 APERTURE LIST*
G04 #@! TA.AperFunction,ComponentPad*
%ADD10R,1.300000X1.300000*%
G04 #@! TD*
G04 #@! TA.AperFunction,ComponentPad*
%ADD11C,1.300000*%
G04 #@! TD*
G04 #@! TA.AperFunction,ComponentPad*
%ADD12R,0.750000X0.750000*%
G04 #@! TD*
G04 #@! TA.AperFunction,ComponentPad*
%ADD13C,0.750000*%
G04 #@! TD*
G04 #@! TA.AperFunction,ViaPad*
%ADD14C,0.550000*%
G04 #@! TD*
G04 #@! TA.AperFunction,ViaPad*
%ADD15C,0.381000*%
G04 #@! TD*
G04 #@! TA.AperFunction,Conductor*
%ADD16C,0.400000*%
G04 #@! TD*
G04 #@! TA.AperFunction,Conductor*
%ADD17C,0.200000*%
G04 #@! TD*
G04 APERTURE END LIST*
D10*
G04 #@! TO.P,J1,1*
G04 #@! TO.N,VSS*
X127000000Y-91440000D03*
D11*
G04 #@! TO.P,J1,2*
G04 #@! TO.N,/PIO0_4*
X127000000Y-93980000D03*
G04 #@! TO.P,J1,3*
G04 #@! TO.N,/PIO0_3*
X127000000Y-96520000D03*
G04 #@! TO.P,J1,4*
G04 #@! TO.N,/PIO0_2*
X127000000Y-99060000D03*
G04 #@! TO.P,J1,5*
G04 #@! TO.N,/PIO0_11*
X127000000Y-101600000D03*
G04 #@! TO.P,J1,6*
G04 #@! TO.N,/PIO0_10*
X127000000Y-104140000D03*
G04 #@! TO.P,J1,7*
G04 #@! TO.N,/PIO0_15*
X127000000Y-106680000D03*
G04 #@! TO.P,J1,8*
G04 #@! TO.N,/PIO0_1*
X127000000Y-109220000D03*
G04 #@! TO.P,J1,9*
G04 #@! TO.N,/PIO0_9*
X127000000Y-111760000D03*
G04 #@! TD*
D12*
G04 #@! TO.P,J2,1*
G04 #@! TO.N,VDD*
X135740000Y-91065000D03*
D13*
G04 #@! TO.P,J2,2*
G04 #@! TO.N,Net-(J2-Pad2)*
X135740000Y-92335000D03*
G04 #@! TO.P,J2,3*
G04 #@! TO.N,VSS*
X134470000Y-91065000D03*
G04 #@! TO.P,J2,4*
G04 #@! TO.N,Net-(J2-Pad4)*
X134470000Y-92335000D03*
G04 #@! TO.P,J2,5*
G04 #@! TO.N,VSS*
X133200000Y-91065000D03*
G04 #@! TO.P,J2,6*
G04 #@! TO.N,N/C*
X133200000Y-92335000D03*
G04 #@! TO.P,J2,7*
X131930000Y-91065000D03*
G04 #@! TO.P,J2,8*
X131930000Y-92335000D03*
G04 #@! TO.P,J2,9*
G04 #@! TO.N,VSS*
X130660000Y-91065000D03*
G04 #@! TO.P,J2,10*
G04 #@! TO.N,Net-(J2-Pad10)*
X130660000Y-92335000D03*
G04 #@! TD*
D11*
G04 #@! TO.P,J3,9*
G04 #@! TO.N,VDD*
X142240000Y-91440000D03*
G04 #@! TO.P,J3,8*
G04 #@! TO.N,/RESET*
X142240000Y-93980000D03*
G04 #@! TO.P,J3,7*
G04 #@! TO.N,/PIO0_12*
X142240000Y-96520000D03*
G04 #@! TO.P,J3,6*
G04 #@! TO.N,/PIO0_13*
X142240000Y-99060000D03*
G04 #@! TO.P,J3,5*
G04 #@! TO.N,/PIO0_17*
X142240000Y-101600000D03*
G04 #@! TO.P,J3,4*
G04 #@! TO.N,/PIO0_23*
X142240000Y-104140000D03*
G04 #@! TO.P,J3,3*
G04 #@! TO.N,/PIO0_14*
X142240000Y-106680000D03*
G04 #@! TO.P,J3,2*
G04 #@! TO.N,/PIO0_0*
X142240000Y-109220000D03*
D10*
G04 #@! TO.P,J3,1*
G04 #@! TO.N,/PIO0_8*
X142240000Y-111760000D03*
G04 #@! TD*
D14*
G04 #@! TO.N,VSS*
X138500000Y-93100000D03*
D15*
X133750000Y-95950000D03*
X130600000Y-110200000D03*
D14*
X134950000Y-108750000D03*
X138800000Y-108600000D03*
G04 #@! TO.N,VDD*
X140850000Y-110600000D03*
X137900000Y-91100000D03*
D15*
X129500000Y-93550000D03*
X136900000Y-93550000D03*
G04 #@! TO.N,/PIO0_3*
X132650000Y-95950000D03*
X133500000Y-96900000D03*
G04 #@! TO.N,/PIO0_2*
X134350000Y-95950000D03*
X132800000Y-97400000D03*
G04 #@! TO.N,/RESET*
X132050000Y-94650000D03*
X135500000Y-96900000D03*
G04 #@! TD*
D16*
G04 #@! TO.N,VDD*
X140850000Y-110600000D02*
X140850000Y-94350000D01*
X137900000Y-91400000D02*
X137900000Y-91100000D01*
X129500000Y-93550000D02*
X136900000Y-93550000D01*
X136900000Y-93550000D02*
X136900000Y-92600000D01*
X136900000Y-92600000D02*
X137100000Y-92400000D01*
X140850000Y-94350000D02*
X138900000Y-92400000D01*
X137100000Y-92400000D02*
X137900000Y-92400000D01*
X137900000Y-91400000D02*
X137900000Y-92400000D01*
X137900000Y-92400000D02*
X138900000Y-92400000D01*
D17*
G04 #@! TO.N,/PIO0_3*
X133500000Y-96900000D02*
X132650000Y-96050000D01*
X132650000Y-96050000D02*
X132650000Y-95950000D01*
G04 #@! TO.N,/PIO0_2*
X134350000Y-95950000D02*
X134350000Y-97050000D01*
X134350000Y-97050000D02*
X134000000Y-97400000D01*
X134000000Y-97400000D02*
X132800000Y-97400000D01*
G04 #@! TO.N,/RESET*
X132050000Y-94650000D02*
X135250000Y-94650000D01*
X135250000Y-94650000D02*
X135500000Y-94900000D01*
X135500000Y-94900000D02*
X135500000Y-96900000D01*
G04 #@! TD*
G04 #@! TO.N,VSS*
G36*
X130177615Y-90364826D02*
X130660000Y-90847211D01*
X131142385Y-90364826D01*
X131120997Y-90200000D01*
X132739003Y-90200000D01*
X132717615Y-90364826D01*
X133200000Y-90847211D01*
X133682385Y-90364826D01*
X133660997Y-90200000D01*
X134009003Y-90200000D01*
X133987615Y-90364826D01*
X134470000Y-90847211D01*
X134484142Y-90833069D01*
X134701931Y-91050858D01*
X134687789Y-91065000D01*
X134701931Y-91079142D01*
X134484142Y-91296931D01*
X134470000Y-91282789D01*
X134105776Y-91647013D01*
X134030998Y-91677987D01*
X133835000Y-91873985D01*
X133639002Y-91677987D01*
X133564224Y-91647013D01*
X133200000Y-91282789D01*
X132835776Y-91647013D01*
X132760998Y-91677987D01*
X132565000Y-91873985D01*
X132391015Y-91700000D01*
X132587013Y-91504002D01*
X132617987Y-91429224D01*
X132982211Y-91065000D01*
X133417789Y-91065000D01*
X133488650Y-91135861D01*
X133515928Y-91372029D01*
X133578266Y-91522528D01*
X133769826Y-91547385D01*
X133835000Y-91482211D01*
X133900174Y-91547385D01*
X134091734Y-91522528D01*
X134198942Y-91146449D01*
X134196024Y-91121187D01*
X134252211Y-91065000D01*
X134181350Y-90994139D01*
X134154072Y-90757971D01*
X134091734Y-90607472D01*
X133900174Y-90582615D01*
X133835000Y-90647789D01*
X133769826Y-90582615D01*
X133578266Y-90607472D01*
X133471058Y-90983551D01*
X133473976Y-91008813D01*
X133417789Y-91065000D01*
X132982211Y-91065000D01*
X132617987Y-90700776D01*
X132587013Y-90625998D01*
X132369002Y-90407987D01*
X132084157Y-90290000D01*
X131775843Y-90290000D01*
X131490998Y-90407987D01*
X131272987Y-90625998D01*
X131242013Y-90700776D01*
X130877789Y-91065000D01*
X131242013Y-91429224D01*
X131272987Y-91504002D01*
X131468985Y-91700000D01*
X131295000Y-91873985D01*
X131099002Y-91677987D01*
X131024224Y-91647013D01*
X130660000Y-91282789D01*
X130295776Y-91647013D01*
X130220998Y-91677987D01*
X130002987Y-91895998D01*
X129885000Y-92180843D01*
X129885000Y-92489157D01*
X130002987Y-92774002D01*
X130178985Y-92950000D01*
X129440909Y-92950000D01*
X129393149Y-92959500D01*
X129382542Y-92959500D01*
X129372742Y-92963559D01*
X129265892Y-92984813D01*
X129175311Y-93045337D01*
X129165508Y-93049398D01*
X129158005Y-93056901D01*
X129067425Y-93117425D01*
X129006901Y-93208005D01*
X128999398Y-93215508D01*
X128995337Y-93225311D01*
X128934813Y-93315892D01*
X128913559Y-93422742D01*
X128909500Y-93432542D01*
X128909500Y-93443149D01*
X128888246Y-93550000D01*
X128909500Y-93656851D01*
X128909500Y-93667458D01*
X128913559Y-93677258D01*
X128934813Y-93784108D01*
X128995337Y-93874689D01*
X128999398Y-93884492D01*
X129006901Y-93891995D01*
X129067425Y-93982575D01*
X129158005Y-94043099D01*
X129165508Y-94050602D01*
X129175311Y-94054663D01*
X129265892Y-94115187D01*
X129372742Y-94136441D01*
X129382542Y-94140500D01*
X129393149Y-94140500D01*
X129440909Y-94150000D01*
X131714906Y-94150000D01*
X131549398Y-94315508D01*
X131459500Y-94532542D01*
X131459500Y-94767458D01*
X131549398Y-94984492D01*
X131715508Y-95150602D01*
X131932542Y-95240500D01*
X132167458Y-95240500D01*
X132384492Y-95150602D01*
X132385094Y-95150000D01*
X135000000Y-95150000D01*
X135000001Y-96564905D01*
X134999398Y-96565508D01*
X134909500Y-96782542D01*
X134909500Y-97017458D01*
X134999398Y-97234492D01*
X135165508Y-97400602D01*
X135382542Y-97490500D01*
X135617458Y-97490500D01*
X135834492Y-97400602D01*
X136000602Y-97234492D01*
X136090500Y-97017458D01*
X136090500Y-96782542D01*
X136000602Y-96565508D01*
X136000000Y-96564906D01*
X136000000Y-94949240D01*
X136009795Y-94899999D01*
X135998873Y-94845090D01*
X135970989Y-94704910D01*
X135860480Y-94539520D01*
X135818730Y-94511624D01*
X135638377Y-94331271D01*
X135610480Y-94289520D01*
X135445090Y-94179011D01*
X135299243Y-94150000D01*
X136840909Y-94150000D01*
X136900000Y-94161754D01*
X136959091Y-94150000D01*
X136962118Y-94149398D01*
X137006851Y-94140500D01*
X137017458Y-94140500D01*
X137027258Y-94136441D01*
X137134108Y-94115187D01*
X137224689Y-94054663D01*
X137234492Y-94050602D01*
X137241995Y-94043099D01*
X137332575Y-93982575D01*
X137393099Y-93891995D01*
X137400602Y-93884492D01*
X137404663Y-93874689D01*
X137465187Y-93784108D01*
X137486441Y-93677258D01*
X137490500Y-93667458D01*
X137490500Y-93656851D01*
X137511754Y-93550000D01*
X137500000Y-93490909D01*
X137500000Y-93000000D01*
X137840909Y-93000000D01*
X137900000Y-93011754D01*
X137959091Y-93000000D01*
X138651473Y-93000000D01*
X140250001Y-94598529D01*
X140250000Y-110284669D01*
X140175000Y-110465734D01*
X140175000Y-110734266D01*
X140277763Y-110982357D01*
X140467643Y-111172237D01*
X140715734Y-111275000D01*
X140984266Y-111275000D01*
X141182164Y-111193028D01*
X141182164Y-112410000D01*
X141213209Y-112566072D01*
X141301616Y-112698384D01*
X141433928Y-112786791D01*
X141590000Y-112817836D01*
X142890000Y-112817836D01*
X143046072Y-112786791D01*
X143178384Y-112698384D01*
X143266791Y-112566072D01*
X143297836Y-112410000D01*
X143297836Y-111110000D01*
X143266791Y-110953928D01*
X143178384Y-110821616D01*
X143046072Y-110733209D01*
X142890000Y-110702164D01*
X141590000Y-110702164D01*
X141525000Y-110715093D01*
X141525000Y-110465734D01*
X141450000Y-110284669D01*
X141450000Y-109914924D01*
X141645223Y-110110147D01*
X142031142Y-110270000D01*
X142448858Y-110270000D01*
X142834777Y-110110147D01*
X143130147Y-109814777D01*
X143290000Y-109428858D01*
X143290000Y-109011142D01*
X143130147Y-108625223D01*
X142834777Y-108329853D01*
X142448858Y-108170000D01*
X142031142Y-108170000D01*
X141645223Y-108329853D01*
X141450000Y-108525076D01*
X141450000Y-107374924D01*
X141645223Y-107570147D01*
X142031142Y-107730000D01*
X142448858Y-107730000D01*
X142834777Y-107570147D01*
X143130147Y-107274777D01*
X143290000Y-106888858D01*
X143290000Y-106471142D01*
X143130147Y-106085223D01*
X142834777Y-105789853D01*
X142448858Y-105630000D01*
X142031142Y-105630000D01*
X141645223Y-105789853D01*
X141450000Y-105985076D01*
X141450000Y-104834924D01*
X141645223Y-105030147D01*
X142031142Y-105190000D01*
X142448858Y-105190000D01*
X142834777Y-105030147D01*
X143130147Y-104734777D01*
X143290000Y-104348858D01*
X143290000Y-103931142D01*
X143130147Y-103545223D01*
X142834777Y-103249853D01*
X142448858Y-103090000D01*
X142031142Y-103090000D01*
X141645223Y-103249853D01*
X141450000Y-103445076D01*
X141450000Y-102294924D01*
X141645223Y-102490147D01*
X142031142Y-102650000D01*
X142448858Y-102650000D01*
X142834777Y-102490147D01*
X143130147Y-102194777D01*
X143290000Y-101808858D01*
X143290000Y-101391142D01*
X143130147Y-101005223D01*
X142834777Y-100709853D01*
X142448858Y-100550000D01*
X142031142Y-100550000D01*
X141645223Y-100709853D01*
X141450000Y-100905076D01*
X141450000Y-99754924D01*
X141645223Y-99950147D01*
X142031142Y-100110000D01*
X142448858Y-100110000D01*
X142834777Y-99950147D01*
X143130147Y-99654777D01*
X143290000Y-99268858D01*
X143290000Y-98851142D01*
X143130147Y-98465223D01*
X142834777Y-98169853D01*
X142448858Y-98010000D01*
X142031142Y-98010000D01*
X141645223Y-98169853D01*
X141450000Y-98365076D01*
X141450000Y-97214924D01*
X141645223Y-97410147D01*
X142031142Y-97570000D01*
X142448858Y-97570000D01*
X142834777Y-97410147D01*
X143130147Y-97114777D01*
X143290000Y-96728858D01*
X143290000Y-96311142D01*
X143130147Y-95925223D01*
X142834777Y-95629853D01*
X142448858Y-95470000D01*
X142031142Y-95470000D01*
X141645223Y-95629853D01*
X141450000Y-95825076D01*
X141450000Y-94674924D01*
X141645223Y-94870147D01*
X142031142Y-95030000D01*
X142448858Y-95030000D01*
X142834777Y-94870147D01*
X143130147Y-94574777D01*
X143290000Y-94188858D01*
X143290000Y-93771142D01*
X143130147Y-93385223D01*
X142834777Y-93089853D01*
X142448858Y-92930000D01*
X142031142Y-92930000D01*
X141645223Y-93089853D01*
X141349853Y-93385223D01*
X141190000Y-93771142D01*
X141190000Y-93841472D01*
X139366049Y-92017522D01*
X139332575Y-91967425D01*
X139134108Y-91834813D01*
X138959091Y-91800000D01*
X138959086Y-91800000D01*
X138900000Y-91788247D01*
X138840914Y-91800000D01*
X138500000Y-91800000D01*
X138500000Y-91415331D01*
X138575000Y-91234266D01*
X138575000Y-91231142D01*
X141190000Y-91231142D01*
X141190000Y-91648858D01*
X141349853Y-92034777D01*
X141645223Y-92330147D01*
X142031142Y-92490000D01*
X142448858Y-92490000D01*
X142834777Y-92330147D01*
X143130147Y-92034777D01*
X143290000Y-91648858D01*
X143290000Y-91231142D01*
X143130147Y-90845223D01*
X142834777Y-90549853D01*
X142448858Y-90390000D01*
X142031142Y-90390000D01*
X141645223Y-90549853D01*
X141349853Y-90845223D01*
X141190000Y-91231142D01*
X138575000Y-91231142D01*
X138575000Y-90965734D01*
X138472237Y-90717643D01*
X138282357Y-90527763D01*
X138034266Y-90425000D01*
X137765734Y-90425000D01*
X137517643Y-90527763D01*
X137327763Y-90717643D01*
X137225000Y-90965734D01*
X137225000Y-91234266D01*
X137300000Y-91415332D01*
X137300000Y-91800000D01*
X137159088Y-91800000D01*
X137100000Y-91788247D01*
X137040912Y-91800000D01*
X137040909Y-91800000D01*
X136865892Y-91834813D01*
X136667425Y-91967425D01*
X136633951Y-92017522D01*
X136517520Y-92133953D01*
X136500334Y-92145436D01*
X136397013Y-91895998D01*
X136299087Y-91798072D01*
X136403384Y-91728384D01*
X136491791Y-91596072D01*
X136522836Y-91440000D01*
X136522836Y-90690000D01*
X136491791Y-90533928D01*
X136403384Y-90401616D01*
X136271072Y-90313209D01*
X136115000Y-90282164D01*
X135365000Y-90282164D01*
X135208928Y-90313209D01*
X135163319Y-90343683D01*
X135068422Y-90248786D01*
X134952385Y-90364824D01*
X134930997Y-90200000D01*
X143500000Y-90200000D01*
X143500001Y-113000000D01*
X125800000Y-113000000D01*
X125800000Y-111551142D01*
X125950000Y-111551142D01*
X125950000Y-111968858D01*
X126109853Y-112354777D01*
X126405223Y-112650147D01*
X126791142Y-112810000D01*
X127208858Y-112810000D01*
X127594777Y-112650147D01*
X127890147Y-112354777D01*
X128050000Y-111968858D01*
X128050000Y-111551142D01*
X127890147Y-111165223D01*
X127594777Y-110869853D01*
X127208858Y-110710000D01*
X126791142Y-110710000D01*
X126405223Y-110869853D01*
X126109853Y-111165223D01*
X125950000Y-111551142D01*
X125800000Y-111551142D01*
X125800000Y-109011142D01*
X125950000Y-109011142D01*
X125950000Y-109428858D01*
X126109853Y-109814777D01*
X126405223Y-110110147D01*
X126791142Y-110270000D01*
X127208858Y-110270000D01*
X127594777Y-110110147D01*
X127890147Y-109814777D01*
X128050000Y-109428858D01*
X128050000Y-109011142D01*
X127890147Y-108625223D01*
X127594777Y-108329853D01*
X127208858Y-108170000D01*
X126791142Y-108170000D01*
X126405223Y-108329853D01*
X126109853Y-108625223D01*
X125950000Y-109011142D01*
X125800000Y-109011142D01*
X125800000Y-106471142D01*
X125950000Y-106471142D01*
X125950000Y-106888858D01*
X126109853Y-107274777D01*
X126405223Y-107570147D01*
X126791142Y-107730000D01*
X127208858Y-107730000D01*
X127594777Y-107570147D01*
X127890147Y-107274777D01*
X128050000Y-106888858D01*
X128050000Y-106471142D01*
X127890147Y-106085223D01*
X127594777Y-105789853D01*
X127208858Y-105630000D01*
X126791142Y-105630000D01*
X126405223Y-105789853D01*
X126109853Y-106085223D01*
X125950000Y-106471142D01*
X125800000Y-106471142D01*
X125800000Y-103931142D01*
X125950000Y-103931142D01*
X125950000Y-104348858D01*
X126109853Y-104734777D01*
X126405223Y-105030147D01*
X126791142Y-105190000D01*
X127208858Y-105190000D01*
X127594777Y-105030147D01*
X127890147Y-104734777D01*
X128050000Y-104348858D01*
X128050000Y-103931142D01*
X127890147Y-103545223D01*
X127594777Y-103249853D01*
X127208858Y-103090000D01*
X126791142Y-103090000D01*
X126405223Y-103249853D01*
X126109853Y-103545223D01*
X125950000Y-103931142D01*
X125800000Y-103931142D01*
X125800000Y-101391142D01*
X125950000Y-101391142D01*
X125950000Y-101808858D01*
X126109853Y-102194777D01*
X126405223Y-102490147D01*
X126791142Y-102650000D01*
X127208858Y-102650000D01*
X127594777Y-102490147D01*
X127890147Y-102194777D01*
X128050000Y-101808858D01*
X128050000Y-101391142D01*
X127890147Y-101005223D01*
X127594777Y-100709853D01*
X127208858Y-100550000D01*
X126791142Y-100550000D01*
X126405223Y-100709853D01*
X126109853Y-101005223D01*
X125950000Y-101391142D01*
X125800000Y-101391142D01*
X125800000Y-98851142D01*
X125950000Y-98851142D01*
X125950000Y-99268858D01*
X126109853Y-99654777D01*
X126405223Y-99950147D01*
X126791142Y-100110000D01*
X127208858Y-100110000D01*
X127594777Y-99950147D01*
X127890147Y-99654777D01*
X128050000Y-99268858D01*
X128050000Y-98851142D01*
X127890147Y-98465223D01*
X127594777Y-98169853D01*
X127208858Y-98010000D01*
X126791142Y-98010000D01*
X126405223Y-98169853D01*
X126109853Y-98465223D01*
X125950000Y-98851142D01*
X125800000Y-98851142D01*
X125800000Y-96311142D01*
X125950000Y-96311142D01*
X125950000Y-96728858D01*
X126109853Y-97114777D01*
X126405223Y-97410147D01*
X126791142Y-97570000D01*
X127208858Y-97570000D01*
X127594777Y-97410147D01*
X127890147Y-97114777D01*
X128050000Y-96728858D01*
X128050000Y-96311142D01*
X127890147Y-95925223D01*
X127797466Y-95832542D01*
X132059500Y-95832542D01*
X132059500Y-96067458D01*
X132149398Y-96284492D01*
X132315508Y-96450602D01*
X132363286Y-96470392D01*
X132702394Y-96809500D01*
X132682542Y-96809500D01*
X132465508Y-96899398D01*
X132299398Y-97065508D01*
X132209500Y-97282542D01*
X132209500Y-97517458D01*
X132299398Y-97734492D01*
X132465508Y-97900602D01*
X132682542Y-97990500D01*
X132917458Y-97990500D01*
X133134492Y-97900602D01*
X133135094Y-97900000D01*
X133950759Y-97900000D01*
X134000000Y-97909795D01*
X134049241Y-97900000D01*
X134049243Y-97900000D01*
X134195090Y-97870989D01*
X134360480Y-97760480D01*
X134388376Y-97718730D01*
X134668732Y-97438375D01*
X134710480Y-97410480D01*
X134820989Y-97245090D01*
X134850000Y-97099243D01*
X134859795Y-97050000D01*
X134850000Y-97000757D01*
X134850000Y-96285094D01*
X134850602Y-96284492D01*
X134940500Y-96067458D01*
X134940500Y-95832542D01*
X134850602Y-95615508D01*
X134684492Y-95449398D01*
X134467458Y-95359500D01*
X134232542Y-95359500D01*
X134015508Y-95449398D01*
X133849398Y-95615508D01*
X133759500Y-95832542D01*
X133759500Y-96067458D01*
X133849398Y-96284492D01*
X133850000Y-96285094D01*
X133850000Y-96414906D01*
X133834492Y-96399398D01*
X133617458Y-96309500D01*
X133616606Y-96309500D01*
X133240500Y-95933394D01*
X133240500Y-95832542D01*
X133150602Y-95615508D01*
X132984492Y-95449398D01*
X132767458Y-95359500D01*
X132532542Y-95359500D01*
X132315508Y-95449398D01*
X132149398Y-95615508D01*
X132059500Y-95832542D01*
X127797466Y-95832542D01*
X127594777Y-95629853D01*
X127208858Y-95470000D01*
X126791142Y-95470000D01*
X126405223Y-95629853D01*
X126109853Y-95925223D01*
X125950000Y-96311142D01*
X125800000Y-96311142D01*
X125800000Y-93771142D01*
X125950000Y-93771142D01*
X125950000Y-94188858D01*
X126109853Y-94574777D01*
X126405223Y-94870147D01*
X126791142Y-95030000D01*
X127208858Y-95030000D01*
X127594777Y-94870147D01*
X127890147Y-94574777D01*
X128050000Y-94188858D01*
X128050000Y-93771142D01*
X127890147Y-93385223D01*
X127594777Y-93089853D01*
X127208858Y-92930000D01*
X126791142Y-92930000D01*
X126405223Y-93089853D01*
X126109853Y-93385223D01*
X125950000Y-93771142D01*
X125800000Y-93771142D01*
X125800000Y-92350963D01*
X125834563Y-92434405D01*
X126005596Y-92605438D01*
X126229062Y-92698000D01*
X126694000Y-92698000D01*
X126846000Y-92546000D01*
X126846000Y-91594000D01*
X127154000Y-91594000D01*
X127154000Y-92546000D01*
X127306000Y-92698000D01*
X127770938Y-92698000D01*
X127994404Y-92605438D01*
X128165437Y-92434405D01*
X128258000Y-92210939D01*
X128258000Y-91746000D01*
X128106000Y-91594000D01*
X127154000Y-91594000D01*
X126846000Y-91594000D01*
X126826000Y-91594000D01*
X126826000Y-91286000D01*
X126846000Y-91286000D01*
X126846000Y-91266000D01*
X127154000Y-91266000D01*
X127154000Y-91286000D01*
X128106000Y-91286000D01*
X128258000Y-91134000D01*
X128258000Y-90983551D01*
X129661058Y-90983551D01*
X129705928Y-91372029D01*
X129768266Y-91522528D01*
X129959826Y-91547385D01*
X130442211Y-91065000D01*
X129959826Y-90582615D01*
X129768266Y-90607472D01*
X129661058Y-90983551D01*
X128258000Y-90983551D01*
X128258000Y-90669061D01*
X128165437Y-90445595D01*
X127994404Y-90274562D01*
X127814394Y-90200000D01*
X130199003Y-90200000D01*
X130177615Y-90364826D01*
X130177615Y-90364826D01*
G37*
X130177615Y-90364826D02*
X130660000Y-90847211D01*
X131142385Y-90364826D01*
X131120997Y-90200000D01*
X132739003Y-90200000D01*
X132717615Y-90364826D01*
X133200000Y-90847211D01*
X133682385Y-90364826D01*
X133660997Y-90200000D01*
X134009003Y-90200000D01*
X133987615Y-90364826D01*
X134470000Y-90847211D01*
X134484142Y-90833069D01*
X134701931Y-91050858D01*
X134687789Y-91065000D01*
X134701931Y-91079142D01*
X134484142Y-91296931D01*
X134470000Y-91282789D01*
X134105776Y-91647013D01*
X134030998Y-91677987D01*
X133835000Y-91873985D01*
X133639002Y-91677987D01*
X133564224Y-91647013D01*
X133200000Y-91282789D01*
X132835776Y-91647013D01*
X132760998Y-91677987D01*
X132565000Y-91873985D01*
X132391015Y-91700000D01*
X132587013Y-91504002D01*
X132617987Y-91429224D01*
X132982211Y-91065000D01*
X133417789Y-91065000D01*
X133488650Y-91135861D01*
X133515928Y-91372029D01*
X133578266Y-91522528D01*
X133769826Y-91547385D01*
X133835000Y-91482211D01*
X133900174Y-91547385D01*
X134091734Y-91522528D01*
X134198942Y-91146449D01*
X134196024Y-91121187D01*
X134252211Y-91065000D01*
X134181350Y-90994139D01*
X134154072Y-90757971D01*
X134091734Y-90607472D01*
X133900174Y-90582615D01*
X133835000Y-90647789D01*
X133769826Y-90582615D01*
X133578266Y-90607472D01*
X133471058Y-90983551D01*
X133473976Y-91008813D01*
X133417789Y-91065000D01*
X132982211Y-91065000D01*
X132617987Y-90700776D01*
X132587013Y-90625998D01*
X132369002Y-90407987D01*
X132084157Y-90290000D01*
X131775843Y-90290000D01*
X131490998Y-90407987D01*
X131272987Y-90625998D01*
X131242013Y-90700776D01*
X130877789Y-91065000D01*
X131242013Y-91429224D01*
X131272987Y-91504002D01*
X131468985Y-91700000D01*
X131295000Y-91873985D01*
X131099002Y-91677987D01*
X131024224Y-91647013D01*
X130660000Y-91282789D01*
X130295776Y-91647013D01*
X130220998Y-91677987D01*
X130002987Y-91895998D01*
X129885000Y-92180843D01*
X129885000Y-92489157D01*
X130002987Y-92774002D01*
X130178985Y-92950000D01*
X129440909Y-92950000D01*
X129393149Y-92959500D01*
X129382542Y-92959500D01*
X129372742Y-92963559D01*
X129265892Y-92984813D01*
X129175311Y-93045337D01*
X129165508Y-93049398D01*
X129158005Y-93056901D01*
X129067425Y-93117425D01*
X129006901Y-93208005D01*
X128999398Y-93215508D01*
X128995337Y-93225311D01*
X128934813Y-93315892D01*
X128913559Y-93422742D01*
X128909500Y-93432542D01*
X128909500Y-93443149D01*
X128888246Y-93550000D01*
X128909500Y-93656851D01*
X128909500Y-93667458D01*
X128913559Y-93677258D01*
X128934813Y-93784108D01*
X128995337Y-93874689D01*
X128999398Y-93884492D01*
X129006901Y-93891995D01*
X129067425Y-93982575D01*
X129158005Y-94043099D01*
X129165508Y-94050602D01*
X129175311Y-94054663D01*
X129265892Y-94115187D01*
X129372742Y-94136441D01*
X129382542Y-94140500D01*
X129393149Y-94140500D01*
X129440909Y-94150000D01*
X131714906Y-94150000D01*
X131549398Y-94315508D01*
X131459500Y-94532542D01*
X131459500Y-94767458D01*
X131549398Y-94984492D01*
X131715508Y-95150602D01*
X131932542Y-95240500D01*
X132167458Y-95240500D01*
X132384492Y-95150602D01*
X132385094Y-95150000D01*
X135000000Y-95150000D01*
X135000001Y-96564905D01*
X134999398Y-96565508D01*
X134909500Y-96782542D01*
X134909500Y-97017458D01*
X134999398Y-97234492D01*
X135165508Y-97400602D01*
X135382542Y-97490500D01*
X135617458Y-97490500D01*
X135834492Y-97400602D01*
X136000602Y-97234492D01*
X136090500Y-97017458D01*
X136090500Y-96782542D01*
X136000602Y-96565508D01*
X136000000Y-96564906D01*
X136000000Y-94949240D01*
X136009795Y-94899999D01*
X135998873Y-94845090D01*
X135970989Y-94704910D01*
X135860480Y-94539520D01*
X135818730Y-94511624D01*
X135638377Y-94331271D01*
X135610480Y-94289520D01*
X135445090Y-94179011D01*
X135299243Y-94150000D01*
X136840909Y-94150000D01*
X136900000Y-94161754D01*
X136959091Y-94150000D01*
X136962118Y-94149398D01*
X137006851Y-94140500D01*
X137017458Y-94140500D01*
X137027258Y-94136441D01*
X137134108Y-94115187D01*
X137224689Y-94054663D01*
X137234492Y-94050602D01*
X137241995Y-94043099D01*
X137332575Y-93982575D01*
X137393099Y-93891995D01*
X137400602Y-93884492D01*
X137404663Y-93874689D01*
X137465187Y-93784108D01*
X137486441Y-93677258D01*
X137490500Y-93667458D01*
X137490500Y-93656851D01*
X137511754Y-93550000D01*
X137500000Y-93490909D01*
X137500000Y-93000000D01*
X137840909Y-93000000D01*
X137900000Y-93011754D01*
X137959091Y-93000000D01*
X138651473Y-93000000D01*
X140250001Y-94598529D01*
X140250000Y-110284669D01*
X140175000Y-110465734D01*
X140175000Y-110734266D01*
X140277763Y-110982357D01*
X140467643Y-111172237D01*
X140715734Y-111275000D01*
X140984266Y-111275000D01*
X141182164Y-111193028D01*
X141182164Y-112410000D01*
X141213209Y-112566072D01*
X141301616Y-112698384D01*
X141433928Y-112786791D01*
X141590000Y-112817836D01*
X142890000Y-112817836D01*
X143046072Y-112786791D01*
X143178384Y-112698384D01*
X143266791Y-112566072D01*
X143297836Y-112410000D01*
X143297836Y-111110000D01*
X143266791Y-110953928D01*
X143178384Y-110821616D01*
X143046072Y-110733209D01*
X142890000Y-110702164D01*
X141590000Y-110702164D01*
X141525000Y-110715093D01*
X141525000Y-110465734D01*
X141450000Y-110284669D01*
X141450000Y-109914924D01*
X141645223Y-110110147D01*
X142031142Y-110270000D01*
X142448858Y-110270000D01*
X142834777Y-110110147D01*
X143130147Y-109814777D01*
X143290000Y-109428858D01*
X143290000Y-109011142D01*
X143130147Y-108625223D01*
X142834777Y-108329853D01*
X142448858Y-108170000D01*
X142031142Y-108170000D01*
X141645223Y-108329853D01*
X141450000Y-108525076D01*
X141450000Y-107374924D01*
X141645223Y-107570147D01*
X142031142Y-107730000D01*
X142448858Y-107730000D01*
X142834777Y-107570147D01*
X143130147Y-107274777D01*
X143290000Y-106888858D01*
X143290000Y-106471142D01*
X143130147Y-106085223D01*
X142834777Y-105789853D01*
X142448858Y-105630000D01*
X142031142Y-105630000D01*
X141645223Y-105789853D01*
X141450000Y-105985076D01*
X141450000Y-104834924D01*
X141645223Y-105030147D01*
X142031142Y-105190000D01*
X142448858Y-105190000D01*
X142834777Y-105030147D01*
X143130147Y-104734777D01*
X143290000Y-104348858D01*
X143290000Y-103931142D01*
X143130147Y-103545223D01*
X142834777Y-103249853D01*
X142448858Y-103090000D01*
X142031142Y-103090000D01*
X141645223Y-103249853D01*
X141450000Y-103445076D01*
X141450000Y-102294924D01*
X141645223Y-102490147D01*
X142031142Y-102650000D01*
X142448858Y-102650000D01*
X142834777Y-102490147D01*
X143130147Y-102194777D01*
X143290000Y-101808858D01*
X143290000Y-101391142D01*
X143130147Y-101005223D01*
X142834777Y-100709853D01*
X142448858Y-100550000D01*
X142031142Y-100550000D01*
X141645223Y-100709853D01*
X141450000Y-100905076D01*
X141450000Y-99754924D01*
X141645223Y-99950147D01*
X142031142Y-100110000D01*
X142448858Y-100110000D01*
X142834777Y-99950147D01*
X143130147Y-99654777D01*
X143290000Y-99268858D01*
X143290000Y-98851142D01*
X143130147Y-98465223D01*
X142834777Y-98169853D01*
X142448858Y-98010000D01*
X142031142Y-98010000D01*
X141645223Y-98169853D01*
X141450000Y-98365076D01*
X141450000Y-97214924D01*
X141645223Y-97410147D01*
X142031142Y-97570000D01*
X142448858Y-97570000D01*
X142834777Y-97410147D01*
X143130147Y-97114777D01*
X143290000Y-96728858D01*
X143290000Y-96311142D01*
X143130147Y-95925223D01*
X142834777Y-95629853D01*
X142448858Y-95470000D01*
X142031142Y-95470000D01*
X141645223Y-95629853D01*
X141450000Y-95825076D01*
X141450000Y-94674924D01*
X141645223Y-94870147D01*
X142031142Y-95030000D01*
X142448858Y-95030000D01*
X142834777Y-94870147D01*
X143130147Y-94574777D01*
X143290000Y-94188858D01*
X143290000Y-93771142D01*
X143130147Y-93385223D01*
X142834777Y-93089853D01*
X142448858Y-92930000D01*
X142031142Y-92930000D01*
X141645223Y-93089853D01*
X141349853Y-93385223D01*
X141190000Y-93771142D01*
X141190000Y-93841472D01*
X139366049Y-92017522D01*
X139332575Y-91967425D01*
X139134108Y-91834813D01*
X138959091Y-91800000D01*
X138959086Y-91800000D01*
X138900000Y-91788247D01*
X138840914Y-91800000D01*
X138500000Y-91800000D01*
X138500000Y-91415331D01*
X138575000Y-91234266D01*
X138575000Y-91231142D01*
X141190000Y-91231142D01*
X141190000Y-91648858D01*
X141349853Y-92034777D01*
X141645223Y-92330147D01*
X142031142Y-92490000D01*
X142448858Y-92490000D01*
X142834777Y-92330147D01*
X143130147Y-92034777D01*
X143290000Y-91648858D01*
X143290000Y-91231142D01*
X143130147Y-90845223D01*
X142834777Y-90549853D01*
X142448858Y-90390000D01*
X142031142Y-90390000D01*
X141645223Y-90549853D01*
X141349853Y-90845223D01*
X141190000Y-91231142D01*
X138575000Y-91231142D01*
X138575000Y-90965734D01*
X138472237Y-90717643D01*
X138282357Y-90527763D01*
X138034266Y-90425000D01*
X137765734Y-90425000D01*
X137517643Y-90527763D01*
X137327763Y-90717643D01*
X137225000Y-90965734D01*
X137225000Y-91234266D01*
X137300000Y-91415332D01*
X137300000Y-91800000D01*
X137159088Y-91800000D01*
X137100000Y-91788247D01*
X137040912Y-91800000D01*
X137040909Y-91800000D01*
X136865892Y-91834813D01*
X136667425Y-91967425D01*
X136633951Y-92017522D01*
X136517520Y-92133953D01*
X136500334Y-92145436D01*
X136397013Y-91895998D01*
X136299087Y-91798072D01*
X136403384Y-91728384D01*
X136491791Y-91596072D01*
X136522836Y-91440000D01*
X136522836Y-90690000D01*
X136491791Y-90533928D01*
X136403384Y-90401616D01*
X136271072Y-90313209D01*
X136115000Y-90282164D01*
X135365000Y-90282164D01*
X135208928Y-90313209D01*
X135163319Y-90343683D01*
X135068422Y-90248786D01*
X134952385Y-90364824D01*
X134930997Y-90200000D01*
X143500000Y-90200000D01*
X143500001Y-113000000D01*
X125800000Y-113000000D01*
X125800000Y-111551142D01*
X125950000Y-111551142D01*
X125950000Y-111968858D01*
X126109853Y-112354777D01*
X126405223Y-112650147D01*
X126791142Y-112810000D01*
X127208858Y-112810000D01*
X127594777Y-112650147D01*
X127890147Y-112354777D01*
X128050000Y-111968858D01*
X128050000Y-111551142D01*
X127890147Y-111165223D01*
X127594777Y-110869853D01*
X127208858Y-110710000D01*
X126791142Y-110710000D01*
X126405223Y-110869853D01*
X126109853Y-111165223D01*
X125950000Y-111551142D01*
X125800000Y-111551142D01*
X125800000Y-109011142D01*
X125950000Y-109011142D01*
X125950000Y-109428858D01*
X126109853Y-109814777D01*
X126405223Y-110110147D01*
X126791142Y-110270000D01*
X127208858Y-110270000D01*
X127594777Y-110110147D01*
X127890147Y-109814777D01*
X128050000Y-109428858D01*
X128050000Y-109011142D01*
X127890147Y-108625223D01*
X127594777Y-108329853D01*
X127208858Y-108170000D01*
X126791142Y-108170000D01*
X126405223Y-108329853D01*
X126109853Y-108625223D01*
X125950000Y-109011142D01*
X125800000Y-109011142D01*
X125800000Y-106471142D01*
X125950000Y-106471142D01*
X125950000Y-106888858D01*
X126109853Y-107274777D01*
X126405223Y-107570147D01*
X126791142Y-107730000D01*
X127208858Y-107730000D01*
X127594777Y-107570147D01*
X127890147Y-107274777D01*
X128050000Y-106888858D01*
X128050000Y-106471142D01*
X127890147Y-106085223D01*
X127594777Y-105789853D01*
X127208858Y-105630000D01*
X126791142Y-105630000D01*
X126405223Y-105789853D01*
X126109853Y-106085223D01*
X125950000Y-106471142D01*
X125800000Y-106471142D01*
X125800000Y-103931142D01*
X125950000Y-103931142D01*
X125950000Y-104348858D01*
X126109853Y-104734777D01*
X126405223Y-105030147D01*
X126791142Y-105190000D01*
X127208858Y-105190000D01*
X127594777Y-105030147D01*
X127890147Y-104734777D01*
X128050000Y-104348858D01*
X128050000Y-103931142D01*
X127890147Y-103545223D01*
X127594777Y-103249853D01*
X127208858Y-103090000D01*
X126791142Y-103090000D01*
X126405223Y-103249853D01*
X126109853Y-103545223D01*
X125950000Y-103931142D01*
X125800000Y-103931142D01*
X125800000Y-101391142D01*
X125950000Y-101391142D01*
X125950000Y-101808858D01*
X126109853Y-102194777D01*
X126405223Y-102490147D01*
X126791142Y-102650000D01*
X127208858Y-102650000D01*
X127594777Y-102490147D01*
X127890147Y-102194777D01*
X128050000Y-101808858D01*
X128050000Y-101391142D01*
X127890147Y-101005223D01*
X127594777Y-100709853D01*
X127208858Y-100550000D01*
X126791142Y-100550000D01*
X126405223Y-100709853D01*
X126109853Y-101005223D01*
X125950000Y-101391142D01*
X125800000Y-101391142D01*
X125800000Y-98851142D01*
X125950000Y-98851142D01*
X125950000Y-99268858D01*
X126109853Y-99654777D01*
X126405223Y-99950147D01*
X126791142Y-100110000D01*
X127208858Y-100110000D01*
X127594777Y-99950147D01*
X127890147Y-99654777D01*
X128050000Y-99268858D01*
X128050000Y-98851142D01*
X127890147Y-98465223D01*
X127594777Y-98169853D01*
X127208858Y-98010000D01*
X126791142Y-98010000D01*
X126405223Y-98169853D01*
X126109853Y-98465223D01*
X125950000Y-98851142D01*
X125800000Y-98851142D01*
X125800000Y-96311142D01*
X125950000Y-96311142D01*
X125950000Y-96728858D01*
X126109853Y-97114777D01*
X126405223Y-97410147D01*
X126791142Y-97570000D01*
X127208858Y-97570000D01*
X127594777Y-97410147D01*
X127890147Y-97114777D01*
X128050000Y-96728858D01*
X128050000Y-96311142D01*
X127890147Y-95925223D01*
X127797466Y-95832542D01*
X132059500Y-95832542D01*
X132059500Y-96067458D01*
X132149398Y-96284492D01*
X132315508Y-96450602D01*
X132363286Y-96470392D01*
X132702394Y-96809500D01*
X132682542Y-96809500D01*
X132465508Y-96899398D01*
X132299398Y-97065508D01*
X132209500Y-97282542D01*
X132209500Y-97517458D01*
X132299398Y-97734492D01*
X132465508Y-97900602D01*
X132682542Y-97990500D01*
X132917458Y-97990500D01*
X133134492Y-97900602D01*
X133135094Y-97900000D01*
X133950759Y-97900000D01*
X134000000Y-97909795D01*
X134049241Y-97900000D01*
X134049243Y-97900000D01*
X134195090Y-97870989D01*
X134360480Y-97760480D01*
X134388376Y-97718730D01*
X134668732Y-97438375D01*
X134710480Y-97410480D01*
X134820989Y-97245090D01*
X134850000Y-97099243D01*
X134859795Y-97050000D01*
X134850000Y-97000757D01*
X134850000Y-96285094D01*
X134850602Y-96284492D01*
X134940500Y-96067458D01*
X134940500Y-95832542D01*
X134850602Y-95615508D01*
X134684492Y-95449398D01*
X134467458Y-95359500D01*
X134232542Y-95359500D01*
X134015508Y-95449398D01*
X133849398Y-95615508D01*
X133759500Y-95832542D01*
X133759500Y-96067458D01*
X133849398Y-96284492D01*
X133850000Y-96285094D01*
X133850000Y-96414906D01*
X133834492Y-96399398D01*
X133617458Y-96309500D01*
X133616606Y-96309500D01*
X133240500Y-95933394D01*
X133240500Y-95832542D01*
X133150602Y-95615508D01*
X132984492Y-95449398D01*
X132767458Y-95359500D01*
X132532542Y-95359500D01*
X132315508Y-95449398D01*
X132149398Y-95615508D01*
X132059500Y-95832542D01*
X127797466Y-95832542D01*
X127594777Y-95629853D01*
X127208858Y-95470000D01*
X126791142Y-95470000D01*
X126405223Y-95629853D01*
X126109853Y-95925223D01*
X125950000Y-96311142D01*
X125800000Y-96311142D01*
X125800000Y-93771142D01*
X125950000Y-93771142D01*
X125950000Y-94188858D01*
X126109853Y-94574777D01*
X126405223Y-94870147D01*
X126791142Y-95030000D01*
X127208858Y-95030000D01*
X127594777Y-94870147D01*
X127890147Y-94574777D01*
X128050000Y-94188858D01*
X128050000Y-93771142D01*
X127890147Y-93385223D01*
X127594777Y-93089853D01*
X127208858Y-92930000D01*
X126791142Y-92930000D01*
X126405223Y-93089853D01*
X126109853Y-93385223D01*
X125950000Y-93771142D01*
X125800000Y-93771142D01*
X125800000Y-92350963D01*
X125834563Y-92434405D01*
X126005596Y-92605438D01*
X126229062Y-92698000D01*
X126694000Y-92698000D01*
X126846000Y-92546000D01*
X126846000Y-91594000D01*
X127154000Y-91594000D01*
X127154000Y-92546000D01*
X127306000Y-92698000D01*
X127770938Y-92698000D01*
X127994404Y-92605438D01*
X128165437Y-92434405D01*
X128258000Y-92210939D01*
X128258000Y-91746000D01*
X128106000Y-91594000D01*
X127154000Y-91594000D01*
X126846000Y-91594000D01*
X126826000Y-91594000D01*
X126826000Y-91286000D01*
X126846000Y-91286000D01*
X126846000Y-91266000D01*
X127154000Y-91266000D01*
X127154000Y-91286000D01*
X128106000Y-91286000D01*
X128258000Y-91134000D01*
X128258000Y-90983551D01*
X129661058Y-90983551D01*
X129705928Y-91372029D01*
X129768266Y-91522528D01*
X129959826Y-91547385D01*
X130442211Y-91065000D01*
X129959826Y-90582615D01*
X129768266Y-90607472D01*
X129661058Y-90983551D01*
X128258000Y-90983551D01*
X128258000Y-90669061D01*
X128165437Y-90445595D01*
X127994404Y-90274562D01*
X127814394Y-90200000D01*
X130199003Y-90200000D01*
X130177615Y-90364826D01*
G04 #@! TD*
M02*
