G04 #@! TF.GenerationSoftware,KiCad,Pcbnew,5.0.1-33cea8e~68~ubuntu18.04.1*
G04 #@! TF.CreationDate,2018-11-10T11:16:57+01:00*
G04 #@! TF.ProjectId,LPC82X_JDH20,4C50433832585F4A444832302E6B6963,rev?*
G04 #@! TF.SameCoordinates,Original*
G04 #@! TF.FileFunction,Legend,Bot*
G04 #@! TF.FilePolarity,Positive*
%FSLAX46Y46*%
G04 Gerber Fmt 4.6, Leading zero omitted, Abs format (unit mm)*
G04 Created by KiCad (PCBNEW 5.0.1-33cea8e~68~ubuntu18.04.1) date za 10 nov 2018 11:16:57 CET*
%MOMM*%
%LPD*%
G01*
G04 APERTURE LIST*
%ADD10C,0.010000*%
%ADD11C,0.150000*%
G04 APERTURE END LIST*
D10*
G04 #@! TO.C,N1*
G36*
X133944186Y-98768931D02*
X133860365Y-99213555D01*
X133551080Y-99341053D01*
X133241794Y-99468551D01*
X132870754Y-99216246D01*
X132766843Y-99145996D01*
X132672913Y-99083272D01*
X132593348Y-99030938D01*
X132532530Y-98991857D01*
X132494843Y-98968893D01*
X132484579Y-98963942D01*
X132466090Y-98976676D01*
X132426580Y-99011882D01*
X132370478Y-99065062D01*
X132302213Y-99131718D01*
X132226214Y-99207354D01*
X132146908Y-99287472D01*
X132068725Y-99367574D01*
X131996093Y-99443164D01*
X131933441Y-99509745D01*
X131885197Y-99562818D01*
X131855790Y-99597887D01*
X131848759Y-99609623D01*
X131858877Y-99631260D01*
X131887241Y-99678662D01*
X131930871Y-99747193D01*
X131986782Y-99832215D01*
X132051994Y-99929093D01*
X132089781Y-99984350D01*
X132158657Y-100085248D01*
X132219860Y-100176299D01*
X132270422Y-100252970D01*
X132307372Y-100310728D01*
X132327742Y-100345043D01*
X132330803Y-100352254D01*
X132323864Y-100372748D01*
X132304949Y-100420513D01*
X132276913Y-100488832D01*
X132242609Y-100570989D01*
X132204891Y-100660270D01*
X132166613Y-100749958D01*
X132130630Y-100833338D01*
X132099794Y-100903694D01*
X132076961Y-100954310D01*
X132064983Y-100978471D01*
X132064276Y-100979422D01*
X132045469Y-100984036D01*
X131995382Y-100994328D01*
X131919207Y-101009287D01*
X131822135Y-101027901D01*
X131709357Y-101049159D01*
X131643558Y-101061418D01*
X131523050Y-101084362D01*
X131414203Y-101106195D01*
X131322524Y-101125722D01*
X131253519Y-101141748D01*
X131212696Y-101153079D01*
X131204489Y-101156674D01*
X131196452Y-101181006D01*
X131189967Y-101235959D01*
X131185030Y-101315108D01*
X131181636Y-101412026D01*
X131179782Y-101520287D01*
X131179462Y-101633465D01*
X131180673Y-101745135D01*
X131183410Y-101848868D01*
X131187669Y-101938241D01*
X131193445Y-102006826D01*
X131200733Y-102048197D01*
X131205105Y-102056810D01*
X131231236Y-102067133D01*
X131286607Y-102081892D01*
X131363893Y-102099352D01*
X131455770Y-102117780D01*
X131487842Y-102123741D01*
X131642476Y-102152066D01*
X131764625Y-102174876D01*
X131858327Y-102193080D01*
X131927616Y-102207583D01*
X131976529Y-102219292D01*
X132009103Y-102229115D01*
X132029372Y-102237956D01*
X132041374Y-102246724D01*
X132043053Y-102248457D01*
X132059816Y-102276371D01*
X132085386Y-102330695D01*
X132117212Y-102404777D01*
X132152740Y-102491965D01*
X132189417Y-102585608D01*
X132224689Y-102679052D01*
X132256004Y-102765647D01*
X132280807Y-102838740D01*
X132296546Y-102891678D01*
X132300668Y-102917811D01*
X132300324Y-102918726D01*
X132286359Y-102940086D01*
X132254678Y-102987084D01*
X132208609Y-103054827D01*
X132151482Y-103138423D01*
X132086627Y-103232982D01*
X132068157Y-103259854D01*
X132002301Y-103357275D01*
X131944350Y-103446163D01*
X131897462Y-103521412D01*
X131864793Y-103577920D01*
X131849500Y-103610581D01*
X131848759Y-103614593D01*
X131861608Y-103635684D01*
X131897112Y-103677464D01*
X131950707Y-103735445D01*
X132017829Y-103805135D01*
X132093913Y-103882045D01*
X132174396Y-103961683D01*
X132254713Y-104039561D01*
X132330301Y-104111186D01*
X132396595Y-104172070D01*
X132449031Y-104217721D01*
X132483045Y-104243650D01*
X132492455Y-104247883D01*
X132514357Y-104237912D01*
X132559200Y-104211020D01*
X132619679Y-104171736D01*
X132666211Y-104140117D01*
X132750525Y-104082098D01*
X132850374Y-104013784D01*
X132950527Y-103945579D01*
X133004373Y-103909075D01*
X133186629Y-103785800D01*
X133339619Y-103868520D01*
X133409318Y-103904759D01*
X133468586Y-103932926D01*
X133508689Y-103948991D01*
X133518897Y-103951226D01*
X133531171Y-103934722D01*
X133555387Y-103888082D01*
X133589737Y-103815609D01*
X133632412Y-103721606D01*
X133681606Y-103610374D01*
X133735510Y-103486215D01*
X133792316Y-103353432D01*
X133850218Y-103216327D01*
X133907407Y-103079202D01*
X133962076Y-102946358D01*
X134012416Y-102822098D01*
X134056620Y-102710725D01*
X134092881Y-102616539D01*
X134119391Y-102543844D01*
X134134342Y-102496941D01*
X134136746Y-102480833D01*
X134117689Y-102460286D01*
X134075964Y-102426933D01*
X134020294Y-102387702D01*
X134015622Y-102384599D01*
X133871736Y-102269423D01*
X133755717Y-102135053D01*
X133668570Y-101985784D01*
X133611301Y-101825913D01*
X133584914Y-101659737D01*
X133590415Y-101491552D01*
X133628810Y-101325655D01*
X133701105Y-101166342D01*
X133722374Y-101131487D01*
X133833004Y-100990737D01*
X133963698Y-100877714D01*
X134109936Y-100793003D01*
X134267192Y-100737194D01*
X134430943Y-100710874D01*
X134596667Y-100714630D01*
X134759838Y-100749050D01*
X134915935Y-100814723D01*
X135060433Y-100912235D01*
X135105131Y-100951813D01*
X135218888Y-101075703D01*
X135301782Y-101206124D01*
X135358644Y-101352315D01*
X135390313Y-101497088D01*
X135398131Y-101659860D01*
X135372062Y-101823440D01*
X135314755Y-101982298D01*
X135228856Y-102130906D01*
X135117014Y-102263735D01*
X134981877Y-102375256D01*
X134964117Y-102387011D01*
X134907850Y-102425508D01*
X134865077Y-102458863D01*
X134844628Y-102480160D01*
X134844331Y-102480833D01*
X134848721Y-102503871D01*
X134866124Y-102556157D01*
X134894732Y-102633390D01*
X134932735Y-102731268D01*
X134978326Y-102845491D01*
X135029697Y-102971758D01*
X135085038Y-103105767D01*
X135142542Y-103243218D01*
X135200399Y-103379808D01*
X135256802Y-103511237D01*
X135309942Y-103633205D01*
X135358010Y-103741409D01*
X135399199Y-103831549D01*
X135431699Y-103899323D01*
X135453703Y-103940430D01*
X135462564Y-103951226D01*
X135489640Y-103942819D01*
X135540303Y-103920272D01*
X135605817Y-103887613D01*
X135641841Y-103868520D01*
X135794832Y-103785800D01*
X135977088Y-103909075D01*
X136070125Y-103972228D01*
X136171985Y-104041727D01*
X136267438Y-104107165D01*
X136315250Y-104140117D01*
X136382495Y-104185273D01*
X136439436Y-104221057D01*
X136478646Y-104242938D01*
X136491381Y-104247563D01*
X136509917Y-104235085D01*
X136550941Y-104200252D01*
X136610475Y-104146678D01*
X136684542Y-104077983D01*
X136769165Y-103997781D01*
X136822685Y-103946286D01*
X136916319Y-103854286D01*
X136997241Y-103771999D01*
X137062177Y-103702945D01*
X137107858Y-103650644D01*
X137131011Y-103618616D01*
X137133232Y-103612116D01*
X137122924Y-103587394D01*
X137094439Y-103537405D01*
X137050937Y-103467212D01*
X136995577Y-103381875D01*
X136931520Y-103286456D01*
X136913303Y-103259854D01*
X136846927Y-103163167D01*
X136787378Y-103076117D01*
X136737984Y-103003595D01*
X136702075Y-102950493D01*
X136682981Y-102921703D01*
X136681136Y-102918726D01*
X136683895Y-102895782D01*
X136698538Y-102845336D01*
X136722513Y-102774041D01*
X136753266Y-102688547D01*
X136788244Y-102595507D01*
X136824893Y-102501574D01*
X136860661Y-102413399D01*
X136892994Y-102337634D01*
X136919338Y-102280931D01*
X136937142Y-102249943D01*
X136938407Y-102248457D01*
X136949294Y-102239601D01*
X136967682Y-102230843D01*
X136997606Y-102221277D01*
X137043103Y-102209996D01*
X137108209Y-102196093D01*
X137196961Y-102178663D01*
X137313393Y-102156798D01*
X137461542Y-102129591D01*
X137493618Y-102123741D01*
X137588686Y-102105374D01*
X137671565Y-102087405D01*
X137734930Y-102071569D01*
X137771458Y-102059600D01*
X137776356Y-102056810D01*
X137784427Y-102032072D01*
X137790987Y-101976790D01*
X137796033Y-101897389D01*
X137799559Y-101800296D01*
X137801561Y-101691938D01*
X137802036Y-101578740D01*
X137800977Y-101467128D01*
X137798382Y-101363529D01*
X137794246Y-101274368D01*
X137788563Y-101206072D01*
X137781331Y-101165066D01*
X137776971Y-101156674D01*
X137752698Y-101148208D01*
X137697426Y-101134435D01*
X137616662Y-101116550D01*
X137515912Y-101095748D01*
X137400683Y-101073223D01*
X137337902Y-101061418D01*
X137218787Y-101039151D01*
X137112565Y-101018979D01*
X137024427Y-101001915D01*
X136959566Y-100988969D01*
X136923174Y-100981155D01*
X136917184Y-100979422D01*
X136907061Y-100959890D01*
X136885662Y-100912843D01*
X136855839Y-100845003D01*
X136820445Y-100763091D01*
X136782332Y-100673828D01*
X136744353Y-100583935D01*
X136709360Y-100500135D01*
X136680206Y-100429147D01*
X136659743Y-100377694D01*
X136650823Y-100352497D01*
X136650657Y-100351396D01*
X136660769Y-100331519D01*
X136689117Y-100285777D01*
X136732723Y-100218717D01*
X136788606Y-100134884D01*
X136853787Y-100038826D01*
X136891679Y-99983650D01*
X136960725Y-99882481D01*
X137022050Y-99790630D01*
X137072663Y-99712744D01*
X137109571Y-99653469D01*
X137129782Y-99617451D01*
X137132701Y-99609377D01*
X137120153Y-99590584D01*
X137085463Y-99550457D01*
X137033063Y-99493493D01*
X136967384Y-99424185D01*
X136892856Y-99347031D01*
X136813913Y-99266525D01*
X136734983Y-99187163D01*
X136660500Y-99113440D01*
X136594894Y-99049852D01*
X136542596Y-99000894D01*
X136508039Y-98971061D01*
X136496478Y-98963942D01*
X136477654Y-98973953D01*
X136432631Y-99002078D01*
X136365787Y-99045454D01*
X136281499Y-99101218D01*
X136184144Y-99166506D01*
X136110707Y-99216246D01*
X135739667Y-99468551D01*
X135121095Y-99213555D01*
X135037275Y-98768931D01*
X134953454Y-98324307D01*
X134028006Y-98324307D01*
X133944186Y-98768931D01*
X133944186Y-98768931D01*
G37*
X133944186Y-98768931D02*
X133860365Y-99213555D01*
X133551080Y-99341053D01*
X133241794Y-99468551D01*
X132870754Y-99216246D01*
X132766843Y-99145996D01*
X132672913Y-99083272D01*
X132593348Y-99030938D01*
X132532530Y-98991857D01*
X132494843Y-98968893D01*
X132484579Y-98963942D01*
X132466090Y-98976676D01*
X132426580Y-99011882D01*
X132370478Y-99065062D01*
X132302213Y-99131718D01*
X132226214Y-99207354D01*
X132146908Y-99287472D01*
X132068725Y-99367574D01*
X131996093Y-99443164D01*
X131933441Y-99509745D01*
X131885197Y-99562818D01*
X131855790Y-99597887D01*
X131848759Y-99609623D01*
X131858877Y-99631260D01*
X131887241Y-99678662D01*
X131930871Y-99747193D01*
X131986782Y-99832215D01*
X132051994Y-99929093D01*
X132089781Y-99984350D01*
X132158657Y-100085248D01*
X132219860Y-100176299D01*
X132270422Y-100252970D01*
X132307372Y-100310728D01*
X132327742Y-100345043D01*
X132330803Y-100352254D01*
X132323864Y-100372748D01*
X132304949Y-100420513D01*
X132276913Y-100488832D01*
X132242609Y-100570989D01*
X132204891Y-100660270D01*
X132166613Y-100749958D01*
X132130630Y-100833338D01*
X132099794Y-100903694D01*
X132076961Y-100954310D01*
X132064983Y-100978471D01*
X132064276Y-100979422D01*
X132045469Y-100984036D01*
X131995382Y-100994328D01*
X131919207Y-101009287D01*
X131822135Y-101027901D01*
X131709357Y-101049159D01*
X131643558Y-101061418D01*
X131523050Y-101084362D01*
X131414203Y-101106195D01*
X131322524Y-101125722D01*
X131253519Y-101141748D01*
X131212696Y-101153079D01*
X131204489Y-101156674D01*
X131196452Y-101181006D01*
X131189967Y-101235959D01*
X131185030Y-101315108D01*
X131181636Y-101412026D01*
X131179782Y-101520287D01*
X131179462Y-101633465D01*
X131180673Y-101745135D01*
X131183410Y-101848868D01*
X131187669Y-101938241D01*
X131193445Y-102006826D01*
X131200733Y-102048197D01*
X131205105Y-102056810D01*
X131231236Y-102067133D01*
X131286607Y-102081892D01*
X131363893Y-102099352D01*
X131455770Y-102117780D01*
X131487842Y-102123741D01*
X131642476Y-102152066D01*
X131764625Y-102174876D01*
X131858327Y-102193080D01*
X131927616Y-102207583D01*
X131976529Y-102219292D01*
X132009103Y-102229115D01*
X132029372Y-102237956D01*
X132041374Y-102246724D01*
X132043053Y-102248457D01*
X132059816Y-102276371D01*
X132085386Y-102330695D01*
X132117212Y-102404777D01*
X132152740Y-102491965D01*
X132189417Y-102585608D01*
X132224689Y-102679052D01*
X132256004Y-102765647D01*
X132280807Y-102838740D01*
X132296546Y-102891678D01*
X132300668Y-102917811D01*
X132300324Y-102918726D01*
X132286359Y-102940086D01*
X132254678Y-102987084D01*
X132208609Y-103054827D01*
X132151482Y-103138423D01*
X132086627Y-103232982D01*
X132068157Y-103259854D01*
X132002301Y-103357275D01*
X131944350Y-103446163D01*
X131897462Y-103521412D01*
X131864793Y-103577920D01*
X131849500Y-103610581D01*
X131848759Y-103614593D01*
X131861608Y-103635684D01*
X131897112Y-103677464D01*
X131950707Y-103735445D01*
X132017829Y-103805135D01*
X132093913Y-103882045D01*
X132174396Y-103961683D01*
X132254713Y-104039561D01*
X132330301Y-104111186D01*
X132396595Y-104172070D01*
X132449031Y-104217721D01*
X132483045Y-104243650D01*
X132492455Y-104247883D01*
X132514357Y-104237912D01*
X132559200Y-104211020D01*
X132619679Y-104171736D01*
X132666211Y-104140117D01*
X132750525Y-104082098D01*
X132850374Y-104013784D01*
X132950527Y-103945579D01*
X133004373Y-103909075D01*
X133186629Y-103785800D01*
X133339619Y-103868520D01*
X133409318Y-103904759D01*
X133468586Y-103932926D01*
X133508689Y-103948991D01*
X133518897Y-103951226D01*
X133531171Y-103934722D01*
X133555387Y-103888082D01*
X133589737Y-103815609D01*
X133632412Y-103721606D01*
X133681606Y-103610374D01*
X133735510Y-103486215D01*
X133792316Y-103353432D01*
X133850218Y-103216327D01*
X133907407Y-103079202D01*
X133962076Y-102946358D01*
X134012416Y-102822098D01*
X134056620Y-102710725D01*
X134092881Y-102616539D01*
X134119391Y-102543844D01*
X134134342Y-102496941D01*
X134136746Y-102480833D01*
X134117689Y-102460286D01*
X134075964Y-102426933D01*
X134020294Y-102387702D01*
X134015622Y-102384599D01*
X133871736Y-102269423D01*
X133755717Y-102135053D01*
X133668570Y-101985784D01*
X133611301Y-101825913D01*
X133584914Y-101659737D01*
X133590415Y-101491552D01*
X133628810Y-101325655D01*
X133701105Y-101166342D01*
X133722374Y-101131487D01*
X133833004Y-100990737D01*
X133963698Y-100877714D01*
X134109936Y-100793003D01*
X134267192Y-100737194D01*
X134430943Y-100710874D01*
X134596667Y-100714630D01*
X134759838Y-100749050D01*
X134915935Y-100814723D01*
X135060433Y-100912235D01*
X135105131Y-100951813D01*
X135218888Y-101075703D01*
X135301782Y-101206124D01*
X135358644Y-101352315D01*
X135390313Y-101497088D01*
X135398131Y-101659860D01*
X135372062Y-101823440D01*
X135314755Y-101982298D01*
X135228856Y-102130906D01*
X135117014Y-102263735D01*
X134981877Y-102375256D01*
X134964117Y-102387011D01*
X134907850Y-102425508D01*
X134865077Y-102458863D01*
X134844628Y-102480160D01*
X134844331Y-102480833D01*
X134848721Y-102503871D01*
X134866124Y-102556157D01*
X134894732Y-102633390D01*
X134932735Y-102731268D01*
X134978326Y-102845491D01*
X135029697Y-102971758D01*
X135085038Y-103105767D01*
X135142542Y-103243218D01*
X135200399Y-103379808D01*
X135256802Y-103511237D01*
X135309942Y-103633205D01*
X135358010Y-103741409D01*
X135399199Y-103831549D01*
X135431699Y-103899323D01*
X135453703Y-103940430D01*
X135462564Y-103951226D01*
X135489640Y-103942819D01*
X135540303Y-103920272D01*
X135605817Y-103887613D01*
X135641841Y-103868520D01*
X135794832Y-103785800D01*
X135977088Y-103909075D01*
X136070125Y-103972228D01*
X136171985Y-104041727D01*
X136267438Y-104107165D01*
X136315250Y-104140117D01*
X136382495Y-104185273D01*
X136439436Y-104221057D01*
X136478646Y-104242938D01*
X136491381Y-104247563D01*
X136509917Y-104235085D01*
X136550941Y-104200252D01*
X136610475Y-104146678D01*
X136684542Y-104077983D01*
X136769165Y-103997781D01*
X136822685Y-103946286D01*
X136916319Y-103854286D01*
X136997241Y-103771999D01*
X137062177Y-103702945D01*
X137107858Y-103650644D01*
X137131011Y-103618616D01*
X137133232Y-103612116D01*
X137122924Y-103587394D01*
X137094439Y-103537405D01*
X137050937Y-103467212D01*
X136995577Y-103381875D01*
X136931520Y-103286456D01*
X136913303Y-103259854D01*
X136846927Y-103163167D01*
X136787378Y-103076117D01*
X136737984Y-103003595D01*
X136702075Y-102950493D01*
X136682981Y-102921703D01*
X136681136Y-102918726D01*
X136683895Y-102895782D01*
X136698538Y-102845336D01*
X136722513Y-102774041D01*
X136753266Y-102688547D01*
X136788244Y-102595507D01*
X136824893Y-102501574D01*
X136860661Y-102413399D01*
X136892994Y-102337634D01*
X136919338Y-102280931D01*
X136937142Y-102249943D01*
X136938407Y-102248457D01*
X136949294Y-102239601D01*
X136967682Y-102230843D01*
X136997606Y-102221277D01*
X137043103Y-102209996D01*
X137108209Y-102196093D01*
X137196961Y-102178663D01*
X137313393Y-102156798D01*
X137461542Y-102129591D01*
X137493618Y-102123741D01*
X137588686Y-102105374D01*
X137671565Y-102087405D01*
X137734930Y-102071569D01*
X137771458Y-102059600D01*
X137776356Y-102056810D01*
X137784427Y-102032072D01*
X137790987Y-101976790D01*
X137796033Y-101897389D01*
X137799559Y-101800296D01*
X137801561Y-101691938D01*
X137802036Y-101578740D01*
X137800977Y-101467128D01*
X137798382Y-101363529D01*
X137794246Y-101274368D01*
X137788563Y-101206072D01*
X137781331Y-101165066D01*
X137776971Y-101156674D01*
X137752698Y-101148208D01*
X137697426Y-101134435D01*
X137616662Y-101116550D01*
X137515912Y-101095748D01*
X137400683Y-101073223D01*
X137337902Y-101061418D01*
X137218787Y-101039151D01*
X137112565Y-101018979D01*
X137024427Y-101001915D01*
X136959566Y-100988969D01*
X136923174Y-100981155D01*
X136917184Y-100979422D01*
X136907061Y-100959890D01*
X136885662Y-100912843D01*
X136855839Y-100845003D01*
X136820445Y-100763091D01*
X136782332Y-100673828D01*
X136744353Y-100583935D01*
X136709360Y-100500135D01*
X136680206Y-100429147D01*
X136659743Y-100377694D01*
X136650823Y-100352497D01*
X136650657Y-100351396D01*
X136660769Y-100331519D01*
X136689117Y-100285777D01*
X136732723Y-100218717D01*
X136788606Y-100134884D01*
X136853787Y-100038826D01*
X136891679Y-99983650D01*
X136960725Y-99882481D01*
X137022050Y-99790630D01*
X137072663Y-99712744D01*
X137109571Y-99653469D01*
X137129782Y-99617451D01*
X137132701Y-99609377D01*
X137120153Y-99590584D01*
X137085463Y-99550457D01*
X137033063Y-99493493D01*
X136967384Y-99424185D01*
X136892856Y-99347031D01*
X136813913Y-99266525D01*
X136734983Y-99187163D01*
X136660500Y-99113440D01*
X136594894Y-99049852D01*
X136542596Y-99000894D01*
X136508039Y-98971061D01*
X136496478Y-98963942D01*
X136477654Y-98973953D01*
X136432631Y-99002078D01*
X136365787Y-99045454D01*
X136281499Y-99101218D01*
X136184144Y-99166506D01*
X136110707Y-99216246D01*
X135739667Y-99468551D01*
X135121095Y-99213555D01*
X135037275Y-98768931D01*
X134953454Y-98324307D01*
X134028006Y-98324307D01*
X133944186Y-98768931D01*
G04 #@! TO.C,N2*
D11*
X137719047Y-104547619D02*
X137671428Y-104500000D01*
X137576190Y-104452380D01*
X137338095Y-104452380D01*
X137242857Y-104500000D01*
X137195238Y-104547619D01*
X137147619Y-104642857D01*
X137147619Y-104738095D01*
X137195238Y-104880952D01*
X137766666Y-105452380D01*
X137147619Y-105452380D01*
X136528571Y-104452380D02*
X136433333Y-104452380D01*
X136338095Y-104500000D01*
X136290476Y-104547619D01*
X136242857Y-104642857D01*
X136195238Y-104833333D01*
X136195238Y-105071428D01*
X136242857Y-105261904D01*
X136290476Y-105357142D01*
X136338095Y-105404761D01*
X136433333Y-105452380D01*
X136528571Y-105452380D01*
X136623809Y-105404761D01*
X136671428Y-105357142D01*
X136719047Y-105261904D01*
X136766666Y-105071428D01*
X136766666Y-104833333D01*
X136719047Y-104642857D01*
X136671428Y-104547619D01*
X136623809Y-104500000D01*
X136528571Y-104452380D01*
X135242857Y-105452380D02*
X135814285Y-105452380D01*
X135528571Y-105452380D02*
X135528571Y-104452380D01*
X135623809Y-104595238D01*
X135719047Y-104690476D01*
X135814285Y-104738095D01*
X134671428Y-104880952D02*
X134766666Y-104833333D01*
X134814285Y-104785714D01*
X134861904Y-104690476D01*
X134861904Y-104642857D01*
X134814285Y-104547619D01*
X134766666Y-104500000D01*
X134671428Y-104452380D01*
X134480952Y-104452380D01*
X134385714Y-104500000D01*
X134338095Y-104547619D01*
X134290476Y-104642857D01*
X134290476Y-104690476D01*
X134338095Y-104785714D01*
X134385714Y-104833333D01*
X134480952Y-104880952D01*
X134671428Y-104880952D01*
X134766666Y-104928571D01*
X134814285Y-104976190D01*
X134861904Y-105071428D01*
X134861904Y-105261904D01*
X134814285Y-105357142D01*
X134766666Y-105404761D01*
X134671428Y-105452380D01*
X134480952Y-105452380D01*
X134385714Y-105404761D01*
X134338095Y-105357142D01*
X134290476Y-105261904D01*
X134290476Y-105071428D01*
X134338095Y-104976190D01*
X134385714Y-104928571D01*
X134480952Y-104880952D01*
X133338095Y-105452380D02*
X133909523Y-105452380D01*
X133623809Y-105452380D02*
X133623809Y-104452380D01*
X133719047Y-104595238D01*
X133814285Y-104690476D01*
X133909523Y-104738095D01*
X132385714Y-105452380D02*
X132957142Y-105452380D01*
X132671428Y-105452380D02*
X132671428Y-104452380D01*
X132766666Y-104595238D01*
X132861904Y-104690476D01*
X132957142Y-104738095D01*
X131433333Y-105452380D02*
X132004761Y-105452380D01*
X131719047Y-105452380D02*
X131719047Y-104452380D01*
X131814285Y-104595238D01*
X131909523Y-104690476D01*
X132004761Y-104738095D01*
X130814285Y-104452380D02*
X130719047Y-104452380D01*
X130623809Y-104500000D01*
X130576190Y-104547619D01*
X130528571Y-104642857D01*
X130480952Y-104833333D01*
X130480952Y-105071428D01*
X130528571Y-105261904D01*
X130576190Y-105357142D01*
X130623809Y-105404761D01*
X130719047Y-105452380D01*
X130814285Y-105452380D01*
X130909523Y-105404761D01*
X130957142Y-105357142D01*
X131004761Y-105261904D01*
X131052380Y-105071428D01*
X131052380Y-104833333D01*
X131004761Y-104642857D01*
X130957142Y-104547619D01*
X130909523Y-104500000D01*
X130814285Y-104452380D01*
X139071428Y-104452380D02*
X138738095Y-105452380D01*
X138404761Y-104452380D01*
X138071428Y-105357142D02*
X138023809Y-105404761D01*
X138071428Y-105452380D01*
X138119047Y-105404761D01*
X138071428Y-105357142D01*
X138071428Y-105452380D01*
X138071428Y-104833333D02*
X138023809Y-104880952D01*
X138071428Y-104928571D01*
X138119047Y-104880952D01*
X138071428Y-104833333D01*
X138071428Y-104928571D01*
G04 #@! TD*
M02*
