G04 #@! TF.GenerationSoftware,KiCad,Pcbnew,5.0.1-33cea8e~68~ubuntu18.04.1*
G04 #@! TF.CreationDate,2018-11-10T11:16:57+01:00*
G04 #@! TF.ProjectId,LPC82X_JDH20,4C50433832585F4A444832302E6B6963,rev?*
G04 #@! TF.SameCoordinates,Original*
G04 #@! TF.FileFunction,Legend,Top*
G04 #@! TF.FilePolarity,Positive*
%FSLAX46Y46*%
G04 Gerber Fmt 4.6, Leading zero omitted, Abs format (unit mm)*
G04 Created by KiCad (PCBNEW 5.0.1-33cea8e~68~ubuntu18.04.1) date za 10 nov 2018 11:16:57 CET*
%MOMM*%
%LPD*%
G01*
G04 APERTURE LIST*
%ADD10C,0.150000*%
%ADD11C,0.152400*%
%ADD12C,0.127000*%
G04 APERTURE END LIST*
D10*
G04 #@! TO.C,C1*
X138750000Y-91600000D02*
X138750000Y-92600000D01*
X140450000Y-92600000D02*
X140450000Y-91600000D01*
G04 #@! TO.C,C2*
X130350000Y-108425000D02*
X130850000Y-108425000D01*
X130850000Y-107475000D02*
X130350000Y-107475000D01*
G04 #@! TO.C,C3*
X133850000Y-107400000D02*
X134550000Y-107400000D01*
X134550000Y-108600000D02*
X133850000Y-108600000D01*
G04 #@! TO.C,C4*
X137450000Y-108600000D02*
X136750000Y-108600000D01*
X136750000Y-107400000D02*
X137450000Y-107400000D01*
G04 #@! TO.C,C5*
X130450000Y-113025000D02*
X130950000Y-113025000D01*
X130950000Y-112075000D02*
X130450000Y-112075000D01*
G04 #@! TO.C,C6*
X134250000Y-107075000D02*
X134750000Y-107075000D01*
X134750000Y-106125000D02*
X134250000Y-106125000D01*
G04 #@! TO.C,C7*
X137050000Y-106125000D02*
X136550000Y-106125000D01*
X136550000Y-107075000D02*
X137050000Y-107075000D01*
G04 #@! TO.C,FB1*
X133925000Y-110150000D02*
X133925000Y-109650000D01*
X132975000Y-109650000D02*
X132975000Y-110150000D01*
G04 #@! TO.C,FB2*
X135825000Y-109650000D02*
X135825000Y-110150000D01*
X136775000Y-110150000D02*
X136775000Y-109650000D01*
G04 #@! TO.C,FB3*
X138300000Y-108875000D02*
X137800000Y-108875000D01*
X137800000Y-109825000D02*
X138300000Y-109825000D01*
D11*
G04 #@! TO.C,J1*
X127635000Y-110490000D02*
X128270000Y-111125000D01*
X128270000Y-111125000D02*
X128270000Y-112395000D01*
X128270000Y-112395000D02*
X127635000Y-113030000D01*
X127635000Y-113030000D02*
X126365000Y-113030000D01*
X126365000Y-113030000D02*
X125730000Y-112395000D01*
X125730000Y-112395000D02*
X125730000Y-111125000D01*
X125730000Y-111125000D02*
X126365000Y-110490000D01*
X128270000Y-106045000D02*
X128270000Y-107315000D01*
X128270000Y-107315000D02*
X127635000Y-107950000D01*
X127635000Y-107950000D02*
X126365000Y-107950000D01*
X126365000Y-107950000D02*
X125730000Y-107315000D01*
X127635000Y-107950000D02*
X128270000Y-108585000D01*
X128270000Y-108585000D02*
X128270000Y-109855000D01*
X128270000Y-109855000D02*
X127635000Y-110490000D01*
X127635000Y-110490000D02*
X126365000Y-110490000D01*
X126365000Y-110490000D02*
X125730000Y-109855000D01*
X125730000Y-109855000D02*
X125730000Y-108585000D01*
X125730000Y-108585000D02*
X126365000Y-107950000D01*
X127635000Y-102870000D02*
X128270000Y-103505000D01*
X128270000Y-103505000D02*
X128270000Y-104775000D01*
X128270000Y-104775000D02*
X127635000Y-105410000D01*
X127635000Y-105410000D02*
X126365000Y-105410000D01*
X126365000Y-105410000D02*
X125730000Y-104775000D01*
X125730000Y-104775000D02*
X125730000Y-103505000D01*
X125730000Y-103505000D02*
X126365000Y-102870000D01*
X128270000Y-106045000D02*
X127635000Y-105410000D01*
X126365000Y-105410000D02*
X125730000Y-106045000D01*
X125730000Y-107315000D02*
X125730000Y-106045000D01*
X128270000Y-98425000D02*
X128270000Y-99695000D01*
X128270000Y-99695000D02*
X127635000Y-100330000D01*
X127635000Y-100330000D02*
X126365000Y-100330000D01*
X126365000Y-100330000D02*
X125730000Y-99695000D01*
X127635000Y-100330000D02*
X128270000Y-100965000D01*
X128270000Y-100965000D02*
X128270000Y-102235000D01*
X128270000Y-102235000D02*
X127635000Y-102870000D01*
X127635000Y-102870000D02*
X126365000Y-102870000D01*
X126365000Y-102870000D02*
X125730000Y-102235000D01*
X125730000Y-102235000D02*
X125730000Y-100965000D01*
X125730000Y-100965000D02*
X126365000Y-100330000D01*
X127635000Y-95250000D02*
X128270000Y-95885000D01*
X128270000Y-95885000D02*
X128270000Y-97155000D01*
X128270000Y-97155000D02*
X127635000Y-97790000D01*
X127635000Y-97790000D02*
X126365000Y-97790000D01*
X126365000Y-97790000D02*
X125730000Y-97155000D01*
X125730000Y-97155000D02*
X125730000Y-95885000D01*
X125730000Y-95885000D02*
X126365000Y-95250000D01*
X128270000Y-98425000D02*
X127635000Y-97790000D01*
X126365000Y-97790000D02*
X125730000Y-98425000D01*
X125730000Y-99695000D02*
X125730000Y-98425000D01*
X128270000Y-90805000D02*
X128270000Y-92075000D01*
X128270000Y-92075000D02*
X127635000Y-92710000D01*
X127635000Y-92710000D02*
X126365000Y-92710000D01*
X126365000Y-92710000D02*
X125730000Y-92075000D01*
X127635000Y-92710000D02*
X128270000Y-93345000D01*
X128270000Y-93345000D02*
X128270000Y-94615000D01*
X128270000Y-94615000D02*
X127635000Y-95250000D01*
X127635000Y-95250000D02*
X126365000Y-95250000D01*
X126365000Y-95250000D02*
X125730000Y-94615000D01*
X125730000Y-94615000D02*
X125730000Y-93345000D01*
X125730000Y-93345000D02*
X126365000Y-92710000D01*
X127635000Y-90170000D02*
X126365000Y-90170000D01*
X128270000Y-90805000D02*
X127635000Y-90170000D01*
X126365000Y-90170000D02*
X125730000Y-90805000D01*
X125730000Y-92075000D02*
X125730000Y-90805000D01*
D10*
G04 #@! TO.C,J2*
X137200000Y-93200000D02*
X137200000Y-90200000D01*
X136883000Y-90176000D02*
X136883000Y-93224000D01*
X129517000Y-90176000D02*
X136883000Y-90176000D01*
X129517000Y-93224000D02*
X129517000Y-90176000D01*
X136883000Y-93224000D02*
X129517000Y-93224000D01*
D11*
G04 #@! TO.C,J3*
X143510000Y-111125000D02*
X143510000Y-112395000D01*
X142875000Y-113030000D02*
X143510000Y-112395000D01*
X140970000Y-112395000D02*
X141605000Y-113030000D01*
X141605000Y-113030000D02*
X142875000Y-113030000D01*
X143510000Y-109855000D02*
X142875000Y-110490000D01*
X143510000Y-108585000D02*
X143510000Y-109855000D01*
X142875000Y-107950000D02*
X143510000Y-108585000D01*
X141605000Y-107950000D02*
X142875000Y-107950000D01*
X140970000Y-108585000D02*
X141605000Y-107950000D01*
X140970000Y-109855000D02*
X140970000Y-108585000D01*
X141605000Y-110490000D02*
X140970000Y-109855000D01*
X142875000Y-110490000D02*
X143510000Y-111125000D01*
X141605000Y-110490000D02*
X142875000Y-110490000D01*
X140970000Y-111125000D02*
X141605000Y-110490000D01*
X140970000Y-112395000D02*
X140970000Y-111125000D01*
X143510000Y-103505000D02*
X143510000Y-104775000D01*
X142875000Y-105410000D02*
X143510000Y-104775000D01*
X140970000Y-104775000D02*
X141605000Y-105410000D01*
X143510000Y-107315000D02*
X142875000Y-107950000D01*
X143510000Y-106045000D02*
X143510000Y-107315000D01*
X142875000Y-105410000D02*
X143510000Y-106045000D01*
X141605000Y-105410000D02*
X142875000Y-105410000D01*
X140970000Y-106045000D02*
X141605000Y-105410000D01*
X140970000Y-107315000D02*
X140970000Y-106045000D01*
X141605000Y-107950000D02*
X140970000Y-107315000D01*
X143510000Y-102235000D02*
X142875000Y-102870000D01*
X143510000Y-100965000D02*
X143510000Y-102235000D01*
X142875000Y-100330000D02*
X143510000Y-100965000D01*
X141605000Y-100330000D02*
X142875000Y-100330000D01*
X140970000Y-100965000D02*
X141605000Y-100330000D01*
X140970000Y-102235000D02*
X140970000Y-100965000D01*
X141605000Y-102870000D02*
X140970000Y-102235000D01*
X142875000Y-102870000D02*
X143510000Y-103505000D01*
X141605000Y-102870000D02*
X142875000Y-102870000D01*
X140970000Y-103505000D02*
X141605000Y-102870000D01*
X140970000Y-104775000D02*
X140970000Y-103505000D01*
X143510000Y-95885000D02*
X143510000Y-97155000D01*
X142875000Y-97790000D02*
X143510000Y-97155000D01*
X140970000Y-97155000D02*
X141605000Y-97790000D01*
X143510000Y-99695000D02*
X142875000Y-100330000D01*
X143510000Y-98425000D02*
X143510000Y-99695000D01*
X142875000Y-97790000D02*
X143510000Y-98425000D01*
X141605000Y-97790000D02*
X142875000Y-97790000D01*
X140970000Y-98425000D02*
X141605000Y-97790000D01*
X140970000Y-99695000D02*
X140970000Y-98425000D01*
X141605000Y-100330000D02*
X140970000Y-99695000D01*
X143510000Y-94615000D02*
X142875000Y-95250000D01*
X143510000Y-93345000D02*
X143510000Y-94615000D01*
X142875000Y-92710000D02*
X143510000Y-93345000D01*
X141605000Y-92710000D02*
X142875000Y-92710000D01*
X140970000Y-93345000D02*
X141605000Y-92710000D01*
X140970000Y-94615000D02*
X140970000Y-93345000D01*
X141605000Y-95250000D02*
X140970000Y-94615000D01*
X142875000Y-95250000D02*
X143510000Y-95885000D01*
X141605000Y-95250000D02*
X142875000Y-95250000D01*
X140970000Y-95885000D02*
X141605000Y-95250000D01*
X140970000Y-97155000D02*
X140970000Y-95885000D01*
X143510000Y-92075000D02*
X142875000Y-92710000D01*
X143510000Y-90805000D02*
X143510000Y-92075000D01*
X142875000Y-90170000D02*
X143510000Y-90805000D01*
X141605000Y-90170000D02*
X142875000Y-90170000D01*
X140970000Y-90805000D02*
X141605000Y-90170000D01*
X140970000Y-92075000D02*
X140970000Y-90805000D01*
X141605000Y-92710000D02*
X140970000Y-92075000D01*
D10*
G04 #@! TO.C,R1*
X130650000Y-95825000D02*
X131150000Y-95825000D01*
X131150000Y-94775000D02*
X130650000Y-94775000D01*
G04 #@! TO.C,R2*
X135250000Y-95825000D02*
X135750000Y-95825000D01*
X135750000Y-94775000D02*
X135250000Y-94775000D01*
G04 #@! TO.C,R3*
X133450000Y-94775000D02*
X132950000Y-94775000D01*
X132950000Y-95825000D02*
X133450000Y-95825000D01*
G04 #@! TO.C,R4*
X135750000Y-93475000D02*
X135250000Y-93475000D01*
X135250000Y-94525000D02*
X135750000Y-94525000D01*
G04 #@! TO.C,R5*
X132950000Y-94525000D02*
X133450000Y-94525000D01*
X133450000Y-93475000D02*
X132950000Y-93475000D01*
G04 #@! TO.C,R6*
X131150000Y-93475000D02*
X130650000Y-93475000D01*
X130650000Y-94525000D02*
X131150000Y-94525000D01*
G04 #@! TO.C,SJ1*
X137600000Y-111125000D02*
X138100000Y-111125000D01*
X138100000Y-110075000D02*
X137600000Y-110075000D01*
G04 #@! TO.C,Y1*
X129000000Y-110150000D02*
X129000000Y-110350000D01*
X130350000Y-109000000D02*
X130850000Y-109000000D01*
X132200000Y-110350000D02*
X132200000Y-110150000D01*
X130350000Y-111500000D02*
X130850000Y-111500000D01*
X128550000Y-108550000D02*
X128800000Y-108550000D01*
X128550000Y-108550000D02*
X128550000Y-108800000D01*
D12*
G04 #@! TO.C,U1*
X137870000Y-103600000D02*
X137870000Y-99600000D01*
X131370000Y-103600000D02*
X131370000Y-99600000D01*
D10*
X137370000Y-100315000D02*
G75*
G03X137370000Y-100315000I-400000J0D01*
G01*
G04 #@! TO.C,C1*
X139957142Y-94966666D02*
X140004761Y-95014285D01*
X140052380Y-95157142D01*
X140052380Y-95252380D01*
X140004761Y-95395238D01*
X139909523Y-95490476D01*
X139814285Y-95538095D01*
X139623809Y-95585714D01*
X139480952Y-95585714D01*
X139290476Y-95538095D01*
X139195238Y-95490476D01*
X139100000Y-95395238D01*
X139052380Y-95252380D01*
X139052380Y-95157142D01*
X139100000Y-95014285D01*
X139147619Y-94966666D01*
X140052380Y-94014285D02*
X140052380Y-94585714D01*
X140052380Y-94300000D02*
X139052380Y-94300000D01*
X139195238Y-94395238D01*
X139290476Y-94490476D01*
X139338095Y-94585714D01*
G04 #@! TO.C,C2*
X129833333Y-106557142D02*
X129785714Y-106604761D01*
X129642857Y-106652380D01*
X129547619Y-106652380D01*
X129404761Y-106604761D01*
X129309523Y-106509523D01*
X129261904Y-106414285D01*
X129214285Y-106223809D01*
X129214285Y-106080952D01*
X129261904Y-105890476D01*
X129309523Y-105795238D01*
X129404761Y-105700000D01*
X129547619Y-105652380D01*
X129642857Y-105652380D01*
X129785714Y-105700000D01*
X129833333Y-105747619D01*
X130214285Y-105747619D02*
X130261904Y-105700000D01*
X130357142Y-105652380D01*
X130595238Y-105652380D01*
X130690476Y-105700000D01*
X130738095Y-105747619D01*
X130785714Y-105842857D01*
X130785714Y-105938095D01*
X130738095Y-106080952D01*
X130166666Y-106652380D01*
X130785714Y-106652380D01*
G04 #@! TO.C,C3*
X135257142Y-110166666D02*
X135304761Y-110214285D01*
X135352380Y-110357142D01*
X135352380Y-110452380D01*
X135304761Y-110595238D01*
X135209523Y-110690476D01*
X135114285Y-110738095D01*
X134923809Y-110785714D01*
X134780952Y-110785714D01*
X134590476Y-110738095D01*
X134495238Y-110690476D01*
X134400000Y-110595238D01*
X134352380Y-110452380D01*
X134352380Y-110357142D01*
X134400000Y-110214285D01*
X134447619Y-110166666D01*
X134352380Y-109833333D02*
X134352380Y-109214285D01*
X134733333Y-109547619D01*
X134733333Y-109404761D01*
X134780952Y-109309523D01*
X134828571Y-109261904D01*
X134923809Y-109214285D01*
X135161904Y-109214285D01*
X135257142Y-109261904D01*
X135304761Y-109309523D01*
X135352380Y-109404761D01*
X135352380Y-109690476D01*
X135304761Y-109785714D01*
X135257142Y-109833333D01*
G04 #@! TO.C,C4*
X138633333Y-107057142D02*
X138585714Y-107104761D01*
X138442857Y-107152380D01*
X138347619Y-107152380D01*
X138204761Y-107104761D01*
X138109523Y-107009523D01*
X138061904Y-106914285D01*
X138014285Y-106723809D01*
X138014285Y-106580952D01*
X138061904Y-106390476D01*
X138109523Y-106295238D01*
X138204761Y-106200000D01*
X138347619Y-106152380D01*
X138442857Y-106152380D01*
X138585714Y-106200000D01*
X138633333Y-106247619D01*
X139490476Y-106485714D02*
X139490476Y-107152380D01*
X139252380Y-106104761D02*
X139014285Y-106819047D01*
X139633333Y-106819047D01*
G04 #@! TO.C,C5*
X132533333Y-112957142D02*
X132485714Y-113004761D01*
X132342857Y-113052380D01*
X132247619Y-113052380D01*
X132104761Y-113004761D01*
X132009523Y-112909523D01*
X131961904Y-112814285D01*
X131914285Y-112623809D01*
X131914285Y-112480952D01*
X131961904Y-112290476D01*
X132009523Y-112195238D01*
X132104761Y-112100000D01*
X132247619Y-112052380D01*
X132342857Y-112052380D01*
X132485714Y-112100000D01*
X132533333Y-112147619D01*
X133438095Y-112052380D02*
X132961904Y-112052380D01*
X132914285Y-112528571D01*
X132961904Y-112480952D01*
X133057142Y-112433333D01*
X133295238Y-112433333D01*
X133390476Y-112480952D01*
X133438095Y-112528571D01*
X133485714Y-112623809D01*
X133485714Y-112861904D01*
X133438095Y-112957142D01*
X133390476Y-113004761D01*
X133295238Y-113052380D01*
X133057142Y-113052380D01*
X132961904Y-113004761D01*
X132914285Y-112957142D01*
G04 #@! TO.C,C6*
X132233333Y-106957142D02*
X132185714Y-107004761D01*
X132042857Y-107052380D01*
X131947619Y-107052380D01*
X131804761Y-107004761D01*
X131709523Y-106909523D01*
X131661904Y-106814285D01*
X131614285Y-106623809D01*
X131614285Y-106480952D01*
X131661904Y-106290476D01*
X131709523Y-106195238D01*
X131804761Y-106100000D01*
X131947619Y-106052380D01*
X132042857Y-106052380D01*
X132185714Y-106100000D01*
X132233333Y-106147619D01*
X133090476Y-106052380D02*
X132900000Y-106052380D01*
X132804761Y-106100000D01*
X132757142Y-106147619D01*
X132661904Y-106290476D01*
X132614285Y-106480952D01*
X132614285Y-106861904D01*
X132661904Y-106957142D01*
X132709523Y-107004761D01*
X132804761Y-107052380D01*
X132995238Y-107052380D01*
X133090476Y-107004761D01*
X133138095Y-106957142D01*
X133185714Y-106861904D01*
X133185714Y-106623809D01*
X133138095Y-106528571D01*
X133090476Y-106480952D01*
X132995238Y-106433333D01*
X132804761Y-106433333D01*
X132709523Y-106480952D01*
X132661904Y-106528571D01*
X132614285Y-106623809D01*
G04 #@! TO.C,C7*
X139033333Y-105757142D02*
X138985714Y-105804761D01*
X138842857Y-105852380D01*
X138747619Y-105852380D01*
X138604761Y-105804761D01*
X138509523Y-105709523D01*
X138461904Y-105614285D01*
X138414285Y-105423809D01*
X138414285Y-105280952D01*
X138461904Y-105090476D01*
X138509523Y-104995238D01*
X138604761Y-104900000D01*
X138747619Y-104852380D01*
X138842857Y-104852380D01*
X138985714Y-104900000D01*
X139033333Y-104947619D01*
X139366666Y-104852380D02*
X140033333Y-104852380D01*
X139604761Y-105852380D01*
G04 #@! TO.C,FB1*
X134166666Y-111628571D02*
X133833333Y-111628571D01*
X133833333Y-112152380D02*
X133833333Y-111152380D01*
X134309523Y-111152380D01*
X135023809Y-111628571D02*
X135166666Y-111676190D01*
X135214285Y-111723809D01*
X135261904Y-111819047D01*
X135261904Y-111961904D01*
X135214285Y-112057142D01*
X135166666Y-112104761D01*
X135071428Y-112152380D01*
X134690476Y-112152380D01*
X134690476Y-111152380D01*
X135023809Y-111152380D01*
X135119047Y-111200000D01*
X135166666Y-111247619D01*
X135214285Y-111342857D01*
X135214285Y-111438095D01*
X135166666Y-111533333D01*
X135119047Y-111580952D01*
X135023809Y-111628571D01*
X134690476Y-111628571D01*
X136214285Y-112152380D02*
X135642857Y-112152380D01*
X135928571Y-112152380D02*
X135928571Y-111152380D01*
X135833333Y-111295238D01*
X135738095Y-111390476D01*
X135642857Y-111438095D01*
G04 #@! TO.C,FB2*
X137066666Y-111828571D02*
X136733333Y-111828571D01*
X136733333Y-112352380D02*
X136733333Y-111352380D01*
X137209523Y-111352380D01*
X137923809Y-111828571D02*
X138066666Y-111876190D01*
X138114285Y-111923809D01*
X138161904Y-112019047D01*
X138161904Y-112161904D01*
X138114285Y-112257142D01*
X138066666Y-112304761D01*
X137971428Y-112352380D01*
X137590476Y-112352380D01*
X137590476Y-111352380D01*
X137923809Y-111352380D01*
X138019047Y-111400000D01*
X138066666Y-111447619D01*
X138114285Y-111542857D01*
X138114285Y-111638095D01*
X138066666Y-111733333D01*
X138019047Y-111780952D01*
X137923809Y-111828571D01*
X137590476Y-111828571D01*
X138542857Y-111447619D02*
X138590476Y-111400000D01*
X138685714Y-111352380D01*
X138923809Y-111352380D01*
X139019047Y-111400000D01*
X139066666Y-111447619D01*
X139114285Y-111542857D01*
X139114285Y-111638095D01*
X139066666Y-111780952D01*
X138495238Y-112352380D01*
X139114285Y-112352380D01*
G04 #@! TO.C,FB3*
X140028571Y-109433333D02*
X140028571Y-109766666D01*
X140552380Y-109766666D02*
X139552380Y-109766666D01*
X139552380Y-109290476D01*
X140028571Y-108576190D02*
X140076190Y-108433333D01*
X140123809Y-108385714D01*
X140219047Y-108338095D01*
X140361904Y-108338095D01*
X140457142Y-108385714D01*
X140504761Y-108433333D01*
X140552380Y-108528571D01*
X140552380Y-108909523D01*
X139552380Y-108909523D01*
X139552380Y-108576190D01*
X139600000Y-108480952D01*
X139647619Y-108433333D01*
X139742857Y-108385714D01*
X139838095Y-108385714D01*
X139933333Y-108433333D01*
X139980952Y-108480952D01*
X140028571Y-108576190D01*
X140028571Y-108909523D01*
X139552380Y-108004761D02*
X139552380Y-107385714D01*
X139933333Y-107719047D01*
X139933333Y-107576190D01*
X139980952Y-107480952D01*
X140028571Y-107433333D01*
X140123809Y-107385714D01*
X140361904Y-107385714D01*
X140457142Y-107433333D01*
X140504761Y-107480952D01*
X140552380Y-107576190D01*
X140552380Y-107861904D01*
X140504761Y-107957142D01*
X140457142Y-108004761D01*
G04 #@! TO.C,J1*
X128552380Y-101933333D02*
X129266666Y-101933333D01*
X129409523Y-101980952D01*
X129504761Y-102076190D01*
X129552380Y-102219047D01*
X129552380Y-102314285D01*
X129552380Y-100933333D02*
X129552380Y-101504761D01*
X129552380Y-101219047D02*
X128552380Y-101219047D01*
X128695238Y-101314285D01*
X128790476Y-101409523D01*
X128838095Y-101504761D01*
G04 #@! TO.C,J2*
X137452380Y-92433333D02*
X138166666Y-92433333D01*
X138309523Y-92480952D01*
X138404761Y-92576190D01*
X138452380Y-92719047D01*
X138452380Y-92814285D01*
X137547619Y-92004761D02*
X137500000Y-91957142D01*
X137452380Y-91861904D01*
X137452380Y-91623809D01*
X137500000Y-91528571D01*
X137547619Y-91480952D01*
X137642857Y-91433333D01*
X137738095Y-91433333D01*
X137880952Y-91480952D01*
X138452380Y-92052380D01*
X138452380Y-91433333D01*
G04 #@! TO.C,J3*
X139692380Y-101933333D02*
X140406666Y-101933333D01*
X140549523Y-101980952D01*
X140644761Y-102076190D01*
X140692380Y-102219047D01*
X140692380Y-102314285D01*
X139692380Y-101552380D02*
X139692380Y-100933333D01*
X140073333Y-101266666D01*
X140073333Y-101123809D01*
X140120952Y-101028571D01*
X140168571Y-100980952D01*
X140263809Y-100933333D01*
X140501904Y-100933333D01*
X140597142Y-100980952D01*
X140644761Y-101028571D01*
X140692380Y-101123809D01*
X140692380Y-101409523D01*
X140644761Y-101504761D01*
X140597142Y-101552380D01*
G04 #@! TO.C,R1*
X129233333Y-97252380D02*
X128900000Y-96776190D01*
X128661904Y-97252380D02*
X128661904Y-96252380D01*
X129042857Y-96252380D01*
X129138095Y-96300000D01*
X129185714Y-96347619D01*
X129233333Y-96442857D01*
X129233333Y-96585714D01*
X129185714Y-96680952D01*
X129138095Y-96728571D01*
X129042857Y-96776190D01*
X128661904Y-96776190D01*
X130185714Y-97252380D02*
X129614285Y-97252380D01*
X129900000Y-97252380D02*
X129900000Y-96252380D01*
X129804761Y-96395238D01*
X129709523Y-96490476D01*
X129614285Y-96538095D01*
G04 #@! TO.C,R2*
X135433333Y-97252380D02*
X135100000Y-96776190D01*
X134861904Y-97252380D02*
X134861904Y-96252380D01*
X135242857Y-96252380D01*
X135338095Y-96300000D01*
X135385714Y-96347619D01*
X135433333Y-96442857D01*
X135433333Y-96585714D01*
X135385714Y-96680952D01*
X135338095Y-96728571D01*
X135242857Y-96776190D01*
X134861904Y-96776190D01*
X135814285Y-96347619D02*
X135861904Y-96300000D01*
X135957142Y-96252380D01*
X136195238Y-96252380D01*
X136290476Y-96300000D01*
X136338095Y-96347619D01*
X136385714Y-96442857D01*
X136385714Y-96538095D01*
X136338095Y-96680952D01*
X135766666Y-97252380D01*
X136385714Y-97252380D01*
G04 #@! TO.C,R3*
X131233333Y-97252380D02*
X130900000Y-96776190D01*
X130661904Y-97252380D02*
X130661904Y-96252380D01*
X131042857Y-96252380D01*
X131138095Y-96300000D01*
X131185714Y-96347619D01*
X131233333Y-96442857D01*
X131233333Y-96585714D01*
X131185714Y-96680952D01*
X131138095Y-96728571D01*
X131042857Y-96776190D01*
X130661904Y-96776190D01*
X131566666Y-96252380D02*
X132185714Y-96252380D01*
X131852380Y-96633333D01*
X131995238Y-96633333D01*
X132090476Y-96680952D01*
X132138095Y-96728571D01*
X132185714Y-96823809D01*
X132185714Y-97061904D01*
X132138095Y-97157142D01*
X132090476Y-97204761D01*
X131995238Y-97252380D01*
X131709523Y-97252380D01*
X131614285Y-97204761D01*
X131566666Y-97157142D01*
G04 #@! TO.C,R4*
X137333333Y-94852380D02*
X137000000Y-94376190D01*
X136761904Y-94852380D02*
X136761904Y-93852380D01*
X137142857Y-93852380D01*
X137238095Y-93900000D01*
X137285714Y-93947619D01*
X137333333Y-94042857D01*
X137333333Y-94185714D01*
X137285714Y-94280952D01*
X137238095Y-94328571D01*
X137142857Y-94376190D01*
X136761904Y-94376190D01*
X138190476Y-94185714D02*
X138190476Y-94852380D01*
X137952380Y-93804761D02*
X137714285Y-94519047D01*
X138333333Y-94519047D01*
G04 #@! TO.C,R5*
X133333333Y-97252380D02*
X133000000Y-96776190D01*
X132761904Y-97252380D02*
X132761904Y-96252380D01*
X133142857Y-96252380D01*
X133238095Y-96300000D01*
X133285714Y-96347619D01*
X133333333Y-96442857D01*
X133333333Y-96585714D01*
X133285714Y-96680952D01*
X133238095Y-96728571D01*
X133142857Y-96776190D01*
X132761904Y-96776190D01*
X134238095Y-96252380D02*
X133761904Y-96252380D01*
X133714285Y-96728571D01*
X133761904Y-96680952D01*
X133857142Y-96633333D01*
X134095238Y-96633333D01*
X134190476Y-96680952D01*
X134238095Y-96728571D01*
X134285714Y-96823809D01*
X134285714Y-97061904D01*
X134238095Y-97157142D01*
X134190476Y-97204761D01*
X134095238Y-97252380D01*
X133857142Y-97252380D01*
X133761904Y-97204761D01*
X133714285Y-97157142D01*
G04 #@! TO.C,R6*
X129652380Y-94766666D02*
X129176190Y-95100000D01*
X129652380Y-95338095D02*
X128652380Y-95338095D01*
X128652380Y-94957142D01*
X128700000Y-94861904D01*
X128747619Y-94814285D01*
X128842857Y-94766666D01*
X128985714Y-94766666D01*
X129080952Y-94814285D01*
X129128571Y-94861904D01*
X129176190Y-94957142D01*
X129176190Y-95338095D01*
X128652380Y-93909523D02*
X128652380Y-94100000D01*
X128700000Y-94195238D01*
X128747619Y-94242857D01*
X128890476Y-94338095D01*
X129080952Y-94385714D01*
X129461904Y-94385714D01*
X129557142Y-94338095D01*
X129604761Y-94290476D01*
X129652380Y-94195238D01*
X129652380Y-94004761D01*
X129604761Y-93909523D01*
X129557142Y-93861904D01*
X129461904Y-93814285D01*
X129223809Y-93814285D01*
X129128571Y-93861904D01*
X129080952Y-93909523D01*
X129033333Y-94004761D01*
X129033333Y-94195238D01*
X129080952Y-94290476D01*
X129128571Y-94338095D01*
X129223809Y-94385714D01*
G04 #@! TO.C,SJ1*
X140504761Y-112542857D02*
X140552380Y-112400000D01*
X140552380Y-112161904D01*
X140504761Y-112066666D01*
X140457142Y-112019047D01*
X140361904Y-111971428D01*
X140266666Y-111971428D01*
X140171428Y-112019047D01*
X140123809Y-112066666D01*
X140076190Y-112161904D01*
X140028571Y-112352380D01*
X139980952Y-112447619D01*
X139933333Y-112495238D01*
X139838095Y-112542857D01*
X139742857Y-112542857D01*
X139647619Y-112495238D01*
X139600000Y-112447619D01*
X139552380Y-112352380D01*
X139552380Y-112114285D01*
X139600000Y-111971428D01*
X139552380Y-111257142D02*
X140266666Y-111257142D01*
X140409523Y-111304761D01*
X140504761Y-111400000D01*
X140552380Y-111542857D01*
X140552380Y-111638095D01*
X140552380Y-110257142D02*
X140552380Y-110828571D01*
X140552380Y-110542857D02*
X139552380Y-110542857D01*
X139695238Y-110638095D01*
X139790476Y-110733333D01*
X139838095Y-110828571D01*
G04 #@! TO.C,Y1*
X128976190Y-108076190D02*
X129452380Y-108076190D01*
X128452380Y-108409523D02*
X128976190Y-108076190D01*
X128452380Y-107742857D01*
X129452380Y-106885714D02*
X129452380Y-107457142D01*
X129452380Y-107171428D02*
X128452380Y-107171428D01*
X128595238Y-107266666D01*
X128690476Y-107361904D01*
X128738095Y-107457142D01*
G04 #@! TO.C,U1*
X138152380Y-101064404D02*
X138961904Y-101064404D01*
X139057142Y-101016785D01*
X139104761Y-100969166D01*
X139152380Y-100873928D01*
X139152380Y-100683452D01*
X139104761Y-100588214D01*
X139057142Y-100540595D01*
X138961904Y-100492976D01*
X138152380Y-100492976D01*
X139152380Y-99492976D02*
X139152380Y-100064404D01*
X139152380Y-99778690D02*
X138152380Y-99778690D01*
X138295238Y-99873928D01*
X138390476Y-99969166D01*
X138438095Y-100064404D01*
G04 #@! TD*
M02*
