G04 #@! TF.GenerationSoftware,KiCad,Pcbnew,5.0.1-33cea8e~68~ubuntu18.04.1*
G04 #@! TF.CreationDate,2018-11-10T11:16:57+01:00*
G04 #@! TF.ProjectId,LPC82X_JDH20,4C50433832585F4A444832302E6B6963,rev?*
G04 #@! TF.SameCoordinates,Original*
G04 #@! TF.FileFunction,Soldermask,Bot*
G04 #@! TF.FilePolarity,Negative*
%FSLAX46Y46*%
G04 Gerber Fmt 4.6, Leading zero omitted, Abs format (unit mm)*
G04 Created by KiCad (PCBNEW 5.0.1-33cea8e~68~ubuntu18.04.1) date za 10 nov 2018 11:16:57 CET*
%MOMM*%
%LPD*%
G01*
G04 APERTURE LIST*
%ADD10C,0.100000*%
G04 APERTURE END LIST*
D10*
G36*
X142990000Y-112510000D02*
X141490000Y-112510000D01*
X141490000Y-111010000D01*
X142990000Y-111010000D01*
X142990000Y-112510000D01*
X142990000Y-112510000D01*
G37*
G36*
X127146318Y-111024411D02*
X127218767Y-111038822D01*
X127275303Y-111062240D01*
X127355257Y-111095358D01*
X127478100Y-111177439D01*
X127582561Y-111281900D01*
X127664642Y-111404743D01*
X127721178Y-111541234D01*
X127750000Y-111686130D01*
X127750000Y-111833870D01*
X127721178Y-111978766D01*
X127664642Y-112115257D01*
X127582561Y-112238100D01*
X127478100Y-112342561D01*
X127355257Y-112424642D01*
X127275303Y-112457760D01*
X127218767Y-112481178D01*
X127146318Y-112495589D01*
X127073870Y-112510000D01*
X126926130Y-112510000D01*
X126853682Y-112495589D01*
X126781233Y-112481178D01*
X126724697Y-112457760D01*
X126644743Y-112424642D01*
X126521900Y-112342561D01*
X126417439Y-112238100D01*
X126335358Y-112115257D01*
X126278822Y-111978766D01*
X126250000Y-111833870D01*
X126250000Y-111686130D01*
X126278822Y-111541234D01*
X126335358Y-111404743D01*
X126417439Y-111281900D01*
X126521900Y-111177439D01*
X126644743Y-111095358D01*
X126724697Y-111062240D01*
X126781233Y-111038822D01*
X126853682Y-111024411D01*
X126926130Y-111010000D01*
X127073870Y-111010000D01*
X127146318Y-111024411D01*
X127146318Y-111024411D01*
G37*
G36*
X127146318Y-108484411D02*
X127218767Y-108498822D01*
X127275303Y-108522240D01*
X127355257Y-108555358D01*
X127478100Y-108637439D01*
X127582561Y-108741900D01*
X127664642Y-108864743D01*
X127721178Y-109001234D01*
X127750000Y-109146130D01*
X127750000Y-109293870D01*
X127721178Y-109438766D01*
X127664642Y-109575257D01*
X127582561Y-109698100D01*
X127478100Y-109802561D01*
X127355257Y-109884642D01*
X127275303Y-109917760D01*
X127218767Y-109941178D01*
X127146318Y-109955589D01*
X127073870Y-109970000D01*
X126926130Y-109970000D01*
X126853682Y-109955589D01*
X126781233Y-109941178D01*
X126724697Y-109917760D01*
X126644743Y-109884642D01*
X126521900Y-109802561D01*
X126417439Y-109698100D01*
X126335358Y-109575257D01*
X126278822Y-109438766D01*
X126250000Y-109293870D01*
X126250000Y-109146130D01*
X126278822Y-109001234D01*
X126335358Y-108864743D01*
X126417439Y-108741900D01*
X126521900Y-108637439D01*
X126644743Y-108555358D01*
X126724697Y-108522240D01*
X126781233Y-108498822D01*
X126853682Y-108484411D01*
X126926130Y-108470000D01*
X127073870Y-108470000D01*
X127146318Y-108484411D01*
X127146318Y-108484411D01*
G37*
G36*
X142386318Y-108484411D02*
X142458767Y-108498822D01*
X142515303Y-108522240D01*
X142595257Y-108555358D01*
X142718100Y-108637439D01*
X142822561Y-108741900D01*
X142904642Y-108864743D01*
X142961178Y-109001234D01*
X142990000Y-109146130D01*
X142990000Y-109293870D01*
X142961178Y-109438766D01*
X142904642Y-109575257D01*
X142822561Y-109698100D01*
X142718100Y-109802561D01*
X142595257Y-109884642D01*
X142515303Y-109917760D01*
X142458767Y-109941178D01*
X142386318Y-109955589D01*
X142313870Y-109970000D01*
X142166130Y-109970000D01*
X142093682Y-109955589D01*
X142021233Y-109941178D01*
X141964697Y-109917760D01*
X141884743Y-109884642D01*
X141761900Y-109802561D01*
X141657439Y-109698100D01*
X141575358Y-109575257D01*
X141518822Y-109438766D01*
X141490000Y-109293870D01*
X141490000Y-109146130D01*
X141518822Y-109001234D01*
X141575358Y-108864743D01*
X141657439Y-108741900D01*
X141761900Y-108637439D01*
X141884743Y-108555358D01*
X141964697Y-108522240D01*
X142021233Y-108498822D01*
X142093682Y-108484411D01*
X142166130Y-108470000D01*
X142313870Y-108470000D01*
X142386318Y-108484411D01*
X142386318Y-108484411D01*
G37*
G36*
X142386318Y-105944411D02*
X142458767Y-105958822D01*
X142515303Y-105982240D01*
X142595257Y-106015358D01*
X142718100Y-106097439D01*
X142822561Y-106201900D01*
X142904642Y-106324743D01*
X142961178Y-106461234D01*
X142990000Y-106606130D01*
X142990000Y-106753870D01*
X142961178Y-106898766D01*
X142904642Y-107035257D01*
X142822561Y-107158100D01*
X142718100Y-107262561D01*
X142595257Y-107344642D01*
X142515303Y-107377760D01*
X142458767Y-107401178D01*
X142386318Y-107415589D01*
X142313870Y-107430000D01*
X142166130Y-107430000D01*
X142093682Y-107415589D01*
X142021233Y-107401178D01*
X141964697Y-107377760D01*
X141884743Y-107344642D01*
X141761900Y-107262561D01*
X141657439Y-107158100D01*
X141575358Y-107035257D01*
X141518822Y-106898766D01*
X141490000Y-106753870D01*
X141490000Y-106606130D01*
X141518822Y-106461234D01*
X141575358Y-106324743D01*
X141657439Y-106201900D01*
X141761900Y-106097439D01*
X141884743Y-106015358D01*
X141964697Y-105982240D01*
X142021233Y-105958822D01*
X142093682Y-105944411D01*
X142166130Y-105930000D01*
X142313870Y-105930000D01*
X142386318Y-105944411D01*
X142386318Y-105944411D01*
G37*
G36*
X127146318Y-105944411D02*
X127218767Y-105958822D01*
X127275303Y-105982240D01*
X127355257Y-106015358D01*
X127478100Y-106097439D01*
X127582561Y-106201900D01*
X127664642Y-106324743D01*
X127721178Y-106461234D01*
X127750000Y-106606130D01*
X127750000Y-106753870D01*
X127721178Y-106898766D01*
X127664642Y-107035257D01*
X127582561Y-107158100D01*
X127478100Y-107262561D01*
X127355257Y-107344642D01*
X127275303Y-107377760D01*
X127218767Y-107401178D01*
X127146318Y-107415589D01*
X127073870Y-107430000D01*
X126926130Y-107430000D01*
X126853682Y-107415589D01*
X126781233Y-107401178D01*
X126724697Y-107377760D01*
X126644743Y-107344642D01*
X126521900Y-107262561D01*
X126417439Y-107158100D01*
X126335358Y-107035257D01*
X126278822Y-106898766D01*
X126250000Y-106753870D01*
X126250000Y-106606130D01*
X126278822Y-106461234D01*
X126335358Y-106324743D01*
X126417439Y-106201900D01*
X126521900Y-106097439D01*
X126644743Y-106015358D01*
X126724697Y-105982240D01*
X126781233Y-105958822D01*
X126853682Y-105944411D01*
X126926130Y-105930000D01*
X127073870Y-105930000D01*
X127146318Y-105944411D01*
X127146318Y-105944411D01*
G37*
G36*
X127146318Y-103404411D02*
X127218767Y-103418822D01*
X127275303Y-103442240D01*
X127355257Y-103475358D01*
X127478100Y-103557439D01*
X127582561Y-103661900D01*
X127664642Y-103784743D01*
X127721178Y-103921234D01*
X127750000Y-104066130D01*
X127750000Y-104213870D01*
X127721178Y-104358766D01*
X127664642Y-104495257D01*
X127582561Y-104618100D01*
X127478100Y-104722561D01*
X127355257Y-104804642D01*
X127275303Y-104837760D01*
X127218767Y-104861178D01*
X127146318Y-104875589D01*
X127073870Y-104890000D01*
X126926130Y-104890000D01*
X126853682Y-104875589D01*
X126781233Y-104861178D01*
X126724697Y-104837760D01*
X126644743Y-104804642D01*
X126521900Y-104722561D01*
X126417439Y-104618100D01*
X126335358Y-104495257D01*
X126278822Y-104358766D01*
X126250000Y-104213870D01*
X126250000Y-104066130D01*
X126278822Y-103921234D01*
X126335358Y-103784743D01*
X126417439Y-103661900D01*
X126521900Y-103557439D01*
X126644743Y-103475358D01*
X126724697Y-103442240D01*
X126781233Y-103418822D01*
X126853682Y-103404411D01*
X126926130Y-103390000D01*
X127073870Y-103390000D01*
X127146318Y-103404411D01*
X127146318Y-103404411D01*
G37*
G36*
X142386318Y-103404411D02*
X142458767Y-103418822D01*
X142515303Y-103442240D01*
X142595257Y-103475358D01*
X142718100Y-103557439D01*
X142822561Y-103661900D01*
X142904642Y-103784743D01*
X142961178Y-103921234D01*
X142990000Y-104066130D01*
X142990000Y-104213870D01*
X142961178Y-104358766D01*
X142904642Y-104495257D01*
X142822561Y-104618100D01*
X142718100Y-104722561D01*
X142595257Y-104804642D01*
X142515303Y-104837760D01*
X142458767Y-104861178D01*
X142386318Y-104875589D01*
X142313870Y-104890000D01*
X142166130Y-104890000D01*
X142093682Y-104875589D01*
X142021233Y-104861178D01*
X141964697Y-104837760D01*
X141884743Y-104804642D01*
X141761900Y-104722561D01*
X141657439Y-104618100D01*
X141575358Y-104495257D01*
X141518822Y-104358766D01*
X141490000Y-104213870D01*
X141490000Y-104066130D01*
X141518822Y-103921234D01*
X141575358Y-103784743D01*
X141657439Y-103661900D01*
X141761900Y-103557439D01*
X141884743Y-103475358D01*
X141964697Y-103442240D01*
X142021233Y-103418822D01*
X142093682Y-103404411D01*
X142166130Y-103390000D01*
X142313870Y-103390000D01*
X142386318Y-103404411D01*
X142386318Y-103404411D01*
G37*
G36*
X142386318Y-100864411D02*
X142458767Y-100878822D01*
X142515303Y-100902240D01*
X142595257Y-100935358D01*
X142718100Y-101017439D01*
X142822561Y-101121900D01*
X142904642Y-101244743D01*
X142961178Y-101381234D01*
X142990000Y-101526130D01*
X142990000Y-101673870D01*
X142961178Y-101818766D01*
X142904642Y-101955257D01*
X142822561Y-102078100D01*
X142718100Y-102182561D01*
X142595257Y-102264642D01*
X142515303Y-102297760D01*
X142458767Y-102321178D01*
X142386318Y-102335589D01*
X142313870Y-102350000D01*
X142166130Y-102350000D01*
X142093682Y-102335589D01*
X142021233Y-102321178D01*
X141964697Y-102297760D01*
X141884743Y-102264642D01*
X141761900Y-102182561D01*
X141657439Y-102078100D01*
X141575358Y-101955257D01*
X141518822Y-101818766D01*
X141490000Y-101673870D01*
X141490000Y-101526130D01*
X141518822Y-101381234D01*
X141575358Y-101244743D01*
X141657439Y-101121900D01*
X141761900Y-101017439D01*
X141884743Y-100935358D01*
X141964697Y-100902240D01*
X142021233Y-100878822D01*
X142093682Y-100864411D01*
X142166130Y-100850000D01*
X142313870Y-100850000D01*
X142386318Y-100864411D01*
X142386318Y-100864411D01*
G37*
G36*
X127146318Y-100864411D02*
X127218767Y-100878822D01*
X127275303Y-100902240D01*
X127355257Y-100935358D01*
X127478100Y-101017439D01*
X127582561Y-101121900D01*
X127664642Y-101244743D01*
X127721178Y-101381234D01*
X127750000Y-101526130D01*
X127750000Y-101673870D01*
X127721178Y-101818766D01*
X127664642Y-101955257D01*
X127582561Y-102078100D01*
X127478100Y-102182561D01*
X127355257Y-102264642D01*
X127275303Y-102297760D01*
X127218767Y-102321178D01*
X127146318Y-102335589D01*
X127073870Y-102350000D01*
X126926130Y-102350000D01*
X126853682Y-102335589D01*
X126781233Y-102321178D01*
X126724697Y-102297760D01*
X126644743Y-102264642D01*
X126521900Y-102182561D01*
X126417439Y-102078100D01*
X126335358Y-101955257D01*
X126278822Y-101818766D01*
X126250000Y-101673870D01*
X126250000Y-101526130D01*
X126278822Y-101381234D01*
X126335358Y-101244743D01*
X126417439Y-101121900D01*
X126521900Y-101017439D01*
X126644743Y-100935358D01*
X126724697Y-100902240D01*
X126781233Y-100878822D01*
X126853682Y-100864411D01*
X126926130Y-100850000D01*
X127073870Y-100850000D01*
X127146318Y-100864411D01*
X127146318Y-100864411D01*
G37*
G36*
X142386318Y-98324411D02*
X142458767Y-98338822D01*
X142515303Y-98362240D01*
X142595257Y-98395358D01*
X142718100Y-98477439D01*
X142822561Y-98581900D01*
X142904642Y-98704743D01*
X142961178Y-98841234D01*
X142990000Y-98986130D01*
X142990000Y-99133870D01*
X142961178Y-99278766D01*
X142904642Y-99415257D01*
X142822561Y-99538100D01*
X142718100Y-99642561D01*
X142595257Y-99724642D01*
X142515303Y-99757760D01*
X142458767Y-99781178D01*
X142386318Y-99795589D01*
X142313870Y-99810000D01*
X142166130Y-99810000D01*
X142093682Y-99795589D01*
X142021233Y-99781178D01*
X141964697Y-99757760D01*
X141884743Y-99724642D01*
X141761900Y-99642561D01*
X141657439Y-99538100D01*
X141575358Y-99415257D01*
X141518822Y-99278766D01*
X141490000Y-99133870D01*
X141490000Y-98986130D01*
X141518822Y-98841234D01*
X141575358Y-98704743D01*
X141657439Y-98581900D01*
X141761900Y-98477439D01*
X141884743Y-98395358D01*
X141964697Y-98362240D01*
X142021233Y-98338822D01*
X142093682Y-98324411D01*
X142166130Y-98310000D01*
X142313870Y-98310000D01*
X142386318Y-98324411D01*
X142386318Y-98324411D01*
G37*
G36*
X127146318Y-98324411D02*
X127218767Y-98338822D01*
X127275303Y-98362240D01*
X127355257Y-98395358D01*
X127478100Y-98477439D01*
X127582561Y-98581900D01*
X127664642Y-98704743D01*
X127721178Y-98841234D01*
X127750000Y-98986130D01*
X127750000Y-99133870D01*
X127721178Y-99278766D01*
X127664642Y-99415257D01*
X127582561Y-99538100D01*
X127478100Y-99642561D01*
X127355257Y-99724642D01*
X127275303Y-99757760D01*
X127218767Y-99781178D01*
X127146318Y-99795589D01*
X127073870Y-99810000D01*
X126926130Y-99810000D01*
X126853682Y-99795589D01*
X126781233Y-99781178D01*
X126724697Y-99757760D01*
X126644743Y-99724642D01*
X126521900Y-99642561D01*
X126417439Y-99538100D01*
X126335358Y-99415257D01*
X126278822Y-99278766D01*
X126250000Y-99133870D01*
X126250000Y-98986130D01*
X126278822Y-98841234D01*
X126335358Y-98704743D01*
X126417439Y-98581900D01*
X126521900Y-98477439D01*
X126644743Y-98395358D01*
X126724697Y-98362240D01*
X126781233Y-98338822D01*
X126853682Y-98324411D01*
X126926130Y-98310000D01*
X127073870Y-98310000D01*
X127146318Y-98324411D01*
X127146318Y-98324411D01*
G37*
G36*
X142386318Y-95784411D02*
X142458767Y-95798822D01*
X142515303Y-95822240D01*
X142595257Y-95855358D01*
X142718100Y-95937439D01*
X142822561Y-96041900D01*
X142904642Y-96164743D01*
X142961178Y-96301234D01*
X142990000Y-96446130D01*
X142990000Y-96593870D01*
X142961178Y-96738766D01*
X142904642Y-96875257D01*
X142822561Y-96998100D01*
X142718100Y-97102561D01*
X142595257Y-97184642D01*
X142515303Y-97217760D01*
X142458767Y-97241178D01*
X142386318Y-97255589D01*
X142313870Y-97270000D01*
X142166130Y-97270000D01*
X142093682Y-97255589D01*
X142021233Y-97241178D01*
X141964697Y-97217760D01*
X141884743Y-97184642D01*
X141761900Y-97102561D01*
X141657439Y-96998100D01*
X141575358Y-96875257D01*
X141518822Y-96738766D01*
X141490000Y-96593870D01*
X141490000Y-96446130D01*
X141518822Y-96301234D01*
X141575358Y-96164743D01*
X141657439Y-96041900D01*
X141761900Y-95937439D01*
X141884743Y-95855358D01*
X141964697Y-95822240D01*
X142021233Y-95798822D01*
X142093682Y-95784411D01*
X142166130Y-95770000D01*
X142313870Y-95770000D01*
X142386318Y-95784411D01*
X142386318Y-95784411D01*
G37*
G36*
X127146318Y-95784411D02*
X127218767Y-95798822D01*
X127275303Y-95822240D01*
X127355257Y-95855358D01*
X127478100Y-95937439D01*
X127582561Y-96041900D01*
X127664642Y-96164743D01*
X127721178Y-96301234D01*
X127750000Y-96446130D01*
X127750000Y-96593870D01*
X127721178Y-96738766D01*
X127664642Y-96875257D01*
X127582561Y-96998100D01*
X127478100Y-97102561D01*
X127355257Y-97184642D01*
X127275303Y-97217760D01*
X127218767Y-97241178D01*
X127146318Y-97255589D01*
X127073870Y-97270000D01*
X126926130Y-97270000D01*
X126853682Y-97255589D01*
X126781233Y-97241178D01*
X126724697Y-97217760D01*
X126644743Y-97184642D01*
X126521900Y-97102561D01*
X126417439Y-96998100D01*
X126335358Y-96875257D01*
X126278822Y-96738766D01*
X126250000Y-96593870D01*
X126250000Y-96446130D01*
X126278822Y-96301234D01*
X126335358Y-96164743D01*
X126417439Y-96041900D01*
X126521900Y-95937439D01*
X126644743Y-95855358D01*
X126724697Y-95822240D01*
X126781233Y-95798822D01*
X126853682Y-95784411D01*
X126926130Y-95770000D01*
X127073870Y-95770000D01*
X127146318Y-95784411D01*
X127146318Y-95784411D01*
G37*
G36*
X127146318Y-93244411D02*
X127218767Y-93258822D01*
X127275303Y-93282240D01*
X127355257Y-93315358D01*
X127478100Y-93397439D01*
X127582561Y-93501900D01*
X127664642Y-93624743D01*
X127721178Y-93761234D01*
X127750000Y-93906130D01*
X127750000Y-94053870D01*
X127721178Y-94198766D01*
X127664642Y-94335257D01*
X127582561Y-94458100D01*
X127478100Y-94562561D01*
X127355257Y-94644642D01*
X127275303Y-94677760D01*
X127218767Y-94701178D01*
X127146318Y-94715589D01*
X127073870Y-94730000D01*
X126926130Y-94730000D01*
X126853682Y-94715589D01*
X126781233Y-94701178D01*
X126724697Y-94677760D01*
X126644743Y-94644642D01*
X126521900Y-94562561D01*
X126417439Y-94458100D01*
X126335358Y-94335257D01*
X126278822Y-94198766D01*
X126250000Y-94053870D01*
X126250000Y-93906130D01*
X126278822Y-93761234D01*
X126335358Y-93624743D01*
X126417439Y-93501900D01*
X126521900Y-93397439D01*
X126644743Y-93315358D01*
X126724697Y-93282240D01*
X126781233Y-93258822D01*
X126853682Y-93244411D01*
X126926130Y-93230000D01*
X127073870Y-93230000D01*
X127146318Y-93244411D01*
X127146318Y-93244411D01*
G37*
G36*
X142386318Y-93244411D02*
X142458767Y-93258822D01*
X142515303Y-93282240D01*
X142595257Y-93315358D01*
X142718100Y-93397439D01*
X142822561Y-93501900D01*
X142904642Y-93624743D01*
X142961178Y-93761234D01*
X142990000Y-93906130D01*
X142990000Y-94053870D01*
X142961178Y-94198766D01*
X142904642Y-94335257D01*
X142822561Y-94458100D01*
X142718100Y-94562561D01*
X142595257Y-94644642D01*
X142515303Y-94677760D01*
X142458767Y-94701178D01*
X142386318Y-94715589D01*
X142313870Y-94730000D01*
X142166130Y-94730000D01*
X142093682Y-94715589D01*
X142021233Y-94701178D01*
X141964697Y-94677760D01*
X141884743Y-94644642D01*
X141761900Y-94562561D01*
X141657439Y-94458100D01*
X141575358Y-94335257D01*
X141518822Y-94198766D01*
X141490000Y-94053870D01*
X141490000Y-93906130D01*
X141518822Y-93761234D01*
X141575358Y-93624743D01*
X141657439Y-93501900D01*
X141761900Y-93397439D01*
X141884743Y-93315358D01*
X141964697Y-93282240D01*
X142021233Y-93258822D01*
X142093682Y-93244411D01*
X142166130Y-93230000D01*
X142313870Y-93230000D01*
X142386318Y-93244411D01*
X142386318Y-93244411D01*
G37*
G36*
X135878553Y-91878254D02*
X135964998Y-91914061D01*
X136042796Y-91966044D01*
X136108956Y-92032204D01*
X136160939Y-92110002D01*
X136196746Y-92196447D01*
X136215000Y-92288216D01*
X136215000Y-92381784D01*
X136196746Y-92473553D01*
X136160939Y-92559998D01*
X136108956Y-92637796D01*
X136042796Y-92703956D01*
X135964998Y-92755939D01*
X135878553Y-92791746D01*
X135786784Y-92810000D01*
X135693216Y-92810000D01*
X135601447Y-92791746D01*
X135515002Y-92755939D01*
X135437204Y-92703956D01*
X135371044Y-92637796D01*
X135319061Y-92559998D01*
X135283254Y-92473553D01*
X135265000Y-92381784D01*
X135265000Y-92288216D01*
X135283254Y-92196447D01*
X135319061Y-92110002D01*
X135371044Y-92032204D01*
X135437204Y-91966044D01*
X135515002Y-91914061D01*
X135601447Y-91878254D01*
X135693216Y-91860000D01*
X135786784Y-91860000D01*
X135878553Y-91878254D01*
X135878553Y-91878254D01*
G37*
G36*
X134608553Y-91878254D02*
X134694998Y-91914061D01*
X134772796Y-91966044D01*
X134838956Y-92032204D01*
X134890939Y-92110002D01*
X134926746Y-92196447D01*
X134945000Y-92288216D01*
X134945000Y-92381784D01*
X134926746Y-92473553D01*
X134890939Y-92559998D01*
X134838956Y-92637796D01*
X134772796Y-92703956D01*
X134694998Y-92755939D01*
X134608553Y-92791746D01*
X134516784Y-92810000D01*
X134423216Y-92810000D01*
X134331447Y-92791746D01*
X134245002Y-92755939D01*
X134167204Y-92703956D01*
X134101044Y-92637796D01*
X134049061Y-92559998D01*
X134013254Y-92473553D01*
X133995000Y-92381784D01*
X133995000Y-92288216D01*
X134013254Y-92196447D01*
X134049061Y-92110002D01*
X134101044Y-92032204D01*
X134167204Y-91966044D01*
X134245002Y-91914061D01*
X134331447Y-91878254D01*
X134423216Y-91860000D01*
X134516784Y-91860000D01*
X134608553Y-91878254D01*
X134608553Y-91878254D01*
G37*
G36*
X133338553Y-91878254D02*
X133424998Y-91914061D01*
X133502796Y-91966044D01*
X133568956Y-92032204D01*
X133620939Y-92110002D01*
X133656746Y-92196447D01*
X133675000Y-92288216D01*
X133675000Y-92381784D01*
X133656746Y-92473553D01*
X133620939Y-92559998D01*
X133568956Y-92637796D01*
X133502796Y-92703956D01*
X133424998Y-92755939D01*
X133338553Y-92791746D01*
X133246784Y-92810000D01*
X133153216Y-92810000D01*
X133061447Y-92791746D01*
X132975002Y-92755939D01*
X132897204Y-92703956D01*
X132831044Y-92637796D01*
X132779061Y-92559998D01*
X132743254Y-92473553D01*
X132725000Y-92381784D01*
X132725000Y-92288216D01*
X132743254Y-92196447D01*
X132779061Y-92110002D01*
X132831044Y-92032204D01*
X132897204Y-91966044D01*
X132975002Y-91914061D01*
X133061447Y-91878254D01*
X133153216Y-91860000D01*
X133246784Y-91860000D01*
X133338553Y-91878254D01*
X133338553Y-91878254D01*
G37*
G36*
X132068553Y-91878254D02*
X132154998Y-91914061D01*
X132232796Y-91966044D01*
X132298956Y-92032204D01*
X132350939Y-92110002D01*
X132386746Y-92196447D01*
X132405000Y-92288216D01*
X132405000Y-92381784D01*
X132386746Y-92473553D01*
X132350939Y-92559998D01*
X132298956Y-92637796D01*
X132232796Y-92703956D01*
X132154998Y-92755939D01*
X132068553Y-92791746D01*
X131976784Y-92810000D01*
X131883216Y-92810000D01*
X131791447Y-92791746D01*
X131705002Y-92755939D01*
X131627204Y-92703956D01*
X131561044Y-92637796D01*
X131509061Y-92559998D01*
X131473254Y-92473553D01*
X131455000Y-92381784D01*
X131455000Y-92288216D01*
X131473254Y-92196447D01*
X131509061Y-92110002D01*
X131561044Y-92032204D01*
X131627204Y-91966044D01*
X131705002Y-91914061D01*
X131791447Y-91878254D01*
X131883216Y-91860000D01*
X131976784Y-91860000D01*
X132068553Y-91878254D01*
X132068553Y-91878254D01*
G37*
G36*
X130798553Y-91878254D02*
X130884998Y-91914061D01*
X130962796Y-91966044D01*
X131028956Y-92032204D01*
X131080939Y-92110002D01*
X131116746Y-92196447D01*
X131135000Y-92288216D01*
X131135000Y-92381784D01*
X131116746Y-92473553D01*
X131080939Y-92559998D01*
X131028956Y-92637796D01*
X130962796Y-92703956D01*
X130884998Y-92755939D01*
X130798553Y-92791746D01*
X130706784Y-92810000D01*
X130613216Y-92810000D01*
X130521447Y-92791746D01*
X130435002Y-92755939D01*
X130357204Y-92703956D01*
X130291044Y-92637796D01*
X130239061Y-92559998D01*
X130203254Y-92473553D01*
X130185000Y-92381784D01*
X130185000Y-92288216D01*
X130203254Y-92196447D01*
X130239061Y-92110002D01*
X130291044Y-92032204D01*
X130357204Y-91966044D01*
X130435002Y-91914061D01*
X130521447Y-91878254D01*
X130613216Y-91860000D01*
X130706784Y-91860000D01*
X130798553Y-91878254D01*
X130798553Y-91878254D01*
G37*
G36*
X142386318Y-90704411D02*
X142458767Y-90718822D01*
X142515303Y-90742240D01*
X142595257Y-90775358D01*
X142718100Y-90857439D01*
X142822561Y-90961900D01*
X142904642Y-91084743D01*
X142937760Y-91164697D01*
X142953855Y-91203553D01*
X142961178Y-91221234D01*
X142990000Y-91366130D01*
X142990000Y-91513870D01*
X142961178Y-91658766D01*
X142904642Y-91795257D01*
X142822561Y-91918100D01*
X142718100Y-92022561D01*
X142595257Y-92104642D01*
X142515303Y-92137760D01*
X142458767Y-92161178D01*
X142386318Y-92175589D01*
X142313870Y-92190000D01*
X142166130Y-92190000D01*
X142093682Y-92175589D01*
X142021233Y-92161178D01*
X141964697Y-92137760D01*
X141884743Y-92104642D01*
X141761900Y-92022561D01*
X141657439Y-91918100D01*
X141575358Y-91795257D01*
X141518822Y-91658766D01*
X141490000Y-91513870D01*
X141490000Y-91366130D01*
X141518822Y-91221234D01*
X141526146Y-91203553D01*
X141542240Y-91164697D01*
X141575358Y-91084743D01*
X141657439Y-90961900D01*
X141761900Y-90857439D01*
X141884743Y-90775358D01*
X141964697Y-90742240D01*
X142021233Y-90718822D01*
X142093682Y-90704411D01*
X142166130Y-90690000D01*
X142313870Y-90690000D01*
X142386318Y-90704411D01*
X142386318Y-90704411D01*
G37*
G36*
X127750000Y-92190000D02*
X126250000Y-92190000D01*
X126250000Y-90690000D01*
X127750000Y-90690000D01*
X127750000Y-92190000D01*
X127750000Y-92190000D01*
G37*
G36*
X133338553Y-90608254D02*
X133424998Y-90644061D01*
X133502796Y-90696044D01*
X133568956Y-90762204D01*
X133620939Y-90840002D01*
X133656746Y-90926447D01*
X133675000Y-91018216D01*
X133675000Y-91111784D01*
X133656746Y-91203553D01*
X133620939Y-91289998D01*
X133568956Y-91367796D01*
X133502796Y-91433956D01*
X133424998Y-91485939D01*
X133338553Y-91521746D01*
X133246784Y-91540000D01*
X133153216Y-91540000D01*
X133061447Y-91521746D01*
X132975002Y-91485939D01*
X132897204Y-91433956D01*
X132831044Y-91367796D01*
X132779061Y-91289998D01*
X132743254Y-91203553D01*
X132725000Y-91111784D01*
X132725000Y-91018216D01*
X132743254Y-90926447D01*
X132779061Y-90840002D01*
X132831044Y-90762204D01*
X132897204Y-90696044D01*
X132975002Y-90644061D01*
X133061447Y-90608254D01*
X133153216Y-90590000D01*
X133246784Y-90590000D01*
X133338553Y-90608254D01*
X133338553Y-90608254D01*
G37*
G36*
X134608553Y-90608254D02*
X134694998Y-90644061D01*
X134772796Y-90696044D01*
X134838956Y-90762204D01*
X134890939Y-90840002D01*
X134926746Y-90926447D01*
X134945000Y-91018216D01*
X134945000Y-91111784D01*
X134926746Y-91203553D01*
X134890939Y-91289998D01*
X134838956Y-91367796D01*
X134772796Y-91433956D01*
X134694998Y-91485939D01*
X134608553Y-91521746D01*
X134516784Y-91540000D01*
X134423216Y-91540000D01*
X134331447Y-91521746D01*
X134245002Y-91485939D01*
X134167204Y-91433956D01*
X134101044Y-91367796D01*
X134049061Y-91289998D01*
X134013254Y-91203553D01*
X133995000Y-91111784D01*
X133995000Y-91018216D01*
X134013254Y-90926447D01*
X134049061Y-90840002D01*
X134101044Y-90762204D01*
X134167204Y-90696044D01*
X134245002Y-90644061D01*
X134331447Y-90608254D01*
X134423216Y-90590000D01*
X134516784Y-90590000D01*
X134608553Y-90608254D01*
X134608553Y-90608254D01*
G37*
G36*
X132068553Y-90608254D02*
X132154998Y-90644061D01*
X132232796Y-90696044D01*
X132298956Y-90762204D01*
X132350939Y-90840002D01*
X132386746Y-90926447D01*
X132405000Y-91018216D01*
X132405000Y-91111784D01*
X132386746Y-91203553D01*
X132350939Y-91289998D01*
X132298956Y-91367796D01*
X132232796Y-91433956D01*
X132154998Y-91485939D01*
X132068553Y-91521746D01*
X131976784Y-91540000D01*
X131883216Y-91540000D01*
X131791447Y-91521746D01*
X131705002Y-91485939D01*
X131627204Y-91433956D01*
X131561044Y-91367796D01*
X131509061Y-91289998D01*
X131473254Y-91203553D01*
X131455000Y-91111784D01*
X131455000Y-91018216D01*
X131473254Y-90926447D01*
X131509061Y-90840002D01*
X131561044Y-90762204D01*
X131627204Y-90696044D01*
X131705002Y-90644061D01*
X131791447Y-90608254D01*
X131883216Y-90590000D01*
X131976784Y-90590000D01*
X132068553Y-90608254D01*
X132068553Y-90608254D01*
G37*
G36*
X130798553Y-90608254D02*
X130884998Y-90644061D01*
X130962796Y-90696044D01*
X131028956Y-90762204D01*
X131080939Y-90840002D01*
X131116746Y-90926447D01*
X131135000Y-91018216D01*
X131135000Y-91111784D01*
X131116746Y-91203553D01*
X131080939Y-91289998D01*
X131028956Y-91367796D01*
X130962796Y-91433956D01*
X130884998Y-91485939D01*
X130798553Y-91521746D01*
X130706784Y-91540000D01*
X130613216Y-91540000D01*
X130521447Y-91521746D01*
X130435002Y-91485939D01*
X130357204Y-91433956D01*
X130291044Y-91367796D01*
X130239061Y-91289998D01*
X130203254Y-91203553D01*
X130185000Y-91111784D01*
X130185000Y-91018216D01*
X130203254Y-90926447D01*
X130239061Y-90840002D01*
X130291044Y-90762204D01*
X130357204Y-90696044D01*
X130435002Y-90644061D01*
X130521447Y-90608254D01*
X130613216Y-90590000D01*
X130706784Y-90590000D01*
X130798553Y-90608254D01*
X130798553Y-90608254D01*
G37*
G36*
X136215000Y-91540000D02*
X135265000Y-91540000D01*
X135265000Y-90590000D01*
X136215000Y-90590000D01*
X136215000Y-91540000D01*
X136215000Y-91540000D01*
G37*
M02*
