M48
;DRILL file {KiCad 5.0.1-33cea8e~68~ubuntu18.04.1} date za 10 nov 2018 11:17:00 CET
;FORMAT={-:-/ absolute / inch / decimal}
FMAT,2
INCH,TZ
T1C0.0100
T2C0.0157
T3C0.0236
T4C0.0394
%
G90
G05
M72
T1
X5.0984Y-3.6831
X5.1417Y-4.3386
X5.1988Y-3.7264
X5.2224Y-3.7776
X5.2283Y-3.8346
X5.2559Y-3.815
X5.2657Y-3.7776
X5.2894Y-3.7776
X5.3346Y-3.815
X5.3898Y-3.6831
T2
X5.313Y-4.2815
X5.4291Y-3.5866
X5.4528Y-3.6654
X5.4646Y-4.2756
X5.5453Y-4.3543
T3
X5.1441Y-3.5852
X5.1441Y-3.6352
X5.1941Y-3.5852
X5.1941Y-3.6352
X5.2441Y-3.5852
X5.2441Y-3.6352
X5.2941Y-3.5852
X5.2941Y-3.6352
X5.3441Y-3.5852
X5.3441Y-3.6352
T4
X5.Y-3.6
X5.Y-3.7
X5.Y-3.8
X5.Y-3.9
X5.Y-4.
X5.Y-4.1
X5.Y-4.2
X5.Y-4.3
X5.Y-4.4
X5.6Y-3.6
X5.6Y-3.7
X5.6Y-3.8
X5.6Y-3.9
X5.6Y-4.
X5.6Y-4.1
X5.6Y-4.2
X5.6Y-4.3
X5.6Y-4.4
T0
M30
