G04 #@! TF.GenerationSoftware,KiCad,Pcbnew,5.0.1-33cea8e~68~ubuntu18.04.1*
G04 #@! TF.CreationDate,2018-11-22T22:22:35+01:00*
G04 #@! TF.ProjectId,LPC82X_JHI33_2layer,4C50433832585F4A484933335F326C61,rev?*
G04 #@! TF.SameCoordinates,Original*
G04 #@! TF.FileFunction,Copper,L2,Bot,Signal*
G04 #@! TF.FilePolarity,Positive*
%FSLAX46Y46*%
G04 Gerber Fmt 4.6, Leading zero omitted, Abs format (unit mm)*
G04 Created by KiCad (PCBNEW 5.0.1-33cea8e~68~ubuntu18.04.1) date do 22 nov 2018 22:22:35 CET*
%MOMM*%
%LPD*%
G01*
G04 APERTURE LIST*
G04 #@! TA.AperFunction,ComponentPad*
%ADD10R,1.300000X1.300000*%
G04 #@! TD*
G04 #@! TA.AperFunction,ComponentPad*
%ADD11C,1.300000*%
G04 #@! TD*
G04 #@! TA.AperFunction,ComponentPad*
%ADD12R,0.750000X0.750000*%
G04 #@! TD*
G04 #@! TA.AperFunction,ComponentPad*
%ADD13C,0.750000*%
G04 #@! TD*
G04 #@! TA.AperFunction,ViaPad*
%ADD14C,0.600000*%
G04 #@! TD*
G04 #@! TA.AperFunction,ViaPad*
%ADD15C,0.400000*%
G04 #@! TD*
G04 #@! TA.AperFunction,ViaPad*
%ADD16C,0.750000*%
G04 #@! TD*
G04 #@! TA.AperFunction,Conductor*
%ADD17C,0.300000*%
G04 #@! TD*
G04 #@! TA.AperFunction,Conductor*
%ADD18C,0.400000*%
G04 #@! TD*
G04 #@! TA.AperFunction,Conductor*
%ADD19C,0.200000*%
G04 #@! TD*
G04 APERTURE END LIST*
D10*
G04 #@! TO.P,J1,1*
G04 #@! TO.N,VDD*
X78740000Y-96520000D03*
D11*
G04 #@! TO.P,J1,2*
X81280000Y-96520000D03*
G04 #@! TO.P,J1,3*
G04 #@! TO.N,/PIO0_28*
X78740000Y-99060000D03*
G04 #@! TO.P,J1,4*
G04 #@! TO.N,/PIO0_3*
X81280000Y-99060000D03*
G04 #@! TO.P,J1,5*
G04 #@! TO.N,/PIO0_2*
X78740000Y-101600000D03*
G04 #@! TO.P,J1,6*
G04 #@! TO.N,/PIO0_11*
X81280000Y-101600000D03*
G04 #@! TO.P,J1,7*
G04 #@! TO.N,/PIO0_10*
X78740000Y-104140000D03*
G04 #@! TO.P,J1,8*
G04 #@! TO.N,/PIO0_16*
X81280000Y-104140000D03*
G04 #@! TO.P,J1,9*
G04 #@! TO.N,/PIO0_27*
X78740000Y-106680000D03*
G04 #@! TO.P,J1,10*
G04 #@! TO.N,/PIO0_26*
X81280000Y-106680000D03*
G04 #@! TO.P,J1,11*
G04 #@! TO.N,/PIO0_25*
X78740000Y-109220000D03*
G04 #@! TO.P,J1,12*
G04 #@! TO.N,/PIO0_24*
X81280000Y-109220000D03*
G04 #@! TO.P,J1,13*
G04 #@! TO.N,/PIO0_15*
X78740000Y-111760000D03*
G04 #@! TO.P,J1,14*
G04 #@! TO.N,/PIO0_1*
X81280000Y-111760000D03*
G04 #@! TO.P,J1,15*
G04 #@! TO.N,/PIO0_9*
X78740000Y-114300000D03*
G04 #@! TO.P,J1,16*
G04 #@! TO.N,/PIO0_8*
X81280000Y-114300000D03*
G04 #@! TO.P,J1,17*
G04 #@! TO.N,VSS*
X78740000Y-116840000D03*
G04 #@! TO.P,J1,18*
X81280000Y-116840000D03*
G04 #@! TD*
G04 #@! TO.P,J2,18*
G04 #@! TO.N,VDD*
X99060000Y-116840000D03*
G04 #@! TO.P,J2,17*
X96520000Y-116840000D03*
G04 #@! TO.P,J2,16*
G04 #@! TO.N,/PIO0_7*
X99060000Y-114300000D03*
G04 #@! TO.P,J2,15*
G04 #@! TO.N,/PIO0_6*
X96520000Y-114300000D03*
G04 #@! TO.P,J2,14*
G04 #@! TO.N,/PIO0_0*
X99060000Y-111760000D03*
G04 #@! TO.P,J2,13*
G04 #@! TO.N,/PIO0_14*
X96520000Y-111760000D03*
G04 #@! TO.P,J2,12*
G04 #@! TO.N,/PIO0_23*
X99060000Y-109220000D03*
G04 #@! TO.P,J2,11*
G04 #@! TO.N,/PIO0_22*
X96520000Y-109220000D03*
G04 #@! TO.P,J2,10*
G04 #@! TO.N,/PIO0_21*
X99060000Y-106680000D03*
G04 #@! TO.P,J2,9*
G04 #@! TO.N,/PIO0_20*
X96520000Y-106680000D03*
G04 #@! TO.P,J2,8*
G04 #@! TO.N,/PIO0_19*
X99060000Y-104140000D03*
G04 #@! TO.P,J2,7*
G04 #@! TO.N,/PIO0_18*
X96520000Y-104140000D03*
G04 #@! TO.P,J2,6*
G04 #@! TO.N,/PIO0_17*
X99060000Y-101600000D03*
G04 #@! TO.P,J2,5*
G04 #@! TO.N,/PIO0_13*
X96520000Y-101600000D03*
G04 #@! TO.P,J2,4*
G04 #@! TO.N,/PIO0_12*
X99060000Y-99060000D03*
G04 #@! TO.P,J2,3*
G04 #@! TO.N,/PIO0_4*
X96520000Y-99060000D03*
G04 #@! TO.P,J2,2*
G04 #@! TO.N,VSS*
X99060000Y-96520000D03*
D10*
G04 #@! TO.P,J2,1*
X96520000Y-96520000D03*
G04 #@! TD*
D12*
G04 #@! TO.P,J3,1*
G04 #@! TO.N,VDD*
X91540000Y-96215000D03*
D13*
G04 #@! TO.P,J3,2*
G04 #@! TO.N,Net-(J3-Pad2)*
X91540000Y-97485000D03*
G04 #@! TO.P,J3,3*
G04 #@! TO.N,VSS*
X90270000Y-96215000D03*
G04 #@! TO.P,J3,4*
G04 #@! TO.N,Net-(J3-Pad4)*
X90270000Y-97485000D03*
G04 #@! TO.P,J3,5*
G04 #@! TO.N,VSS*
X89000000Y-96215000D03*
G04 #@! TO.P,J3,6*
G04 #@! TO.N,N/C*
X89000000Y-97485000D03*
G04 #@! TO.P,J3,7*
X87730000Y-96215000D03*
G04 #@! TO.P,J3,8*
X87730000Y-97485000D03*
G04 #@! TO.P,J3,9*
G04 #@! TO.N,VSS*
X86460000Y-96215000D03*
G04 #@! TO.P,J3,10*
G04 #@! TO.N,Net-(J3-Pad10)*
X86460000Y-97485000D03*
G04 #@! TD*
D14*
G04 #@! TO.N,VSS*
X83800000Y-98200000D03*
D15*
X90500000Y-99850000D03*
D16*
X88900000Y-106680000D03*
D14*
X89800000Y-116100000D03*
D15*
X84900000Y-112700000D03*
D14*
X93700000Y-100400000D03*
X84700000Y-96500000D03*
X88450000Y-110550000D03*
D15*
G04 #@! TO.N,VDD*
X85900000Y-98400000D03*
X92900000Y-98400000D03*
D14*
X94700000Y-116800000D03*
X94115000Y-96215000D03*
D15*
G04 #@! TO.N,/PIO0_3*
X87800000Y-102600000D03*
X88750000Y-101050000D03*
G04 #@! TO.N,/PIO0_2*
X87500000Y-103200000D03*
X88900000Y-101700000D03*
G04 #@! TO.N,/RESET*
X89700000Y-103100000D03*
X89000000Y-102400000D03*
G04 #@! TD*
D17*
G04 #@! TO.N,VSS*
X86460000Y-96215000D02*
X86460000Y-96090000D01*
X87275000Y-95400000D02*
X86460000Y-96215000D01*
X89000000Y-96215000D02*
X89000000Y-95400000D01*
X89000000Y-95400000D02*
X87275000Y-95400000D01*
X90270000Y-95420000D02*
X90250000Y-95400000D01*
X90270000Y-96215000D02*
X90270000Y-95420000D01*
X90250000Y-95400000D02*
X89000000Y-95400000D01*
X93620000Y-95420000D02*
X90270000Y-95420000D01*
X95420000Y-95420000D02*
X93620000Y-95420000D01*
X96520000Y-96520000D02*
X95420000Y-95420000D01*
D18*
G04 #@! TO.N,VDD*
X92900000Y-98400000D02*
X92900000Y-96850000D01*
X85300000Y-98400000D02*
X92900000Y-98400000D01*
X81280000Y-96520000D02*
X83420000Y-96520000D01*
X92265000Y-96215000D02*
X91540000Y-96215000D01*
X83420000Y-96520000D02*
X85300000Y-98400000D01*
X94700000Y-96800000D02*
X94700000Y-116800000D01*
X92900000Y-96850000D02*
X92900000Y-96215000D01*
X92265000Y-96215000D02*
X92900000Y-96215000D01*
X94700000Y-116800000D02*
X94700000Y-116800000D01*
X94115000Y-96215000D02*
X94700000Y-96800000D01*
X92900000Y-96215000D02*
X94115000Y-96215000D01*
D19*
G04 #@! TO.N,/PIO0_3*
X88750000Y-101150000D02*
X87800000Y-102100000D01*
X88750000Y-101050000D02*
X88750000Y-101150000D01*
X87800000Y-102100000D02*
X87800000Y-102600000D01*
G04 #@! TO.N,/PIO0_2*
X88900000Y-101700000D02*
X88300000Y-102300000D01*
X88300000Y-102900000D02*
X88000000Y-103200000D01*
X88300000Y-102300000D02*
X88300000Y-102900000D01*
X88000000Y-103200000D02*
X87500000Y-103200000D01*
G04 #@! TO.N,/RESET*
X89700000Y-103100000D02*
X89000000Y-102400000D01*
G04 #@! TD*
D18*
G04 #@! TO.N,VSS*
G36*
X98245132Y-95628765D02*
X99060000Y-96443632D01*
X99874868Y-95628765D01*
X99848045Y-95475000D01*
X100125000Y-95475000D01*
X100125000Y-95735443D01*
X99951235Y-95705132D01*
X99136368Y-96520000D01*
X99951235Y-97334868D01*
X100125000Y-97304557D01*
X100125000Y-98626042D01*
X100034923Y-98408577D01*
X99711423Y-98085077D01*
X99288749Y-97910000D01*
X98831251Y-97910000D01*
X98408577Y-98085077D01*
X98085077Y-98408577D01*
X97910000Y-98831251D01*
X97910000Y-99288749D01*
X98085077Y-99711423D01*
X98408577Y-100034923D01*
X98831251Y-100210000D01*
X99288749Y-100210000D01*
X99711423Y-100034923D01*
X100034923Y-99711423D01*
X100125000Y-99493958D01*
X100125000Y-101166042D01*
X100034923Y-100948577D01*
X99711423Y-100625077D01*
X99288749Y-100450000D01*
X98831251Y-100450000D01*
X98408577Y-100625077D01*
X98085077Y-100948577D01*
X97910000Y-101371251D01*
X97910000Y-101828749D01*
X98085077Y-102251423D01*
X98408577Y-102574923D01*
X98831251Y-102750000D01*
X99288749Y-102750000D01*
X99711423Y-102574923D01*
X100034923Y-102251423D01*
X100125000Y-102033958D01*
X100125000Y-103706042D01*
X100034923Y-103488577D01*
X99711423Y-103165077D01*
X99288749Y-102990000D01*
X98831251Y-102990000D01*
X98408577Y-103165077D01*
X98085077Y-103488577D01*
X97910000Y-103911251D01*
X97910000Y-104368749D01*
X98085077Y-104791423D01*
X98408577Y-105114923D01*
X98831251Y-105290000D01*
X99288749Y-105290000D01*
X99711423Y-105114923D01*
X100034923Y-104791423D01*
X100125000Y-104573958D01*
X100125000Y-106246044D01*
X100034923Y-106028577D01*
X99711423Y-105705077D01*
X99288749Y-105530000D01*
X98831251Y-105530000D01*
X98408577Y-105705077D01*
X98085077Y-106028577D01*
X97910000Y-106451251D01*
X97910000Y-106908749D01*
X98085077Y-107331423D01*
X98408577Y-107654923D01*
X98831251Y-107830000D01*
X99288749Y-107830000D01*
X99711423Y-107654923D01*
X100034923Y-107331423D01*
X100125001Y-107113956D01*
X100125001Y-108786044D01*
X100034923Y-108568577D01*
X99711423Y-108245077D01*
X99288749Y-108070000D01*
X98831251Y-108070000D01*
X98408577Y-108245077D01*
X98085077Y-108568577D01*
X97910000Y-108991251D01*
X97910000Y-109448749D01*
X98085077Y-109871423D01*
X98408577Y-110194923D01*
X98831251Y-110370000D01*
X99288749Y-110370000D01*
X99711423Y-110194923D01*
X100034923Y-109871423D01*
X100125001Y-109653956D01*
X100125001Y-111326044D01*
X100034923Y-111108577D01*
X99711423Y-110785077D01*
X99288749Y-110610000D01*
X98831251Y-110610000D01*
X98408577Y-110785077D01*
X98085077Y-111108577D01*
X97910000Y-111531251D01*
X97910000Y-111988749D01*
X98085077Y-112411423D01*
X98408577Y-112734923D01*
X98831251Y-112910000D01*
X99288749Y-112910000D01*
X99711423Y-112734923D01*
X100034923Y-112411423D01*
X100125001Y-112193956D01*
X100125001Y-113866044D01*
X100034923Y-113648577D01*
X99711423Y-113325077D01*
X99288749Y-113150000D01*
X98831251Y-113150000D01*
X98408577Y-113325077D01*
X98085077Y-113648577D01*
X97910000Y-114071251D01*
X97910000Y-114528749D01*
X98085077Y-114951423D01*
X98408577Y-115274923D01*
X98831251Y-115450000D01*
X99288749Y-115450000D01*
X99711423Y-115274923D01*
X100034923Y-114951423D01*
X100125001Y-114733955D01*
X100125001Y-116406045D01*
X100034923Y-116188577D01*
X99711423Y-115865077D01*
X99288749Y-115690000D01*
X98831251Y-115690000D01*
X98408577Y-115865077D01*
X98085077Y-116188577D01*
X97910000Y-116611251D01*
X97910000Y-117068749D01*
X98085077Y-117491423D01*
X98408577Y-117814923D01*
X98432905Y-117825000D01*
X97147095Y-117825000D01*
X97171423Y-117814923D01*
X97494923Y-117491423D01*
X97670000Y-117068749D01*
X97670000Y-116611251D01*
X97494923Y-116188577D01*
X97171423Y-115865077D01*
X96748749Y-115690000D01*
X96291251Y-115690000D01*
X95868577Y-115865077D01*
X95545077Y-116188577D01*
X95428866Y-116469137D01*
X95400000Y-116399449D01*
X95400000Y-114601176D01*
X95545077Y-114951423D01*
X95868577Y-115274923D01*
X96291251Y-115450000D01*
X96748749Y-115450000D01*
X97171423Y-115274923D01*
X97494923Y-114951423D01*
X97670000Y-114528749D01*
X97670000Y-114071251D01*
X97494923Y-113648577D01*
X97171423Y-113325077D01*
X96748749Y-113150000D01*
X96291251Y-113150000D01*
X95868577Y-113325077D01*
X95545077Y-113648577D01*
X95400000Y-113998824D01*
X95400000Y-112061176D01*
X95545077Y-112411423D01*
X95868577Y-112734923D01*
X96291251Y-112910000D01*
X96748749Y-112910000D01*
X97171423Y-112734923D01*
X97494923Y-112411423D01*
X97670000Y-111988749D01*
X97670000Y-111531251D01*
X97494923Y-111108577D01*
X97171423Y-110785077D01*
X96748749Y-110610000D01*
X96291251Y-110610000D01*
X95868577Y-110785077D01*
X95545077Y-111108577D01*
X95400000Y-111458824D01*
X95400000Y-109521176D01*
X95545077Y-109871423D01*
X95868577Y-110194923D01*
X96291251Y-110370000D01*
X96748749Y-110370000D01*
X97171423Y-110194923D01*
X97494923Y-109871423D01*
X97670000Y-109448749D01*
X97670000Y-108991251D01*
X97494923Y-108568577D01*
X97171423Y-108245077D01*
X96748749Y-108070000D01*
X96291251Y-108070000D01*
X95868577Y-108245077D01*
X95545077Y-108568577D01*
X95400000Y-108918824D01*
X95400000Y-106981176D01*
X95545077Y-107331423D01*
X95868577Y-107654923D01*
X96291251Y-107830000D01*
X96748749Y-107830000D01*
X97171423Y-107654923D01*
X97494923Y-107331423D01*
X97670000Y-106908749D01*
X97670000Y-106451251D01*
X97494923Y-106028577D01*
X97171423Y-105705077D01*
X96748749Y-105530000D01*
X96291251Y-105530000D01*
X95868577Y-105705077D01*
X95545077Y-106028577D01*
X95400000Y-106378824D01*
X95400000Y-104441176D01*
X95545077Y-104791423D01*
X95868577Y-105114923D01*
X96291251Y-105290000D01*
X96748749Y-105290000D01*
X97171423Y-105114923D01*
X97494923Y-104791423D01*
X97670000Y-104368749D01*
X97670000Y-103911251D01*
X97494923Y-103488577D01*
X97171423Y-103165077D01*
X96748749Y-102990000D01*
X96291251Y-102990000D01*
X95868577Y-103165077D01*
X95545077Y-103488577D01*
X95400000Y-103838824D01*
X95400000Y-101901176D01*
X95545077Y-102251423D01*
X95868577Y-102574923D01*
X96291251Y-102750000D01*
X96748749Y-102750000D01*
X97171423Y-102574923D01*
X97494923Y-102251423D01*
X97670000Y-101828749D01*
X97670000Y-101371251D01*
X97494923Y-100948577D01*
X97171423Y-100625077D01*
X96748749Y-100450000D01*
X96291251Y-100450000D01*
X95868577Y-100625077D01*
X95545077Y-100948577D01*
X95400000Y-101298824D01*
X95400000Y-99361176D01*
X95545077Y-99711423D01*
X95868577Y-100034923D01*
X96291251Y-100210000D01*
X96748749Y-100210000D01*
X97171423Y-100034923D01*
X97494923Y-99711423D01*
X97670000Y-99288749D01*
X97670000Y-98831251D01*
X97494923Y-98408577D01*
X97171423Y-98085077D01*
X96748749Y-97910000D01*
X96291251Y-97910000D01*
X95868577Y-98085077D01*
X95545077Y-98408577D01*
X95400000Y-98758824D01*
X95400000Y-97701263D01*
X95468950Y-97770213D01*
X95729170Y-97878000D01*
X96289000Y-97878000D01*
X96466000Y-97701000D01*
X96466000Y-96574000D01*
X96446000Y-96574000D01*
X96446000Y-96466000D01*
X96466000Y-96466000D01*
X96466000Y-96446000D01*
X96574000Y-96446000D01*
X96574000Y-96466000D01*
X96594000Y-96466000D01*
X96594000Y-96574000D01*
X96574000Y-96574000D01*
X96574000Y-97701000D01*
X96751000Y-97878000D01*
X97310830Y-97878000D01*
X97571050Y-97770213D01*
X97770213Y-97571050D01*
X97836410Y-97411235D01*
X98245132Y-97411235D01*
X98290455Y-97671057D01*
X98789524Y-97877930D01*
X99329770Y-97878071D01*
X99828946Y-97671457D01*
X99829545Y-97671057D01*
X99874868Y-97411235D01*
X99060000Y-96596368D01*
X98245132Y-97411235D01*
X97836410Y-97411235D01*
X97878000Y-97310830D01*
X97878000Y-97215155D01*
X97908543Y-97288946D01*
X97908943Y-97289545D01*
X98168765Y-97334868D01*
X98983632Y-96520000D01*
X98168765Y-95705132D01*
X97908943Y-95750455D01*
X97878000Y-95825103D01*
X97878000Y-95729170D01*
X97772719Y-95475000D01*
X98271955Y-95475000D01*
X98245132Y-95628765D01*
X98245132Y-95628765D01*
G37*
X98245132Y-95628765D02*
X99060000Y-96443632D01*
X99874868Y-95628765D01*
X99848045Y-95475000D01*
X100125000Y-95475000D01*
X100125000Y-95735443D01*
X99951235Y-95705132D01*
X99136368Y-96520000D01*
X99951235Y-97334868D01*
X100125000Y-97304557D01*
X100125000Y-98626042D01*
X100034923Y-98408577D01*
X99711423Y-98085077D01*
X99288749Y-97910000D01*
X98831251Y-97910000D01*
X98408577Y-98085077D01*
X98085077Y-98408577D01*
X97910000Y-98831251D01*
X97910000Y-99288749D01*
X98085077Y-99711423D01*
X98408577Y-100034923D01*
X98831251Y-100210000D01*
X99288749Y-100210000D01*
X99711423Y-100034923D01*
X100034923Y-99711423D01*
X100125000Y-99493958D01*
X100125000Y-101166042D01*
X100034923Y-100948577D01*
X99711423Y-100625077D01*
X99288749Y-100450000D01*
X98831251Y-100450000D01*
X98408577Y-100625077D01*
X98085077Y-100948577D01*
X97910000Y-101371251D01*
X97910000Y-101828749D01*
X98085077Y-102251423D01*
X98408577Y-102574923D01*
X98831251Y-102750000D01*
X99288749Y-102750000D01*
X99711423Y-102574923D01*
X100034923Y-102251423D01*
X100125000Y-102033958D01*
X100125000Y-103706042D01*
X100034923Y-103488577D01*
X99711423Y-103165077D01*
X99288749Y-102990000D01*
X98831251Y-102990000D01*
X98408577Y-103165077D01*
X98085077Y-103488577D01*
X97910000Y-103911251D01*
X97910000Y-104368749D01*
X98085077Y-104791423D01*
X98408577Y-105114923D01*
X98831251Y-105290000D01*
X99288749Y-105290000D01*
X99711423Y-105114923D01*
X100034923Y-104791423D01*
X100125000Y-104573958D01*
X100125000Y-106246044D01*
X100034923Y-106028577D01*
X99711423Y-105705077D01*
X99288749Y-105530000D01*
X98831251Y-105530000D01*
X98408577Y-105705077D01*
X98085077Y-106028577D01*
X97910000Y-106451251D01*
X97910000Y-106908749D01*
X98085077Y-107331423D01*
X98408577Y-107654923D01*
X98831251Y-107830000D01*
X99288749Y-107830000D01*
X99711423Y-107654923D01*
X100034923Y-107331423D01*
X100125001Y-107113956D01*
X100125001Y-108786044D01*
X100034923Y-108568577D01*
X99711423Y-108245077D01*
X99288749Y-108070000D01*
X98831251Y-108070000D01*
X98408577Y-108245077D01*
X98085077Y-108568577D01*
X97910000Y-108991251D01*
X97910000Y-109448749D01*
X98085077Y-109871423D01*
X98408577Y-110194923D01*
X98831251Y-110370000D01*
X99288749Y-110370000D01*
X99711423Y-110194923D01*
X100034923Y-109871423D01*
X100125001Y-109653956D01*
X100125001Y-111326044D01*
X100034923Y-111108577D01*
X99711423Y-110785077D01*
X99288749Y-110610000D01*
X98831251Y-110610000D01*
X98408577Y-110785077D01*
X98085077Y-111108577D01*
X97910000Y-111531251D01*
X97910000Y-111988749D01*
X98085077Y-112411423D01*
X98408577Y-112734923D01*
X98831251Y-112910000D01*
X99288749Y-112910000D01*
X99711423Y-112734923D01*
X100034923Y-112411423D01*
X100125001Y-112193956D01*
X100125001Y-113866044D01*
X100034923Y-113648577D01*
X99711423Y-113325077D01*
X99288749Y-113150000D01*
X98831251Y-113150000D01*
X98408577Y-113325077D01*
X98085077Y-113648577D01*
X97910000Y-114071251D01*
X97910000Y-114528749D01*
X98085077Y-114951423D01*
X98408577Y-115274923D01*
X98831251Y-115450000D01*
X99288749Y-115450000D01*
X99711423Y-115274923D01*
X100034923Y-114951423D01*
X100125001Y-114733955D01*
X100125001Y-116406045D01*
X100034923Y-116188577D01*
X99711423Y-115865077D01*
X99288749Y-115690000D01*
X98831251Y-115690000D01*
X98408577Y-115865077D01*
X98085077Y-116188577D01*
X97910000Y-116611251D01*
X97910000Y-117068749D01*
X98085077Y-117491423D01*
X98408577Y-117814923D01*
X98432905Y-117825000D01*
X97147095Y-117825000D01*
X97171423Y-117814923D01*
X97494923Y-117491423D01*
X97670000Y-117068749D01*
X97670000Y-116611251D01*
X97494923Y-116188577D01*
X97171423Y-115865077D01*
X96748749Y-115690000D01*
X96291251Y-115690000D01*
X95868577Y-115865077D01*
X95545077Y-116188577D01*
X95428866Y-116469137D01*
X95400000Y-116399449D01*
X95400000Y-114601176D01*
X95545077Y-114951423D01*
X95868577Y-115274923D01*
X96291251Y-115450000D01*
X96748749Y-115450000D01*
X97171423Y-115274923D01*
X97494923Y-114951423D01*
X97670000Y-114528749D01*
X97670000Y-114071251D01*
X97494923Y-113648577D01*
X97171423Y-113325077D01*
X96748749Y-113150000D01*
X96291251Y-113150000D01*
X95868577Y-113325077D01*
X95545077Y-113648577D01*
X95400000Y-113998824D01*
X95400000Y-112061176D01*
X95545077Y-112411423D01*
X95868577Y-112734923D01*
X96291251Y-112910000D01*
X96748749Y-112910000D01*
X97171423Y-112734923D01*
X97494923Y-112411423D01*
X97670000Y-111988749D01*
X97670000Y-111531251D01*
X97494923Y-111108577D01*
X97171423Y-110785077D01*
X96748749Y-110610000D01*
X96291251Y-110610000D01*
X95868577Y-110785077D01*
X95545077Y-111108577D01*
X95400000Y-111458824D01*
X95400000Y-109521176D01*
X95545077Y-109871423D01*
X95868577Y-110194923D01*
X96291251Y-110370000D01*
X96748749Y-110370000D01*
X97171423Y-110194923D01*
X97494923Y-109871423D01*
X97670000Y-109448749D01*
X97670000Y-108991251D01*
X97494923Y-108568577D01*
X97171423Y-108245077D01*
X96748749Y-108070000D01*
X96291251Y-108070000D01*
X95868577Y-108245077D01*
X95545077Y-108568577D01*
X95400000Y-108918824D01*
X95400000Y-106981176D01*
X95545077Y-107331423D01*
X95868577Y-107654923D01*
X96291251Y-107830000D01*
X96748749Y-107830000D01*
X97171423Y-107654923D01*
X97494923Y-107331423D01*
X97670000Y-106908749D01*
X97670000Y-106451251D01*
X97494923Y-106028577D01*
X97171423Y-105705077D01*
X96748749Y-105530000D01*
X96291251Y-105530000D01*
X95868577Y-105705077D01*
X95545077Y-106028577D01*
X95400000Y-106378824D01*
X95400000Y-104441176D01*
X95545077Y-104791423D01*
X95868577Y-105114923D01*
X96291251Y-105290000D01*
X96748749Y-105290000D01*
X97171423Y-105114923D01*
X97494923Y-104791423D01*
X97670000Y-104368749D01*
X97670000Y-103911251D01*
X97494923Y-103488577D01*
X97171423Y-103165077D01*
X96748749Y-102990000D01*
X96291251Y-102990000D01*
X95868577Y-103165077D01*
X95545077Y-103488577D01*
X95400000Y-103838824D01*
X95400000Y-101901176D01*
X95545077Y-102251423D01*
X95868577Y-102574923D01*
X96291251Y-102750000D01*
X96748749Y-102750000D01*
X97171423Y-102574923D01*
X97494923Y-102251423D01*
X97670000Y-101828749D01*
X97670000Y-101371251D01*
X97494923Y-100948577D01*
X97171423Y-100625077D01*
X96748749Y-100450000D01*
X96291251Y-100450000D01*
X95868577Y-100625077D01*
X95545077Y-100948577D01*
X95400000Y-101298824D01*
X95400000Y-99361176D01*
X95545077Y-99711423D01*
X95868577Y-100034923D01*
X96291251Y-100210000D01*
X96748749Y-100210000D01*
X97171423Y-100034923D01*
X97494923Y-99711423D01*
X97670000Y-99288749D01*
X97670000Y-98831251D01*
X97494923Y-98408577D01*
X97171423Y-98085077D01*
X96748749Y-97910000D01*
X96291251Y-97910000D01*
X95868577Y-98085077D01*
X95545077Y-98408577D01*
X95400000Y-98758824D01*
X95400000Y-97701263D01*
X95468950Y-97770213D01*
X95729170Y-97878000D01*
X96289000Y-97878000D01*
X96466000Y-97701000D01*
X96466000Y-96574000D01*
X96446000Y-96574000D01*
X96446000Y-96466000D01*
X96466000Y-96466000D01*
X96466000Y-96446000D01*
X96574000Y-96446000D01*
X96574000Y-96466000D01*
X96594000Y-96466000D01*
X96594000Y-96574000D01*
X96574000Y-96574000D01*
X96574000Y-97701000D01*
X96751000Y-97878000D01*
X97310830Y-97878000D01*
X97571050Y-97770213D01*
X97770213Y-97571050D01*
X97836410Y-97411235D01*
X98245132Y-97411235D01*
X98290455Y-97671057D01*
X98789524Y-97877930D01*
X99329770Y-97878071D01*
X99828946Y-97671457D01*
X99829545Y-97671057D01*
X99874868Y-97411235D01*
X99060000Y-96596368D01*
X98245132Y-97411235D01*
X97836410Y-97411235D01*
X97878000Y-97310830D01*
X97878000Y-97215155D01*
X97908543Y-97288946D01*
X97908943Y-97289545D01*
X98168765Y-97334868D01*
X98983632Y-96520000D01*
X98168765Y-95705132D01*
X97908943Y-95750455D01*
X97878000Y-95825103D01*
X97878000Y-95729170D01*
X97772719Y-95475000D01*
X98271955Y-95475000D01*
X98245132Y-95628765D01*
G36*
X80628577Y-95545077D02*
X80305077Y-95868577D01*
X80130000Y-96291251D01*
X80130000Y-96748749D01*
X80305077Y-97171423D01*
X80628577Y-97494923D01*
X81051251Y-97670000D01*
X81508749Y-97670000D01*
X81931423Y-97494923D01*
X82206346Y-97220000D01*
X83130052Y-97220000D01*
X84756279Y-98846229D01*
X84795329Y-98904671D01*
X84853771Y-98943721D01*
X84853772Y-98943722D01*
X84928169Y-98993432D01*
X85026874Y-99059385D01*
X85231060Y-99100000D01*
X85231064Y-99100000D01*
X85299999Y-99113712D01*
X85368934Y-99100000D01*
X92831060Y-99100000D01*
X92900000Y-99113713D01*
X92968940Y-99100000D01*
X93039239Y-99100000D01*
X93104187Y-99073098D01*
X93173126Y-99059385D01*
X93231568Y-99020335D01*
X93296518Y-98993432D01*
X93346229Y-98943721D01*
X93404671Y-98904671D01*
X93443721Y-98846229D01*
X93493432Y-98796518D01*
X93520335Y-98731568D01*
X93559385Y-98673126D01*
X93573098Y-98604187D01*
X93600000Y-98539239D01*
X93600000Y-98468939D01*
X93613713Y-98400000D01*
X93600000Y-98331060D01*
X93600000Y-96915000D01*
X93714449Y-96915000D01*
X93903260Y-96993208D01*
X94000000Y-97089949D01*
X94000001Y-116399447D01*
X93900000Y-116640870D01*
X93900000Y-116959130D01*
X94021793Y-117253164D01*
X94246836Y-117478207D01*
X94540870Y-117600000D01*
X94859130Y-117600000D01*
X95153164Y-117478207D01*
X95378207Y-117253164D01*
X95412297Y-117170863D01*
X95545077Y-117491423D01*
X95868577Y-117814923D01*
X95892905Y-117825000D01*
X82078512Y-117825000D01*
X82094868Y-117731235D01*
X81280000Y-116916368D01*
X80465132Y-117731235D01*
X80481488Y-117825000D01*
X79538512Y-117825000D01*
X79554868Y-117731235D01*
X78740000Y-116916368D01*
X77925132Y-117731235D01*
X77941488Y-117825000D01*
X77675000Y-117825000D01*
X77675000Y-117624557D01*
X77848765Y-117654868D01*
X78663632Y-116840000D01*
X78816368Y-116840000D01*
X79631235Y-117654868D01*
X79891057Y-117609545D01*
X80010011Y-117322575D01*
X80128543Y-117608946D01*
X80128943Y-117609545D01*
X80388765Y-117654868D01*
X81203632Y-116840000D01*
X81356368Y-116840000D01*
X82171235Y-117654868D01*
X82431057Y-117609545D01*
X82637930Y-117110476D01*
X82638071Y-116570230D01*
X82431457Y-116071054D01*
X82431057Y-116070455D01*
X82171235Y-116025132D01*
X81356368Y-116840000D01*
X81203632Y-116840000D01*
X80388765Y-116025132D01*
X80128943Y-116070455D01*
X80009989Y-116357425D01*
X79891457Y-116071054D01*
X79891057Y-116070455D01*
X79631235Y-116025132D01*
X78816368Y-116840000D01*
X78663632Y-116840000D01*
X77848765Y-116025132D01*
X77675000Y-116055443D01*
X77675000Y-115948765D01*
X77925132Y-115948765D01*
X78740000Y-116763632D01*
X79554868Y-115948765D01*
X80465132Y-115948765D01*
X81280000Y-116763632D01*
X82094868Y-115948765D01*
X82049545Y-115688943D01*
X81550476Y-115482070D01*
X81010230Y-115481929D01*
X80511054Y-115688543D01*
X80510455Y-115688943D01*
X80465132Y-115948765D01*
X79554868Y-115948765D01*
X79509545Y-115688943D01*
X79010476Y-115482070D01*
X78470230Y-115481929D01*
X77971054Y-115688543D01*
X77970455Y-115688943D01*
X77925132Y-115948765D01*
X77675000Y-115948765D01*
X77675000Y-114733958D01*
X77765077Y-114951423D01*
X78088577Y-115274923D01*
X78511251Y-115450000D01*
X78968749Y-115450000D01*
X79391423Y-115274923D01*
X79714923Y-114951423D01*
X79890000Y-114528749D01*
X79890000Y-114071251D01*
X80130000Y-114071251D01*
X80130000Y-114528749D01*
X80305077Y-114951423D01*
X80628577Y-115274923D01*
X81051251Y-115450000D01*
X81508749Y-115450000D01*
X81931423Y-115274923D01*
X82254923Y-114951423D01*
X82430000Y-114528749D01*
X82430000Y-114071251D01*
X82254923Y-113648577D01*
X81931423Y-113325077D01*
X81508749Y-113150000D01*
X81051251Y-113150000D01*
X80628577Y-113325077D01*
X80305077Y-113648577D01*
X80130000Y-114071251D01*
X79890000Y-114071251D01*
X79714923Y-113648577D01*
X79391423Y-113325077D01*
X78968749Y-113150000D01*
X78511251Y-113150000D01*
X78088577Y-113325077D01*
X77765077Y-113648577D01*
X77675000Y-113866042D01*
X77675000Y-112193958D01*
X77765077Y-112411423D01*
X78088577Y-112734923D01*
X78511251Y-112910000D01*
X78968749Y-112910000D01*
X79391423Y-112734923D01*
X79714923Y-112411423D01*
X79890000Y-111988749D01*
X79890000Y-111531251D01*
X80130000Y-111531251D01*
X80130000Y-111988749D01*
X80305077Y-112411423D01*
X80628577Y-112734923D01*
X81051251Y-112910000D01*
X81508749Y-112910000D01*
X81931423Y-112734923D01*
X82254923Y-112411423D01*
X82430000Y-111988749D01*
X82430000Y-111531251D01*
X82254923Y-111108577D01*
X81931423Y-110785077D01*
X81508749Y-110610000D01*
X81051251Y-110610000D01*
X80628577Y-110785077D01*
X80305077Y-111108577D01*
X80130000Y-111531251D01*
X79890000Y-111531251D01*
X79714923Y-111108577D01*
X79391423Y-110785077D01*
X78968749Y-110610000D01*
X78511251Y-110610000D01*
X78088577Y-110785077D01*
X77765077Y-111108577D01*
X77675000Y-111326042D01*
X77675000Y-109653958D01*
X77765077Y-109871423D01*
X78088577Y-110194923D01*
X78511251Y-110370000D01*
X78968749Y-110370000D01*
X79391423Y-110194923D01*
X79714923Y-109871423D01*
X79890000Y-109448749D01*
X79890000Y-108991251D01*
X80130000Y-108991251D01*
X80130000Y-109448749D01*
X80305077Y-109871423D01*
X80628577Y-110194923D01*
X81051251Y-110370000D01*
X81508749Y-110370000D01*
X81931423Y-110194923D01*
X82254923Y-109871423D01*
X82430000Y-109448749D01*
X82430000Y-108991251D01*
X82254923Y-108568577D01*
X81931423Y-108245077D01*
X81508749Y-108070000D01*
X81051251Y-108070000D01*
X80628577Y-108245077D01*
X80305077Y-108568577D01*
X80130000Y-108991251D01*
X79890000Y-108991251D01*
X79714923Y-108568577D01*
X79391423Y-108245077D01*
X78968749Y-108070000D01*
X78511251Y-108070000D01*
X78088577Y-108245077D01*
X77765077Y-108568577D01*
X77675000Y-108786042D01*
X77675000Y-107113958D01*
X77765077Y-107331423D01*
X78088577Y-107654923D01*
X78511251Y-107830000D01*
X78968749Y-107830000D01*
X79391423Y-107654923D01*
X79714923Y-107331423D01*
X79890000Y-106908749D01*
X79890000Y-106451251D01*
X80130000Y-106451251D01*
X80130000Y-106908749D01*
X80305077Y-107331423D01*
X80628577Y-107654923D01*
X81051251Y-107830000D01*
X81508749Y-107830000D01*
X81931423Y-107654923D01*
X82254923Y-107331423D01*
X82430000Y-106908749D01*
X82430000Y-106451251D01*
X82254923Y-106028577D01*
X81931423Y-105705077D01*
X81508749Y-105530000D01*
X81051251Y-105530000D01*
X80628577Y-105705077D01*
X80305077Y-106028577D01*
X80130000Y-106451251D01*
X79890000Y-106451251D01*
X79714923Y-106028577D01*
X79391423Y-105705077D01*
X78968749Y-105530000D01*
X78511251Y-105530000D01*
X78088577Y-105705077D01*
X77765077Y-106028577D01*
X77675000Y-106246042D01*
X77675000Y-104573958D01*
X77765077Y-104791423D01*
X78088577Y-105114923D01*
X78511251Y-105290000D01*
X78968749Y-105290000D01*
X79391423Y-105114923D01*
X79714923Y-104791423D01*
X79890000Y-104368749D01*
X79890000Y-103911251D01*
X80130000Y-103911251D01*
X80130000Y-104368749D01*
X80305077Y-104791423D01*
X80628577Y-105114923D01*
X81051251Y-105290000D01*
X81508749Y-105290000D01*
X81931423Y-105114923D01*
X82254923Y-104791423D01*
X82430000Y-104368749D01*
X82430000Y-103911251D01*
X82254923Y-103488577D01*
X81931423Y-103165077D01*
X81679582Y-103060761D01*
X86800000Y-103060761D01*
X86800000Y-103339239D01*
X86906568Y-103596518D01*
X87103482Y-103793432D01*
X87360761Y-103900000D01*
X87639239Y-103900000D01*
X87880661Y-103800000D01*
X87940914Y-103800000D01*
X88000000Y-103811753D01*
X88059086Y-103800000D01*
X88059091Y-103800000D01*
X88234108Y-103765187D01*
X88432575Y-103632575D01*
X88466049Y-103582478D01*
X88682478Y-103366049D01*
X88732575Y-103332575D01*
X88865187Y-103134108D01*
X88868571Y-103117098D01*
X89006568Y-103255096D01*
X89106568Y-103496518D01*
X89303482Y-103693432D01*
X89560761Y-103800000D01*
X89839239Y-103800000D01*
X90096518Y-103693432D01*
X90293432Y-103496518D01*
X90400000Y-103239239D01*
X90400000Y-102960761D01*
X90293432Y-102703482D01*
X90096518Y-102506568D01*
X89855096Y-102406568D01*
X89693432Y-102244905D01*
X89593432Y-102003482D01*
X89549971Y-101960021D01*
X89600000Y-101839239D01*
X89600000Y-101560761D01*
X89493432Y-101303482D01*
X89429260Y-101239310D01*
X89450000Y-101189239D01*
X89450000Y-100910761D01*
X89343432Y-100653482D01*
X89146518Y-100456568D01*
X88889239Y-100350000D01*
X88610761Y-100350000D01*
X88353482Y-100456568D01*
X88156568Y-100653482D01*
X88050000Y-100910761D01*
X88050000Y-101001472D01*
X87417521Y-101633951D01*
X87367425Y-101667425D01*
X87234813Y-101865893D01*
X87200000Y-102040910D01*
X87200000Y-102040914D01*
X87188247Y-102100000D01*
X87200000Y-102159086D01*
X87200000Y-102219339D01*
X87100000Y-102460761D01*
X87100000Y-102610050D01*
X86906568Y-102803482D01*
X86800000Y-103060761D01*
X81679582Y-103060761D01*
X81508749Y-102990000D01*
X81051251Y-102990000D01*
X80628577Y-103165077D01*
X80305077Y-103488577D01*
X80130000Y-103911251D01*
X79890000Y-103911251D01*
X79714923Y-103488577D01*
X79391423Y-103165077D01*
X78968749Y-102990000D01*
X78511251Y-102990000D01*
X78088577Y-103165077D01*
X77765077Y-103488577D01*
X77675000Y-103706042D01*
X77675000Y-102033958D01*
X77765077Y-102251423D01*
X78088577Y-102574923D01*
X78511251Y-102750000D01*
X78968749Y-102750000D01*
X79391423Y-102574923D01*
X79714923Y-102251423D01*
X79890000Y-101828749D01*
X79890000Y-101371251D01*
X80130000Y-101371251D01*
X80130000Y-101828749D01*
X80305077Y-102251423D01*
X80628577Y-102574923D01*
X81051251Y-102750000D01*
X81508749Y-102750000D01*
X81931423Y-102574923D01*
X82254923Y-102251423D01*
X82430000Y-101828749D01*
X82430000Y-101371251D01*
X82254923Y-100948577D01*
X81931423Y-100625077D01*
X81508749Y-100450000D01*
X81051251Y-100450000D01*
X80628577Y-100625077D01*
X80305077Y-100948577D01*
X80130000Y-101371251D01*
X79890000Y-101371251D01*
X79714923Y-100948577D01*
X79391423Y-100625077D01*
X78968749Y-100450000D01*
X78511251Y-100450000D01*
X78088577Y-100625077D01*
X77765077Y-100948577D01*
X77675000Y-101166042D01*
X77675000Y-99493958D01*
X77765077Y-99711423D01*
X78088577Y-100034923D01*
X78511251Y-100210000D01*
X78968749Y-100210000D01*
X79391423Y-100034923D01*
X79714923Y-99711423D01*
X79890000Y-99288749D01*
X79890000Y-98831251D01*
X80130000Y-98831251D01*
X80130000Y-99288749D01*
X80305077Y-99711423D01*
X80628577Y-100034923D01*
X81051251Y-100210000D01*
X81508749Y-100210000D01*
X81931423Y-100034923D01*
X82254923Y-99711423D01*
X82430000Y-99288749D01*
X82430000Y-98831251D01*
X82254923Y-98408577D01*
X81931423Y-98085077D01*
X81508749Y-97910000D01*
X81051251Y-97910000D01*
X80628577Y-98085077D01*
X80305077Y-98408577D01*
X80130000Y-98831251D01*
X79890000Y-98831251D01*
X79714923Y-98408577D01*
X79391423Y-98085077D01*
X78968749Y-97910000D01*
X78511251Y-97910000D01*
X78088577Y-98085077D01*
X77765077Y-98408577D01*
X77675000Y-98626042D01*
X77675000Y-97448884D01*
X77729520Y-97530480D01*
X77894910Y-97640989D01*
X78090000Y-97679795D01*
X79390000Y-97679795D01*
X79585090Y-97640989D01*
X79750480Y-97530480D01*
X79860989Y-97365090D01*
X79899795Y-97170000D01*
X79899795Y-95870000D01*
X79860989Y-95674910D01*
X79750480Y-95509520D01*
X79698817Y-95475000D01*
X80797758Y-95475000D01*
X80628577Y-95545077D01*
X80628577Y-95545077D01*
G37*
X80628577Y-95545077D02*
X80305077Y-95868577D01*
X80130000Y-96291251D01*
X80130000Y-96748749D01*
X80305077Y-97171423D01*
X80628577Y-97494923D01*
X81051251Y-97670000D01*
X81508749Y-97670000D01*
X81931423Y-97494923D01*
X82206346Y-97220000D01*
X83130052Y-97220000D01*
X84756279Y-98846229D01*
X84795329Y-98904671D01*
X84853771Y-98943721D01*
X84853772Y-98943722D01*
X84928169Y-98993432D01*
X85026874Y-99059385D01*
X85231060Y-99100000D01*
X85231064Y-99100000D01*
X85299999Y-99113712D01*
X85368934Y-99100000D01*
X92831060Y-99100000D01*
X92900000Y-99113713D01*
X92968940Y-99100000D01*
X93039239Y-99100000D01*
X93104187Y-99073098D01*
X93173126Y-99059385D01*
X93231568Y-99020335D01*
X93296518Y-98993432D01*
X93346229Y-98943721D01*
X93404671Y-98904671D01*
X93443721Y-98846229D01*
X93493432Y-98796518D01*
X93520335Y-98731568D01*
X93559385Y-98673126D01*
X93573098Y-98604187D01*
X93600000Y-98539239D01*
X93600000Y-98468939D01*
X93613713Y-98400000D01*
X93600000Y-98331060D01*
X93600000Y-96915000D01*
X93714449Y-96915000D01*
X93903260Y-96993208D01*
X94000000Y-97089949D01*
X94000001Y-116399447D01*
X93900000Y-116640870D01*
X93900000Y-116959130D01*
X94021793Y-117253164D01*
X94246836Y-117478207D01*
X94540870Y-117600000D01*
X94859130Y-117600000D01*
X95153164Y-117478207D01*
X95378207Y-117253164D01*
X95412297Y-117170863D01*
X95545077Y-117491423D01*
X95868577Y-117814923D01*
X95892905Y-117825000D01*
X82078512Y-117825000D01*
X82094868Y-117731235D01*
X81280000Y-116916368D01*
X80465132Y-117731235D01*
X80481488Y-117825000D01*
X79538512Y-117825000D01*
X79554868Y-117731235D01*
X78740000Y-116916368D01*
X77925132Y-117731235D01*
X77941488Y-117825000D01*
X77675000Y-117825000D01*
X77675000Y-117624557D01*
X77848765Y-117654868D01*
X78663632Y-116840000D01*
X78816368Y-116840000D01*
X79631235Y-117654868D01*
X79891057Y-117609545D01*
X80010011Y-117322575D01*
X80128543Y-117608946D01*
X80128943Y-117609545D01*
X80388765Y-117654868D01*
X81203632Y-116840000D01*
X81356368Y-116840000D01*
X82171235Y-117654868D01*
X82431057Y-117609545D01*
X82637930Y-117110476D01*
X82638071Y-116570230D01*
X82431457Y-116071054D01*
X82431057Y-116070455D01*
X82171235Y-116025132D01*
X81356368Y-116840000D01*
X81203632Y-116840000D01*
X80388765Y-116025132D01*
X80128943Y-116070455D01*
X80009989Y-116357425D01*
X79891457Y-116071054D01*
X79891057Y-116070455D01*
X79631235Y-116025132D01*
X78816368Y-116840000D01*
X78663632Y-116840000D01*
X77848765Y-116025132D01*
X77675000Y-116055443D01*
X77675000Y-115948765D01*
X77925132Y-115948765D01*
X78740000Y-116763632D01*
X79554868Y-115948765D01*
X80465132Y-115948765D01*
X81280000Y-116763632D01*
X82094868Y-115948765D01*
X82049545Y-115688943D01*
X81550476Y-115482070D01*
X81010230Y-115481929D01*
X80511054Y-115688543D01*
X80510455Y-115688943D01*
X80465132Y-115948765D01*
X79554868Y-115948765D01*
X79509545Y-115688943D01*
X79010476Y-115482070D01*
X78470230Y-115481929D01*
X77971054Y-115688543D01*
X77970455Y-115688943D01*
X77925132Y-115948765D01*
X77675000Y-115948765D01*
X77675000Y-114733958D01*
X77765077Y-114951423D01*
X78088577Y-115274923D01*
X78511251Y-115450000D01*
X78968749Y-115450000D01*
X79391423Y-115274923D01*
X79714923Y-114951423D01*
X79890000Y-114528749D01*
X79890000Y-114071251D01*
X80130000Y-114071251D01*
X80130000Y-114528749D01*
X80305077Y-114951423D01*
X80628577Y-115274923D01*
X81051251Y-115450000D01*
X81508749Y-115450000D01*
X81931423Y-115274923D01*
X82254923Y-114951423D01*
X82430000Y-114528749D01*
X82430000Y-114071251D01*
X82254923Y-113648577D01*
X81931423Y-113325077D01*
X81508749Y-113150000D01*
X81051251Y-113150000D01*
X80628577Y-113325077D01*
X80305077Y-113648577D01*
X80130000Y-114071251D01*
X79890000Y-114071251D01*
X79714923Y-113648577D01*
X79391423Y-113325077D01*
X78968749Y-113150000D01*
X78511251Y-113150000D01*
X78088577Y-113325077D01*
X77765077Y-113648577D01*
X77675000Y-113866042D01*
X77675000Y-112193958D01*
X77765077Y-112411423D01*
X78088577Y-112734923D01*
X78511251Y-112910000D01*
X78968749Y-112910000D01*
X79391423Y-112734923D01*
X79714923Y-112411423D01*
X79890000Y-111988749D01*
X79890000Y-111531251D01*
X80130000Y-111531251D01*
X80130000Y-111988749D01*
X80305077Y-112411423D01*
X80628577Y-112734923D01*
X81051251Y-112910000D01*
X81508749Y-112910000D01*
X81931423Y-112734923D01*
X82254923Y-112411423D01*
X82430000Y-111988749D01*
X82430000Y-111531251D01*
X82254923Y-111108577D01*
X81931423Y-110785077D01*
X81508749Y-110610000D01*
X81051251Y-110610000D01*
X80628577Y-110785077D01*
X80305077Y-111108577D01*
X80130000Y-111531251D01*
X79890000Y-111531251D01*
X79714923Y-111108577D01*
X79391423Y-110785077D01*
X78968749Y-110610000D01*
X78511251Y-110610000D01*
X78088577Y-110785077D01*
X77765077Y-111108577D01*
X77675000Y-111326042D01*
X77675000Y-109653958D01*
X77765077Y-109871423D01*
X78088577Y-110194923D01*
X78511251Y-110370000D01*
X78968749Y-110370000D01*
X79391423Y-110194923D01*
X79714923Y-109871423D01*
X79890000Y-109448749D01*
X79890000Y-108991251D01*
X80130000Y-108991251D01*
X80130000Y-109448749D01*
X80305077Y-109871423D01*
X80628577Y-110194923D01*
X81051251Y-110370000D01*
X81508749Y-110370000D01*
X81931423Y-110194923D01*
X82254923Y-109871423D01*
X82430000Y-109448749D01*
X82430000Y-108991251D01*
X82254923Y-108568577D01*
X81931423Y-108245077D01*
X81508749Y-108070000D01*
X81051251Y-108070000D01*
X80628577Y-108245077D01*
X80305077Y-108568577D01*
X80130000Y-108991251D01*
X79890000Y-108991251D01*
X79714923Y-108568577D01*
X79391423Y-108245077D01*
X78968749Y-108070000D01*
X78511251Y-108070000D01*
X78088577Y-108245077D01*
X77765077Y-108568577D01*
X77675000Y-108786042D01*
X77675000Y-107113958D01*
X77765077Y-107331423D01*
X78088577Y-107654923D01*
X78511251Y-107830000D01*
X78968749Y-107830000D01*
X79391423Y-107654923D01*
X79714923Y-107331423D01*
X79890000Y-106908749D01*
X79890000Y-106451251D01*
X80130000Y-106451251D01*
X80130000Y-106908749D01*
X80305077Y-107331423D01*
X80628577Y-107654923D01*
X81051251Y-107830000D01*
X81508749Y-107830000D01*
X81931423Y-107654923D01*
X82254923Y-107331423D01*
X82430000Y-106908749D01*
X82430000Y-106451251D01*
X82254923Y-106028577D01*
X81931423Y-105705077D01*
X81508749Y-105530000D01*
X81051251Y-105530000D01*
X80628577Y-105705077D01*
X80305077Y-106028577D01*
X80130000Y-106451251D01*
X79890000Y-106451251D01*
X79714923Y-106028577D01*
X79391423Y-105705077D01*
X78968749Y-105530000D01*
X78511251Y-105530000D01*
X78088577Y-105705077D01*
X77765077Y-106028577D01*
X77675000Y-106246042D01*
X77675000Y-104573958D01*
X77765077Y-104791423D01*
X78088577Y-105114923D01*
X78511251Y-105290000D01*
X78968749Y-105290000D01*
X79391423Y-105114923D01*
X79714923Y-104791423D01*
X79890000Y-104368749D01*
X79890000Y-103911251D01*
X80130000Y-103911251D01*
X80130000Y-104368749D01*
X80305077Y-104791423D01*
X80628577Y-105114923D01*
X81051251Y-105290000D01*
X81508749Y-105290000D01*
X81931423Y-105114923D01*
X82254923Y-104791423D01*
X82430000Y-104368749D01*
X82430000Y-103911251D01*
X82254923Y-103488577D01*
X81931423Y-103165077D01*
X81679582Y-103060761D01*
X86800000Y-103060761D01*
X86800000Y-103339239D01*
X86906568Y-103596518D01*
X87103482Y-103793432D01*
X87360761Y-103900000D01*
X87639239Y-103900000D01*
X87880661Y-103800000D01*
X87940914Y-103800000D01*
X88000000Y-103811753D01*
X88059086Y-103800000D01*
X88059091Y-103800000D01*
X88234108Y-103765187D01*
X88432575Y-103632575D01*
X88466049Y-103582478D01*
X88682478Y-103366049D01*
X88732575Y-103332575D01*
X88865187Y-103134108D01*
X88868571Y-103117098D01*
X89006568Y-103255096D01*
X89106568Y-103496518D01*
X89303482Y-103693432D01*
X89560761Y-103800000D01*
X89839239Y-103800000D01*
X90096518Y-103693432D01*
X90293432Y-103496518D01*
X90400000Y-103239239D01*
X90400000Y-102960761D01*
X90293432Y-102703482D01*
X90096518Y-102506568D01*
X89855096Y-102406568D01*
X89693432Y-102244905D01*
X89593432Y-102003482D01*
X89549971Y-101960021D01*
X89600000Y-101839239D01*
X89600000Y-101560761D01*
X89493432Y-101303482D01*
X89429260Y-101239310D01*
X89450000Y-101189239D01*
X89450000Y-100910761D01*
X89343432Y-100653482D01*
X89146518Y-100456568D01*
X88889239Y-100350000D01*
X88610761Y-100350000D01*
X88353482Y-100456568D01*
X88156568Y-100653482D01*
X88050000Y-100910761D01*
X88050000Y-101001472D01*
X87417521Y-101633951D01*
X87367425Y-101667425D01*
X87234813Y-101865893D01*
X87200000Y-102040910D01*
X87200000Y-102040914D01*
X87188247Y-102100000D01*
X87200000Y-102159086D01*
X87200000Y-102219339D01*
X87100000Y-102460761D01*
X87100000Y-102610050D01*
X86906568Y-102803482D01*
X86800000Y-103060761D01*
X81679582Y-103060761D01*
X81508749Y-102990000D01*
X81051251Y-102990000D01*
X80628577Y-103165077D01*
X80305077Y-103488577D01*
X80130000Y-103911251D01*
X79890000Y-103911251D01*
X79714923Y-103488577D01*
X79391423Y-103165077D01*
X78968749Y-102990000D01*
X78511251Y-102990000D01*
X78088577Y-103165077D01*
X77765077Y-103488577D01*
X77675000Y-103706042D01*
X77675000Y-102033958D01*
X77765077Y-102251423D01*
X78088577Y-102574923D01*
X78511251Y-102750000D01*
X78968749Y-102750000D01*
X79391423Y-102574923D01*
X79714923Y-102251423D01*
X79890000Y-101828749D01*
X79890000Y-101371251D01*
X80130000Y-101371251D01*
X80130000Y-101828749D01*
X80305077Y-102251423D01*
X80628577Y-102574923D01*
X81051251Y-102750000D01*
X81508749Y-102750000D01*
X81931423Y-102574923D01*
X82254923Y-102251423D01*
X82430000Y-101828749D01*
X82430000Y-101371251D01*
X82254923Y-100948577D01*
X81931423Y-100625077D01*
X81508749Y-100450000D01*
X81051251Y-100450000D01*
X80628577Y-100625077D01*
X80305077Y-100948577D01*
X80130000Y-101371251D01*
X79890000Y-101371251D01*
X79714923Y-100948577D01*
X79391423Y-100625077D01*
X78968749Y-100450000D01*
X78511251Y-100450000D01*
X78088577Y-100625077D01*
X77765077Y-100948577D01*
X77675000Y-101166042D01*
X77675000Y-99493958D01*
X77765077Y-99711423D01*
X78088577Y-100034923D01*
X78511251Y-100210000D01*
X78968749Y-100210000D01*
X79391423Y-100034923D01*
X79714923Y-99711423D01*
X79890000Y-99288749D01*
X79890000Y-98831251D01*
X80130000Y-98831251D01*
X80130000Y-99288749D01*
X80305077Y-99711423D01*
X80628577Y-100034923D01*
X81051251Y-100210000D01*
X81508749Y-100210000D01*
X81931423Y-100034923D01*
X82254923Y-99711423D01*
X82430000Y-99288749D01*
X82430000Y-98831251D01*
X82254923Y-98408577D01*
X81931423Y-98085077D01*
X81508749Y-97910000D01*
X81051251Y-97910000D01*
X80628577Y-98085077D01*
X80305077Y-98408577D01*
X80130000Y-98831251D01*
X79890000Y-98831251D01*
X79714923Y-98408577D01*
X79391423Y-98085077D01*
X78968749Y-97910000D01*
X78511251Y-97910000D01*
X78088577Y-98085077D01*
X77765077Y-98408577D01*
X77675000Y-98626042D01*
X77675000Y-97448884D01*
X77729520Y-97530480D01*
X77894910Y-97640989D01*
X78090000Y-97679795D01*
X79390000Y-97679795D01*
X79585090Y-97640989D01*
X79750480Y-97530480D01*
X79860989Y-97365090D01*
X79899795Y-97170000D01*
X79899795Y-95870000D01*
X79860989Y-95674910D01*
X79750480Y-95509520D01*
X79698817Y-95475000D01*
X80797758Y-95475000D01*
X80628577Y-95545077D01*
G36*
X85643786Y-95475156D02*
X85767285Y-95598655D01*
X85535998Y-95610421D01*
X85374972Y-96010042D01*
X85379130Y-96440866D01*
X85535998Y-96819579D01*
X85767288Y-96831345D01*
X86383632Y-96215000D01*
X86369490Y-96200858D01*
X86445858Y-96124490D01*
X86460000Y-96138632D01*
X86474142Y-96124490D01*
X86550510Y-96200858D01*
X86536368Y-96215000D01*
X86550510Y-96229142D01*
X86474142Y-96305510D01*
X86460000Y-96291368D01*
X86039131Y-96712237D01*
X85964352Y-96743211D01*
X85718211Y-96989352D01*
X85585000Y-97310952D01*
X85585000Y-97659048D01*
X85601963Y-97700000D01*
X85589950Y-97700000D01*
X83963724Y-96073776D01*
X83924671Y-96015329D01*
X83693126Y-95860615D01*
X83488940Y-95820000D01*
X83488935Y-95820000D01*
X83420000Y-95806288D01*
X83351065Y-95820000D01*
X82206346Y-95820000D01*
X81931423Y-95545077D01*
X81762242Y-95475000D01*
X85643942Y-95475000D01*
X85643786Y-95475156D01*
X85643786Y-95475156D01*
G37*
X85643786Y-95475156D02*
X85767285Y-95598655D01*
X85535998Y-95610421D01*
X85374972Y-96010042D01*
X85379130Y-96440866D01*
X85535998Y-96819579D01*
X85767288Y-96831345D01*
X86383632Y-96215000D01*
X86369490Y-96200858D01*
X86445858Y-96124490D01*
X86460000Y-96138632D01*
X86474142Y-96124490D01*
X86550510Y-96200858D01*
X86536368Y-96215000D01*
X86550510Y-96229142D01*
X86474142Y-96305510D01*
X86460000Y-96291368D01*
X86039131Y-96712237D01*
X85964352Y-96743211D01*
X85718211Y-96989352D01*
X85585000Y-97310952D01*
X85585000Y-97659048D01*
X85601963Y-97700000D01*
X85589950Y-97700000D01*
X83963724Y-96073776D01*
X83924671Y-96015329D01*
X83693126Y-95860615D01*
X83488940Y-95820000D01*
X83488935Y-95820000D01*
X83420000Y-95806288D01*
X83351065Y-95820000D01*
X82206346Y-95820000D01*
X81931423Y-95545077D01*
X81762242Y-95475000D01*
X85643942Y-95475000D01*
X85643786Y-95475156D01*
G36*
X89090510Y-96200858D02*
X89076368Y-96215000D01*
X89090510Y-96229142D01*
X89014142Y-96305510D01*
X89000000Y-96291368D01*
X88985858Y-96305510D01*
X88909490Y-96229142D01*
X88923632Y-96215000D01*
X88909490Y-96200858D01*
X88985858Y-96124490D01*
X89000000Y-96138632D01*
X89014142Y-96124490D01*
X89090510Y-96200858D01*
X89090510Y-96200858D01*
G37*
X89090510Y-96200858D02*
X89076368Y-96215000D01*
X89090510Y-96229142D01*
X89014142Y-96305510D01*
X89000000Y-96291368D01*
X88985858Y-96305510D01*
X88909490Y-96229142D01*
X88923632Y-96215000D01*
X88909490Y-96200858D01*
X88985858Y-96124490D01*
X89000000Y-96138632D01*
X89014142Y-96124490D01*
X89090510Y-96200858D01*
G36*
X90360510Y-96200858D02*
X90346368Y-96215000D01*
X90360510Y-96229142D01*
X90284142Y-96305510D01*
X90270000Y-96291368D01*
X90255858Y-96305510D01*
X90179490Y-96229142D01*
X90193632Y-96215000D01*
X90179490Y-96200858D01*
X90255858Y-96124490D01*
X90270000Y-96138632D01*
X90284142Y-96124490D01*
X90360510Y-96200858D01*
X90360510Y-96200858D01*
G37*
X90360510Y-96200858D02*
X90346368Y-96215000D01*
X90360510Y-96229142D01*
X90284142Y-96305510D01*
X90270000Y-96291368D01*
X90255858Y-96305510D01*
X90179490Y-96229142D01*
X90193632Y-96215000D01*
X90179490Y-96200858D01*
X90255858Y-96124490D01*
X90270000Y-96138632D01*
X90284142Y-96124490D01*
X90360510Y-96200858D01*
G36*
X95162000Y-95729170D02*
X95162000Y-96266818D01*
X95146228Y-96256279D01*
X94893208Y-96003260D01*
X94793207Y-95761836D01*
X94568164Y-95536793D01*
X94418983Y-95475000D01*
X95267281Y-95475000D01*
X95162000Y-95729170D01*
X95162000Y-95729170D01*
G37*
X95162000Y-95729170D02*
X95162000Y-96266818D01*
X95146228Y-96256279D01*
X94893208Y-96003260D01*
X94793207Y-95761836D01*
X94568164Y-95536793D01*
X94418983Y-95475000D01*
X95267281Y-95475000D01*
X95162000Y-95729170D01*
G36*
X87076345Y-95522285D02*
X87073939Y-95475000D01*
X87123630Y-95475000D01*
X87076345Y-95522285D01*
X87076345Y-95522285D01*
G37*
X87076345Y-95522285D02*
X87073939Y-95475000D01*
X87123630Y-95475000D01*
X87076345Y-95522285D01*
G36*
X93714449Y-95515000D02*
X92968940Y-95515000D01*
X92900000Y-95501287D01*
X92831060Y-95515000D01*
X92299187Y-95515000D01*
X92275480Y-95479520D01*
X92268715Y-95475000D01*
X93811017Y-95475000D01*
X93714449Y-95515000D01*
X93714449Y-95515000D01*
G37*
X93714449Y-95515000D02*
X92968940Y-95515000D01*
X92900000Y-95501287D01*
X92831060Y-95515000D01*
X92299187Y-95515000D01*
X92275480Y-95479520D01*
X92268715Y-95475000D01*
X93811017Y-95475000D01*
X93714449Y-95515000D01*
G04 #@! TD*
M02*
