G04 #@! TF.GenerationSoftware,KiCad,Pcbnew,5.0.1-33cea8e~68~ubuntu18.04.1*
G04 #@! TF.CreationDate,2018-11-24T10:27:27+01:00*
G04 #@! TF.ProjectId,LPC82X_JHI33_2layer,4C50433832585F4A484933335F326C61,rev?*
G04 #@! TF.SameCoordinates,Original*
G04 #@! TF.FileFunction,Soldermask,Bot*
G04 #@! TF.FilePolarity,Negative*
%FSLAX46Y46*%
G04 Gerber Fmt 4.6, Leading zero omitted, Abs format (unit mm)*
G04 Created by KiCad (PCBNEW 5.0.1-33cea8e~68~ubuntu18.04.1) date za 24 nov 2018 10:27:27 CET*
%MOMM*%
%LPD*%
G01*
G04 APERTURE LIST*
%ADD10C,0.100000*%
G04 APERTURE END LIST*
D10*
G36*
X99278767Y-116118822D02*
X99278769Y-116118823D01*
X99278770Y-116118823D01*
X99415258Y-116175359D01*
X99538096Y-116257436D01*
X99642564Y-116361904D01*
X99724641Y-116484742D01*
X99781177Y-116621230D01*
X99810000Y-116766133D01*
X99810000Y-116913867D01*
X99781177Y-117058770D01*
X99724641Y-117195258D01*
X99642564Y-117318096D01*
X99538096Y-117422564D01*
X99415258Y-117504641D01*
X99278770Y-117561177D01*
X99278769Y-117561177D01*
X99278767Y-117561178D01*
X99133869Y-117590000D01*
X98986131Y-117590000D01*
X98841233Y-117561178D01*
X98841231Y-117561177D01*
X98841230Y-117561177D01*
X98704742Y-117504641D01*
X98581904Y-117422564D01*
X98477436Y-117318096D01*
X98395359Y-117195258D01*
X98338823Y-117058770D01*
X98310000Y-116913867D01*
X98310000Y-116766133D01*
X98338823Y-116621230D01*
X98395359Y-116484742D01*
X98477436Y-116361904D01*
X98581904Y-116257436D01*
X98704742Y-116175359D01*
X98841230Y-116118823D01*
X98841231Y-116118823D01*
X98841233Y-116118822D01*
X98986131Y-116090000D01*
X99133869Y-116090000D01*
X99278767Y-116118822D01*
X99278767Y-116118822D01*
G37*
G36*
X78958767Y-116118822D02*
X78958769Y-116118823D01*
X78958770Y-116118823D01*
X79095258Y-116175359D01*
X79218096Y-116257436D01*
X79322564Y-116361904D01*
X79404641Y-116484742D01*
X79461177Y-116621230D01*
X79490000Y-116766133D01*
X79490000Y-116913867D01*
X79461177Y-117058770D01*
X79404641Y-117195258D01*
X79322564Y-117318096D01*
X79218096Y-117422564D01*
X79095258Y-117504641D01*
X78958770Y-117561177D01*
X78958769Y-117561177D01*
X78958767Y-117561178D01*
X78813869Y-117590000D01*
X78666131Y-117590000D01*
X78521233Y-117561178D01*
X78521231Y-117561177D01*
X78521230Y-117561177D01*
X78384742Y-117504641D01*
X78261904Y-117422564D01*
X78157436Y-117318096D01*
X78075359Y-117195258D01*
X78018823Y-117058770D01*
X77990000Y-116913867D01*
X77990000Y-116766133D01*
X78018823Y-116621230D01*
X78075359Y-116484742D01*
X78157436Y-116361904D01*
X78261904Y-116257436D01*
X78384742Y-116175359D01*
X78521230Y-116118823D01*
X78521231Y-116118823D01*
X78521233Y-116118822D01*
X78666131Y-116090000D01*
X78813869Y-116090000D01*
X78958767Y-116118822D01*
X78958767Y-116118822D01*
G37*
G36*
X81498767Y-116118822D02*
X81498769Y-116118823D01*
X81498770Y-116118823D01*
X81635258Y-116175359D01*
X81758096Y-116257436D01*
X81862564Y-116361904D01*
X81944641Y-116484742D01*
X82001177Y-116621230D01*
X82030000Y-116766133D01*
X82030000Y-116913867D01*
X82001177Y-117058770D01*
X81944641Y-117195258D01*
X81862564Y-117318096D01*
X81758096Y-117422564D01*
X81635258Y-117504641D01*
X81498770Y-117561177D01*
X81498769Y-117561177D01*
X81498767Y-117561178D01*
X81353869Y-117590000D01*
X81206131Y-117590000D01*
X81061233Y-117561178D01*
X81061231Y-117561177D01*
X81061230Y-117561177D01*
X80924742Y-117504641D01*
X80801904Y-117422564D01*
X80697436Y-117318096D01*
X80615359Y-117195258D01*
X80558823Y-117058770D01*
X80530000Y-116913867D01*
X80530000Y-116766133D01*
X80558823Y-116621230D01*
X80615359Y-116484742D01*
X80697436Y-116361904D01*
X80801904Y-116257436D01*
X80924742Y-116175359D01*
X81061230Y-116118823D01*
X81061231Y-116118823D01*
X81061233Y-116118822D01*
X81206131Y-116090000D01*
X81353869Y-116090000D01*
X81498767Y-116118822D01*
X81498767Y-116118822D01*
G37*
G36*
X96738767Y-116118822D02*
X96738769Y-116118823D01*
X96738770Y-116118823D01*
X96875258Y-116175359D01*
X96998096Y-116257436D01*
X97102564Y-116361904D01*
X97184641Y-116484742D01*
X97241177Y-116621230D01*
X97270000Y-116766133D01*
X97270000Y-116913867D01*
X97241177Y-117058770D01*
X97184641Y-117195258D01*
X97102564Y-117318096D01*
X96998096Y-117422564D01*
X96875258Y-117504641D01*
X96738770Y-117561177D01*
X96738769Y-117561177D01*
X96738767Y-117561178D01*
X96593869Y-117590000D01*
X96446131Y-117590000D01*
X96301233Y-117561178D01*
X96301231Y-117561177D01*
X96301230Y-117561177D01*
X96164742Y-117504641D01*
X96041904Y-117422564D01*
X95937436Y-117318096D01*
X95855359Y-117195258D01*
X95798823Y-117058770D01*
X95770000Y-116913867D01*
X95770000Y-116766133D01*
X95798823Y-116621230D01*
X95855359Y-116484742D01*
X95937436Y-116361904D01*
X96041904Y-116257436D01*
X96164742Y-116175359D01*
X96301230Y-116118823D01*
X96301231Y-116118823D01*
X96301233Y-116118822D01*
X96446131Y-116090000D01*
X96593869Y-116090000D01*
X96738767Y-116118822D01*
X96738767Y-116118822D01*
G37*
G36*
X96738767Y-113578822D02*
X96738769Y-113578823D01*
X96738770Y-113578823D01*
X96875258Y-113635359D01*
X96998096Y-113717436D01*
X97102564Y-113821904D01*
X97184641Y-113944742D01*
X97241177Y-114081230D01*
X97270000Y-114226133D01*
X97270000Y-114373867D01*
X97241177Y-114518770D01*
X97184641Y-114655258D01*
X97102564Y-114778096D01*
X96998096Y-114882564D01*
X96875258Y-114964641D01*
X96738770Y-115021177D01*
X96738769Y-115021177D01*
X96738767Y-115021178D01*
X96593869Y-115050000D01*
X96446131Y-115050000D01*
X96301233Y-115021178D01*
X96301231Y-115021177D01*
X96301230Y-115021177D01*
X96164742Y-114964641D01*
X96041904Y-114882564D01*
X95937436Y-114778096D01*
X95855359Y-114655258D01*
X95798823Y-114518770D01*
X95770000Y-114373867D01*
X95770000Y-114226133D01*
X95798823Y-114081230D01*
X95855359Y-113944742D01*
X95937436Y-113821904D01*
X96041904Y-113717436D01*
X96164742Y-113635359D01*
X96301230Y-113578823D01*
X96301231Y-113578823D01*
X96301233Y-113578822D01*
X96446131Y-113550000D01*
X96593869Y-113550000D01*
X96738767Y-113578822D01*
X96738767Y-113578822D01*
G37*
G36*
X81498767Y-113578822D02*
X81498769Y-113578823D01*
X81498770Y-113578823D01*
X81635258Y-113635359D01*
X81758096Y-113717436D01*
X81862564Y-113821904D01*
X81944641Y-113944742D01*
X82001177Y-114081230D01*
X82030000Y-114226133D01*
X82030000Y-114373867D01*
X82001177Y-114518770D01*
X81944641Y-114655258D01*
X81862564Y-114778096D01*
X81758096Y-114882564D01*
X81635258Y-114964641D01*
X81498770Y-115021177D01*
X81498769Y-115021177D01*
X81498767Y-115021178D01*
X81353869Y-115050000D01*
X81206131Y-115050000D01*
X81061233Y-115021178D01*
X81061231Y-115021177D01*
X81061230Y-115021177D01*
X80924742Y-114964641D01*
X80801904Y-114882564D01*
X80697436Y-114778096D01*
X80615359Y-114655258D01*
X80558823Y-114518770D01*
X80530000Y-114373867D01*
X80530000Y-114226133D01*
X80558823Y-114081230D01*
X80615359Y-113944742D01*
X80697436Y-113821904D01*
X80801904Y-113717436D01*
X80924742Y-113635359D01*
X81061230Y-113578823D01*
X81061231Y-113578823D01*
X81061233Y-113578822D01*
X81206131Y-113550000D01*
X81353869Y-113550000D01*
X81498767Y-113578822D01*
X81498767Y-113578822D01*
G37*
G36*
X78958767Y-113578822D02*
X78958769Y-113578823D01*
X78958770Y-113578823D01*
X79095258Y-113635359D01*
X79218096Y-113717436D01*
X79322564Y-113821904D01*
X79404641Y-113944742D01*
X79461177Y-114081230D01*
X79490000Y-114226133D01*
X79490000Y-114373867D01*
X79461177Y-114518770D01*
X79404641Y-114655258D01*
X79322564Y-114778096D01*
X79218096Y-114882564D01*
X79095258Y-114964641D01*
X78958770Y-115021177D01*
X78958769Y-115021177D01*
X78958767Y-115021178D01*
X78813869Y-115050000D01*
X78666131Y-115050000D01*
X78521233Y-115021178D01*
X78521231Y-115021177D01*
X78521230Y-115021177D01*
X78384742Y-114964641D01*
X78261904Y-114882564D01*
X78157436Y-114778096D01*
X78075359Y-114655258D01*
X78018823Y-114518770D01*
X77990000Y-114373867D01*
X77990000Y-114226133D01*
X78018823Y-114081230D01*
X78075359Y-113944742D01*
X78157436Y-113821904D01*
X78261904Y-113717436D01*
X78384742Y-113635359D01*
X78521230Y-113578823D01*
X78521231Y-113578823D01*
X78521233Y-113578822D01*
X78666131Y-113550000D01*
X78813869Y-113550000D01*
X78958767Y-113578822D01*
X78958767Y-113578822D01*
G37*
G36*
X99278767Y-113578822D02*
X99278769Y-113578823D01*
X99278770Y-113578823D01*
X99415258Y-113635359D01*
X99538096Y-113717436D01*
X99642564Y-113821904D01*
X99724641Y-113944742D01*
X99781177Y-114081230D01*
X99810000Y-114226133D01*
X99810000Y-114373867D01*
X99781177Y-114518770D01*
X99724641Y-114655258D01*
X99642564Y-114778096D01*
X99538096Y-114882564D01*
X99415258Y-114964641D01*
X99278770Y-115021177D01*
X99278769Y-115021177D01*
X99278767Y-115021178D01*
X99133869Y-115050000D01*
X98986131Y-115050000D01*
X98841233Y-115021178D01*
X98841231Y-115021177D01*
X98841230Y-115021177D01*
X98704742Y-114964641D01*
X98581904Y-114882564D01*
X98477436Y-114778096D01*
X98395359Y-114655258D01*
X98338823Y-114518770D01*
X98310000Y-114373867D01*
X98310000Y-114226133D01*
X98338823Y-114081230D01*
X98395359Y-113944742D01*
X98477436Y-113821904D01*
X98581904Y-113717436D01*
X98704742Y-113635359D01*
X98841230Y-113578823D01*
X98841231Y-113578823D01*
X98841233Y-113578822D01*
X98986131Y-113550000D01*
X99133869Y-113550000D01*
X99278767Y-113578822D01*
X99278767Y-113578822D01*
G37*
G36*
X96738767Y-111038822D02*
X96738769Y-111038823D01*
X96738770Y-111038823D01*
X96875258Y-111095359D01*
X96998096Y-111177436D01*
X97102564Y-111281904D01*
X97184641Y-111404742D01*
X97241177Y-111541230D01*
X97270000Y-111686133D01*
X97270000Y-111833867D01*
X97241177Y-111978770D01*
X97184641Y-112115258D01*
X97102564Y-112238096D01*
X96998096Y-112342564D01*
X96875258Y-112424641D01*
X96738770Y-112481177D01*
X96738769Y-112481177D01*
X96738767Y-112481178D01*
X96593869Y-112510000D01*
X96446131Y-112510000D01*
X96301233Y-112481178D01*
X96301231Y-112481177D01*
X96301230Y-112481177D01*
X96164742Y-112424641D01*
X96041904Y-112342564D01*
X95937436Y-112238096D01*
X95855359Y-112115258D01*
X95798823Y-111978770D01*
X95770000Y-111833867D01*
X95770000Y-111686133D01*
X95798823Y-111541230D01*
X95855359Y-111404742D01*
X95937436Y-111281904D01*
X96041904Y-111177436D01*
X96164742Y-111095359D01*
X96301230Y-111038823D01*
X96301231Y-111038823D01*
X96301233Y-111038822D01*
X96446131Y-111010000D01*
X96593869Y-111010000D01*
X96738767Y-111038822D01*
X96738767Y-111038822D01*
G37*
G36*
X78958767Y-111038822D02*
X78958769Y-111038823D01*
X78958770Y-111038823D01*
X79095258Y-111095359D01*
X79218096Y-111177436D01*
X79322564Y-111281904D01*
X79404641Y-111404742D01*
X79461177Y-111541230D01*
X79490000Y-111686133D01*
X79490000Y-111833867D01*
X79461177Y-111978770D01*
X79404641Y-112115258D01*
X79322564Y-112238096D01*
X79218096Y-112342564D01*
X79095258Y-112424641D01*
X78958770Y-112481177D01*
X78958769Y-112481177D01*
X78958767Y-112481178D01*
X78813869Y-112510000D01*
X78666131Y-112510000D01*
X78521233Y-112481178D01*
X78521231Y-112481177D01*
X78521230Y-112481177D01*
X78384742Y-112424641D01*
X78261904Y-112342564D01*
X78157436Y-112238096D01*
X78075359Y-112115258D01*
X78018823Y-111978770D01*
X77990000Y-111833867D01*
X77990000Y-111686133D01*
X78018823Y-111541230D01*
X78075359Y-111404742D01*
X78157436Y-111281904D01*
X78261904Y-111177436D01*
X78384742Y-111095359D01*
X78521230Y-111038823D01*
X78521231Y-111038823D01*
X78521233Y-111038822D01*
X78666131Y-111010000D01*
X78813869Y-111010000D01*
X78958767Y-111038822D01*
X78958767Y-111038822D01*
G37*
G36*
X81498767Y-111038822D02*
X81498769Y-111038823D01*
X81498770Y-111038823D01*
X81635258Y-111095359D01*
X81758096Y-111177436D01*
X81862564Y-111281904D01*
X81944641Y-111404742D01*
X82001177Y-111541230D01*
X82030000Y-111686133D01*
X82030000Y-111833867D01*
X82001177Y-111978770D01*
X81944641Y-112115258D01*
X81862564Y-112238096D01*
X81758096Y-112342564D01*
X81635258Y-112424641D01*
X81498770Y-112481177D01*
X81498769Y-112481177D01*
X81498767Y-112481178D01*
X81353869Y-112510000D01*
X81206131Y-112510000D01*
X81061233Y-112481178D01*
X81061231Y-112481177D01*
X81061230Y-112481177D01*
X80924742Y-112424641D01*
X80801904Y-112342564D01*
X80697436Y-112238096D01*
X80615359Y-112115258D01*
X80558823Y-111978770D01*
X80530000Y-111833867D01*
X80530000Y-111686133D01*
X80558823Y-111541230D01*
X80615359Y-111404742D01*
X80697436Y-111281904D01*
X80801904Y-111177436D01*
X80924742Y-111095359D01*
X81061230Y-111038823D01*
X81061231Y-111038823D01*
X81061233Y-111038822D01*
X81206131Y-111010000D01*
X81353869Y-111010000D01*
X81498767Y-111038822D01*
X81498767Y-111038822D01*
G37*
G36*
X99278767Y-111038822D02*
X99278769Y-111038823D01*
X99278770Y-111038823D01*
X99415258Y-111095359D01*
X99538096Y-111177436D01*
X99642564Y-111281904D01*
X99724641Y-111404742D01*
X99781177Y-111541230D01*
X99810000Y-111686133D01*
X99810000Y-111833867D01*
X99781177Y-111978770D01*
X99724641Y-112115258D01*
X99642564Y-112238096D01*
X99538096Y-112342564D01*
X99415258Y-112424641D01*
X99278770Y-112481177D01*
X99278769Y-112481177D01*
X99278767Y-112481178D01*
X99133869Y-112510000D01*
X98986131Y-112510000D01*
X98841233Y-112481178D01*
X98841231Y-112481177D01*
X98841230Y-112481177D01*
X98704742Y-112424641D01*
X98581904Y-112342564D01*
X98477436Y-112238096D01*
X98395359Y-112115258D01*
X98338823Y-111978770D01*
X98310000Y-111833867D01*
X98310000Y-111686133D01*
X98338823Y-111541230D01*
X98395359Y-111404742D01*
X98477436Y-111281904D01*
X98581904Y-111177436D01*
X98704742Y-111095359D01*
X98841230Y-111038823D01*
X98841231Y-111038823D01*
X98841233Y-111038822D01*
X98986131Y-111010000D01*
X99133869Y-111010000D01*
X99278767Y-111038822D01*
X99278767Y-111038822D01*
G37*
G36*
X81498767Y-108498822D02*
X81498769Y-108498823D01*
X81498770Y-108498823D01*
X81635258Y-108555359D01*
X81758096Y-108637436D01*
X81862564Y-108741904D01*
X81944641Y-108864742D01*
X82001177Y-109001230D01*
X82030000Y-109146133D01*
X82030000Y-109293867D01*
X82001177Y-109438770D01*
X81944641Y-109575258D01*
X81862564Y-109698096D01*
X81758096Y-109802564D01*
X81635258Y-109884641D01*
X81498770Y-109941177D01*
X81498769Y-109941177D01*
X81498767Y-109941178D01*
X81353869Y-109970000D01*
X81206131Y-109970000D01*
X81061233Y-109941178D01*
X81061231Y-109941177D01*
X81061230Y-109941177D01*
X80924742Y-109884641D01*
X80801904Y-109802564D01*
X80697436Y-109698096D01*
X80615359Y-109575258D01*
X80558823Y-109438770D01*
X80530000Y-109293867D01*
X80530000Y-109146133D01*
X80558823Y-109001230D01*
X80615359Y-108864742D01*
X80697436Y-108741904D01*
X80801904Y-108637436D01*
X80924742Y-108555359D01*
X81061230Y-108498823D01*
X81061231Y-108498823D01*
X81061233Y-108498822D01*
X81206131Y-108470000D01*
X81353869Y-108470000D01*
X81498767Y-108498822D01*
X81498767Y-108498822D01*
G37*
G36*
X96738767Y-108498822D02*
X96738769Y-108498823D01*
X96738770Y-108498823D01*
X96875258Y-108555359D01*
X96998096Y-108637436D01*
X97102564Y-108741904D01*
X97184641Y-108864742D01*
X97241177Y-109001230D01*
X97270000Y-109146133D01*
X97270000Y-109293867D01*
X97241177Y-109438770D01*
X97184641Y-109575258D01*
X97102564Y-109698096D01*
X96998096Y-109802564D01*
X96875258Y-109884641D01*
X96738770Y-109941177D01*
X96738769Y-109941177D01*
X96738767Y-109941178D01*
X96593869Y-109970000D01*
X96446131Y-109970000D01*
X96301233Y-109941178D01*
X96301231Y-109941177D01*
X96301230Y-109941177D01*
X96164742Y-109884641D01*
X96041904Y-109802564D01*
X95937436Y-109698096D01*
X95855359Y-109575258D01*
X95798823Y-109438770D01*
X95770000Y-109293867D01*
X95770000Y-109146133D01*
X95798823Y-109001230D01*
X95855359Y-108864742D01*
X95937436Y-108741904D01*
X96041904Y-108637436D01*
X96164742Y-108555359D01*
X96301230Y-108498823D01*
X96301231Y-108498823D01*
X96301233Y-108498822D01*
X96446131Y-108470000D01*
X96593869Y-108470000D01*
X96738767Y-108498822D01*
X96738767Y-108498822D01*
G37*
G36*
X99278767Y-108498822D02*
X99278769Y-108498823D01*
X99278770Y-108498823D01*
X99415258Y-108555359D01*
X99538096Y-108637436D01*
X99642564Y-108741904D01*
X99724641Y-108864742D01*
X99781177Y-109001230D01*
X99810000Y-109146133D01*
X99810000Y-109293867D01*
X99781177Y-109438770D01*
X99724641Y-109575258D01*
X99642564Y-109698096D01*
X99538096Y-109802564D01*
X99415258Y-109884641D01*
X99278770Y-109941177D01*
X99278769Y-109941177D01*
X99278767Y-109941178D01*
X99133869Y-109970000D01*
X98986131Y-109970000D01*
X98841233Y-109941178D01*
X98841231Y-109941177D01*
X98841230Y-109941177D01*
X98704742Y-109884641D01*
X98581904Y-109802564D01*
X98477436Y-109698096D01*
X98395359Y-109575258D01*
X98338823Y-109438770D01*
X98310000Y-109293867D01*
X98310000Y-109146133D01*
X98338823Y-109001230D01*
X98395359Y-108864742D01*
X98477436Y-108741904D01*
X98581904Y-108637436D01*
X98704742Y-108555359D01*
X98841230Y-108498823D01*
X98841231Y-108498823D01*
X98841233Y-108498822D01*
X98986131Y-108470000D01*
X99133869Y-108470000D01*
X99278767Y-108498822D01*
X99278767Y-108498822D01*
G37*
G36*
X78958767Y-108498822D02*
X78958769Y-108498823D01*
X78958770Y-108498823D01*
X79095258Y-108555359D01*
X79218096Y-108637436D01*
X79322564Y-108741904D01*
X79404641Y-108864742D01*
X79461177Y-109001230D01*
X79490000Y-109146133D01*
X79490000Y-109293867D01*
X79461177Y-109438770D01*
X79404641Y-109575258D01*
X79322564Y-109698096D01*
X79218096Y-109802564D01*
X79095258Y-109884641D01*
X78958770Y-109941177D01*
X78958769Y-109941177D01*
X78958767Y-109941178D01*
X78813869Y-109970000D01*
X78666131Y-109970000D01*
X78521233Y-109941178D01*
X78521231Y-109941177D01*
X78521230Y-109941177D01*
X78384742Y-109884641D01*
X78261904Y-109802564D01*
X78157436Y-109698096D01*
X78075359Y-109575258D01*
X78018823Y-109438770D01*
X77990000Y-109293867D01*
X77990000Y-109146133D01*
X78018823Y-109001230D01*
X78075359Y-108864742D01*
X78157436Y-108741904D01*
X78261904Y-108637436D01*
X78384742Y-108555359D01*
X78521230Y-108498823D01*
X78521231Y-108498823D01*
X78521233Y-108498822D01*
X78666131Y-108470000D01*
X78813869Y-108470000D01*
X78958767Y-108498822D01*
X78958767Y-108498822D01*
G37*
G36*
X99278767Y-105958822D02*
X99278769Y-105958823D01*
X99278770Y-105958823D01*
X99415258Y-106015359D01*
X99538096Y-106097436D01*
X99642564Y-106201904D01*
X99724641Y-106324742D01*
X99781177Y-106461230D01*
X99810000Y-106606133D01*
X99810000Y-106753867D01*
X99781177Y-106898770D01*
X99724641Y-107035258D01*
X99642564Y-107158096D01*
X99538096Y-107262564D01*
X99415258Y-107344641D01*
X99278770Y-107401177D01*
X99278769Y-107401177D01*
X99278767Y-107401178D01*
X99133869Y-107430000D01*
X98986131Y-107430000D01*
X98841233Y-107401178D01*
X98841231Y-107401177D01*
X98841230Y-107401177D01*
X98704742Y-107344641D01*
X98581904Y-107262564D01*
X98477436Y-107158096D01*
X98395359Y-107035258D01*
X98338823Y-106898770D01*
X98310000Y-106753867D01*
X98310000Y-106606133D01*
X98338823Y-106461230D01*
X98395359Y-106324742D01*
X98477436Y-106201904D01*
X98581904Y-106097436D01*
X98704742Y-106015359D01*
X98841230Y-105958823D01*
X98841231Y-105958823D01*
X98841233Y-105958822D01*
X98986131Y-105930000D01*
X99133869Y-105930000D01*
X99278767Y-105958822D01*
X99278767Y-105958822D01*
G37*
G36*
X96738767Y-105958822D02*
X96738769Y-105958823D01*
X96738770Y-105958823D01*
X96875258Y-106015359D01*
X96998096Y-106097436D01*
X97102564Y-106201904D01*
X97184641Y-106324742D01*
X97241177Y-106461230D01*
X97270000Y-106606133D01*
X97270000Y-106753867D01*
X97241177Y-106898770D01*
X97184641Y-107035258D01*
X97102564Y-107158096D01*
X96998096Y-107262564D01*
X96875258Y-107344641D01*
X96738770Y-107401177D01*
X96738769Y-107401177D01*
X96738767Y-107401178D01*
X96593869Y-107430000D01*
X96446131Y-107430000D01*
X96301233Y-107401178D01*
X96301231Y-107401177D01*
X96301230Y-107401177D01*
X96164742Y-107344641D01*
X96041904Y-107262564D01*
X95937436Y-107158096D01*
X95855359Y-107035258D01*
X95798823Y-106898770D01*
X95770000Y-106753867D01*
X95770000Y-106606133D01*
X95798823Y-106461230D01*
X95855359Y-106324742D01*
X95937436Y-106201904D01*
X96041904Y-106097436D01*
X96164742Y-106015359D01*
X96301230Y-105958823D01*
X96301231Y-105958823D01*
X96301233Y-105958822D01*
X96446131Y-105930000D01*
X96593869Y-105930000D01*
X96738767Y-105958822D01*
X96738767Y-105958822D01*
G37*
G36*
X78958767Y-105958822D02*
X78958769Y-105958823D01*
X78958770Y-105958823D01*
X79095258Y-106015359D01*
X79218096Y-106097436D01*
X79322564Y-106201904D01*
X79404641Y-106324742D01*
X79461177Y-106461230D01*
X79490000Y-106606133D01*
X79490000Y-106753867D01*
X79461177Y-106898770D01*
X79404641Y-107035258D01*
X79322564Y-107158096D01*
X79218096Y-107262564D01*
X79095258Y-107344641D01*
X78958770Y-107401177D01*
X78958769Y-107401177D01*
X78958767Y-107401178D01*
X78813869Y-107430000D01*
X78666131Y-107430000D01*
X78521233Y-107401178D01*
X78521231Y-107401177D01*
X78521230Y-107401177D01*
X78384742Y-107344641D01*
X78261904Y-107262564D01*
X78157436Y-107158096D01*
X78075359Y-107035258D01*
X78018823Y-106898770D01*
X77990000Y-106753867D01*
X77990000Y-106606133D01*
X78018823Y-106461230D01*
X78075359Y-106324742D01*
X78157436Y-106201904D01*
X78261904Y-106097436D01*
X78384742Y-106015359D01*
X78521230Y-105958823D01*
X78521231Y-105958823D01*
X78521233Y-105958822D01*
X78666131Y-105930000D01*
X78813869Y-105930000D01*
X78958767Y-105958822D01*
X78958767Y-105958822D01*
G37*
G36*
X81498767Y-105958822D02*
X81498769Y-105958823D01*
X81498770Y-105958823D01*
X81635258Y-106015359D01*
X81758096Y-106097436D01*
X81862564Y-106201904D01*
X81944641Y-106324742D01*
X82001177Y-106461230D01*
X82030000Y-106606133D01*
X82030000Y-106753867D01*
X82001177Y-106898770D01*
X81944641Y-107035258D01*
X81862564Y-107158096D01*
X81758096Y-107262564D01*
X81635258Y-107344641D01*
X81498770Y-107401177D01*
X81498769Y-107401177D01*
X81498767Y-107401178D01*
X81353869Y-107430000D01*
X81206131Y-107430000D01*
X81061233Y-107401178D01*
X81061231Y-107401177D01*
X81061230Y-107401177D01*
X80924742Y-107344641D01*
X80801904Y-107262564D01*
X80697436Y-107158096D01*
X80615359Y-107035258D01*
X80558823Y-106898770D01*
X80530000Y-106753867D01*
X80530000Y-106606133D01*
X80558823Y-106461230D01*
X80615359Y-106324742D01*
X80697436Y-106201904D01*
X80801904Y-106097436D01*
X80924742Y-106015359D01*
X81061230Y-105958823D01*
X81061231Y-105958823D01*
X81061233Y-105958822D01*
X81206131Y-105930000D01*
X81353869Y-105930000D01*
X81498767Y-105958822D01*
X81498767Y-105958822D01*
G37*
G36*
X99278767Y-103418822D02*
X99278769Y-103418823D01*
X99278770Y-103418823D01*
X99415258Y-103475359D01*
X99538096Y-103557436D01*
X99642564Y-103661904D01*
X99724641Y-103784742D01*
X99781177Y-103921230D01*
X99810000Y-104066133D01*
X99810000Y-104213867D01*
X99781177Y-104358770D01*
X99724641Y-104495258D01*
X99642564Y-104618096D01*
X99538096Y-104722564D01*
X99415258Y-104804641D01*
X99278770Y-104861177D01*
X99278769Y-104861177D01*
X99278767Y-104861178D01*
X99133869Y-104890000D01*
X98986131Y-104890000D01*
X98841233Y-104861178D01*
X98841231Y-104861177D01*
X98841230Y-104861177D01*
X98704742Y-104804641D01*
X98581904Y-104722564D01*
X98477436Y-104618096D01*
X98395359Y-104495258D01*
X98338823Y-104358770D01*
X98310000Y-104213867D01*
X98310000Y-104066133D01*
X98338823Y-103921230D01*
X98395359Y-103784742D01*
X98477436Y-103661904D01*
X98581904Y-103557436D01*
X98704742Y-103475359D01*
X98841230Y-103418823D01*
X98841231Y-103418823D01*
X98841233Y-103418822D01*
X98986131Y-103390000D01*
X99133869Y-103390000D01*
X99278767Y-103418822D01*
X99278767Y-103418822D01*
G37*
G36*
X78958767Y-103418822D02*
X78958769Y-103418823D01*
X78958770Y-103418823D01*
X79095258Y-103475359D01*
X79218096Y-103557436D01*
X79322564Y-103661904D01*
X79404641Y-103784742D01*
X79461177Y-103921230D01*
X79490000Y-104066133D01*
X79490000Y-104213867D01*
X79461177Y-104358770D01*
X79404641Y-104495258D01*
X79322564Y-104618096D01*
X79218096Y-104722564D01*
X79095258Y-104804641D01*
X78958770Y-104861177D01*
X78958769Y-104861177D01*
X78958767Y-104861178D01*
X78813869Y-104890000D01*
X78666131Y-104890000D01*
X78521233Y-104861178D01*
X78521231Y-104861177D01*
X78521230Y-104861177D01*
X78384742Y-104804641D01*
X78261904Y-104722564D01*
X78157436Y-104618096D01*
X78075359Y-104495258D01*
X78018823Y-104358770D01*
X77990000Y-104213867D01*
X77990000Y-104066133D01*
X78018823Y-103921230D01*
X78075359Y-103784742D01*
X78157436Y-103661904D01*
X78261904Y-103557436D01*
X78384742Y-103475359D01*
X78521230Y-103418823D01*
X78521231Y-103418823D01*
X78521233Y-103418822D01*
X78666131Y-103390000D01*
X78813869Y-103390000D01*
X78958767Y-103418822D01*
X78958767Y-103418822D01*
G37*
G36*
X96738767Y-103418822D02*
X96738769Y-103418823D01*
X96738770Y-103418823D01*
X96875258Y-103475359D01*
X96998096Y-103557436D01*
X97102564Y-103661904D01*
X97184641Y-103784742D01*
X97241177Y-103921230D01*
X97270000Y-104066133D01*
X97270000Y-104213867D01*
X97241177Y-104358770D01*
X97184641Y-104495258D01*
X97102564Y-104618096D01*
X96998096Y-104722564D01*
X96875258Y-104804641D01*
X96738770Y-104861177D01*
X96738769Y-104861177D01*
X96738767Y-104861178D01*
X96593869Y-104890000D01*
X96446131Y-104890000D01*
X96301233Y-104861178D01*
X96301231Y-104861177D01*
X96301230Y-104861177D01*
X96164742Y-104804641D01*
X96041904Y-104722564D01*
X95937436Y-104618096D01*
X95855359Y-104495258D01*
X95798823Y-104358770D01*
X95770000Y-104213867D01*
X95770000Y-104066133D01*
X95798823Y-103921230D01*
X95855359Y-103784742D01*
X95937436Y-103661904D01*
X96041904Y-103557436D01*
X96164742Y-103475359D01*
X96301230Y-103418823D01*
X96301231Y-103418823D01*
X96301233Y-103418822D01*
X96446131Y-103390000D01*
X96593869Y-103390000D01*
X96738767Y-103418822D01*
X96738767Y-103418822D01*
G37*
G36*
X81498767Y-103418822D02*
X81498769Y-103418823D01*
X81498770Y-103418823D01*
X81635258Y-103475359D01*
X81758096Y-103557436D01*
X81862564Y-103661904D01*
X81944641Y-103784742D01*
X82001177Y-103921230D01*
X82030000Y-104066133D01*
X82030000Y-104213867D01*
X82001177Y-104358770D01*
X81944641Y-104495258D01*
X81862564Y-104618096D01*
X81758096Y-104722564D01*
X81635258Y-104804641D01*
X81498770Y-104861177D01*
X81498769Y-104861177D01*
X81498767Y-104861178D01*
X81353869Y-104890000D01*
X81206131Y-104890000D01*
X81061233Y-104861178D01*
X81061231Y-104861177D01*
X81061230Y-104861177D01*
X80924742Y-104804641D01*
X80801904Y-104722564D01*
X80697436Y-104618096D01*
X80615359Y-104495258D01*
X80558823Y-104358770D01*
X80530000Y-104213867D01*
X80530000Y-104066133D01*
X80558823Y-103921230D01*
X80615359Y-103784742D01*
X80697436Y-103661904D01*
X80801904Y-103557436D01*
X80924742Y-103475359D01*
X81061230Y-103418823D01*
X81061231Y-103418823D01*
X81061233Y-103418822D01*
X81206131Y-103390000D01*
X81353869Y-103390000D01*
X81498767Y-103418822D01*
X81498767Y-103418822D01*
G37*
G36*
X99278767Y-100878822D02*
X99278769Y-100878823D01*
X99278770Y-100878823D01*
X99415258Y-100935359D01*
X99538096Y-101017436D01*
X99642564Y-101121904D01*
X99724641Y-101244742D01*
X99781177Y-101381230D01*
X99810000Y-101526133D01*
X99810000Y-101673867D01*
X99781177Y-101818770D01*
X99724641Y-101955258D01*
X99642564Y-102078096D01*
X99538096Y-102182564D01*
X99415258Y-102264641D01*
X99278770Y-102321177D01*
X99278769Y-102321177D01*
X99278767Y-102321178D01*
X99133869Y-102350000D01*
X98986131Y-102350000D01*
X98841233Y-102321178D01*
X98841231Y-102321177D01*
X98841230Y-102321177D01*
X98704742Y-102264641D01*
X98581904Y-102182564D01*
X98477436Y-102078096D01*
X98395359Y-101955258D01*
X98338823Y-101818770D01*
X98310000Y-101673867D01*
X98310000Y-101526133D01*
X98338823Y-101381230D01*
X98395359Y-101244742D01*
X98477436Y-101121904D01*
X98581904Y-101017436D01*
X98704742Y-100935359D01*
X98841230Y-100878823D01*
X98841231Y-100878823D01*
X98841233Y-100878822D01*
X98986131Y-100850000D01*
X99133869Y-100850000D01*
X99278767Y-100878822D01*
X99278767Y-100878822D01*
G37*
G36*
X78958767Y-100878822D02*
X78958769Y-100878823D01*
X78958770Y-100878823D01*
X79095258Y-100935359D01*
X79218096Y-101017436D01*
X79322564Y-101121904D01*
X79404641Y-101244742D01*
X79461177Y-101381230D01*
X79490000Y-101526133D01*
X79490000Y-101673867D01*
X79461177Y-101818770D01*
X79404641Y-101955258D01*
X79322564Y-102078096D01*
X79218096Y-102182564D01*
X79095258Y-102264641D01*
X78958770Y-102321177D01*
X78958769Y-102321177D01*
X78958767Y-102321178D01*
X78813869Y-102350000D01*
X78666131Y-102350000D01*
X78521233Y-102321178D01*
X78521231Y-102321177D01*
X78521230Y-102321177D01*
X78384742Y-102264641D01*
X78261904Y-102182564D01*
X78157436Y-102078096D01*
X78075359Y-101955258D01*
X78018823Y-101818770D01*
X77990000Y-101673867D01*
X77990000Y-101526133D01*
X78018823Y-101381230D01*
X78075359Y-101244742D01*
X78157436Y-101121904D01*
X78261904Y-101017436D01*
X78384742Y-100935359D01*
X78521230Y-100878823D01*
X78521231Y-100878823D01*
X78521233Y-100878822D01*
X78666131Y-100850000D01*
X78813869Y-100850000D01*
X78958767Y-100878822D01*
X78958767Y-100878822D01*
G37*
G36*
X81498767Y-100878822D02*
X81498769Y-100878823D01*
X81498770Y-100878823D01*
X81635258Y-100935359D01*
X81758096Y-101017436D01*
X81862564Y-101121904D01*
X81944641Y-101244742D01*
X82001177Y-101381230D01*
X82030000Y-101526133D01*
X82030000Y-101673867D01*
X82001177Y-101818770D01*
X81944641Y-101955258D01*
X81862564Y-102078096D01*
X81758096Y-102182564D01*
X81635258Y-102264641D01*
X81498770Y-102321177D01*
X81498769Y-102321177D01*
X81498767Y-102321178D01*
X81353869Y-102350000D01*
X81206131Y-102350000D01*
X81061233Y-102321178D01*
X81061231Y-102321177D01*
X81061230Y-102321177D01*
X80924742Y-102264641D01*
X80801904Y-102182564D01*
X80697436Y-102078096D01*
X80615359Y-101955258D01*
X80558823Y-101818770D01*
X80530000Y-101673867D01*
X80530000Y-101526133D01*
X80558823Y-101381230D01*
X80615359Y-101244742D01*
X80697436Y-101121904D01*
X80801904Y-101017436D01*
X80924742Y-100935359D01*
X81061230Y-100878823D01*
X81061231Y-100878823D01*
X81061233Y-100878822D01*
X81206131Y-100850000D01*
X81353869Y-100850000D01*
X81498767Y-100878822D01*
X81498767Y-100878822D01*
G37*
G36*
X96738767Y-100878822D02*
X96738769Y-100878823D01*
X96738770Y-100878823D01*
X96875258Y-100935359D01*
X96998096Y-101017436D01*
X97102564Y-101121904D01*
X97184641Y-101244742D01*
X97241177Y-101381230D01*
X97270000Y-101526133D01*
X97270000Y-101673867D01*
X97241177Y-101818770D01*
X97184641Y-101955258D01*
X97102564Y-102078096D01*
X96998096Y-102182564D01*
X96875258Y-102264641D01*
X96738770Y-102321177D01*
X96738769Y-102321177D01*
X96738767Y-102321178D01*
X96593869Y-102350000D01*
X96446131Y-102350000D01*
X96301233Y-102321178D01*
X96301231Y-102321177D01*
X96301230Y-102321177D01*
X96164742Y-102264641D01*
X96041904Y-102182564D01*
X95937436Y-102078096D01*
X95855359Y-101955258D01*
X95798823Y-101818770D01*
X95770000Y-101673867D01*
X95770000Y-101526133D01*
X95798823Y-101381230D01*
X95855359Y-101244742D01*
X95937436Y-101121904D01*
X96041904Y-101017436D01*
X96164742Y-100935359D01*
X96301230Y-100878823D01*
X96301231Y-100878823D01*
X96301233Y-100878822D01*
X96446131Y-100850000D01*
X96593869Y-100850000D01*
X96738767Y-100878822D01*
X96738767Y-100878822D01*
G37*
G36*
X81498767Y-98338822D02*
X81498769Y-98338823D01*
X81498770Y-98338823D01*
X81635258Y-98395359D01*
X81758096Y-98477436D01*
X81862564Y-98581904D01*
X81944641Y-98704742D01*
X82001177Y-98841230D01*
X82030000Y-98986133D01*
X82030000Y-99133867D01*
X82001177Y-99278770D01*
X81944641Y-99415258D01*
X81862564Y-99538096D01*
X81758096Y-99642564D01*
X81635258Y-99724641D01*
X81498770Y-99781177D01*
X81498769Y-99781177D01*
X81498767Y-99781178D01*
X81353869Y-99810000D01*
X81206131Y-99810000D01*
X81061233Y-99781178D01*
X81061231Y-99781177D01*
X81061230Y-99781177D01*
X80924742Y-99724641D01*
X80801904Y-99642564D01*
X80697436Y-99538096D01*
X80615359Y-99415258D01*
X80558823Y-99278770D01*
X80530000Y-99133867D01*
X80530000Y-98986133D01*
X80558823Y-98841230D01*
X80615359Y-98704742D01*
X80697436Y-98581904D01*
X80801904Y-98477436D01*
X80924742Y-98395359D01*
X81061230Y-98338823D01*
X81061231Y-98338823D01*
X81061233Y-98338822D01*
X81206131Y-98310000D01*
X81353869Y-98310000D01*
X81498767Y-98338822D01*
X81498767Y-98338822D01*
G37*
G36*
X99278767Y-98338822D02*
X99278769Y-98338823D01*
X99278770Y-98338823D01*
X99415258Y-98395359D01*
X99538096Y-98477436D01*
X99642564Y-98581904D01*
X99724641Y-98704742D01*
X99781177Y-98841230D01*
X99810000Y-98986133D01*
X99810000Y-99133867D01*
X99781177Y-99278770D01*
X99724641Y-99415258D01*
X99642564Y-99538096D01*
X99538096Y-99642564D01*
X99415258Y-99724641D01*
X99278770Y-99781177D01*
X99278769Y-99781177D01*
X99278767Y-99781178D01*
X99133869Y-99810000D01*
X98986131Y-99810000D01*
X98841233Y-99781178D01*
X98841231Y-99781177D01*
X98841230Y-99781177D01*
X98704742Y-99724641D01*
X98581904Y-99642564D01*
X98477436Y-99538096D01*
X98395359Y-99415258D01*
X98338823Y-99278770D01*
X98310000Y-99133867D01*
X98310000Y-98986133D01*
X98338823Y-98841230D01*
X98395359Y-98704742D01*
X98477436Y-98581904D01*
X98581904Y-98477436D01*
X98704742Y-98395359D01*
X98841230Y-98338823D01*
X98841231Y-98338823D01*
X98841233Y-98338822D01*
X98986131Y-98310000D01*
X99133869Y-98310000D01*
X99278767Y-98338822D01*
X99278767Y-98338822D01*
G37*
G36*
X96738767Y-98338822D02*
X96738769Y-98338823D01*
X96738770Y-98338823D01*
X96875258Y-98395359D01*
X96998096Y-98477436D01*
X97102564Y-98581904D01*
X97184641Y-98704742D01*
X97241177Y-98841230D01*
X97270000Y-98986133D01*
X97270000Y-99133867D01*
X97241177Y-99278770D01*
X97184641Y-99415258D01*
X97102564Y-99538096D01*
X96998096Y-99642564D01*
X96875258Y-99724641D01*
X96738770Y-99781177D01*
X96738769Y-99781177D01*
X96738767Y-99781178D01*
X96593869Y-99810000D01*
X96446131Y-99810000D01*
X96301233Y-99781178D01*
X96301231Y-99781177D01*
X96301230Y-99781177D01*
X96164742Y-99724641D01*
X96041904Y-99642564D01*
X95937436Y-99538096D01*
X95855359Y-99415258D01*
X95798823Y-99278770D01*
X95770000Y-99133867D01*
X95770000Y-98986133D01*
X95798823Y-98841230D01*
X95855359Y-98704742D01*
X95937436Y-98581904D01*
X96041904Y-98477436D01*
X96164742Y-98395359D01*
X96301230Y-98338823D01*
X96301231Y-98338823D01*
X96301233Y-98338822D01*
X96446131Y-98310000D01*
X96593869Y-98310000D01*
X96738767Y-98338822D01*
X96738767Y-98338822D01*
G37*
G36*
X78958767Y-98338822D02*
X78958769Y-98338823D01*
X78958770Y-98338823D01*
X79095258Y-98395359D01*
X79218096Y-98477436D01*
X79322564Y-98581904D01*
X79404641Y-98704742D01*
X79461177Y-98841230D01*
X79490000Y-98986133D01*
X79490000Y-99133867D01*
X79461177Y-99278770D01*
X79404641Y-99415258D01*
X79322564Y-99538096D01*
X79218096Y-99642564D01*
X79095258Y-99724641D01*
X78958770Y-99781177D01*
X78958769Y-99781177D01*
X78958767Y-99781178D01*
X78813869Y-99810000D01*
X78666131Y-99810000D01*
X78521233Y-99781178D01*
X78521231Y-99781177D01*
X78521230Y-99781177D01*
X78384742Y-99724641D01*
X78261904Y-99642564D01*
X78157436Y-99538096D01*
X78075359Y-99415258D01*
X78018823Y-99278770D01*
X77990000Y-99133867D01*
X77990000Y-98986133D01*
X78018823Y-98841230D01*
X78075359Y-98704742D01*
X78157436Y-98581904D01*
X78261904Y-98477436D01*
X78384742Y-98395359D01*
X78521230Y-98338823D01*
X78521231Y-98338823D01*
X78521233Y-98338822D01*
X78666131Y-98310000D01*
X78813869Y-98310000D01*
X78958767Y-98338822D01*
X78958767Y-98338822D01*
G37*
G36*
X89138550Y-97028253D02*
X89224997Y-97064061D01*
X89302793Y-97116042D01*
X89368958Y-97182207D01*
X89420939Y-97260003D01*
X89456747Y-97346450D01*
X89475000Y-97438214D01*
X89475000Y-97531786D01*
X89456747Y-97623550D01*
X89420939Y-97709997D01*
X89368958Y-97787793D01*
X89302793Y-97853958D01*
X89224997Y-97905939D01*
X89138550Y-97941747D01*
X89046786Y-97960000D01*
X88953214Y-97960000D01*
X88861450Y-97941747D01*
X88775003Y-97905939D01*
X88697207Y-97853958D01*
X88631042Y-97787793D01*
X88579061Y-97709997D01*
X88543253Y-97623550D01*
X88525000Y-97531786D01*
X88525000Y-97438214D01*
X88543253Y-97346450D01*
X88579061Y-97260003D01*
X88631042Y-97182207D01*
X88697207Y-97116042D01*
X88775003Y-97064061D01*
X88861450Y-97028253D01*
X88953214Y-97010000D01*
X89046786Y-97010000D01*
X89138550Y-97028253D01*
X89138550Y-97028253D01*
G37*
G36*
X91678550Y-97028253D02*
X91764997Y-97064061D01*
X91842793Y-97116042D01*
X91908958Y-97182207D01*
X91960939Y-97260003D01*
X91996747Y-97346450D01*
X92015000Y-97438214D01*
X92015000Y-97531786D01*
X91996747Y-97623550D01*
X91960939Y-97709997D01*
X91908958Y-97787793D01*
X91842793Y-97853958D01*
X91764997Y-97905939D01*
X91678550Y-97941747D01*
X91586786Y-97960000D01*
X91493214Y-97960000D01*
X91401450Y-97941747D01*
X91315003Y-97905939D01*
X91237207Y-97853958D01*
X91171042Y-97787793D01*
X91119061Y-97709997D01*
X91083253Y-97623550D01*
X91065000Y-97531786D01*
X91065000Y-97438214D01*
X91083253Y-97346450D01*
X91119061Y-97260003D01*
X91171042Y-97182207D01*
X91237207Y-97116042D01*
X91315003Y-97064061D01*
X91401450Y-97028253D01*
X91493214Y-97010000D01*
X91586786Y-97010000D01*
X91678550Y-97028253D01*
X91678550Y-97028253D01*
G37*
G36*
X90408550Y-97028253D02*
X90494997Y-97064061D01*
X90572793Y-97116042D01*
X90638958Y-97182207D01*
X90690939Y-97260003D01*
X90726747Y-97346450D01*
X90745000Y-97438214D01*
X90745000Y-97531786D01*
X90726747Y-97623550D01*
X90690939Y-97709997D01*
X90638958Y-97787793D01*
X90572793Y-97853958D01*
X90494997Y-97905939D01*
X90408550Y-97941747D01*
X90316786Y-97960000D01*
X90223214Y-97960000D01*
X90131450Y-97941747D01*
X90045003Y-97905939D01*
X89967207Y-97853958D01*
X89901042Y-97787793D01*
X89849061Y-97709997D01*
X89813253Y-97623550D01*
X89795000Y-97531786D01*
X89795000Y-97438214D01*
X89813253Y-97346450D01*
X89849061Y-97260003D01*
X89901042Y-97182207D01*
X89967207Y-97116042D01*
X90045003Y-97064061D01*
X90131450Y-97028253D01*
X90223214Y-97010000D01*
X90316786Y-97010000D01*
X90408550Y-97028253D01*
X90408550Y-97028253D01*
G37*
G36*
X87868550Y-97028253D02*
X87954997Y-97064061D01*
X88032793Y-97116042D01*
X88098958Y-97182207D01*
X88150939Y-97260003D01*
X88186747Y-97346450D01*
X88205000Y-97438214D01*
X88205000Y-97531786D01*
X88186747Y-97623550D01*
X88150939Y-97709997D01*
X88098958Y-97787793D01*
X88032793Y-97853958D01*
X87954997Y-97905939D01*
X87868550Y-97941747D01*
X87776786Y-97960000D01*
X87683214Y-97960000D01*
X87591450Y-97941747D01*
X87505003Y-97905939D01*
X87427207Y-97853958D01*
X87361042Y-97787793D01*
X87309061Y-97709997D01*
X87273253Y-97623550D01*
X87255000Y-97531786D01*
X87255000Y-97438214D01*
X87273253Y-97346450D01*
X87309061Y-97260003D01*
X87361042Y-97182207D01*
X87427207Y-97116042D01*
X87505003Y-97064061D01*
X87591450Y-97028253D01*
X87683214Y-97010000D01*
X87776786Y-97010000D01*
X87868550Y-97028253D01*
X87868550Y-97028253D01*
G37*
G36*
X86598550Y-97028253D02*
X86684997Y-97064061D01*
X86762793Y-97116042D01*
X86828958Y-97182207D01*
X86880939Y-97260003D01*
X86916747Y-97346450D01*
X86935000Y-97438214D01*
X86935000Y-97531786D01*
X86916747Y-97623550D01*
X86880939Y-97709997D01*
X86828958Y-97787793D01*
X86762793Y-97853958D01*
X86684997Y-97905939D01*
X86598550Y-97941747D01*
X86506786Y-97960000D01*
X86413214Y-97960000D01*
X86321450Y-97941747D01*
X86235003Y-97905939D01*
X86157207Y-97853958D01*
X86091042Y-97787793D01*
X86039061Y-97709997D01*
X86003253Y-97623550D01*
X85985000Y-97531786D01*
X85985000Y-97438214D01*
X86003253Y-97346450D01*
X86039061Y-97260003D01*
X86091042Y-97182207D01*
X86157207Y-97116042D01*
X86235003Y-97064061D01*
X86321450Y-97028253D01*
X86413214Y-97010000D01*
X86506786Y-97010000D01*
X86598550Y-97028253D01*
X86598550Y-97028253D01*
G37*
G36*
X99278767Y-95798822D02*
X99278769Y-95798823D01*
X99278770Y-95798823D01*
X99415258Y-95855359D01*
X99538096Y-95937436D01*
X99642564Y-96041904D01*
X99724641Y-96164742D01*
X99764839Y-96261786D01*
X99781178Y-96301233D01*
X99810000Y-96446131D01*
X99810000Y-96593869D01*
X99801632Y-96635939D01*
X99781177Y-96738770D01*
X99724641Y-96875258D01*
X99642564Y-96998096D01*
X99538096Y-97102564D01*
X99415258Y-97184641D01*
X99278770Y-97241177D01*
X99278769Y-97241177D01*
X99278767Y-97241178D01*
X99133869Y-97270000D01*
X98986131Y-97270000D01*
X98841233Y-97241178D01*
X98841231Y-97241177D01*
X98841230Y-97241177D01*
X98704742Y-97184641D01*
X98581904Y-97102564D01*
X98477436Y-96998096D01*
X98395359Y-96875258D01*
X98338823Y-96738770D01*
X98318369Y-96635939D01*
X98310000Y-96593869D01*
X98310000Y-96446131D01*
X98338822Y-96301233D01*
X98355162Y-96261786D01*
X98395359Y-96164742D01*
X98477436Y-96041904D01*
X98581904Y-95937436D01*
X98704742Y-95855359D01*
X98841230Y-95798823D01*
X98841231Y-95798823D01*
X98841233Y-95798822D01*
X98986131Y-95770000D01*
X99133869Y-95770000D01*
X99278767Y-95798822D01*
X99278767Y-95798822D01*
G37*
G36*
X97270000Y-97270000D02*
X95770000Y-97270000D01*
X95770000Y-95770000D01*
X97270000Y-95770000D01*
X97270000Y-97270000D01*
X97270000Y-97270000D01*
G37*
G36*
X81498767Y-95798822D02*
X81498769Y-95798823D01*
X81498770Y-95798823D01*
X81635258Y-95855359D01*
X81758096Y-95937436D01*
X81862564Y-96041904D01*
X81944641Y-96164742D01*
X81984839Y-96261786D01*
X82001178Y-96301233D01*
X82030000Y-96446131D01*
X82030000Y-96593869D01*
X82021632Y-96635939D01*
X82001177Y-96738770D01*
X81944641Y-96875258D01*
X81862564Y-96998096D01*
X81758096Y-97102564D01*
X81635258Y-97184641D01*
X81498770Y-97241177D01*
X81498769Y-97241177D01*
X81498767Y-97241178D01*
X81353869Y-97270000D01*
X81206131Y-97270000D01*
X81061233Y-97241178D01*
X81061231Y-97241177D01*
X81061230Y-97241177D01*
X80924742Y-97184641D01*
X80801904Y-97102564D01*
X80697436Y-96998096D01*
X80615359Y-96875258D01*
X80558823Y-96738770D01*
X80538369Y-96635939D01*
X80530000Y-96593869D01*
X80530000Y-96446131D01*
X80558822Y-96301233D01*
X80575162Y-96261786D01*
X80615359Y-96164742D01*
X80697436Y-96041904D01*
X80801904Y-95937436D01*
X80924742Y-95855359D01*
X81061230Y-95798823D01*
X81061231Y-95798823D01*
X81061233Y-95798822D01*
X81206131Y-95770000D01*
X81353869Y-95770000D01*
X81498767Y-95798822D01*
X81498767Y-95798822D01*
G37*
G36*
X79490000Y-97270000D02*
X77990000Y-97270000D01*
X77990000Y-95770000D01*
X79490000Y-95770000D01*
X79490000Y-97270000D01*
X79490000Y-97270000D01*
G37*
G36*
X92015000Y-96690000D02*
X91065000Y-96690000D01*
X91065000Y-95740000D01*
X92015000Y-95740000D01*
X92015000Y-96690000D01*
X92015000Y-96690000D01*
G37*
G36*
X90408550Y-95758253D02*
X90494997Y-95794061D01*
X90572793Y-95846042D01*
X90638958Y-95912207D01*
X90690939Y-95990003D01*
X90726747Y-96076450D01*
X90745000Y-96168214D01*
X90745000Y-96261786D01*
X90726747Y-96353550D01*
X90690939Y-96439997D01*
X90638958Y-96517793D01*
X90572793Y-96583958D01*
X90494997Y-96635939D01*
X90408550Y-96671747D01*
X90316786Y-96690000D01*
X90223214Y-96690000D01*
X90131450Y-96671747D01*
X90045003Y-96635939D01*
X89967207Y-96583958D01*
X89901042Y-96517793D01*
X89849061Y-96439997D01*
X89813253Y-96353550D01*
X89795000Y-96261786D01*
X89795000Y-96168214D01*
X89813253Y-96076450D01*
X89849061Y-95990003D01*
X89901042Y-95912207D01*
X89967207Y-95846042D01*
X90045003Y-95794061D01*
X90131450Y-95758253D01*
X90223214Y-95740000D01*
X90316786Y-95740000D01*
X90408550Y-95758253D01*
X90408550Y-95758253D01*
G37*
G36*
X89138550Y-95758253D02*
X89224997Y-95794061D01*
X89302793Y-95846042D01*
X89368958Y-95912207D01*
X89420939Y-95990003D01*
X89456747Y-96076450D01*
X89475000Y-96168214D01*
X89475000Y-96261786D01*
X89456747Y-96353550D01*
X89420939Y-96439997D01*
X89368958Y-96517793D01*
X89302793Y-96583958D01*
X89224997Y-96635939D01*
X89138550Y-96671747D01*
X89046786Y-96690000D01*
X88953214Y-96690000D01*
X88861450Y-96671747D01*
X88775003Y-96635939D01*
X88697207Y-96583958D01*
X88631042Y-96517793D01*
X88579061Y-96439997D01*
X88543253Y-96353550D01*
X88525000Y-96261786D01*
X88525000Y-96168214D01*
X88543253Y-96076450D01*
X88579061Y-95990003D01*
X88631042Y-95912207D01*
X88697207Y-95846042D01*
X88775003Y-95794061D01*
X88861450Y-95758253D01*
X88953214Y-95740000D01*
X89046786Y-95740000D01*
X89138550Y-95758253D01*
X89138550Y-95758253D01*
G37*
G36*
X87868550Y-95758253D02*
X87954997Y-95794061D01*
X88032793Y-95846042D01*
X88098958Y-95912207D01*
X88150939Y-95990003D01*
X88186747Y-96076450D01*
X88205000Y-96168214D01*
X88205000Y-96261786D01*
X88186747Y-96353550D01*
X88150939Y-96439997D01*
X88098958Y-96517793D01*
X88032793Y-96583958D01*
X87954997Y-96635939D01*
X87868550Y-96671747D01*
X87776786Y-96690000D01*
X87683214Y-96690000D01*
X87591450Y-96671747D01*
X87505003Y-96635939D01*
X87427207Y-96583958D01*
X87361042Y-96517793D01*
X87309061Y-96439997D01*
X87273253Y-96353550D01*
X87255000Y-96261786D01*
X87255000Y-96168214D01*
X87273253Y-96076450D01*
X87309061Y-95990003D01*
X87361042Y-95912207D01*
X87427207Y-95846042D01*
X87505003Y-95794061D01*
X87591450Y-95758253D01*
X87683214Y-95740000D01*
X87776786Y-95740000D01*
X87868550Y-95758253D01*
X87868550Y-95758253D01*
G37*
G36*
X86598550Y-95758253D02*
X86684997Y-95794061D01*
X86762793Y-95846042D01*
X86828958Y-95912207D01*
X86880939Y-95990003D01*
X86916747Y-96076450D01*
X86935000Y-96168214D01*
X86935000Y-96261786D01*
X86916747Y-96353550D01*
X86880939Y-96439997D01*
X86828958Y-96517793D01*
X86762793Y-96583958D01*
X86684997Y-96635939D01*
X86598550Y-96671747D01*
X86506786Y-96690000D01*
X86413214Y-96690000D01*
X86321450Y-96671747D01*
X86235003Y-96635939D01*
X86157207Y-96583958D01*
X86091042Y-96517793D01*
X86039061Y-96439997D01*
X86003253Y-96353550D01*
X85985000Y-96261786D01*
X85985000Y-96168214D01*
X86003253Y-96076450D01*
X86039061Y-95990003D01*
X86091042Y-95912207D01*
X86157207Y-95846042D01*
X86235003Y-95794061D01*
X86321450Y-95758253D01*
X86413214Y-95740000D01*
X86506786Y-95740000D01*
X86598550Y-95758253D01*
X86598550Y-95758253D01*
G37*
M02*
