G04 #@! TF.GenerationSoftware,KiCad,Pcbnew,5.0.1-33cea8e~68~ubuntu18.04.1*
G04 #@! TF.CreationDate,2018-11-22T22:36:33+01:00*
G04 #@! TF.ProjectId,LPC82X_JHI33_2layer,4C50433832585F4A484933335F326C61,rev?*
G04 #@! TF.SameCoordinates,Original*
G04 #@! TF.FileFunction,Legend,Top*
G04 #@! TF.FilePolarity,Positive*
%FSLAX46Y46*%
G04 Gerber Fmt 4.6, Leading zero omitted, Abs format (unit mm)*
G04 Created by KiCad (PCBNEW 5.0.1-33cea8e~68~ubuntu18.04.1) date do 22 nov 2018 22:36:33 CET*
%MOMM*%
%LPD*%
G01*
G04 APERTURE LIST*
%ADD10C,0.150000*%
%ADD11C,0.152400*%
%ADD12C,0.127000*%
G04 APERTURE END LIST*
D10*
G04 #@! TO.C,Y1*
X83450000Y-110650000D02*
X83200000Y-110650000D01*
X83200000Y-110650000D02*
X83200000Y-110900000D01*
X83650000Y-112450000D02*
X83650000Y-112950000D01*
X84800000Y-114300000D02*
X85000000Y-114300000D01*
X86150000Y-112450000D02*
X86150000Y-112950000D01*
X85000000Y-111100000D02*
X84800000Y-111100000D01*
D11*
G04 #@! TO.C,J1*
X78105000Y-95250000D02*
X77470000Y-95885000D01*
X77470000Y-97155000D02*
X78105000Y-97790000D01*
X78105000Y-97790000D02*
X77470000Y-98425000D01*
X77470000Y-99695000D02*
X78105000Y-100330000D01*
X78105000Y-100330000D02*
X77470000Y-100965000D01*
X77470000Y-102235000D02*
X78105000Y-102870000D01*
X78105000Y-102870000D02*
X77470000Y-103505000D01*
X77470000Y-104775000D02*
X78105000Y-105410000D01*
X78105000Y-105410000D02*
X77470000Y-106045000D01*
X77470000Y-107315000D02*
X78105000Y-107950000D01*
X78105000Y-107950000D02*
X77470000Y-108585000D01*
X77470000Y-109855000D02*
X78105000Y-110490000D01*
X78105000Y-95250000D02*
X81915000Y-95250000D01*
X81915000Y-95250000D02*
X82550000Y-95885000D01*
X82550000Y-95885000D02*
X82550000Y-97155000D01*
X82550000Y-97155000D02*
X81915000Y-97790000D01*
X81915000Y-97790000D02*
X82550000Y-98425000D01*
X82550000Y-98425000D02*
X82550000Y-99695000D01*
X82550000Y-99695000D02*
X81915000Y-100330000D01*
X81915000Y-100330000D02*
X82550000Y-100965000D01*
X82550000Y-100965000D02*
X82550000Y-102235000D01*
X82550000Y-102235000D02*
X81915000Y-102870000D01*
X81915000Y-102870000D02*
X82550000Y-103505000D01*
X82550000Y-103505000D02*
X82550000Y-104775000D01*
X82550000Y-104775000D02*
X81915000Y-105410000D01*
X81915000Y-105410000D02*
X82550000Y-106045000D01*
X82550000Y-106045000D02*
X82550000Y-107315000D01*
X82550000Y-107315000D02*
X81915000Y-107950000D01*
X81915000Y-107950000D02*
X82550000Y-108585000D01*
X82550000Y-108585000D02*
X82550000Y-109855000D01*
X82550000Y-109855000D02*
X81915000Y-110490000D01*
X81915000Y-110490000D02*
X82550000Y-111125000D01*
X82550000Y-111125000D02*
X82550000Y-112395000D01*
X82550000Y-112395000D02*
X81915000Y-113030000D01*
X81915000Y-113030000D02*
X82550000Y-113665000D01*
X82550000Y-113665000D02*
X82550000Y-114935000D01*
X82550000Y-114935000D02*
X81915000Y-115570000D01*
X78105000Y-115570000D02*
X77470000Y-114935000D01*
X78105000Y-113030000D02*
X77470000Y-113665000D01*
X78105000Y-113030000D02*
X77470000Y-112395000D01*
X78105000Y-110490000D02*
X77470000Y-111125000D01*
X81915000Y-97790000D02*
X78105000Y-97790000D01*
X81915000Y-100330000D02*
X78105000Y-100330000D01*
X81915000Y-102870000D02*
X78105000Y-102870000D01*
X81915000Y-105410000D02*
X78105000Y-105410000D01*
X81915000Y-107950000D02*
X78105000Y-107950000D01*
X81915000Y-110490000D02*
X78105000Y-110490000D01*
X81915000Y-113030000D02*
X78105000Y-113030000D01*
X81915000Y-115570000D02*
X78105000Y-115570000D01*
X77470000Y-113665000D02*
X77470000Y-114935000D01*
X77470000Y-111125000D02*
X77470000Y-112395000D01*
X77470000Y-108585000D02*
X77470000Y-109855000D01*
X77470000Y-106045000D02*
X77470000Y-107315000D01*
X77470000Y-103505000D02*
X77470000Y-104775000D01*
X77470000Y-100965000D02*
X77470000Y-102235000D01*
X77470000Y-98425000D02*
X77470000Y-99695000D01*
X77470000Y-95885000D02*
X77470000Y-97155000D01*
X81915000Y-115570000D02*
X82550000Y-116205000D01*
X82550000Y-116205000D02*
X82550000Y-117475000D01*
X82550000Y-117475000D02*
X81915000Y-118110000D01*
X78105000Y-118110000D02*
X77470000Y-117475000D01*
X78105000Y-115570000D02*
X77470000Y-116205000D01*
X81915000Y-118110000D02*
X78105000Y-118110000D01*
X77470000Y-116205000D02*
X77470000Y-117475000D01*
D12*
G04 #@! TO.C,U1*
X91550000Y-104030000D02*
X91550000Y-104530000D01*
X86250000Y-104030000D02*
X86250000Y-104530000D01*
X91550000Y-104030000D02*
X91050000Y-104030000D01*
X86750000Y-104030000D02*
X86250000Y-104030000D01*
X91550000Y-109330000D02*
X91050000Y-109330000D01*
X86750000Y-109330000D02*
X86250000Y-109330000D01*
X91550000Y-108830000D02*
X91550000Y-109330000D01*
X86250000Y-108830000D02*
X86250000Y-109330000D01*
D10*
X91623600Y-103680000D02*
G75*
G03X91623600Y-103680000I-223600J0D01*
G01*
G04 #@! TO.C,C1*
X85150000Y-109575000D02*
X84650000Y-109575000D01*
X84650000Y-110525000D02*
X85150000Y-110525000D01*
G04 #@! TO.C,C4*
X85150000Y-114875000D02*
X84650000Y-114875000D01*
X84650000Y-115825000D02*
X85150000Y-115825000D01*
G04 #@! TO.C,C5*
X87650000Y-111675000D02*
X88150000Y-111675000D01*
X88150000Y-110725000D02*
X87650000Y-110725000D01*
G04 #@! TO.C,C6*
X89950000Y-111675000D02*
X90450000Y-111675000D01*
X90450000Y-110725000D02*
X89950000Y-110725000D01*
G04 #@! TO.C,FB1*
X89075000Y-114750000D02*
X89075000Y-114250000D01*
X88125000Y-114250000D02*
X88125000Y-114750000D01*
G04 #@! TO.C,FB2*
X90525000Y-114250000D02*
X90525000Y-114750000D01*
X91475000Y-114750000D02*
X91475000Y-114250000D01*
G04 #@! TO.C,FB3*
X90275000Y-114750000D02*
X90275000Y-114250000D01*
X89325000Y-114250000D02*
X89325000Y-114750000D01*
D11*
G04 #@! TO.C,J2*
X95250000Y-116205000D02*
X95250000Y-117475000D01*
X99695000Y-118110000D02*
X95885000Y-118110000D01*
X95885000Y-115570000D02*
X95250000Y-116205000D01*
X95885000Y-118110000D02*
X95250000Y-117475000D01*
X100330000Y-117475000D02*
X99695000Y-118110000D01*
X100330000Y-116205000D02*
X100330000Y-117475000D01*
X99695000Y-115570000D02*
X100330000Y-116205000D01*
X95250000Y-95885000D02*
X95250000Y-97155000D01*
X95250000Y-98425000D02*
X95250000Y-99695000D01*
X95250000Y-100965000D02*
X95250000Y-102235000D01*
X95250000Y-103505000D02*
X95250000Y-104775000D01*
X95250000Y-106045000D02*
X95250000Y-107315000D01*
X95250000Y-108585000D02*
X95250000Y-109855000D01*
X95250000Y-111125000D02*
X95250000Y-112395000D01*
X95250000Y-113665000D02*
X95250000Y-114935000D01*
X99695000Y-115570000D02*
X95885000Y-115570000D01*
X99695000Y-113030000D02*
X95885000Y-113030000D01*
X99695000Y-110490000D02*
X95885000Y-110490000D01*
X99695000Y-107950000D02*
X95885000Y-107950000D01*
X99695000Y-105410000D02*
X95885000Y-105410000D01*
X99695000Y-102870000D02*
X95885000Y-102870000D01*
X99695000Y-100330000D02*
X95885000Y-100330000D01*
X99695000Y-97790000D02*
X95885000Y-97790000D01*
X95885000Y-110490000D02*
X95250000Y-111125000D01*
X95885000Y-113030000D02*
X95250000Y-112395000D01*
X95885000Y-113030000D02*
X95250000Y-113665000D01*
X95885000Y-115570000D02*
X95250000Y-114935000D01*
X100330000Y-114935000D02*
X99695000Y-115570000D01*
X100330000Y-113665000D02*
X100330000Y-114935000D01*
X99695000Y-113030000D02*
X100330000Y-113665000D01*
X100330000Y-112395000D02*
X99695000Y-113030000D01*
X100330000Y-111125000D02*
X100330000Y-112395000D01*
X99695000Y-110490000D02*
X100330000Y-111125000D01*
X100330000Y-109855000D02*
X99695000Y-110490000D01*
X100330000Y-108585000D02*
X100330000Y-109855000D01*
X99695000Y-107950000D02*
X100330000Y-108585000D01*
X100330000Y-107315000D02*
X99695000Y-107950000D01*
X100330000Y-106045000D02*
X100330000Y-107315000D01*
X99695000Y-105410000D02*
X100330000Y-106045000D01*
X100330000Y-104775000D02*
X99695000Y-105410000D01*
X100330000Y-103505000D02*
X100330000Y-104775000D01*
X99695000Y-102870000D02*
X100330000Y-103505000D01*
X100330000Y-102235000D02*
X99695000Y-102870000D01*
X100330000Y-100965000D02*
X100330000Y-102235000D01*
X99695000Y-100330000D02*
X100330000Y-100965000D01*
X100330000Y-99695000D02*
X99695000Y-100330000D01*
X100330000Y-98425000D02*
X100330000Y-99695000D01*
X99695000Y-97790000D02*
X100330000Y-98425000D01*
X100330000Y-97155000D02*
X99695000Y-97790000D01*
X100330000Y-95885000D02*
X100330000Y-97155000D01*
X99695000Y-95250000D02*
X100330000Y-95885000D01*
X95885000Y-95250000D02*
X99695000Y-95250000D01*
X95250000Y-109855000D02*
X95885000Y-110490000D01*
X95885000Y-107950000D02*
X95250000Y-108585000D01*
X95250000Y-107315000D02*
X95885000Y-107950000D01*
X95885000Y-105410000D02*
X95250000Y-106045000D01*
X95250000Y-104775000D02*
X95885000Y-105410000D01*
X95885000Y-102870000D02*
X95250000Y-103505000D01*
X95250000Y-102235000D02*
X95885000Y-102870000D01*
X95885000Y-100330000D02*
X95250000Y-100965000D01*
X95250000Y-99695000D02*
X95885000Y-100330000D01*
X95885000Y-97790000D02*
X95250000Y-98425000D01*
X95250000Y-97155000D02*
X95885000Y-97790000D01*
X95885000Y-95250000D02*
X95250000Y-95885000D01*
D10*
G04 #@! TO.C,J3*
X93000000Y-98350000D02*
X93000000Y-95350000D01*
X92683000Y-95326000D02*
X92683000Y-98374000D01*
X85317000Y-95326000D02*
X92683000Y-95326000D01*
X85317000Y-98374000D02*
X85317000Y-95326000D01*
X92683000Y-98374000D02*
X85317000Y-98374000D01*
G04 #@! TO.C,R1*
X91450000Y-99675000D02*
X91950000Y-99675000D01*
X91950000Y-98625000D02*
X91450000Y-98625000D01*
G04 #@! TO.C,R2*
X89550000Y-98625000D02*
X89050000Y-98625000D01*
X89050000Y-99675000D02*
X89550000Y-99675000D01*
G04 #@! TO.C,R3*
X87825000Y-100000000D02*
X87825000Y-99500000D01*
X86775000Y-99500000D02*
X86775000Y-100000000D01*
G04 #@! TO.C,R4*
X85375000Y-99500000D02*
X85375000Y-100000000D01*
X86425000Y-100000000D02*
X86425000Y-99500000D01*
G04 #@! TO.C,R6*
X91450000Y-100975000D02*
X91950000Y-100975000D01*
X91950000Y-99925000D02*
X91450000Y-99925000D01*
G04 #@! TO.C,R7*
X89550000Y-99925000D02*
X89050000Y-99925000D01*
X89050000Y-100975000D02*
X89550000Y-100975000D01*
G04 #@! TO.C,C2*
X87850000Y-112000000D02*
X88550000Y-112000000D01*
X88550000Y-113200000D02*
X87850000Y-113200000D01*
G04 #@! TO.C,C3*
X90750000Y-112000000D02*
X91450000Y-112000000D01*
X91450000Y-113200000D02*
X90750000Y-113200000D01*
G04 #@! TO.C,C7*
X93250000Y-97700000D02*
X93250000Y-98700000D01*
X94950000Y-98700000D02*
X94950000Y-97700000D01*
G04 #@! TO.C,SJ1*
X91750000Y-117325000D02*
X92250000Y-117325000D01*
X92250000Y-116275000D02*
X91750000Y-116275000D01*
G04 #@! TO.C,Y1*
X83176190Y-110276190D02*
X83652380Y-110276190D01*
X82652380Y-110609523D02*
X83176190Y-110276190D01*
X82652380Y-109942857D01*
X83652380Y-109085714D02*
X83652380Y-109657142D01*
X83652380Y-109371428D02*
X82652380Y-109371428D01*
X82795238Y-109466666D01*
X82890476Y-109561904D01*
X82938095Y-109657142D01*
G04 #@! TO.C,J1*
X82972380Y-107033333D02*
X83686666Y-107033333D01*
X83829523Y-107080952D01*
X83924761Y-107176190D01*
X83972380Y-107319047D01*
X83972380Y-107414285D01*
X83972380Y-106033333D02*
X83972380Y-106604761D01*
X83972380Y-106319047D02*
X82972380Y-106319047D01*
X83115238Y-106414285D01*
X83210476Y-106509523D01*
X83258095Y-106604761D01*
G04 #@! TO.C,U1*
X91835595Y-109152380D02*
X91835595Y-109961904D01*
X91883214Y-110057142D01*
X91930833Y-110104761D01*
X92026071Y-110152380D01*
X92216547Y-110152380D01*
X92311785Y-110104761D01*
X92359404Y-110057142D01*
X92407023Y-109961904D01*
X92407023Y-109152380D01*
X93407023Y-110152380D02*
X92835595Y-110152380D01*
X93121309Y-110152380D02*
X93121309Y-109152380D01*
X93026071Y-109295238D01*
X92930833Y-109390476D01*
X92835595Y-109438095D01*
G04 #@! TO.C,C1*
X84733333Y-109257142D02*
X84685714Y-109304761D01*
X84542857Y-109352380D01*
X84447619Y-109352380D01*
X84304761Y-109304761D01*
X84209523Y-109209523D01*
X84161904Y-109114285D01*
X84114285Y-108923809D01*
X84114285Y-108780952D01*
X84161904Y-108590476D01*
X84209523Y-108495238D01*
X84304761Y-108400000D01*
X84447619Y-108352380D01*
X84542857Y-108352380D01*
X84685714Y-108400000D01*
X84733333Y-108447619D01*
X85685714Y-109352380D02*
X85114285Y-109352380D01*
X85400000Y-109352380D02*
X85400000Y-108352380D01*
X85304761Y-108495238D01*
X85209523Y-108590476D01*
X85114285Y-108638095D01*
G04 #@! TO.C,C4*
X84733333Y-116957142D02*
X84685714Y-117004761D01*
X84542857Y-117052380D01*
X84447619Y-117052380D01*
X84304761Y-117004761D01*
X84209523Y-116909523D01*
X84161904Y-116814285D01*
X84114285Y-116623809D01*
X84114285Y-116480952D01*
X84161904Y-116290476D01*
X84209523Y-116195238D01*
X84304761Y-116100000D01*
X84447619Y-116052380D01*
X84542857Y-116052380D01*
X84685714Y-116100000D01*
X84733333Y-116147619D01*
X85590476Y-116385714D02*
X85590476Y-117052380D01*
X85352380Y-116004761D02*
X85114285Y-116719047D01*
X85733333Y-116719047D01*
G04 #@! TO.C,C5*
X92033333Y-111607142D02*
X91985714Y-111654761D01*
X91842857Y-111702380D01*
X91747619Y-111702380D01*
X91604761Y-111654761D01*
X91509523Y-111559523D01*
X91461904Y-111464285D01*
X91414285Y-111273809D01*
X91414285Y-111130952D01*
X91461904Y-110940476D01*
X91509523Y-110845238D01*
X91604761Y-110750000D01*
X91747619Y-110702380D01*
X91842857Y-110702380D01*
X91985714Y-110750000D01*
X92033333Y-110797619D01*
X92938095Y-110702380D02*
X92461904Y-110702380D01*
X92414285Y-111178571D01*
X92461904Y-111130952D01*
X92557142Y-111083333D01*
X92795238Y-111083333D01*
X92890476Y-111130952D01*
X92938095Y-111178571D01*
X92985714Y-111273809D01*
X92985714Y-111511904D01*
X92938095Y-111607142D01*
X92890476Y-111654761D01*
X92795238Y-111702380D01*
X92557142Y-111702380D01*
X92461904Y-111654761D01*
X92414285Y-111607142D01*
G04 #@! TO.C,C6*
X93333333Y-112957142D02*
X93285714Y-113004761D01*
X93142857Y-113052380D01*
X93047619Y-113052380D01*
X92904761Y-113004761D01*
X92809523Y-112909523D01*
X92761904Y-112814285D01*
X92714285Y-112623809D01*
X92714285Y-112480952D01*
X92761904Y-112290476D01*
X92809523Y-112195238D01*
X92904761Y-112100000D01*
X93047619Y-112052380D01*
X93142857Y-112052380D01*
X93285714Y-112100000D01*
X93333333Y-112147619D01*
X94190476Y-112052380D02*
X94000000Y-112052380D01*
X93904761Y-112100000D01*
X93857142Y-112147619D01*
X93761904Y-112290476D01*
X93714285Y-112480952D01*
X93714285Y-112861904D01*
X93761904Y-112957142D01*
X93809523Y-113004761D01*
X93904761Y-113052380D01*
X94095238Y-113052380D01*
X94190476Y-113004761D01*
X94238095Y-112957142D01*
X94285714Y-112861904D01*
X94285714Y-112623809D01*
X94238095Y-112528571D01*
X94190476Y-112480952D01*
X94095238Y-112433333D01*
X93904761Y-112433333D01*
X93809523Y-112480952D01*
X93761904Y-112528571D01*
X93714285Y-112623809D01*
G04 #@! TO.C,FB1*
X87828571Y-117733333D02*
X87828571Y-118066666D01*
X88352380Y-118066666D02*
X87352380Y-118066666D01*
X87352380Y-117590476D01*
X87828571Y-116876190D02*
X87876190Y-116733333D01*
X87923809Y-116685714D01*
X88019047Y-116638095D01*
X88161904Y-116638095D01*
X88257142Y-116685714D01*
X88304761Y-116733333D01*
X88352380Y-116828571D01*
X88352380Y-117209523D01*
X87352380Y-117209523D01*
X87352380Y-116876190D01*
X87400000Y-116780952D01*
X87447619Y-116733333D01*
X87542857Y-116685714D01*
X87638095Y-116685714D01*
X87733333Y-116733333D01*
X87780952Y-116780952D01*
X87828571Y-116876190D01*
X87828571Y-117209523D01*
X88352380Y-115685714D02*
X88352380Y-116257142D01*
X88352380Y-115971428D02*
X87352380Y-115971428D01*
X87495238Y-116066666D01*
X87590476Y-116161904D01*
X87638095Y-116257142D01*
G04 #@! TO.C,FB2*
X90428571Y-117733333D02*
X90428571Y-118066666D01*
X90952380Y-118066666D02*
X89952380Y-118066666D01*
X89952380Y-117590476D01*
X90428571Y-116876190D02*
X90476190Y-116733333D01*
X90523809Y-116685714D01*
X90619047Y-116638095D01*
X90761904Y-116638095D01*
X90857142Y-116685714D01*
X90904761Y-116733333D01*
X90952380Y-116828571D01*
X90952380Y-117209523D01*
X89952380Y-117209523D01*
X89952380Y-116876190D01*
X90000000Y-116780952D01*
X90047619Y-116733333D01*
X90142857Y-116685714D01*
X90238095Y-116685714D01*
X90333333Y-116733333D01*
X90380952Y-116780952D01*
X90428571Y-116876190D01*
X90428571Y-117209523D01*
X90047619Y-116257142D02*
X90000000Y-116209523D01*
X89952380Y-116114285D01*
X89952380Y-115876190D01*
X90000000Y-115780952D01*
X90047619Y-115733333D01*
X90142857Y-115685714D01*
X90238095Y-115685714D01*
X90380952Y-115733333D01*
X90952380Y-116304761D01*
X90952380Y-115685714D01*
G04 #@! TO.C,FB3*
X89128571Y-117733333D02*
X89128571Y-118066666D01*
X89652380Y-118066666D02*
X88652380Y-118066666D01*
X88652380Y-117590476D01*
X89128571Y-116876190D02*
X89176190Y-116733333D01*
X89223809Y-116685714D01*
X89319047Y-116638095D01*
X89461904Y-116638095D01*
X89557142Y-116685714D01*
X89604761Y-116733333D01*
X89652380Y-116828571D01*
X89652380Y-117209523D01*
X88652380Y-117209523D01*
X88652380Y-116876190D01*
X88700000Y-116780952D01*
X88747619Y-116733333D01*
X88842857Y-116685714D01*
X88938095Y-116685714D01*
X89033333Y-116733333D01*
X89080952Y-116780952D01*
X89128571Y-116876190D01*
X89128571Y-117209523D01*
X88652380Y-116304761D02*
X88652380Y-115685714D01*
X89033333Y-116019047D01*
X89033333Y-115876190D01*
X89080952Y-115780952D01*
X89128571Y-115733333D01*
X89223809Y-115685714D01*
X89461904Y-115685714D01*
X89557142Y-115733333D01*
X89604761Y-115780952D01*
X89652380Y-115876190D01*
X89652380Y-116161904D01*
X89604761Y-116257142D01*
X89557142Y-116304761D01*
G04 #@! TO.C,J2*
X93682380Y-107033333D02*
X94396666Y-107033333D01*
X94539523Y-107080952D01*
X94634761Y-107176190D01*
X94682380Y-107319047D01*
X94682380Y-107414285D01*
X93777619Y-106604761D02*
X93730000Y-106557142D01*
X93682380Y-106461904D01*
X93682380Y-106223809D01*
X93730000Y-106128571D01*
X93777619Y-106080952D01*
X93872857Y-106033333D01*
X93968095Y-106033333D01*
X94110952Y-106080952D01*
X94682380Y-106652380D01*
X94682380Y-106033333D01*
G04 #@! TO.C,J3*
X83666666Y-96652380D02*
X83666666Y-97366666D01*
X83619047Y-97509523D01*
X83523809Y-97604761D01*
X83380952Y-97652380D01*
X83285714Y-97652380D01*
X84047619Y-96652380D02*
X84666666Y-96652380D01*
X84333333Y-97033333D01*
X84476190Y-97033333D01*
X84571428Y-97080952D01*
X84619047Y-97128571D01*
X84666666Y-97223809D01*
X84666666Y-97461904D01*
X84619047Y-97557142D01*
X84571428Y-97604761D01*
X84476190Y-97652380D01*
X84190476Y-97652380D01*
X84095238Y-97604761D01*
X84047619Y-97557142D01*
G04 #@! TO.C,R1*
X91533333Y-102152380D02*
X91200000Y-101676190D01*
X90961904Y-102152380D02*
X90961904Y-101152380D01*
X91342857Y-101152380D01*
X91438095Y-101200000D01*
X91485714Y-101247619D01*
X91533333Y-101342857D01*
X91533333Y-101485714D01*
X91485714Y-101580952D01*
X91438095Y-101628571D01*
X91342857Y-101676190D01*
X90961904Y-101676190D01*
X92485714Y-102152380D02*
X91914285Y-102152380D01*
X92200000Y-102152380D02*
X92200000Y-101152380D01*
X92104761Y-101295238D01*
X92009523Y-101390476D01*
X91914285Y-101438095D01*
G04 #@! TO.C,R2*
X89133333Y-102152380D02*
X88800000Y-101676190D01*
X88561904Y-102152380D02*
X88561904Y-101152380D01*
X88942857Y-101152380D01*
X89038095Y-101200000D01*
X89085714Y-101247619D01*
X89133333Y-101342857D01*
X89133333Y-101485714D01*
X89085714Y-101580952D01*
X89038095Y-101628571D01*
X88942857Y-101676190D01*
X88561904Y-101676190D01*
X89514285Y-101247619D02*
X89561904Y-101200000D01*
X89657142Y-101152380D01*
X89895238Y-101152380D01*
X89990476Y-101200000D01*
X90038095Y-101247619D01*
X90085714Y-101342857D01*
X90085714Y-101438095D01*
X90038095Y-101580952D01*
X89466666Y-102152380D01*
X90085714Y-102152380D01*
G04 #@! TO.C,R3*
X87802380Y-101916666D02*
X87326190Y-102250000D01*
X87802380Y-102488095D02*
X86802380Y-102488095D01*
X86802380Y-102107142D01*
X86850000Y-102011904D01*
X86897619Y-101964285D01*
X86992857Y-101916666D01*
X87135714Y-101916666D01*
X87230952Y-101964285D01*
X87278571Y-102011904D01*
X87326190Y-102107142D01*
X87326190Y-102488095D01*
X86802380Y-101583333D02*
X86802380Y-100964285D01*
X87183333Y-101297619D01*
X87183333Y-101154761D01*
X87230952Y-101059523D01*
X87278571Y-101011904D01*
X87373809Y-100964285D01*
X87611904Y-100964285D01*
X87707142Y-101011904D01*
X87754761Y-101059523D01*
X87802380Y-101154761D01*
X87802380Y-101440476D01*
X87754761Y-101535714D01*
X87707142Y-101583333D01*
G04 #@! TO.C,R4*
X86352380Y-101916666D02*
X85876190Y-102250000D01*
X86352380Y-102488095D02*
X85352380Y-102488095D01*
X85352380Y-102107142D01*
X85400000Y-102011904D01*
X85447619Y-101964285D01*
X85542857Y-101916666D01*
X85685714Y-101916666D01*
X85780952Y-101964285D01*
X85828571Y-102011904D01*
X85876190Y-102107142D01*
X85876190Y-102488095D01*
X85685714Y-101059523D02*
X86352380Y-101059523D01*
X85304761Y-101297619D02*
X86019047Y-101535714D01*
X86019047Y-100916666D01*
G04 #@! TO.C,R6*
X91533333Y-103402380D02*
X91200000Y-102926190D01*
X90961904Y-103402380D02*
X90961904Y-102402380D01*
X91342857Y-102402380D01*
X91438095Y-102450000D01*
X91485714Y-102497619D01*
X91533333Y-102592857D01*
X91533333Y-102735714D01*
X91485714Y-102830952D01*
X91438095Y-102878571D01*
X91342857Y-102926190D01*
X90961904Y-102926190D01*
X92390476Y-102402380D02*
X92200000Y-102402380D01*
X92104761Y-102450000D01*
X92057142Y-102497619D01*
X91961904Y-102640476D01*
X91914285Y-102830952D01*
X91914285Y-103211904D01*
X91961904Y-103307142D01*
X92009523Y-103354761D01*
X92104761Y-103402380D01*
X92295238Y-103402380D01*
X92390476Y-103354761D01*
X92438095Y-103307142D01*
X92485714Y-103211904D01*
X92485714Y-102973809D01*
X92438095Y-102878571D01*
X92390476Y-102830952D01*
X92295238Y-102783333D01*
X92104761Y-102783333D01*
X92009523Y-102830952D01*
X91961904Y-102878571D01*
X91914285Y-102973809D01*
G04 #@! TO.C,R7*
X89133333Y-103402380D02*
X88800000Y-102926190D01*
X88561904Y-103402380D02*
X88561904Y-102402380D01*
X88942857Y-102402380D01*
X89038095Y-102450000D01*
X89085714Y-102497619D01*
X89133333Y-102592857D01*
X89133333Y-102735714D01*
X89085714Y-102830952D01*
X89038095Y-102878571D01*
X88942857Y-102926190D01*
X88561904Y-102926190D01*
X89466666Y-102402380D02*
X90133333Y-102402380D01*
X89704761Y-103402380D01*
G04 #@! TO.C,C2*
X87757142Y-114466666D02*
X87804761Y-114514285D01*
X87852380Y-114657142D01*
X87852380Y-114752380D01*
X87804761Y-114895238D01*
X87709523Y-114990476D01*
X87614285Y-115038095D01*
X87423809Y-115085714D01*
X87280952Y-115085714D01*
X87090476Y-115038095D01*
X86995238Y-114990476D01*
X86900000Y-114895238D01*
X86852380Y-114752380D01*
X86852380Y-114657142D01*
X86900000Y-114514285D01*
X86947619Y-114466666D01*
X86947619Y-114085714D02*
X86900000Y-114038095D01*
X86852380Y-113942857D01*
X86852380Y-113704761D01*
X86900000Y-113609523D01*
X86947619Y-113561904D01*
X87042857Y-113514285D01*
X87138095Y-113514285D01*
X87280952Y-113561904D01*
X87852380Y-114133333D01*
X87852380Y-113514285D01*
G04 #@! TO.C,C3*
X92333333Y-114357142D02*
X92285714Y-114404761D01*
X92142857Y-114452380D01*
X92047619Y-114452380D01*
X91904761Y-114404761D01*
X91809523Y-114309523D01*
X91761904Y-114214285D01*
X91714285Y-114023809D01*
X91714285Y-113880952D01*
X91761904Y-113690476D01*
X91809523Y-113595238D01*
X91904761Y-113500000D01*
X92047619Y-113452380D01*
X92142857Y-113452380D01*
X92285714Y-113500000D01*
X92333333Y-113547619D01*
X92666666Y-113452380D02*
X93285714Y-113452380D01*
X92952380Y-113833333D01*
X93095238Y-113833333D01*
X93190476Y-113880952D01*
X93238095Y-113928571D01*
X93285714Y-114023809D01*
X93285714Y-114261904D01*
X93238095Y-114357142D01*
X93190476Y-114404761D01*
X93095238Y-114452380D01*
X92809523Y-114452380D01*
X92714285Y-114404761D01*
X92666666Y-114357142D01*
G04 #@! TO.C,C7*
X94457142Y-101966666D02*
X94504761Y-102014285D01*
X94552380Y-102157142D01*
X94552380Y-102252380D01*
X94504761Y-102395238D01*
X94409523Y-102490476D01*
X94314285Y-102538095D01*
X94123809Y-102585714D01*
X93980952Y-102585714D01*
X93790476Y-102538095D01*
X93695238Y-102490476D01*
X93600000Y-102395238D01*
X93552380Y-102252380D01*
X93552380Y-102157142D01*
X93600000Y-102014285D01*
X93647619Y-101966666D01*
X93552380Y-101633333D02*
X93552380Y-100966666D01*
X94552380Y-101395238D01*
G04 #@! TO.C,SJ1*
X91857142Y-116004761D02*
X92000000Y-116052380D01*
X92238095Y-116052380D01*
X92333333Y-116004761D01*
X92380952Y-115957142D01*
X92428571Y-115861904D01*
X92428571Y-115766666D01*
X92380952Y-115671428D01*
X92333333Y-115623809D01*
X92238095Y-115576190D01*
X92047619Y-115528571D01*
X91952380Y-115480952D01*
X91904761Y-115433333D01*
X91857142Y-115338095D01*
X91857142Y-115242857D01*
X91904761Y-115147619D01*
X91952380Y-115100000D01*
X92047619Y-115052380D01*
X92285714Y-115052380D01*
X92428571Y-115100000D01*
X93142857Y-115052380D02*
X93142857Y-115766666D01*
X93095238Y-115909523D01*
X93000000Y-116004761D01*
X92857142Y-116052380D01*
X92761904Y-116052380D01*
X94142857Y-116052380D02*
X93571428Y-116052380D01*
X93857142Y-116052380D02*
X93857142Y-115052380D01*
X93761904Y-115195238D01*
X93666666Y-115290476D01*
X93571428Y-115338095D01*
G04 #@! TD*
M02*
