G04 #@! TF.GenerationSoftware,KiCad,Pcbnew,5.0.1-33cea8e~68~ubuntu18.04.1*
G04 #@! TF.CreationDate,2018-11-02T21:22:18+01:00*
G04 #@! TF.ProjectId,LPC82X_JHI33_2layer,4C50433832585F4A484933335F326C61,rev?*
G04 #@! TF.SameCoordinates,Original*
G04 #@! TF.FileFunction,Copper,L1,Top,Signal*
G04 #@! TF.FilePolarity,Positive*
%FSLAX46Y46*%
G04 Gerber Fmt 4.6, Leading zero omitted, Abs format (unit mm)*
G04 Created by KiCad (PCBNEW 5.0.1-33cea8e~68~ubuntu18.04.1) date vr 02 nov 2018 21:22:18 CET*
%MOMM*%
%LPD*%
G01*
G04 APERTURE LIST*
G04 #@! TA.AperFunction,EtchedComponent*
%ADD10C,0.200000*%
G04 #@! TD*
G04 #@! TA.AperFunction,ComponentPad*
%ADD11R,1.300000X1.300000*%
G04 #@! TD*
G04 #@! TA.AperFunction,ComponentPad*
%ADD12C,1.300000*%
G04 #@! TD*
G04 #@! TA.AperFunction,SMDPad,CuDef*
%ADD13R,0.900000X0.290000*%
G04 #@! TD*
G04 #@! TA.AperFunction,SMDPad,CuDef*
%ADD14R,0.290000X0.900000*%
G04 #@! TD*
G04 #@! TA.AperFunction,SMDPad,CuDef*
%ADD15R,3.500000X3.500000*%
G04 #@! TD*
G04 #@! TA.AperFunction,SMDPad,CuDef*
%ADD16R,0.600000X0.500000*%
G04 #@! TD*
G04 #@! TA.AperFunction,SMDPad,CuDef*
%ADD17R,0.500000X0.600000*%
G04 #@! TD*
G04 #@! TA.AperFunction,ComponentPad*
%ADD18R,0.750000X0.750000*%
G04 #@! TD*
G04 #@! TA.AperFunction,ComponentPad*
%ADD19C,0.750000*%
G04 #@! TD*
G04 #@! TA.AperFunction,SMDPad,CuDef*
%ADD20R,0.600000X0.600000*%
G04 #@! TD*
G04 #@! TA.AperFunction,SMDPad,CuDef*
%ADD21R,1.200000X1.400000*%
G04 #@! TD*
G04 #@! TA.AperFunction,SMDPad,CuDef*
%ADD22R,0.800000X0.750000*%
G04 #@! TD*
G04 #@! TA.AperFunction,SMDPad,CuDef*
%ADD23R,1.250000X1.000000*%
G04 #@! TD*
G04 #@! TA.AperFunction,SMDPad,CuDef*
%ADD24R,0.400000X0.600000*%
G04 #@! TD*
G04 #@! TA.AperFunction,ViaPad*
%ADD25C,0.550000*%
G04 #@! TD*
G04 #@! TA.AperFunction,ViaPad*
%ADD26C,0.355600*%
G04 #@! TD*
G04 #@! TA.AperFunction,ViaPad*
%ADD27C,0.750000*%
G04 #@! TD*
G04 #@! TA.AperFunction,Conductor*
%ADD28C,0.200000*%
G04 #@! TD*
G04 #@! TA.AperFunction,Conductor*
%ADD29C,0.400000*%
G04 #@! TD*
G04 #@! TA.AperFunction,Conductor*
%ADD30C,0.300000*%
G04 #@! TD*
G04 APERTURE END LIST*
D10*
G04 #@! TO.C,SJ1*
X92300000Y-116800000D02*
X91700000Y-116800000D01*
G04 #@! TD*
D11*
G04 #@! TO.P,J1,1*
G04 #@! TO.N,VDD*
X78740000Y-96520000D03*
D12*
G04 #@! TO.P,J1,2*
X81280000Y-96520000D03*
G04 #@! TO.P,J1,3*
G04 #@! TO.N,/PIO0_28*
X78740000Y-99060000D03*
G04 #@! TO.P,J1,4*
G04 #@! TO.N,/PIO0_3*
X81280000Y-99060000D03*
G04 #@! TO.P,J1,5*
G04 #@! TO.N,/PIO0_2*
X78740000Y-101600000D03*
G04 #@! TO.P,J1,6*
G04 #@! TO.N,/PIO0_11*
X81280000Y-101600000D03*
G04 #@! TO.P,J1,7*
G04 #@! TO.N,/PIO0_10*
X78740000Y-104140000D03*
G04 #@! TO.P,J1,8*
G04 #@! TO.N,/PIO0_16*
X81280000Y-104140000D03*
G04 #@! TO.P,J1,9*
G04 #@! TO.N,/PIO0_27*
X78740000Y-106680000D03*
G04 #@! TO.P,J1,10*
G04 #@! TO.N,/PIO0_26*
X81280000Y-106680000D03*
G04 #@! TO.P,J1,11*
G04 #@! TO.N,/PIO0_25*
X78740000Y-109220000D03*
G04 #@! TO.P,J1,12*
G04 #@! TO.N,/PIO0_24*
X81280000Y-109220000D03*
G04 #@! TO.P,J1,13*
G04 #@! TO.N,/PIO0_15*
X78740000Y-111760000D03*
G04 #@! TO.P,J1,14*
G04 #@! TO.N,/PIO0_1*
X81280000Y-111760000D03*
G04 #@! TO.P,J1,15*
G04 #@! TO.N,/PIO0_9*
X78740000Y-114300000D03*
G04 #@! TO.P,J1,16*
G04 #@! TO.N,/PIO0_8*
X81280000Y-114300000D03*
G04 #@! TO.P,J1,17*
G04 #@! TO.N,VSS*
X78740000Y-116840000D03*
G04 #@! TO.P,J1,18*
X81280000Y-116840000D03*
G04 #@! TD*
D13*
G04 #@! TO.P,U1,28*
G04 #@! TO.N,/PIO0_21*
X91450000Y-106930000D03*
G04 #@! TO.P,U1,27*
G04 #@! TO.N,/PIO0_22*
X91450000Y-107430000D03*
G04 #@! TO.P,U1,26*
G04 #@! TO.N,/PIO0_23*
X91450000Y-107930000D03*
G04 #@! TO.P,U1,25*
G04 #@! TO.N,/PIO0_14*
X91450000Y-108430000D03*
G04 #@! TO.P,U1,29*
G04 #@! TO.N,/PIO0_20*
X91450000Y-106430000D03*
G04 #@! TO.P,U1,30*
G04 #@! TO.N,/PIO0_19*
X91450000Y-105930000D03*
G04 #@! TO.P,U1,31*
G04 #@! TO.N,/PIO0_18*
X91450000Y-105430000D03*
G04 #@! TO.P,U1,32*
G04 #@! TO.N,/PIO0_17*
X91450000Y-104930000D03*
G04 #@! TO.P,U1,12*
G04 #@! TO.N,/PIO0_26*
X86350000Y-106430000D03*
G04 #@! TO.P,U1,11*
G04 #@! TO.N,/PIO0_27*
X86350000Y-105930000D03*
G04 #@! TO.P,U1,10*
G04 #@! TO.N,/PIO0_16*
X86350000Y-105430000D03*
G04 #@! TO.P,U1,9*
G04 #@! TO.N,/PIO0_10*
X86350000Y-104930000D03*
G04 #@! TO.P,U1,13*
G04 #@! TO.N,/PIO0_25*
X86350000Y-106930000D03*
G04 #@! TO.P,U1,14*
G04 #@! TO.N,/PIO0_24*
X86350000Y-107430000D03*
G04 #@! TO.P,U1,15*
G04 #@! TO.N,/PIO0_15*
X86350000Y-107930000D03*
G04 #@! TO.P,U1,16*
G04 #@! TO.N,/PIO0_1*
X86350000Y-108430000D03*
D14*
G04 #@! TO.P,U1,20*
G04 #@! TO.N,Net-(C3-Pad2)*
X88650000Y-109230000D03*
G04 #@! TO.P,U1,19*
G04 #@! TO.N,Net-(C2-Pad1)*
X88150000Y-109230000D03*
G04 #@! TO.P,U1,18*
G04 #@! TO.N,/PIO0_8*
X87650000Y-109230000D03*
G04 #@! TO.P,U1,17*
G04 #@! TO.N,/PIO0_9*
X87150000Y-109230000D03*
G04 #@! TO.P,U1,21*
G04 #@! TO.N,Net-(C3-Pad1)*
X89150000Y-109230000D03*
G04 #@! TO.P,U1,22*
G04 #@! TO.N,/PIO0_7*
X89650000Y-109230000D03*
G04 #@! TO.P,U1,23*
G04 #@! TO.N,/PIO0_6*
X90150000Y-109230000D03*
G04 #@! TO.P,U1,24*
G04 #@! TO.N,/PIO0_0*
X90650000Y-109230000D03*
G04 #@! TO.P,U1,4*
G04 #@! TO.N,/PIO0_4*
X89150000Y-104130000D03*
G04 #@! TO.P,U1,3*
G04 #@! TO.N,/RESET*
X89650000Y-104130000D03*
G04 #@! TO.P,U1,2*
G04 #@! TO.N,/PIO0_12*
X90150000Y-104130000D03*
G04 #@! TO.P,U1,1*
G04 #@! TO.N,/PIO0_13*
X90650000Y-104130000D03*
G04 #@! TO.P,U1,5*
G04 #@! TO.N,/PIO0_28*
X88650000Y-104130000D03*
G04 #@! TO.P,U1,6*
G04 #@! TO.N,/PIO0_3*
X88150000Y-104130000D03*
G04 #@! TO.P,U1,7*
G04 #@! TO.N,/PIO0_2*
X87650000Y-104130000D03*
G04 #@! TO.P,U1,8*
G04 #@! TO.N,/PIO0_11*
X87150000Y-104130000D03*
D15*
G04 #@! TO.P,U1,33*
G04 #@! TO.N,VSS*
X88900000Y-106680000D03*
G04 #@! TD*
D16*
G04 #@! TO.P,C1,1*
G04 #@! TO.N,/PIO0_9*
X85450000Y-110050000D03*
G04 #@! TO.P,C1,2*
G04 #@! TO.N,VSS*
X84350000Y-110050000D03*
G04 #@! TD*
G04 #@! TO.P,C4,2*
G04 #@! TO.N,VSS*
X85450000Y-115350000D03*
G04 #@! TO.P,C4,1*
G04 #@! TO.N,/PIO0_8*
X84350000Y-115350000D03*
G04 #@! TD*
G04 #@! TO.P,C5,2*
G04 #@! TO.N,VSS*
X88450000Y-111200000D03*
G04 #@! TO.P,C5,1*
G04 #@! TO.N,Net-(C2-Pad1)*
X87350000Y-111200000D03*
G04 #@! TD*
G04 #@! TO.P,C6,1*
G04 #@! TO.N,Net-(C3-Pad1)*
X90750000Y-111200000D03*
G04 #@! TO.P,C6,2*
G04 #@! TO.N,Net-(C3-Pad2)*
X89650000Y-111200000D03*
G04 #@! TD*
D17*
G04 #@! TO.P,FB1,1*
G04 #@! TO.N,Net-(C2-Pad1)*
X88600000Y-113950000D03*
G04 #@! TO.P,FB1,2*
G04 #@! TO.N,Net-(FB1-Pad2)*
X88600000Y-115050000D03*
G04 #@! TD*
G04 #@! TO.P,FB2,2*
G04 #@! TO.N,Net-(FB1-Pad2)*
X91000000Y-115050000D03*
G04 #@! TO.P,FB2,1*
G04 #@! TO.N,Net-(C3-Pad1)*
X91000000Y-113950000D03*
G04 #@! TD*
G04 #@! TO.P,FB3,1*
G04 #@! TO.N,Net-(C3-Pad2)*
X89800000Y-113950000D03*
G04 #@! TO.P,FB3,2*
G04 #@! TO.N,VSS*
X89800000Y-115050000D03*
G04 #@! TD*
D12*
G04 #@! TO.P,J2,18*
G04 #@! TO.N,VDD*
X99060000Y-116840000D03*
G04 #@! TO.P,J2,17*
X96520000Y-116840000D03*
G04 #@! TO.P,J2,16*
G04 #@! TO.N,/PIO0_7*
X99060000Y-114300000D03*
G04 #@! TO.P,J2,15*
G04 #@! TO.N,/PIO0_6*
X96520000Y-114300000D03*
G04 #@! TO.P,J2,14*
G04 #@! TO.N,/PIO0_0*
X99060000Y-111760000D03*
G04 #@! TO.P,J2,13*
G04 #@! TO.N,/PIO0_14*
X96520000Y-111760000D03*
G04 #@! TO.P,J2,12*
G04 #@! TO.N,/PIO0_23*
X99060000Y-109220000D03*
G04 #@! TO.P,J2,11*
G04 #@! TO.N,/PIO0_22*
X96520000Y-109220000D03*
G04 #@! TO.P,J2,10*
G04 #@! TO.N,/PIO0_21*
X99060000Y-106680000D03*
G04 #@! TO.P,J2,9*
G04 #@! TO.N,/PIO0_20*
X96520000Y-106680000D03*
G04 #@! TO.P,J2,8*
G04 #@! TO.N,/PIO0_19*
X99060000Y-104140000D03*
G04 #@! TO.P,J2,7*
G04 #@! TO.N,/PIO0_18*
X96520000Y-104140000D03*
G04 #@! TO.P,J2,6*
G04 #@! TO.N,/PIO0_17*
X99060000Y-101600000D03*
G04 #@! TO.P,J2,5*
G04 #@! TO.N,/PIO0_13*
X96520000Y-101600000D03*
G04 #@! TO.P,J2,4*
G04 #@! TO.N,/PIO0_12*
X99060000Y-99060000D03*
G04 #@! TO.P,J2,3*
G04 #@! TO.N,/PIO0_4*
X96520000Y-99060000D03*
G04 #@! TO.P,J2,2*
G04 #@! TO.N,VSS*
X99060000Y-96520000D03*
D11*
G04 #@! TO.P,J2,1*
X96520000Y-96520000D03*
G04 #@! TD*
D18*
G04 #@! TO.P,J3,1*
G04 #@! TO.N,VDD*
X91540000Y-96215000D03*
D19*
G04 #@! TO.P,J3,2*
G04 #@! TO.N,Net-(J3-Pad2)*
X91540000Y-97485000D03*
G04 #@! TO.P,J3,3*
G04 #@! TO.N,VSS*
X90270000Y-96215000D03*
G04 #@! TO.P,J3,4*
G04 #@! TO.N,Net-(J3-Pad4)*
X90270000Y-97485000D03*
G04 #@! TO.P,J3,5*
G04 #@! TO.N,VSS*
X89000000Y-96215000D03*
G04 #@! TO.P,J3,6*
G04 #@! TO.N,N/C*
X89000000Y-97485000D03*
G04 #@! TO.P,J3,7*
X87730000Y-96215000D03*
G04 #@! TO.P,J3,8*
X87730000Y-97485000D03*
G04 #@! TO.P,J3,9*
G04 #@! TO.N,VSS*
X86460000Y-96215000D03*
G04 #@! TO.P,J3,10*
G04 #@! TO.N,Net-(J3-Pad10)*
X86460000Y-97485000D03*
G04 #@! TD*
D20*
G04 #@! TO.P,R1,1*
G04 #@! TO.N,Net-(J3-Pad2)*
X92250000Y-99150000D03*
G04 #@! TO.P,R1,2*
G04 #@! TO.N,/PIO0_2*
X91150000Y-99150000D03*
G04 #@! TD*
G04 #@! TO.P,R2,2*
G04 #@! TO.N,/PIO0_3*
X88750000Y-99150000D03*
G04 #@! TO.P,R2,1*
G04 #@! TO.N,Net-(J3-Pad4)*
X89850000Y-99150000D03*
G04 #@! TD*
G04 #@! TO.P,R3,1*
G04 #@! TO.N,Net-(J3-Pad10)*
X87300000Y-99200000D03*
G04 #@! TO.P,R3,2*
G04 #@! TO.N,/RESET*
X87300000Y-100300000D03*
G04 #@! TD*
G04 #@! TO.P,R4,2*
G04 #@! TO.N,/RESET*
X85900000Y-100300000D03*
G04 #@! TO.P,R4,1*
G04 #@! TO.N,VDD*
X85900000Y-99200000D03*
G04 #@! TD*
D21*
G04 #@! TO.P,Y1,1*
G04 #@! TO.N,/PIO0_9*
X85750000Y-111600000D03*
G04 #@! TO.P,Y1,2*
G04 #@! TO.N,VSS*
X85750000Y-113800000D03*
G04 #@! TO.P,Y1,3*
G04 #@! TO.N,/PIO0_8*
X84050000Y-113800000D03*
G04 #@! TO.P,Y1,4*
G04 #@! TO.N,VSS*
X84050000Y-111600000D03*
G04 #@! TD*
D20*
G04 #@! TO.P,R6,1*
G04 #@! TO.N,VDD*
X92250000Y-100450000D03*
G04 #@! TO.P,R6,2*
G04 #@! TO.N,/PIO0_2*
X91150000Y-100450000D03*
G04 #@! TD*
G04 #@! TO.P,R7,2*
G04 #@! TO.N,/PIO0_3*
X88750000Y-100450000D03*
G04 #@! TO.P,R7,1*
G04 #@! TO.N,VSS*
X89850000Y-100450000D03*
G04 #@! TD*
D22*
G04 #@! TO.P,C2,1*
G04 #@! TO.N,Net-(C2-Pad1)*
X87450000Y-112600000D03*
G04 #@! TO.P,C2,2*
G04 #@! TO.N,VSS*
X88950000Y-112600000D03*
G04 #@! TD*
G04 #@! TO.P,C3,2*
G04 #@! TO.N,Net-(C3-Pad2)*
X90350000Y-112600000D03*
G04 #@! TO.P,C3,1*
G04 #@! TO.N,Net-(C3-Pad1)*
X91850000Y-112600000D03*
G04 #@! TD*
D23*
G04 #@! TO.P,C7,1*
G04 #@! TO.N,VSS*
X94100000Y-99200000D03*
G04 #@! TO.P,C7,2*
G04 #@! TO.N,VDD*
X94100000Y-97200000D03*
G04 #@! TD*
D24*
G04 #@! TO.P,SJ1,1*
G04 #@! TO.N,VDD*
X92450000Y-116800000D03*
G04 #@! TO.P,SJ1,2*
G04 #@! TO.N,Net-(FB1-Pad2)*
X91550000Y-116800000D03*
G04 #@! TD*
D25*
G04 #@! TO.N,VSS*
X83800000Y-98200000D03*
D26*
X90500000Y-99850000D03*
D27*
X88900000Y-106680000D03*
D25*
X89800000Y-116100000D03*
D26*
X84900000Y-112700000D03*
D25*
X93700000Y-100400000D03*
X84700000Y-96500000D03*
X88450000Y-110550000D03*
D26*
G04 #@! TO.N,VDD*
X85900000Y-98400000D03*
X92900000Y-98400000D03*
D25*
X94700000Y-116800000D03*
X94115000Y-96215000D03*
D26*
G04 #@! TO.N,/PIO0_3*
X87800000Y-102600000D03*
X88750000Y-101050000D03*
G04 #@! TO.N,/PIO0_2*
X87500000Y-103200000D03*
X88900000Y-101700000D03*
G04 #@! TO.N,/RESET*
X89700000Y-103100000D03*
X89000000Y-102400000D03*
G04 #@! TD*
D28*
G04 #@! TO.N,VSS*
X90500000Y-100350000D02*
X90500000Y-99850000D01*
D29*
X88950000Y-112600000D02*
X88950000Y-112150000D01*
X88450000Y-111650000D02*
X88450000Y-111200000D01*
X88950000Y-112150000D02*
X88450000Y-111650000D01*
X89800000Y-115050000D02*
X89800000Y-116100000D01*
D30*
X86460000Y-96215000D02*
X86460000Y-96090000D01*
D28*
X90400000Y-100450000D02*
X90500000Y-100350000D01*
X89850000Y-100450000D02*
X90400000Y-100450000D01*
X85750000Y-114650000D02*
X85750000Y-113800000D01*
X85450000Y-115350000D02*
X85450000Y-114950000D01*
X85450000Y-114950000D02*
X85750000Y-114650000D01*
X85750000Y-113550000D02*
X84900000Y-112700000D01*
X85750000Y-113800000D02*
X85750000Y-113550000D01*
X84050000Y-111600000D02*
X84050000Y-111850000D01*
X84050000Y-111850000D02*
X84900000Y-112700000D01*
X84050000Y-111600000D02*
X84050000Y-110750000D01*
X84050000Y-110750000D02*
X84350000Y-110450000D01*
X84350000Y-110450000D02*
X84350000Y-110050000D01*
D29*
X93700000Y-100400000D02*
X94100000Y-100000000D01*
X94100000Y-100000000D02*
X94100000Y-99200000D01*
X88450000Y-111200000D02*
X88450000Y-110550000D01*
X88450000Y-110550000D02*
X88450000Y-110550000D01*
D28*
G04 #@! TO.N,Net-(C2-Pad1)*
X87350000Y-111200000D02*
X87350000Y-110850000D01*
X88150000Y-110050000D02*
X88150000Y-109230000D01*
X87350000Y-110850000D02*
X88150000Y-110050000D01*
D29*
X87450000Y-112600000D02*
X87450000Y-111850000D01*
X87350000Y-111750000D02*
X87350000Y-111200000D01*
X87450000Y-111850000D02*
X87350000Y-111750000D01*
X88600000Y-113750000D02*
X87450000Y-112600000D01*
X88600000Y-113950000D02*
X88600000Y-113750000D01*
D28*
G04 #@! TO.N,Net-(C3-Pad1)*
X90750000Y-111200000D02*
X90600000Y-111200000D01*
X89150000Y-109750000D02*
X89150000Y-109230000D01*
X90600000Y-111200000D02*
X89150000Y-109750000D01*
D29*
X91850000Y-112600000D02*
X91850000Y-112550000D01*
X90750000Y-111450000D02*
X90750000Y-111200000D01*
X91850000Y-112550000D02*
X90750000Y-111450000D01*
X91000000Y-113950000D02*
X91000000Y-113800000D01*
X91850000Y-112950000D02*
X91850000Y-112600000D01*
X91000000Y-113800000D02*
X91850000Y-112950000D01*
D28*
G04 #@! TO.N,Net-(C3-Pad2)*
X89650000Y-111200000D02*
X89650000Y-110950000D01*
X88650000Y-109950000D02*
X88650000Y-109230000D01*
X89650000Y-110950000D02*
X88650000Y-109950000D01*
D29*
X90350000Y-112600000D02*
X90350000Y-112350000D01*
X89650000Y-111650000D02*
X89650000Y-111200000D01*
X90350000Y-112350000D02*
X89650000Y-111650000D01*
X89800000Y-113950000D02*
X89800000Y-113600000D01*
X90350000Y-113050000D02*
X90350000Y-112600000D01*
X89800000Y-113600000D02*
X90350000Y-113050000D01*
D28*
G04 #@! TO.N,VDD*
X85900000Y-99200000D02*
X85900000Y-98400000D01*
X92800000Y-100450000D02*
X92250000Y-100450000D01*
X92900000Y-100350000D02*
X92800000Y-100450000D01*
X92900000Y-98400000D02*
X92900000Y-100350000D01*
D29*
X92490000Y-116840000D02*
X92450000Y-116800000D01*
X94660000Y-116840000D02*
X92490000Y-116840000D01*
X94700000Y-116800000D02*
X94660000Y-116840000D01*
X94740000Y-116840000D02*
X94700000Y-116800000D01*
X96520000Y-116840000D02*
X94740000Y-116840000D01*
X94100000Y-97200000D02*
X94100000Y-96200000D01*
X78740000Y-96520000D02*
X81280000Y-96520000D01*
X99060000Y-116840000D02*
X96520000Y-116840000D01*
D28*
G04 #@! TO.N,/PIO0_28*
X80000000Y-97800000D02*
X78740000Y-99060000D01*
X81600000Y-97800000D02*
X80000000Y-97800000D01*
X85900000Y-102100000D02*
X81600000Y-97800000D01*
X88100000Y-102100000D02*
X85900000Y-102100000D01*
X88650000Y-104130000D02*
X88650000Y-102650000D01*
X88650000Y-102650000D02*
X88100000Y-102100000D01*
G04 #@! TO.N,/PIO0_3*
X88750000Y-99150000D02*
X88750000Y-100450000D01*
X88150000Y-104130000D02*
X88150000Y-102950000D01*
X88150000Y-102950000D02*
X87800000Y-102600000D01*
X88750000Y-100450000D02*
X88750000Y-101050000D01*
X87800000Y-102600000D02*
X84820000Y-102600000D01*
X84820000Y-102600000D02*
X81280000Y-99060000D01*
G04 #@! TO.N,/PIO0_2*
X91150000Y-100450000D02*
X91150000Y-99150000D01*
X87650000Y-104130000D02*
X87650000Y-103350000D01*
X87650000Y-103350000D02*
X87500000Y-103200000D01*
X91150000Y-100450000D02*
X91150000Y-101050000D01*
X91150000Y-101050000D02*
X90700000Y-101500000D01*
X90700000Y-101500000D02*
X89100000Y-101500000D01*
X89100000Y-101500000D02*
X88900000Y-101700000D01*
X84800000Y-103200000D02*
X81900000Y-100300000D01*
X87500000Y-103200000D02*
X84800000Y-103200000D01*
X81900000Y-100300000D02*
X80040000Y-100300000D01*
X80040000Y-100300000D02*
X78740000Y-101600000D01*
G04 #@! TO.N,/PIO0_11*
X84930000Y-104130000D02*
X82400000Y-101600000D01*
X87150000Y-104130000D02*
X84930000Y-104130000D01*
X82400000Y-101600000D02*
X81280000Y-101600000D01*
G04 #@! TO.N,/PIO0_10*
X79980000Y-102900000D02*
X78740000Y-104140000D01*
X81900000Y-102900000D02*
X79980000Y-102900000D01*
X83930000Y-104930000D02*
X81900000Y-102900000D01*
X86350000Y-104930000D02*
X83930000Y-104930000D01*
G04 #@! TO.N,/PIO0_16*
X81340000Y-104140000D02*
X81280000Y-104140000D01*
X86350000Y-105430000D02*
X82630000Y-105430000D01*
X82630000Y-105430000D02*
X81340000Y-104140000D01*
G04 #@! TO.N,/PIO0_27*
X82530000Y-105930000D02*
X82000000Y-105400000D01*
X86350000Y-105930000D02*
X82530000Y-105930000D01*
X82000000Y-105400000D02*
X80020000Y-105400000D01*
X80020000Y-105400000D02*
X78740000Y-106680000D01*
G04 #@! TO.N,/PIO0_26*
X82550000Y-106430000D02*
X82300000Y-106680000D01*
X86350000Y-106430000D02*
X82550000Y-106430000D01*
X82300000Y-106680000D02*
X81280000Y-106680000D01*
G04 #@! TO.N,/PIO0_25*
X79960000Y-108000000D02*
X78740000Y-109220000D01*
X81600000Y-108000000D02*
X79960000Y-108000000D01*
X86350000Y-106930000D02*
X82670000Y-106930000D01*
X82670000Y-106930000D02*
X81600000Y-108000000D01*
G04 #@! TO.N,/PIO0_24*
X83070000Y-107430000D02*
X81280000Y-109220000D01*
X86350000Y-107430000D02*
X83070000Y-107430000D01*
G04 #@! TO.N,/PIO0_15*
X84170000Y-107930000D02*
X81600000Y-110500000D01*
X86350000Y-107930000D02*
X84170000Y-107930000D01*
X81600000Y-110500000D02*
X80000000Y-110500000D01*
X80000000Y-110500000D02*
X78740000Y-111760000D01*
G04 #@! TO.N,/PIO0_1*
X81280000Y-111420000D02*
X81280000Y-111760000D01*
X86350000Y-108430000D02*
X84270000Y-108430000D01*
X84270000Y-108430000D02*
X81280000Y-111420000D01*
G04 #@! TO.N,/PIO0_9*
X87150000Y-109230000D02*
X85500000Y-109230000D01*
X85450000Y-109280000D02*
X85500000Y-109230000D01*
X85750000Y-111600000D02*
X85750000Y-110750000D01*
X85450000Y-110450000D02*
X85450000Y-110050000D01*
X85450000Y-110050000D02*
X85450000Y-109280000D01*
X85750000Y-110750000D02*
X85450000Y-110450000D01*
X84070000Y-109230000D02*
X83000000Y-110300000D01*
X83000000Y-110300000D02*
X83000000Y-112000000D01*
X83000000Y-112000000D02*
X82000000Y-113000000D01*
X85500000Y-109230000D02*
X84070000Y-109230000D01*
X82000000Y-113000000D02*
X80040000Y-113000000D01*
X80040000Y-113000000D02*
X78740000Y-114300000D01*
G04 #@! TO.N,/PIO0_8*
X87650000Y-109230000D02*
X87650000Y-109900000D01*
X87650000Y-109900000D02*
X87300000Y-110250000D01*
X87300000Y-110250000D02*
X86950000Y-110250000D01*
X86950000Y-110250000D02*
X86700000Y-110500000D01*
X86700000Y-110500000D02*
X86700000Y-115750000D01*
X86700000Y-115750000D02*
X86350000Y-116100000D01*
X86350000Y-116100000D02*
X84500000Y-116100000D01*
X84050000Y-113800000D02*
X84050000Y-114450000D01*
X84350000Y-115350000D02*
X84350000Y-114950000D01*
X84050000Y-114650000D02*
X84050000Y-114450000D01*
X84350000Y-114950000D02*
X84050000Y-114650000D01*
X84350000Y-116050000D02*
X84400000Y-116100000D01*
X84350000Y-115350000D02*
X84350000Y-116050000D01*
X84500000Y-116100000D02*
X84400000Y-116100000D01*
X82200000Y-114300000D02*
X81280000Y-114300000D01*
X84400000Y-116100000D02*
X84000000Y-116100000D01*
X84000000Y-116100000D02*
X82200000Y-114300000D01*
G04 #@! TO.N,/PIO0_7*
X89650000Y-109750000D02*
X89650000Y-109230000D01*
X90327010Y-110427010D02*
X89650000Y-109750000D01*
X99060000Y-114300000D02*
X97760000Y-115600000D01*
X97760000Y-115600000D02*
X96300000Y-115600000D01*
X91127010Y-110427010D02*
X90327010Y-110427010D01*
X96300000Y-115600000D02*
X91127010Y-110427010D01*
G04 #@! TO.N,/PIO0_6*
X90400000Y-110000000D02*
X90150000Y-109750000D01*
X92000000Y-110000000D02*
X90400000Y-110000000D01*
X96520000Y-114300000D02*
X96300000Y-114300000D01*
X90150000Y-109750000D02*
X90150000Y-109230000D01*
X96300000Y-114300000D02*
X92000000Y-110000000D01*
G04 #@! TO.N,/PIO0_0*
X91020000Y-109600000D02*
X90650000Y-109230000D01*
X96100000Y-113000000D02*
X92700000Y-109600000D01*
X99060000Y-111760000D02*
X97820000Y-113000000D01*
X92700000Y-109600000D02*
X91020000Y-109600000D01*
X97820000Y-113000000D02*
X96100000Y-113000000D01*
G04 #@! TO.N,/PIO0_14*
X93330000Y-108430000D02*
X91450000Y-108430000D01*
X96520000Y-111760000D02*
X96520000Y-111620000D01*
X96520000Y-111620000D02*
X93330000Y-108430000D01*
G04 #@! TO.N,/PIO0_23*
X93530000Y-107930000D02*
X91450000Y-107930000D01*
X96100000Y-110500000D02*
X93530000Y-107930000D01*
X99060000Y-109220000D02*
X97780000Y-110500000D01*
X97780000Y-110500000D02*
X96100000Y-110500000D01*
G04 #@! TO.N,/PIO0_22*
X94230000Y-107430000D02*
X91450000Y-107430000D01*
X96520000Y-109220000D02*
X96020000Y-109220000D01*
X96020000Y-109220000D02*
X94230000Y-107430000D01*
G04 #@! TO.N,/PIO0_21*
X94330000Y-106930000D02*
X91450000Y-106930000D01*
X95300000Y-107900000D02*
X94330000Y-106930000D01*
X99060000Y-106680000D02*
X97840000Y-107900000D01*
X97840000Y-107900000D02*
X95300000Y-107900000D01*
G04 #@! TO.N,/PIO0_20*
X96270000Y-106430000D02*
X91450000Y-106430000D01*
X96520000Y-106680000D02*
X96270000Y-106430000D01*
G04 #@! TO.N,/PIO0_19*
X95070000Y-105930000D02*
X91450000Y-105930000D01*
X95600000Y-105400000D02*
X95070000Y-105930000D01*
X99060000Y-104140000D02*
X97800000Y-105400000D01*
X97800000Y-105400000D02*
X95600000Y-105400000D01*
G04 #@! TO.N,/PIO0_18*
X94770000Y-105430000D02*
X91450000Y-105430000D01*
X96520000Y-104140000D02*
X96060000Y-104140000D01*
X96060000Y-104140000D02*
X94770000Y-105430000D01*
G04 #@! TO.N,/PIO0_17*
X94070000Y-104930000D02*
X91450000Y-104930000D01*
X96100000Y-102900000D02*
X94070000Y-104930000D01*
X99060000Y-101600000D02*
X97760000Y-102900000D01*
X97760000Y-102900000D02*
X96100000Y-102900000D01*
G04 #@! TO.N,/PIO0_13*
X93970000Y-104130000D02*
X90650000Y-104130000D01*
X96520000Y-101600000D02*
X96500000Y-101600000D01*
X96500000Y-101600000D02*
X93970000Y-104130000D01*
G04 #@! TO.N,/PIO0_12*
X90300000Y-103200000D02*
X90150000Y-103350000D01*
X90150000Y-103350000D02*
X90150000Y-104130000D01*
X99060000Y-99060000D02*
X97820000Y-100300000D01*
X93200000Y-103200000D02*
X90300000Y-103200000D01*
X96100000Y-100300000D02*
X93200000Y-103200000D01*
X97820000Y-100300000D02*
X96100000Y-100300000D01*
G04 #@! TO.N,/PIO0_4*
X89150000Y-102950000D02*
X89150000Y-104130000D01*
X89500000Y-102600000D02*
X89150000Y-102950000D01*
X93000000Y-102600000D02*
X89500000Y-102600000D01*
X96520000Y-99060000D02*
X96520000Y-99080000D01*
X96520000Y-99080000D02*
X93000000Y-102600000D01*
G04 #@! TO.N,Net-(J3-Pad2)*
X92250000Y-98195000D02*
X92250000Y-99150000D01*
X91540000Y-97485000D02*
X92250000Y-98195000D01*
G04 #@! TO.N,Net-(J3-Pad4)*
X89850000Y-97905000D02*
X89850000Y-99150000D01*
X90270000Y-97485000D02*
X89850000Y-97905000D01*
G04 #@! TO.N,Net-(J3-Pad10)*
X86460000Y-97485000D02*
X86460000Y-97510000D01*
X87300000Y-98350000D02*
X87300000Y-99200000D01*
X86460000Y-97510000D02*
X87300000Y-98350000D01*
G04 #@! TO.N,/RESET*
X85900000Y-100300000D02*
X87300000Y-100300000D01*
X89650000Y-104130000D02*
X89650000Y-103150000D01*
X89650000Y-103150000D02*
X89700000Y-103100000D01*
X89000000Y-102400000D02*
X87300000Y-100700000D01*
X87300000Y-100700000D02*
X87300000Y-100300000D01*
D29*
G04 #@! TO.N,Net-(FB1-Pad2)*
X88600000Y-115050000D02*
X88600000Y-116100000D01*
X91000000Y-115050000D02*
X91000000Y-116100000D01*
X88600000Y-116700000D02*
X88600000Y-116100000D01*
X88740000Y-116840000D02*
X88600000Y-116700000D01*
X91000000Y-116100000D02*
X91000000Y-116840000D01*
X91000000Y-116840000D02*
X88740000Y-116840000D01*
X91510000Y-116840000D02*
X91550000Y-116800000D01*
X91000000Y-116840000D02*
X91510000Y-116840000D01*
G04 #@! TD*
G04 #@! TO.N,VSS*
G36*
X87840205Y-113980154D02*
X87840205Y-114250000D01*
X87879011Y-114445090D01*
X87915700Y-114500000D01*
X87879011Y-114554910D01*
X87840205Y-114750000D01*
X87840205Y-115350000D01*
X87879011Y-115545090D01*
X87900001Y-115576503D01*
X87900001Y-116031056D01*
X87900000Y-116031060D01*
X87900000Y-116631065D01*
X87886288Y-116700000D01*
X87900000Y-116768935D01*
X87900000Y-116768939D01*
X87940615Y-116973125D01*
X88095329Y-117204670D01*
X88153774Y-117243722D01*
X88196275Y-117286223D01*
X88235329Y-117344671D01*
X88466874Y-117499385D01*
X88671060Y-117540000D01*
X88671065Y-117540000D01*
X88740000Y-117553712D01*
X88808935Y-117540000D01*
X90931060Y-117540000D01*
X91000000Y-117553713D01*
X91068940Y-117540000D01*
X91108531Y-117540000D01*
X91154910Y-117570989D01*
X91350000Y-117609795D01*
X91750000Y-117609795D01*
X91945090Y-117570989D01*
X92000000Y-117534300D01*
X92054910Y-117570989D01*
X92250000Y-117609795D01*
X92650000Y-117609795D01*
X92845090Y-117570989D01*
X92891469Y-117540000D01*
X94461346Y-117540000D01*
X94545843Y-117575000D01*
X94854157Y-117575000D01*
X94938654Y-117540000D01*
X95593654Y-117540000D01*
X95868577Y-117814923D01*
X95892905Y-117825000D01*
X82078512Y-117825000D01*
X82094868Y-117731235D01*
X81280000Y-116916368D01*
X80465132Y-117731235D01*
X80481488Y-117825000D01*
X79538512Y-117825000D01*
X79554868Y-117731235D01*
X78740000Y-116916368D01*
X77925132Y-117731235D01*
X77941488Y-117825000D01*
X77675000Y-117825000D01*
X77675000Y-117624557D01*
X77848765Y-117654868D01*
X78663632Y-116840000D01*
X78816368Y-116840000D01*
X79631235Y-117654868D01*
X79891057Y-117609545D01*
X80010011Y-117322575D01*
X80128543Y-117608946D01*
X80128943Y-117609545D01*
X80388765Y-117654868D01*
X81203632Y-116840000D01*
X81356368Y-116840000D01*
X82171235Y-117654868D01*
X82431057Y-117609545D01*
X82637930Y-117110476D01*
X82638071Y-116570230D01*
X82431457Y-116071054D01*
X82431057Y-116070455D01*
X82171235Y-116025132D01*
X81356368Y-116840000D01*
X81203632Y-116840000D01*
X80388765Y-116025132D01*
X80128943Y-116070455D01*
X80009989Y-116357425D01*
X79891457Y-116071054D01*
X79891057Y-116070455D01*
X79631235Y-116025132D01*
X78816368Y-116840000D01*
X78663632Y-116840000D01*
X77848765Y-116025132D01*
X77675000Y-116055443D01*
X77675000Y-115948765D01*
X77925132Y-115948765D01*
X78740000Y-116763632D01*
X79554868Y-115948765D01*
X80465132Y-115948765D01*
X81280000Y-116763632D01*
X82094868Y-115948765D01*
X82049545Y-115688943D01*
X81550476Y-115482070D01*
X81010230Y-115481929D01*
X80511054Y-115688543D01*
X80510455Y-115688943D01*
X80465132Y-115948765D01*
X79554868Y-115948765D01*
X79509545Y-115688943D01*
X79010476Y-115482070D01*
X78470230Y-115481929D01*
X77971054Y-115688543D01*
X77970455Y-115688943D01*
X77925132Y-115948765D01*
X77675000Y-115948765D01*
X77675000Y-114733958D01*
X77765077Y-114951423D01*
X78088577Y-115274923D01*
X78511251Y-115450000D01*
X78968749Y-115450000D01*
X79391423Y-115274923D01*
X79714923Y-114951423D01*
X79890000Y-114528749D01*
X79890000Y-114071251D01*
X79868700Y-114019828D01*
X80288528Y-113600000D01*
X80353654Y-113600000D01*
X80305077Y-113648577D01*
X80130000Y-114071251D01*
X80130000Y-114528749D01*
X80305077Y-114951423D01*
X80628577Y-115274923D01*
X81051251Y-115450000D01*
X81508749Y-115450000D01*
X81931423Y-115274923D01*
X82128909Y-115077437D01*
X83533953Y-116482481D01*
X83567425Y-116532575D01*
X83765892Y-116665187D01*
X83940909Y-116700000D01*
X83940913Y-116700000D01*
X83999999Y-116711753D01*
X84059085Y-116700000D01*
X84340913Y-116700000D01*
X84400000Y-116711753D01*
X84459088Y-116700000D01*
X86290914Y-116700000D01*
X86350000Y-116711753D01*
X86409086Y-116700000D01*
X86409091Y-116700000D01*
X86584108Y-116665187D01*
X86782575Y-116532575D01*
X86816049Y-116482478D01*
X87082478Y-116216049D01*
X87132575Y-116182575D01*
X87221159Y-116050000D01*
X87265187Y-115984109D01*
X87288701Y-115865893D01*
X87300000Y-115809091D01*
X87300000Y-115809088D01*
X87311753Y-115750000D01*
X87300000Y-115690912D01*
X87300000Y-113484795D01*
X87344847Y-113484795D01*
X87840205Y-113980154D01*
X87840205Y-113980154D01*
G37*
X87840205Y-113980154D02*
X87840205Y-114250000D01*
X87879011Y-114445090D01*
X87915700Y-114500000D01*
X87879011Y-114554910D01*
X87840205Y-114750000D01*
X87840205Y-115350000D01*
X87879011Y-115545090D01*
X87900001Y-115576503D01*
X87900001Y-116031056D01*
X87900000Y-116031060D01*
X87900000Y-116631065D01*
X87886288Y-116700000D01*
X87900000Y-116768935D01*
X87900000Y-116768939D01*
X87940615Y-116973125D01*
X88095329Y-117204670D01*
X88153774Y-117243722D01*
X88196275Y-117286223D01*
X88235329Y-117344671D01*
X88466874Y-117499385D01*
X88671060Y-117540000D01*
X88671065Y-117540000D01*
X88740000Y-117553712D01*
X88808935Y-117540000D01*
X90931060Y-117540000D01*
X91000000Y-117553713D01*
X91068940Y-117540000D01*
X91108531Y-117540000D01*
X91154910Y-117570989D01*
X91350000Y-117609795D01*
X91750000Y-117609795D01*
X91945090Y-117570989D01*
X92000000Y-117534300D01*
X92054910Y-117570989D01*
X92250000Y-117609795D01*
X92650000Y-117609795D01*
X92845090Y-117570989D01*
X92891469Y-117540000D01*
X94461346Y-117540000D01*
X94545843Y-117575000D01*
X94854157Y-117575000D01*
X94938654Y-117540000D01*
X95593654Y-117540000D01*
X95868577Y-117814923D01*
X95892905Y-117825000D01*
X82078512Y-117825000D01*
X82094868Y-117731235D01*
X81280000Y-116916368D01*
X80465132Y-117731235D01*
X80481488Y-117825000D01*
X79538512Y-117825000D01*
X79554868Y-117731235D01*
X78740000Y-116916368D01*
X77925132Y-117731235D01*
X77941488Y-117825000D01*
X77675000Y-117825000D01*
X77675000Y-117624557D01*
X77848765Y-117654868D01*
X78663632Y-116840000D01*
X78816368Y-116840000D01*
X79631235Y-117654868D01*
X79891057Y-117609545D01*
X80010011Y-117322575D01*
X80128543Y-117608946D01*
X80128943Y-117609545D01*
X80388765Y-117654868D01*
X81203632Y-116840000D01*
X81356368Y-116840000D01*
X82171235Y-117654868D01*
X82431057Y-117609545D01*
X82637930Y-117110476D01*
X82638071Y-116570230D01*
X82431457Y-116071054D01*
X82431057Y-116070455D01*
X82171235Y-116025132D01*
X81356368Y-116840000D01*
X81203632Y-116840000D01*
X80388765Y-116025132D01*
X80128943Y-116070455D01*
X80009989Y-116357425D01*
X79891457Y-116071054D01*
X79891057Y-116070455D01*
X79631235Y-116025132D01*
X78816368Y-116840000D01*
X78663632Y-116840000D01*
X77848765Y-116025132D01*
X77675000Y-116055443D01*
X77675000Y-115948765D01*
X77925132Y-115948765D01*
X78740000Y-116763632D01*
X79554868Y-115948765D01*
X80465132Y-115948765D01*
X81280000Y-116763632D01*
X82094868Y-115948765D01*
X82049545Y-115688943D01*
X81550476Y-115482070D01*
X81010230Y-115481929D01*
X80511054Y-115688543D01*
X80510455Y-115688943D01*
X80465132Y-115948765D01*
X79554868Y-115948765D01*
X79509545Y-115688943D01*
X79010476Y-115482070D01*
X78470230Y-115481929D01*
X77971054Y-115688543D01*
X77970455Y-115688943D01*
X77925132Y-115948765D01*
X77675000Y-115948765D01*
X77675000Y-114733958D01*
X77765077Y-114951423D01*
X78088577Y-115274923D01*
X78511251Y-115450000D01*
X78968749Y-115450000D01*
X79391423Y-115274923D01*
X79714923Y-114951423D01*
X79890000Y-114528749D01*
X79890000Y-114071251D01*
X79868700Y-114019828D01*
X80288528Y-113600000D01*
X80353654Y-113600000D01*
X80305077Y-113648577D01*
X80130000Y-114071251D01*
X80130000Y-114528749D01*
X80305077Y-114951423D01*
X80628577Y-115274923D01*
X81051251Y-115450000D01*
X81508749Y-115450000D01*
X81931423Y-115274923D01*
X82128909Y-115077437D01*
X83533953Y-116482481D01*
X83567425Y-116532575D01*
X83765892Y-116665187D01*
X83940909Y-116700000D01*
X83940913Y-116700000D01*
X83999999Y-116711753D01*
X84059085Y-116700000D01*
X84340913Y-116700000D01*
X84400000Y-116711753D01*
X84459088Y-116700000D01*
X86290914Y-116700000D01*
X86350000Y-116711753D01*
X86409086Y-116700000D01*
X86409091Y-116700000D01*
X86584108Y-116665187D01*
X86782575Y-116532575D01*
X86816049Y-116482478D01*
X87082478Y-116216049D01*
X87132575Y-116182575D01*
X87221159Y-116050000D01*
X87265187Y-115984109D01*
X87288701Y-115865893D01*
X87300000Y-115809091D01*
X87300000Y-115809088D01*
X87311753Y-115750000D01*
X87300000Y-115690912D01*
X87300000Y-113484795D01*
X87344847Y-113484795D01*
X87840205Y-113980154D01*
G36*
X89854000Y-114996000D02*
X89874000Y-114996000D01*
X89874000Y-115104000D01*
X89854000Y-115104000D01*
X89854000Y-115881000D01*
X90031000Y-116058000D01*
X90190830Y-116058000D01*
X90300001Y-116012780D01*
X90300001Y-116031057D01*
X90300000Y-116031061D01*
X90300000Y-116140000D01*
X89300000Y-116140000D01*
X89300000Y-116012780D01*
X89409170Y-116058000D01*
X89569000Y-116058000D01*
X89746000Y-115881000D01*
X89746000Y-115104000D01*
X89726000Y-115104000D01*
X89726000Y-114996000D01*
X89746000Y-114996000D01*
X89746000Y-114976000D01*
X89854000Y-114976000D01*
X89854000Y-114996000D01*
X89854000Y-114996000D01*
G37*
X89854000Y-114996000D02*
X89874000Y-114996000D01*
X89874000Y-115104000D01*
X89854000Y-115104000D01*
X89854000Y-115881000D01*
X90031000Y-116058000D01*
X90190830Y-116058000D01*
X90300001Y-116012780D01*
X90300001Y-116031057D01*
X90300000Y-116031061D01*
X90300000Y-116140000D01*
X89300000Y-116140000D01*
X89300000Y-116012780D01*
X89409170Y-116058000D01*
X89569000Y-116058000D01*
X89746000Y-115881000D01*
X89746000Y-115104000D01*
X89726000Y-115104000D01*
X89726000Y-114996000D01*
X89746000Y-114996000D01*
X89746000Y-114976000D01*
X89854000Y-114976000D01*
X89854000Y-114996000D01*
G36*
X85504000Y-115296000D02*
X85524000Y-115296000D01*
X85524000Y-115404000D01*
X85504000Y-115404000D01*
X85504000Y-115424000D01*
X85396000Y-115424000D01*
X85396000Y-115404000D01*
X85376000Y-115404000D01*
X85376000Y-115296000D01*
X85396000Y-115296000D01*
X85396000Y-115276000D01*
X85504000Y-115276000D01*
X85504000Y-115296000D01*
X85504000Y-115296000D01*
G37*
X85504000Y-115296000D02*
X85524000Y-115296000D01*
X85524000Y-115404000D01*
X85504000Y-115404000D01*
X85504000Y-115424000D01*
X85396000Y-115424000D01*
X85396000Y-115404000D01*
X85376000Y-115404000D01*
X85376000Y-115296000D01*
X85396000Y-115296000D01*
X85396000Y-115276000D01*
X85504000Y-115276000D01*
X85504000Y-115296000D01*
G36*
X85804000Y-113746000D02*
X85824000Y-113746000D01*
X85824000Y-113854000D01*
X85804000Y-113854000D01*
X85804000Y-113874000D01*
X85696000Y-113874000D01*
X85696000Y-113854000D01*
X85676000Y-113854000D01*
X85676000Y-113746000D01*
X85696000Y-113746000D01*
X85696000Y-113726000D01*
X85804000Y-113726000D01*
X85804000Y-113746000D01*
X85804000Y-113746000D01*
G37*
X85804000Y-113746000D02*
X85824000Y-113746000D01*
X85824000Y-113854000D01*
X85804000Y-113854000D01*
X85804000Y-113874000D01*
X85696000Y-113874000D01*
X85696000Y-113854000D01*
X85676000Y-113854000D01*
X85676000Y-113746000D01*
X85696000Y-113746000D01*
X85696000Y-113726000D01*
X85804000Y-113726000D01*
X85804000Y-113746000D01*
G36*
X89004000Y-112546000D02*
X89024000Y-112546000D01*
X89024000Y-112654000D01*
X89004000Y-112654000D01*
X89004000Y-112674000D01*
X88896000Y-112674000D01*
X88896000Y-112654000D01*
X88876000Y-112654000D01*
X88876000Y-112546000D01*
X88896000Y-112546000D01*
X88896000Y-112526000D01*
X89004000Y-112526000D01*
X89004000Y-112546000D01*
X89004000Y-112546000D01*
G37*
X89004000Y-112546000D02*
X89024000Y-112546000D01*
X89024000Y-112654000D01*
X89004000Y-112654000D01*
X89004000Y-112674000D01*
X88896000Y-112674000D01*
X88896000Y-112654000D01*
X88876000Y-112654000D01*
X88876000Y-112546000D01*
X88896000Y-112546000D01*
X88896000Y-112526000D01*
X89004000Y-112526000D01*
X89004000Y-112546000D01*
G36*
X84104000Y-111546000D02*
X84124000Y-111546000D01*
X84124000Y-111654000D01*
X84104000Y-111654000D01*
X84104000Y-111674000D01*
X83996000Y-111674000D01*
X83996000Y-111654000D01*
X83976000Y-111654000D01*
X83976000Y-111546000D01*
X83996000Y-111546000D01*
X83996000Y-111526000D01*
X84104000Y-111526000D01*
X84104000Y-111546000D01*
X84104000Y-111546000D01*
G37*
X84104000Y-111546000D02*
X84124000Y-111546000D01*
X84124000Y-111654000D01*
X84104000Y-111654000D01*
X84104000Y-111674000D01*
X83996000Y-111674000D01*
X83996000Y-111654000D01*
X83976000Y-111654000D01*
X83976000Y-111546000D01*
X83996000Y-111546000D01*
X83996000Y-111526000D01*
X84104000Y-111526000D01*
X84104000Y-111546000D01*
G36*
X88504000Y-111146000D02*
X88524000Y-111146000D01*
X88524000Y-111254000D01*
X88504000Y-111254000D01*
X88504000Y-111274000D01*
X88396000Y-111274000D01*
X88396000Y-111254000D01*
X88376000Y-111254000D01*
X88376000Y-111146000D01*
X88396000Y-111146000D01*
X88396000Y-111126000D01*
X88504000Y-111126000D01*
X88504000Y-111146000D01*
X88504000Y-111146000D01*
G37*
X88504000Y-111146000D02*
X88524000Y-111146000D01*
X88524000Y-111254000D01*
X88504000Y-111254000D01*
X88504000Y-111274000D01*
X88396000Y-111274000D01*
X88396000Y-111254000D01*
X88376000Y-111254000D01*
X88376000Y-111146000D01*
X88396000Y-111146000D01*
X88396000Y-111126000D01*
X88504000Y-111126000D01*
X88504000Y-111146000D01*
G36*
X84404000Y-109996000D02*
X84424000Y-109996000D01*
X84424000Y-110104000D01*
X84404000Y-110104000D01*
X84404000Y-110124000D01*
X84296000Y-110124000D01*
X84296000Y-110104000D01*
X84276000Y-110104000D01*
X84276000Y-109996000D01*
X84296000Y-109996000D01*
X84296000Y-109976000D01*
X84404000Y-109976000D01*
X84404000Y-109996000D01*
X84404000Y-109996000D01*
G37*
X84404000Y-109996000D02*
X84424000Y-109996000D01*
X84424000Y-110104000D01*
X84404000Y-110104000D01*
X84404000Y-110124000D01*
X84296000Y-110124000D01*
X84296000Y-110104000D01*
X84276000Y-110104000D01*
X84276000Y-109996000D01*
X84296000Y-109996000D01*
X84296000Y-109976000D01*
X84404000Y-109976000D01*
X84404000Y-109996000D01*
G36*
X88954000Y-106626000D02*
X88974000Y-106626000D01*
X88974000Y-106734000D01*
X88954000Y-106734000D01*
X88954000Y-106754000D01*
X88846000Y-106754000D01*
X88846000Y-106734000D01*
X88826000Y-106734000D01*
X88826000Y-106626000D01*
X88846000Y-106626000D01*
X88846000Y-106606000D01*
X88954000Y-106606000D01*
X88954000Y-106626000D01*
X88954000Y-106626000D01*
G37*
X88954000Y-106626000D02*
X88974000Y-106626000D01*
X88974000Y-106734000D01*
X88954000Y-106734000D01*
X88954000Y-106754000D01*
X88846000Y-106754000D01*
X88846000Y-106734000D01*
X88826000Y-106734000D01*
X88826000Y-106626000D01*
X88846000Y-106626000D01*
X88846000Y-106606000D01*
X88954000Y-106606000D01*
X88954000Y-106626000D01*
G36*
X94154000Y-99146000D02*
X94174000Y-99146000D01*
X94174000Y-99254000D01*
X94154000Y-99254000D01*
X94154000Y-100231000D01*
X94331000Y-100408000D01*
X94343472Y-100408000D01*
X92751473Y-102000000D01*
X91031667Y-102000000D01*
X91132575Y-101932575D01*
X91166048Y-101882479D01*
X91532481Y-101516047D01*
X91582575Y-101482575D01*
X91715187Y-101284108D01*
X91730929Y-101204966D01*
X91754910Y-101220989D01*
X91950000Y-101259795D01*
X92550000Y-101259795D01*
X92745090Y-101220989D01*
X92910480Y-101110480D01*
X92964962Y-101028941D01*
X93034108Y-101015187D01*
X93232575Y-100882575D01*
X93266049Y-100832478D01*
X93282478Y-100816049D01*
X93332575Y-100782575D01*
X93465187Y-100584108D01*
X93500000Y-100409091D01*
X93500000Y-100409087D01*
X93500216Y-100408000D01*
X93869000Y-100408000D01*
X94046000Y-100231000D01*
X94046000Y-99254000D01*
X94026000Y-99254000D01*
X94026000Y-99146000D01*
X94046000Y-99146000D01*
X94046000Y-99126000D01*
X94154000Y-99126000D01*
X94154000Y-99146000D01*
X94154000Y-99146000D01*
G37*
X94154000Y-99146000D02*
X94174000Y-99146000D01*
X94174000Y-99254000D01*
X94154000Y-99254000D01*
X94154000Y-100231000D01*
X94331000Y-100408000D01*
X94343472Y-100408000D01*
X92751473Y-102000000D01*
X91031667Y-102000000D01*
X91132575Y-101932575D01*
X91166048Y-101882479D01*
X91532481Y-101516047D01*
X91582575Y-101482575D01*
X91715187Y-101284108D01*
X91730929Y-101204966D01*
X91754910Y-101220989D01*
X91950000Y-101259795D01*
X92550000Y-101259795D01*
X92745090Y-101220989D01*
X92910480Y-101110480D01*
X92964962Y-101028941D01*
X93034108Y-101015187D01*
X93232575Y-100882575D01*
X93266049Y-100832478D01*
X93282478Y-100816049D01*
X93332575Y-100782575D01*
X93465187Y-100584108D01*
X93500000Y-100409091D01*
X93500000Y-100409087D01*
X93500216Y-100408000D01*
X93869000Y-100408000D01*
X94046000Y-100231000D01*
X94046000Y-99254000D01*
X94026000Y-99254000D01*
X94026000Y-99146000D01*
X94046000Y-99146000D01*
X94046000Y-99126000D01*
X94154000Y-99126000D01*
X94154000Y-99146000D01*
G36*
X89904000Y-100396000D02*
X89924000Y-100396000D01*
X89924000Y-100504000D01*
X89904000Y-100504000D01*
X89904000Y-100524000D01*
X89796000Y-100524000D01*
X89796000Y-100504000D01*
X89776000Y-100504000D01*
X89776000Y-100396000D01*
X89796000Y-100396000D01*
X89796000Y-100376000D01*
X89904000Y-100376000D01*
X89904000Y-100396000D01*
X89904000Y-100396000D01*
G37*
X89904000Y-100396000D02*
X89924000Y-100396000D01*
X89924000Y-100504000D01*
X89904000Y-100504000D01*
X89904000Y-100524000D01*
X89796000Y-100524000D01*
X89796000Y-100504000D01*
X89776000Y-100504000D01*
X89776000Y-100396000D01*
X89796000Y-100396000D01*
X89796000Y-100376000D01*
X89904000Y-100376000D01*
X89904000Y-100396000D01*
G36*
X85643786Y-95475156D02*
X85767285Y-95598655D01*
X85535998Y-95610421D01*
X85374972Y-96010042D01*
X85379130Y-96440866D01*
X85535998Y-96819579D01*
X85767288Y-96831345D01*
X86383632Y-96215000D01*
X86369490Y-96200858D01*
X86445858Y-96124490D01*
X86460000Y-96138632D01*
X86474142Y-96124490D01*
X86550510Y-96200858D01*
X86536368Y-96215000D01*
X86550510Y-96229142D01*
X86474142Y-96305510D01*
X86460000Y-96291368D01*
X86039131Y-96712237D01*
X85964352Y-96743211D01*
X85718211Y-96989352D01*
X85585000Y-97310952D01*
X85585000Y-97659048D01*
X85633714Y-97776654D01*
X85516057Y-97825389D01*
X85325389Y-98016057D01*
X85222200Y-98265177D01*
X85222200Y-98534823D01*
X85230029Y-98553724D01*
X85129011Y-98704910D01*
X85090205Y-98900000D01*
X85090205Y-99500000D01*
X85129011Y-99695090D01*
X85165700Y-99750000D01*
X85129011Y-99804910D01*
X85090205Y-100000000D01*
X85090205Y-100441677D01*
X82066049Y-97417522D01*
X82043128Y-97383218D01*
X82254923Y-97171423D01*
X82430000Y-96748749D01*
X82430000Y-96291251D01*
X82254923Y-95868577D01*
X81931423Y-95545077D01*
X81762242Y-95475000D01*
X85643942Y-95475000D01*
X85643786Y-95475156D01*
X85643786Y-95475156D01*
G37*
X85643786Y-95475156D02*
X85767285Y-95598655D01*
X85535998Y-95610421D01*
X85374972Y-96010042D01*
X85379130Y-96440866D01*
X85535998Y-96819579D01*
X85767288Y-96831345D01*
X86383632Y-96215000D01*
X86369490Y-96200858D01*
X86445858Y-96124490D01*
X86460000Y-96138632D01*
X86474142Y-96124490D01*
X86550510Y-96200858D01*
X86536368Y-96215000D01*
X86550510Y-96229142D01*
X86474142Y-96305510D01*
X86460000Y-96291368D01*
X86039131Y-96712237D01*
X85964352Y-96743211D01*
X85718211Y-96989352D01*
X85585000Y-97310952D01*
X85585000Y-97659048D01*
X85633714Y-97776654D01*
X85516057Y-97825389D01*
X85325389Y-98016057D01*
X85222200Y-98265177D01*
X85222200Y-98534823D01*
X85230029Y-98553724D01*
X85129011Y-98704910D01*
X85090205Y-98900000D01*
X85090205Y-99500000D01*
X85129011Y-99695090D01*
X85165700Y-99750000D01*
X85129011Y-99804910D01*
X85090205Y-100000000D01*
X85090205Y-100441677D01*
X82066049Y-97417522D01*
X82043128Y-97383218D01*
X82254923Y-97171423D01*
X82430000Y-96748749D01*
X82430000Y-96291251D01*
X82254923Y-95868577D01*
X81931423Y-95545077D01*
X81762242Y-95475000D01*
X85643942Y-95475000D01*
X85643786Y-95475156D01*
G36*
X98245132Y-95628765D02*
X99060000Y-96443632D01*
X99874868Y-95628765D01*
X99848045Y-95475000D01*
X100125000Y-95475000D01*
X100125000Y-95735443D01*
X99951235Y-95705132D01*
X99136368Y-96520000D01*
X99951235Y-97334868D01*
X100125000Y-97304557D01*
X100125000Y-98626042D01*
X100034923Y-98408577D01*
X99711423Y-98085077D01*
X99288749Y-97910000D01*
X98831251Y-97910000D01*
X98408577Y-98085077D01*
X98085077Y-98408577D01*
X97910000Y-98831251D01*
X97910000Y-99288749D01*
X97931300Y-99340172D01*
X97571473Y-99700000D01*
X97499655Y-99700000D01*
X97670000Y-99288749D01*
X97670000Y-98831251D01*
X97494923Y-98408577D01*
X97171423Y-98085077D01*
X96748749Y-97910000D01*
X96291251Y-97910000D01*
X95868577Y-98085077D01*
X95545077Y-98408577D01*
X95433000Y-98679155D01*
X95433000Y-98559170D01*
X95325213Y-98298950D01*
X95126050Y-98099787D01*
X95064690Y-98074371D01*
X95085480Y-98060480D01*
X95195989Y-97895090D01*
X95234795Y-97700000D01*
X95234795Y-97486572D01*
X95269787Y-97571050D01*
X95468950Y-97770213D01*
X95729170Y-97878000D01*
X96289000Y-97878000D01*
X96466000Y-97701000D01*
X96466000Y-96574000D01*
X96446000Y-96574000D01*
X96446000Y-96466000D01*
X96466000Y-96466000D01*
X96466000Y-96446000D01*
X96574000Y-96446000D01*
X96574000Y-96466000D01*
X96594000Y-96466000D01*
X96594000Y-96574000D01*
X96574000Y-96574000D01*
X96574000Y-97701000D01*
X96751000Y-97878000D01*
X97310830Y-97878000D01*
X97571050Y-97770213D01*
X97770213Y-97571050D01*
X97836410Y-97411235D01*
X98245132Y-97411235D01*
X98290455Y-97671057D01*
X98789524Y-97877930D01*
X99329770Y-97878071D01*
X99828946Y-97671457D01*
X99829545Y-97671057D01*
X99874868Y-97411235D01*
X99060000Y-96596368D01*
X98245132Y-97411235D01*
X97836410Y-97411235D01*
X97878000Y-97310830D01*
X97878000Y-97215155D01*
X97908543Y-97288946D01*
X97908943Y-97289545D01*
X98168765Y-97334868D01*
X98983632Y-96520000D01*
X98168765Y-95705132D01*
X97908943Y-95750455D01*
X97878000Y-95825103D01*
X97878000Y-95729170D01*
X97772719Y-95475000D01*
X98271955Y-95475000D01*
X98245132Y-95628765D01*
X98245132Y-95628765D01*
G37*
X98245132Y-95628765D02*
X99060000Y-96443632D01*
X99874868Y-95628765D01*
X99848045Y-95475000D01*
X100125000Y-95475000D01*
X100125000Y-95735443D01*
X99951235Y-95705132D01*
X99136368Y-96520000D01*
X99951235Y-97334868D01*
X100125000Y-97304557D01*
X100125000Y-98626042D01*
X100034923Y-98408577D01*
X99711423Y-98085077D01*
X99288749Y-97910000D01*
X98831251Y-97910000D01*
X98408577Y-98085077D01*
X98085077Y-98408577D01*
X97910000Y-98831251D01*
X97910000Y-99288749D01*
X97931300Y-99340172D01*
X97571473Y-99700000D01*
X97499655Y-99700000D01*
X97670000Y-99288749D01*
X97670000Y-98831251D01*
X97494923Y-98408577D01*
X97171423Y-98085077D01*
X96748749Y-97910000D01*
X96291251Y-97910000D01*
X95868577Y-98085077D01*
X95545077Y-98408577D01*
X95433000Y-98679155D01*
X95433000Y-98559170D01*
X95325213Y-98298950D01*
X95126050Y-98099787D01*
X95064690Y-98074371D01*
X95085480Y-98060480D01*
X95195989Y-97895090D01*
X95234795Y-97700000D01*
X95234795Y-97486572D01*
X95269787Y-97571050D01*
X95468950Y-97770213D01*
X95729170Y-97878000D01*
X96289000Y-97878000D01*
X96466000Y-97701000D01*
X96466000Y-96574000D01*
X96446000Y-96574000D01*
X96446000Y-96466000D01*
X96466000Y-96466000D01*
X96466000Y-96446000D01*
X96574000Y-96446000D01*
X96574000Y-96466000D01*
X96594000Y-96466000D01*
X96594000Y-96574000D01*
X96574000Y-96574000D01*
X96574000Y-97701000D01*
X96751000Y-97878000D01*
X97310830Y-97878000D01*
X97571050Y-97770213D01*
X97770213Y-97571050D01*
X97836410Y-97411235D01*
X98245132Y-97411235D01*
X98290455Y-97671057D01*
X98789524Y-97877930D01*
X99329770Y-97878071D01*
X99828946Y-97671457D01*
X99829545Y-97671057D01*
X99874868Y-97411235D01*
X99060000Y-96596368D01*
X98245132Y-97411235D01*
X97836410Y-97411235D01*
X97878000Y-97310830D01*
X97878000Y-97215155D01*
X97908543Y-97288946D01*
X97908943Y-97289545D01*
X98168765Y-97334868D01*
X98983632Y-96520000D01*
X98168765Y-95705132D01*
X97908943Y-95750455D01*
X97878000Y-95825103D01*
X97878000Y-95729170D01*
X97772719Y-95475000D01*
X98271955Y-95475000D01*
X98245132Y-95628765D01*
G36*
X89090510Y-96200858D02*
X89076368Y-96215000D01*
X89090510Y-96229142D01*
X89014142Y-96305510D01*
X89000000Y-96291368D01*
X88985858Y-96305510D01*
X88909490Y-96229142D01*
X88923632Y-96215000D01*
X88909490Y-96200858D01*
X88985858Y-96124490D01*
X89000000Y-96138632D01*
X89014142Y-96124490D01*
X89090510Y-96200858D01*
X89090510Y-96200858D01*
G37*
X89090510Y-96200858D02*
X89076368Y-96215000D01*
X89090510Y-96229142D01*
X89014142Y-96305510D01*
X89000000Y-96291368D01*
X88985858Y-96305510D01*
X88909490Y-96229142D01*
X88923632Y-96215000D01*
X88909490Y-96200858D01*
X88985858Y-96124490D01*
X89000000Y-96138632D01*
X89014142Y-96124490D01*
X89090510Y-96200858D01*
G36*
X90360510Y-96200858D02*
X90346368Y-96215000D01*
X90360510Y-96229142D01*
X90284142Y-96305510D01*
X90270000Y-96291368D01*
X90255858Y-96305510D01*
X90179490Y-96229142D01*
X90193632Y-96215000D01*
X90179490Y-96200858D01*
X90255858Y-96124490D01*
X90270000Y-96138632D01*
X90284142Y-96124490D01*
X90360510Y-96200858D01*
X90360510Y-96200858D01*
G37*
X90360510Y-96200858D02*
X90346368Y-96215000D01*
X90360510Y-96229142D01*
X90284142Y-96305510D01*
X90270000Y-96291368D01*
X90255858Y-96305510D01*
X90179490Y-96229142D01*
X90193632Y-96215000D01*
X90179490Y-96200858D01*
X90255858Y-96124490D01*
X90270000Y-96138632D01*
X90284142Y-96124490D01*
X90360510Y-96200858D01*
G04 #@! TD*
M02*
