M48
;DRILL file {KiCad 5.0.1-33cea8e~68~ubuntu18.04.1} date za 24 nov 2018 10:27:29 CET
;FORMAT={-:-/ absolute / inch / decimal}
FMAT,2
INCH,TZ
T1C0.0100
T2C0.0157
T3C0.0236
T4C0.0394
%
G90
G05
M72
T1
X3.3425Y-4.437
X3.3701Y-3.874
X3.4449Y-4.063
X3.4567Y-4.0394
X3.4921Y-3.9843
X3.5079Y-4.0236
X3.5276Y-3.9961
X3.5315Y-4.0591
X3.5591Y-3.9311
X3.6575Y-3.874
T2
X3.2992Y-3.8661
X3.3346Y-3.7992
X3.4823Y-4.3524
X3.5354Y-4.5709
X3.689Y-3.9528
X3.7053Y-3.788
X3.7283Y-4.5984
T3
X3.5Y-4.2
X3.4039Y-3.788
X3.4039Y-3.838
X3.4539Y-3.788
X3.4539Y-3.838
X3.5039Y-3.788
X3.5039Y-3.838
X3.5539Y-3.788
X3.5539Y-3.838
X3.6039Y-3.788
X3.6039Y-3.838
T4
X3.1Y-3.8
X3.1Y-3.9
X3.1Y-4.
X3.1Y-4.1
X3.1Y-4.2
X3.1Y-4.3
X3.1Y-4.4
X3.1Y-4.5
X3.1Y-4.6
X3.2Y-3.8
X3.2Y-3.9
X3.2Y-4.
X3.2Y-4.1
X3.2Y-4.2
X3.2Y-4.3
X3.2Y-4.4
X3.2Y-4.5
X3.2Y-4.6
X3.8Y-3.8
X3.8Y-3.9
X3.8Y-4.
X3.8Y-4.1
X3.8Y-4.2
X3.8Y-4.3
X3.8Y-4.4
X3.8Y-4.5
X3.8Y-4.6
X3.9Y-3.8
X3.9Y-3.9
X3.9Y-4.
X3.9Y-4.1
X3.9Y-4.2
X3.9Y-4.3
X3.9Y-4.4
X3.9Y-4.5
X3.9Y-4.6
T0
M30
